<svg width="32" height="32" viewBox="0 0 32 32" fill="none" xmlns="http://www.w3.org/2000/svg">
<g id="pattern/1">
<path id="Union" d="M3.59766 16.3057C3.63524 17.8307 3.95364 19.3371 4.53809 20.748C5.16155 22.2531 6.0756 23.6205 7.22754 24.7725C8.37948 25.9244 9.74689 26.8384 11.252 27.4619C12.7571 28.0854 14.3708 28.4062 16 28.4062C17.6292 28.4062 19.2429 28.0854 20.748 27.4619C22.2531 26.8384 23.6205 25.9244 24.7725 24.7725C25.9244 23.6205 26.8384 22.2531 27.4619 20.748C28.0464 19.3371 28.3648 17.8307 28.4023 16.3057L28.4062 16C28.4062 14.3708 28.0854 12.7571 27.4619 11.252C26.8384 9.74689 25.9244 8.37948 24.7725 7.22754C23.6205 6.0756 22.2531 5.16155 20.748 4.53809C19.2429 3.91462 17.6292 3.59375 16 3.59375C14.3708 3.59375 12.7571 3.91462 11.252 4.53809C9.74689 5.16155 8.37948 6.0756 7.22754 7.22754C6.0756 8.37948 5.16155 9.74689 4.53809 11.252C3.91462 12.7571 3.59375 14.3708 3.59375 16L3.59766 16.3057ZM5.18262 16.5371C5.31543 19.2141 6.43759 21.754 8.3418 23.6582C10.373 25.6894 13.1275 26.8311 16 26.8311C18.8725 26.8311 21.627 25.6894 23.6582 23.6582C25.5624 21.754 26.6846 19.2141 26.8174 16.5371L26.8311 16C26.8311 13.1275 25.6894 10.373 23.6582 8.3418C21.627 6.31063 18.8725 5.16895 16 5.16895C13.1275 5.16895 10.373 6.31063 8.3418 8.3418C6.31063 10.373 5.16895 13.1275 5.16895 16L5.18262 16.5371ZM6.75586 16.459C6.86935 18.7466 7.82785 20.9177 9.45508 22.5449C11.1908 24.2806 13.5453 25.2559 16 25.2559C18.4547 25.2559 20.8092 24.2806 22.5449 22.5449C24.1722 20.9177 25.1306 18.7466 25.2441 16.459L25.2559 16C25.2559 13.5453 24.2806 11.1908 22.5449 9.45508C20.8092 7.71936 18.4547 6.74414 16 6.74414C13.5453 6.74414 11.1908 7.71936 9.45508 9.45508C7.71936 11.1908 6.74414 13.5453 6.74414 16L6.75586 16.459ZM8.3291 16.3809C8.42327 18.2791 9.21908 20.0804 10.5693 21.4307C12.0096 22.8709 13.9631 23.6797 16 23.6797C18.0369 23.6797 19.9904 22.8709 21.4307 21.4307C22.7809 20.0804 23.5767 18.2791 23.6709 16.3809L23.6797 16C23.6797 13.9631 22.8709 12.0096 21.4307 10.5693C19.9904 9.12906 18.0369 8.32031 16 8.32031C13.9631 8.32031 12.0096 9.12906 10.5693 10.5693C9.12906 12.0096 8.32031 13.9631 8.32031 16L8.3291 16.3809ZM9.90332 16.3027C9.97818 17.8116 10.6103 19.2431 11.6836 20.3164C12.8284 21.4612 14.381 22.1045 16 22.1045C17.619 22.1045 19.1716 21.4612 20.3164 20.3164C21.3897 19.2431 22.0218 17.8116 22.0967 16.3027L22.1045 16C22.1045 14.381 21.4612 12.8284 20.3164 11.6836C19.1716 10.5388 17.619 9.89551 16 9.89551C14.381 9.89551 12.8284 10.5388 11.6836 11.6836C10.5388 12.8284 9.89551 14.381 9.89551 16L9.90332 16.3027ZM11.4766 16.2246C11.5321 17.3441 12.0006 18.4068 12.7969 19.2031C13.6463 20.0525 14.7988 20.5293 16 20.5293C17.2012 20.5293 18.3537 20.0525 19.2031 19.2031C19.9994 18.4068 20.4679 17.3441 20.5234 16.2246L20.5293 16C20.5293 14.7988 20.0525 13.6463 19.2031 12.7969C18.3537 11.9475 17.2012 11.4707 16 11.4707C14.7988 11.4707 13.6463 11.9475 12.7969 12.7969C11.9475 13.6463 11.4707 14.7988 11.4707 16L11.4766 16.2246ZM20.917 16.2441C20.8566 17.4609 20.347 18.6159 19.4814 19.4814C18.5582 20.4047 17.3057 20.9229 16 20.9229C14.6943 20.9229 13.4418 20.4047 12.5186 19.4814C11.653 18.6159 11.1434 17.4609 11.083 16.2441L11.0771 16C11.0771 14.6943 11.5953 13.4418 12.5186 12.5186C13.4418 11.5953 14.6943 11.0771 16 11.0771C17.3057 11.0771 18.5582 11.5953 19.4814 12.5186C20.4047 13.4418 20.9229 14.6943 20.9229 16L20.917 16.2441ZM22.4902 16.3223C22.4105 17.9284 21.7372 19.4522 20.5947 20.5947C19.376 21.8134 17.7235 22.498 16 22.498C14.2765 22.498 12.624 21.8134 11.4053 20.5947C10.2628 19.4522 9.58946 17.9284 9.50977 16.3223L9.50195 16C9.50195 14.2765 10.1866 12.624 11.4053 11.4053C12.624 10.1866 14.2765 9.50195 16 9.50195C17.7235 9.50195 19.376 10.1866 20.5947 11.4053C21.8134 12.624 22.498 14.2765 22.498 16L22.4902 16.3223ZM24.0635 16.4004C23.9645 18.3959 23.1285 20.2895 21.709 21.709C20.1948 23.2231 18.1413 24.0742 16 24.0742C13.8587 24.0742 11.8052 23.2231 10.291 21.709C8.87152 20.2895 8.03553 18.3959 7.93652 16.4004L7.92578 16C7.92578 13.8587 8.77688 11.8052 10.291 10.291C11.8052 8.77688 13.8587 7.92578 16 7.92578C18.1413 7.92578 20.1948 8.77688 21.709 10.291C23.2231 11.8052 24.0742 13.8587 24.0742 16L24.0635 16.4004ZM25.6377 16.4785C25.5194 18.8634 24.5197 21.1268 22.8232 22.8232C21.0137 24.6328 18.5591 25.6494 16 25.6494C13.4409 25.6494 10.9863 24.6328 9.17676 22.8232C7.48028 21.1268 6.48062 18.8634 6.3623 16.4785L6.35059 16C6.35059 13.4409 7.36718 10.9863 9.17676 9.17676C10.9863 7.36718 13.4409 6.35059 16 6.35059C18.5591 6.35059 21.0137 7.36718 22.8232 9.17676C24.6328 10.9863 25.6494 13.4409 25.6494 16L25.6377 16.4785ZM27.2109 16.5566C27.0733 19.3309 25.91 21.9631 23.9365 23.9365C21.8315 26.0415 18.977 27.2246 16 27.2246C13.023 27.2246 10.1685 26.0415 8.06348 23.9365C6.09003 21.9631 4.9267 19.3309 4.78906 16.5566L4.77539 16C4.77539 13.023 5.95845 10.1685 8.06348 8.06348C10.1685 5.95845 13.023 4.77539 16 4.77539C18.977 4.77539 21.8315 5.95845 23.9365 8.06348C26.0415 10.1685 27.2246 13.023 27.2246 16L27.2109 16.5566ZM28.7959 16.3154C28.7571 17.8889 28.4282 19.4427 27.8252 20.8984C27.1819 22.4513 26.2393 23.8623 25.0508 25.0508C23.8623 26.2393 22.4513 27.1819 20.8984 27.8252C19.3455 28.4685 17.6809 28.7998 16 28.7998C14.3191 28.7998 12.6545 28.4685 11.1016 27.8252C9.54869 27.1819 8.13775 26.2393 6.94922 25.0508C5.76069 23.8623 4.81806 22.4513 4.1748 20.8984C3.57181 19.4427 3.24289 17.8889 3.2041 16.3154L3.2002 16C3.2002 14.3191 3.53155 12.6545 4.1748 11.1016C4.81806 9.54869 5.76069 8.13775 6.94922 6.94922C8.13775 5.76069 9.54869 4.81806 11.1016 4.1748C12.6545 3.53154 14.3191 3.2002 16 3.2002C17.6809 3.2002 19.3455 3.53154 20.8984 4.1748C22.4513 4.81806 23.8623 5.76069 25.0508 6.94922C26.2393 8.13775 27.1819 9.54869 27.8252 11.1016C28.4685 12.6545 28.7998 14.3191 28.7998 16L28.7959 16.3154Z" fill="white" fill-opacity="0.6"/>
</g>
</svg>
