<svg width="40" height="40" viewBox="0 0 40 40" fill="none" xmlns="http://www.w3.org/2000/svg">
<g id="pattern/3" filter="url(#filter0_f_174_2846)">
<path id="Union" d="M24.129 4.02739C24.2276 3.97067 24.3542 4.00493 24.4112 4.10356C25.42 5.85109 25.9296 7.74997 25.9844 9.63481C27.6442 8.73981 29.5436 8.23151 31.5616 8.23149C31.6756 8.23149 31.7686 8.3245 31.7686 8.43852C31.7686 10.4565 31.2603 12.3558 30.3653 14.0157C32.2501 14.0705 34.149 14.5801 35.8965 15.5889C35.9952 15.6459 36.0294 15.7724 35.9727 15.8711C34.9637 17.6188 33.5738 19.0101 31.9688 20C33.5738 20.99 34.9637 22.3813 35.9727 24.1289C36.0294 24.2276 35.9952 24.3542 35.8965 24.4112C34.149 25.42 32.2501 25.9296 30.3653 25.9844C31.2603 27.6442 31.7686 29.5436 31.7686 31.5616C31.7686 31.6756 31.6756 31.7686 31.5616 31.7686C29.5436 31.7686 27.6442 31.2603 25.9844 30.3653C25.9296 32.2501 25.42 34.149 24.4112 35.8965C24.3542 35.9952 24.2276 36.0294 24.129 35.9727C22.3813 34.9637 20.99 33.5738 20 31.9688C19.0101 33.5738 17.6188 34.9637 15.8711 35.9727C15.7724 36.0294 15.6459 35.9952 15.5889 35.8965C14.5801 34.149 14.0705 32.2501 14.0157 30.3653C12.3558 31.2603 10.4565 31.7686 8.43852 31.7686C8.3245 31.7686 8.23149 31.6756 8.23149 31.5616C8.2315 29.5436 8.73983 27.6442 9.63481 25.9844C7.74997 25.9296 5.8511 25.42 4.10356 24.4112C4.00493 24.3542 3.97067 24.2276 4.02739 24.1289C5.03639 22.3813 6.42627 20.99 8.03129 20C6.42627 19.0101 5.03639 17.6188 4.02739 15.8711C3.97066 15.7724 4.00493 15.6459 4.10356 15.5889C5.8511 14.5801 7.74997 14.0705 9.63481 14.0157C8.73982 12.3558 8.23152 10.4565 8.23149 8.43852C8.23149 8.3245 8.3245 8.23149 8.43852 8.23149C10.4565 8.23151 12.3558 8.73982 14.0157 9.63481C14.0705 7.74997 14.5801 5.85109 15.5889 4.10356C15.6459 4.00493 15.7724 3.97067 15.8711 4.02739C17.6188 5.03639 19.0101 6.42627 20 8.03129C20.99 6.42627 22.3813 5.03639 24.129 4.02739ZM18.2637 26.4786C17.2791 27.9688 15.9643 29.222 14.4239 30.1338C14.4417 31.9593 14.9014 33.8049 15.8448 35.5088C17.5135 34.5049 18.8337 33.1363 19.7618 31.5645C18.8836 30.0045 18.3713 28.2615 18.2637 26.4786ZM21.7364 26.4786C21.6288 28.2615 21.1165 30.0045 20.2383 31.5645C21.1664 33.1363 22.4866 34.5049 24.1553 35.5088C25.0986 33.8049 25.5584 31.9593 25.5762 30.1338C24.0357 29.222 22.721 27.9688 21.7364 26.4786ZM15.2569 24.7432C13.6592 25.5413 11.8943 25.9688 10.1045 25.9883C9.20728 27.5781 8.68156 29.4062 8.64653 31.3536C10.5938 31.3185 12.422 30.7928 14.0118 29.8956C14.0313 28.1058 14.4587 26.3409 15.2569 24.7432ZM24.7432 24.7432C25.5413 26.3409 25.9688 28.1058 25.9883 29.8956C27.5781 30.7928 29.4062 31.3185 31.3536 31.3536C31.3185 29.4062 30.7928 27.5781 29.8956 25.9883C28.1058 25.9688 26.3409 25.5413 24.7432 24.7432ZM20 22.2061C19.7534 23.5067 19.293 24.7318 18.6563 25.8428C18.6681 27.6904 19.1309 29.5119 20 31.1397C20.8692 29.5119 21.332 27.6904 21.3438 25.8428C20.7071 24.7318 20.2467 23.5067 20 22.2061ZM18.8965 21.9102C18.0326 22.9133 17.0211 23.7439 15.9141 24.3877C15.0005 25.9938 14.4908 27.8032 14.4297 29.6475C15.9963 28.6725 17.3081 27.3265 18.2422 25.7325C18.2463 24.4518 18.4598 23.1599 18.8965 21.9102ZM21.1036 21.9102C21.5402 23.1599 21.7537 24.4519 21.7579 25.7325C22.6919 27.3265 24.0038 28.6725 25.5704 29.6475C25.5093 27.8032 24.9996 25.9938 24.086 24.3877C22.979 23.7439 21.9675 22.9133 21.1036 21.9102ZM8.43559 20.2383C6.86378 21.1664 5.49522 22.4866 4.49126 24.1553C6.1952 25.0986 8.04082 25.5584 9.86626 25.5762C10.7781 24.0357 12.0313 22.721 13.5215 21.7364C11.7386 21.6288 9.99552 21.1165 8.43559 20.2383ZM31.5645 20.2383C30.0046 21.1165 28.2615 21.6288 26.4786 21.7364C27.9688 22.721 29.222 24.0357 30.1338 25.5762C31.9593 25.5584 33.8049 25.0986 35.5088 24.1553C34.5049 22.4866 33.1363 21.1664 31.5645 20.2383ZM18.0899 21.1036C16.8401 21.5403 15.5483 21.7538 14.2676 21.7579C12.6735 22.692 11.3276 24.0037 10.3526 25.5704C12.1969 25.5093 14.0063 24.9996 15.6123 24.086C16.2562 22.979 17.0868 21.9675 18.0899 21.1036ZM21.9102 21.1036C22.9133 21.9675 23.7439 22.979 24.3877 24.086C25.9938 24.9996 27.8032 25.5093 29.6475 25.5704C28.6725 24.0037 27.3266 22.692 25.7325 21.7579C24.4518 21.7538 23.16 21.5403 21.9102 21.1036ZM19.7579 20.9024C19.1454 22.1863 18.795 23.5375 18.6895 24.8897C19.2743 23.6658 19.6464 22.3206 19.7579 20.9024ZM20.2422 20.9024C20.3537 22.3205 20.7258 23.6659 21.3106 24.8897C21.2051 23.5375 20.8547 22.1863 20.2422 20.9024ZM19.3399 20.6602C18.1675 21.4658 17.1884 22.4609 16.4209 23.5791C17.5392 22.8116 18.5343 21.8326 19.3399 20.6602ZM20.6602 20.6602C21.4658 21.8326 22.4609 22.8116 23.5791 23.5791C22.8116 22.4609 21.8326 21.4658 20.6602 20.6602ZM14.1573 18.6563C12.3096 18.6681 10.4881 19.1309 8.8604 20C10.4881 20.8692 12.3097 21.332 14.1573 21.3438C15.2683 20.7071 16.4934 20.2467 17.794 20C16.4934 19.7534 15.2683 19.293 14.1573 18.6563ZM25.8428 18.6563C24.7318 19.293 23.5067 19.7534 22.2061 20C23.5067 20.2467 24.7318 20.7071 25.8428 21.3438C27.6904 21.332 29.512 20.8692 31.1397 20C29.5119 19.1309 27.6904 18.6681 25.8428 18.6563ZM19.0977 20.2422C17.6795 20.3537 16.3343 20.7258 15.1104 21.3106C16.4627 21.2051 17.8138 20.8547 19.0977 20.2422ZM20.9024 20.2422C22.1863 20.8547 23.5374 21.2051 24.8897 21.3106C23.6658 20.7258 22.3206 20.3537 20.9024 20.2422ZM9.86626 14.4239C8.04081 14.4417 6.19522 14.9014 4.49126 15.8448C5.49522 17.5135 6.86378 18.8336 8.43559 19.7618C9.99555 18.8836 11.7386 18.3713 13.5215 18.2637C12.0312 17.2791 10.7781 15.9643 9.86626 14.4239ZM30.1338 14.4239C29.222 15.9643 27.9688 17.2791 26.4786 18.2637C28.2615 18.3713 30.0045 18.8836 31.5645 19.7618C33.1363 18.8336 34.5049 17.5135 35.5088 15.8448C33.8049 14.9014 31.9593 14.4417 30.1338 14.4239ZM15.1104 18.6895C16.3342 19.2742 17.6796 19.6463 19.0977 19.7579C17.8138 19.1454 16.4626 18.795 15.1104 18.6895ZM24.8897 18.6895C23.5375 18.795 22.1863 19.1454 20.9024 19.7579C22.3205 19.6464 23.6659 19.2742 24.8897 18.6895ZM16.4209 16.4209C17.1884 17.5392 18.1675 18.5343 19.3399 19.3399C18.5343 18.1675 17.5392 17.1884 16.4209 16.4209ZM23.5791 16.4209C22.4609 17.1884 21.4658 18.1675 20.6602 19.3399C21.8326 18.5343 22.8117 17.5392 23.5791 16.4209ZM18.6895 15.1104C18.795 16.4627 19.1453 17.8138 19.7579 19.0977C19.6464 17.6795 19.2743 16.3343 18.6895 15.1104ZM21.3106 15.1104C20.7258 16.3343 20.3537 17.6795 20.2422 19.0977C20.8547 17.8138 21.2051 16.4626 21.3106 15.1104ZM10.3526 14.4297C11.3276 15.9963 12.6735 17.3081 14.2676 18.2422C15.5482 18.2463 16.8402 18.4598 18.0899 18.8965C17.0868 18.0326 16.2562 17.0211 15.6123 15.9141C14.0063 15.0005 12.1969 14.4908 10.3526 14.4297ZM29.6475 14.4297C27.8032 14.4908 25.9938 15.0005 24.3877 15.9141C23.7439 17.0211 22.9133 18.0326 21.9102 18.8965C23.1599 18.4598 24.4519 18.2463 25.7325 18.2422C27.3266 17.3081 28.6725 15.9963 29.6475 14.4297ZM14.4297 10.3526C14.4908 12.1969 15.0005 14.0063 15.9141 15.6123C17.0211 16.2562 18.0326 17.0868 18.8965 18.0899C18.4598 16.8401 18.2463 15.5483 18.2422 14.2676C17.3081 12.6735 15.9963 11.3276 14.4297 10.3526ZM25.5704 10.3526C24.0037 11.3276 22.6919 12.6735 21.7579 14.2676C21.7538 15.5483 21.5403 16.8401 21.1036 18.0899C21.9675 17.0868 22.979 16.2562 24.086 15.6123C24.9996 14.0063 25.5093 12.1969 25.5704 10.3526ZM20 8.86039C19.1309 10.4881 18.6681 12.3097 18.6563 14.1573C19.293 15.2683 19.7534 16.4934 20 17.794C20.2467 16.4934 20.7071 15.2683 21.3438 14.1573C21.332 12.3097 20.8692 10.4881 20 8.86039ZM8.64653 8.64653C8.68157 10.5939 9.20726 12.422 10.1045 14.0118C11.8943 14.0313 13.6592 14.4587 15.2569 15.2569C14.4587 13.6592 14.0313 11.8943 14.0118 10.1045C12.422 9.20727 10.5938 8.68156 8.64653 8.64653ZM31.3536 8.64653C29.4062 8.68156 27.5781 9.20726 25.9883 10.1045C25.9688 11.8943 25.5413 13.6592 24.7432 15.2569C26.3409 14.4587 28.1058 14.0313 29.8956 14.0118C30.7928 12.422 31.3185 10.5939 31.3536 8.64653ZM15.8448 4.49125C14.9015 6.19519 14.4417 8.04083 14.4239 9.86625C15.9643 10.7781 17.2791 12.0313 18.2637 13.5215C18.3713 11.7386 18.8836 9.99552 19.7618 8.43559C18.8337 6.86377 17.5135 5.49522 15.8448 4.49125ZM24.1553 4.49125C22.4866 5.49522 21.1664 6.86377 20.2383 8.43559C21.1165 9.99553 21.6288 11.7386 21.7364 13.5215C22.721 12.0313 24.0357 10.7781 25.5762 9.86625C25.5584 8.04082 25.0986 6.1952 24.1553 4.49125Z" fill="#DAF3CC"/>
</g>
<defs>
<filter id="filter0_f_174_2846" x="-0.666667" y="-0.666667" width="41.3333" height="41.3333" filterUnits="userSpaceOnUse" color-interpolation-filters="sRGB">
<feFlood flood-opacity="0" result="BackgroundImageFix"/>
<feBlend mode="normal" in="SourceGraphic" in2="BackgroundImageFix" result="shape"/>
<feGaussianBlur stdDeviation="0.333333" result="effect1_foregroundBlur_174_2846"/>
</filter>
</defs>
</svg>
