<svg width="40" height="40" viewBox="0 0 40 40" fill="none" xmlns="http://www.w3.org/2000/svg">
<g id="pattern/5" filter="url(#filter0_f_86_2009)">
<path id="Union" d="M22.2404 4.05778C22.4232 3.95531 22.6527 3.99189 22.7951 4.14567L24.3663 5.84586C24.4601 5.94736 24.5938 6.00059 24.7296 5.99137L24.7872 5.98356L27.0578 5.53043C27.2632 5.48959 27.47 5.59512 27.5578 5.78532L28.5265 7.88785C28.5925 8.03122 28.7282 8.13011 28.8849 8.1486L31.1837 8.42008C31.3917 8.44476 31.5555 8.60855 31.5802 8.81657L31.8517 11.1154C31.8702 11.2721 31.9691 11.4078 32.1124 11.4738L34.215 12.4425C34.4052 12.5303 34.5107 12.7371 34.4699 12.9425L34.0167 15.213L34.0089 15.2707C33.9997 15.4065 34.0529 15.5402 34.1544 15.6339L35.8546 17.2052C36.0084 17.3475 36.045 17.5771 35.9425 17.7599L34.8107 19.7785L34.7853 19.8312C34.7345 19.9575 34.7431 20.1013 34.8107 20.2218L35.9425 22.2404C36.045 22.4232 36.0084 22.6528 35.8546 22.7951L34.1544 24.3664L34.1134 24.4084C34.0263 24.5127 33.9899 24.6519 34.0167 24.7873L34.4699 27.0578C34.5107 27.2632 34.4052 27.47 34.215 27.5578L32.1124 28.5265L32.0607 28.5539C31.9454 28.6262 31.8679 28.7477 31.8517 28.8849L31.5802 31.1838L31.5646 31.2589C31.514 31.4303 31.3659 31.5586 31.1837 31.5802L28.8849 31.8517L28.8273 31.8625C28.6953 31.8957 28.5843 31.987 28.5265 32.1125L27.5578 34.215L27.5197 34.2824C27.433 34.4083 27.2877 34.4825 27.1349 34.4787L27.0578 34.4699L24.7872 34.0168C24.6326 33.9861 24.4734 34.0386 24.3663 34.1545L22.7951 35.8547L22.7384 35.9064C22.6169 35.9997 22.4561 36.0249 22.3117 35.9738L22.2404 35.9425L20.2218 34.8107C20.0841 34.7335 19.9161 34.7335 19.7785 34.8107L17.7599 35.9425L17.6886 35.9738C17.5442 36.0249 17.3833 35.9997 17.2619 35.9064L17.2052 35.8547L15.6339 34.1545C15.5269 34.0386 15.3677 33.9861 15.213 34.0168L12.9425 34.4699L12.8654 34.4787C12.7126 34.4825 12.5673 34.4083 12.4806 34.2824L12.4425 34.215L11.4738 32.1125C11.416 31.987 11.305 31.8957 11.173 31.8625L11.1154 31.8517L8.81654 31.5802C8.63437 31.5586 8.48632 31.4303 8.43568 31.2589L8.42006 31.1838L8.14858 28.8849C8.13239 28.7477 8.05486 28.6262 7.93959 28.5539L7.88783 28.5265L5.78529 27.5578C5.61895 27.481 5.51711 27.3132 5.52162 27.1349L5.53041 27.0578L5.98354 24.7873C6.01039 24.6519 5.97395 24.5127 5.88686 24.4084L5.84584 24.3664L4.14565 22.7951C4.01114 22.6706 3.96698 22.4799 4.02651 22.3117L4.05776 22.2404L5.18959 20.2218C5.25717 20.1013 5.26575 19.9575 5.21498 19.8312L5.18959 19.7785L4.05776 17.7599C3.96799 17.5998 3.985 17.4036 4.09389 17.2619L4.14565 17.2052L5.84584 15.6339C5.94734 15.5402 6.00057 15.4065 5.99135 15.2707L5.98354 15.213L5.53041 12.9425C5.49468 12.7628 5.57092 12.5818 5.71791 12.4806L5.78529 12.4425L7.88783 11.4738C8.01334 11.416 8.10464 11.305 8.13783 11.173L8.14858 11.1154L8.42006 8.81657C8.44167 8.63439 8.57003 8.48634 8.74135 8.43571L8.81654 8.42008L11.1154 8.1486C11.2526 8.13241 11.3741 8.05488 11.4464 7.93961L11.4738 7.88785L12.4425 5.78532C12.5303 5.59512 12.7371 5.48959 12.9425 5.53043L15.213 5.98356C15.3483 6.01041 15.4876 5.97397 15.5919 5.88688L15.6339 5.84586L17.2052 4.14567C17.3475 3.99189 17.5771 3.95531 17.7599 4.05778L19.7785 5.18961C19.899 5.25719 20.0428 5.26577 20.1691 5.215L20.2218 5.18961L22.2404 4.05778ZM17.6613 4.23258C17.5846 4.1897 17.4934 4.19024 17.4191 4.22965L17.3517 4.28141L15.7814 5.9816C15.6462 6.12793 15.4527 6.20393 15.257 6.19059L15.174 6.17887L12.9035 5.72672C12.8173 5.7096 12.7306 5.73854 12.672 5.79899L12.6242 5.8693L11.6554 7.97184C11.5721 8.15263 11.412 8.28438 11.2218 8.33219L11.1388 8.34684L8.83998 8.61832C8.753 8.62867 8.67981 8.68275 8.64272 8.75797L8.6183 8.84L8.34682 11.1388C8.3235 11.3365 8.21202 11.5111 8.04604 11.6154L7.97182 11.6554L5.86928 12.6242C5.76294 12.6732 5.70389 12.7886 5.7267 12.9035L6.17885 15.174L6.19057 15.257C6.202 15.4248 6.14796 15.5908 6.04018 15.7199L5.98158 15.7814L4.28139 17.3517C4.19545 17.4312 4.17545 17.5592 4.23256 17.6613L5.3644 19.6808L5.40053 19.757C5.46315 19.913 5.46315 20.0873 5.40053 20.2433L5.3644 20.3195L4.23256 22.339C4.17545 22.4412 4.19545 22.5691 4.28139 22.6486L5.98158 24.2189L6.04018 24.2804C6.14796 24.4095 6.202 24.5755 6.19057 24.7433L6.17885 24.8263L5.7267 27.0968C5.7039 27.2117 5.76294 27.3271 5.86928 27.3761L7.97182 28.3449L8.04604 28.3849C8.21202 28.4892 8.3235 28.6638 8.34682 28.8615L8.6183 31.1603L8.64272 31.2423C8.67981 31.3176 8.753 31.3716 8.83998 31.382L11.1388 31.6535L11.2218 31.6681C11.412 31.7159 11.5721 31.8477 11.6554 32.0285L12.6242 34.131L12.672 34.2013C12.7306 34.2618 12.8173 34.2907 12.9035 34.2736L15.174 33.8214L15.257 33.8097C15.4527 33.7964 15.6462 33.8724 15.7814 34.0187L17.3517 35.7189L17.4191 35.7707C17.4934 35.8101 17.5846 35.8106 17.6613 35.7677L19.6808 34.6359L19.757 34.5998C19.9389 34.5267 20.1458 34.5386 20.3195 34.6359L22.339 35.7677L22.4191 35.7961C22.5019 35.8105 22.5889 35.7834 22.6486 35.7189L24.2189 34.0187L24.2804 33.9601C24.4308 33.8345 24.6312 33.7826 24.8263 33.8214L27.0968 34.2736L27.1818 34.2755C27.2651 34.2637 27.3393 34.2108 27.3761 34.131L28.3449 32.0285L28.3849 31.9543C28.4892 31.7883 28.6638 31.6768 28.8615 31.6535L31.1603 31.382L31.2423 31.3576C31.3176 31.3205 31.3716 31.2473 31.382 31.1603L31.6535 28.8615L31.6681 28.7785C31.7159 28.5883 31.8477 28.4282 32.0285 28.3449L34.131 27.3761L34.2013 27.3283C34.2417 27.2892 34.2676 27.2374 34.2755 27.1818L34.2736 27.0968L33.8214 24.8263C33.7771 24.6033 33.8517 24.3732 34.0187 24.2189L35.7189 22.6486L35.7706 22.5812C35.797 22.5316 35.8057 22.4744 35.796 22.4191L35.7677 22.339L34.6359 20.3195C34.5247 20.1211 34.5247 19.8792 34.6359 19.6808L35.7677 17.6613L35.796 17.5812C35.8057 17.5259 35.797 17.4687 35.7706 17.4191L35.7189 17.3517L34.0187 15.7814C33.8517 15.6271 33.7771 15.397 33.8214 15.174L34.2736 12.9035L34.2755 12.8185C34.2676 12.7629 34.2417 12.7111 34.2013 12.672L34.131 12.6242L32.0285 11.6554C31.8477 11.5721 31.7159 11.412 31.6681 11.2218L31.6535 11.1388L31.382 8.84C31.3716 8.75302 31.3176 8.67983 31.2423 8.64274L31.1603 8.61832L28.8615 8.34684C28.6638 8.32352 28.4892 8.21204 28.3849 8.04606L28.3449 7.97184L27.3761 5.8693C27.3393 5.78947 27.2651 5.73663 27.1818 5.72477L27.0968 5.72672L24.8263 6.17887C24.6312 6.21768 24.4308 6.16577 24.2804 6.0402L24.2189 5.9816L22.6486 4.28141C22.5889 4.21692 22.5019 4.18984 22.4191 4.20426L22.339 4.23258L20.3195 5.36442C20.1458 5.4617 19.9389 5.47357 19.757 5.40055L19.6808 5.36442L17.6613 4.23258ZM21.9913 5.82926C22.1538 5.73821 22.358 5.77082 22.4845 5.90739L23.88 7.41813C23.9512 7.4952 24.0494 7.54059 24.1515 7.54703L24.255 7.5402L26.2726 7.13785C26.4552 7.10146 26.6398 7.19548 26.7179 7.36442L27.5783 9.23356C27.6369 9.36082 27.7585 9.44844 27.8976 9.465L29.9406 9.70621C30.1254 9.72808 30.271 9.87404 30.2931 10.0588L30.5343 12.1027C30.5508 12.2416 30.6388 12.3623 30.7658 12.4211L32.6349 13.2814C32.8041 13.3593 32.8977 13.544 32.8615 13.7267L32.4591 15.7443L32.4523 15.8478C32.4586 15.9499 32.5043 16.048 32.5812 16.1193L34.0919 17.5148C34.2288 17.6412 34.2611 17.8454 34.1701 18.008L33.1642 19.8029L33.1261 19.8986C33.1004 19.9977 33.1131 20.1048 33.1642 20.1964L34.1701 21.9914C34.2612 22.154 34.2289 22.3581 34.0919 22.4845L32.5812 23.88L32.5148 23.9601C32.4598 24.0464 32.4388 24.1521 32.4591 24.255L32.8615 26.2726C32.8979 26.4554 32.8042 26.64 32.6349 26.7179L30.7658 27.5783L30.6779 27.633C30.5988 27.6981 30.5467 27.7933 30.5343 27.8976L30.2931 29.9406L30.2794 30.008C30.2343 30.1601 30.1024 30.274 29.9406 30.2931L27.8976 30.5343L27.797 30.5597C27.7017 30.5973 27.6223 30.6704 27.5783 30.7658L26.7179 32.6349L26.6837 32.6945C26.6066 32.8069 26.4772 32.873 26.341 32.8693L26.2726 32.8615L24.255 32.4591C24.1177 32.432 23.9751 32.4783 23.88 32.5812L22.4845 34.092L22.4337 34.1388C22.3257 34.2217 22.1822 34.2449 22.0538 34.1994L21.9913 34.1701L20.1964 33.1642C20.0743 33.0961 19.9249 33.0959 19.8029 33.1642L18.008 34.1701L17.9455 34.1994C17.8171 34.2447 17.6735 34.2217 17.5656 34.1388L17.5148 34.092L16.1193 32.5812C16.0241 32.4785 15.8817 32.4318 15.7443 32.4591L13.7267 32.8615L13.6583 32.8693C13.5222 32.8728 13.3926 32.8068 13.3156 32.6945L13.2814 32.6349L12.421 30.7658C12.3769 30.6705 12.2977 30.5972 12.2023 30.5597L12.1027 30.5343L10.0587 30.2931C9.8971 30.2738 9.76492 30.16 9.71986 30.008L9.70619 29.9406L9.46498 27.8976C9.45255 27.7933 9.40049 27.6981 9.32143 27.633L9.23354 27.5783L7.3644 26.7179C7.21646 26.6495 7.1257 26.4997 7.13002 26.341L7.13783 26.2726L7.54018 24.255C7.56057 24.152 7.53955 24.0465 7.48451 23.9601L7.41811 23.88L5.90736 22.4845C5.78778 22.3738 5.74777 22.2035 5.80092 22.0539L5.82924 21.9914L6.8351 20.1964C6.88638 20.1047 6.89894 19.9978 6.87318 19.8986L6.8351 19.8029L5.82924 18.008C5.74978 17.8658 5.76388 17.6914 5.86049 17.5656L5.90736 17.5148L7.41811 16.1193C7.4953 16.048 7.54069 15.9501 7.54701 15.8478L7.54018 15.7443L7.13783 13.7267C7.10619 13.5669 7.17406 13.4054 7.30483 13.3156L7.3644 13.2814L9.23354 12.4211C9.32913 12.377 9.40205 12.2979 9.43959 12.2023L9.46498 12.1027L9.70619 10.0588C9.72551 9.89722 9.83951 9.76505 9.99135 9.71989L10.0587 9.70621L12.1027 9.465C12.207 9.4526 12.3012 9.4005 12.3663 9.32145L12.421 9.23356L13.2814 7.36442C13.3594 7.19541 13.5441 7.10168 13.7267 7.13785L15.7443 7.5402C15.8474 7.56073 15.9527 7.53958 16.0392 7.48453L16.1193 7.41813L17.5148 5.90739C17.6411 5.77062 17.8454 5.73846 18.008 5.82926L19.8029 6.83512C19.8946 6.88645 20.0015 6.89885 20.1007 6.87321L20.1964 6.83512L21.9913 5.82926ZM17.9103 6.00309C17.849 5.96894 17.7754 5.96966 17.716 6.00114L17.6622 6.04313L16.2658 7.55387C16.1411 7.68885 15.9629 7.75847 15.7824 7.74625L15.7052 7.73649L13.6876 7.33414C13.6188 7.32059 13.5489 7.34359 13.5021 7.39176L13.463 7.4484L12.6027 9.31754C12.5258 9.48426 12.3777 9.60544 12.2023 9.64957L12.1261 9.66324L10.0822 9.90446C10.0126 9.91285 9.95362 9.95654 9.92397 10.0168L9.90443 10.0822L9.66322 12.1261C9.6416 12.3083 9.5389 12.4694 9.38588 12.5656L9.31752 12.6027L7.44838 13.463C7.36336 13.5023 7.31605 13.5958 7.33412 13.6877L7.73647 15.7052L7.74623 15.7824C7.75671 15.9372 7.70699 16.0901 7.60756 16.2091L7.55385 16.2658L6.04311 17.6623C5.9743 17.7258 5.95754 17.8285 6.00307 17.9103L7.0099 19.7052L7.04311 19.7755C7.1007 19.9193 7.10061 20.08 7.04311 20.2238L7.0099 20.2941L6.00307 22.089C5.95727 22.1707 5.97453 22.2733 6.04311 22.3371L7.55385 23.7336L7.60756 23.7902C7.70695 23.9092 7.75656 24.0623 7.74623 24.217L7.73647 24.2941L7.33412 26.3117C7.31581 26.4036 7.36342 26.4969 7.44838 26.5363L9.31752 27.3966L9.38588 27.4338C9.53892 27.5299 9.64158 27.692 9.66322 27.8742L9.90443 29.9172L9.92397 29.9826C9.95356 30.0429 10.0125 30.0864 10.0822 30.0949L12.1261 30.3361L12.2023 30.3498C12.3777 30.3939 12.5257 30.5161 12.6027 30.6828L13.463 32.5509L13.5021 32.6076C13.549 32.6559 13.6187 32.6788 13.6876 32.6652L15.7052 32.2629L15.7824 32.2531C15.9628 32.2409 16.1411 32.3108 16.2658 32.4455L17.6622 33.9562L17.716 33.9982C17.7755 34.0298 17.8489 34.0306 17.9103 33.9963L19.7052 32.9904L19.7755 32.9562C19.9432 32.889 20.134 32.9009 20.2941 32.9904L22.089 33.9963L22.1535 34.0187C22.2199 34.0304 22.2892 34.008 22.3371 33.9562L23.7335 32.4455L23.7902 32.3918C23.9289 32.2759 24.1141 32.2272 24.2941 32.2629L26.3117 32.6652L26.38 32.6672C26.4469 32.6577 26.5068 32.615 26.5363 32.5509L27.3966 30.6828L27.4337 30.6134C27.53 30.4605 27.692 30.3577 27.8742 30.3361L29.9171 30.0949L29.9826 30.0754C30.043 30.0457 30.0866 29.987 30.0949 29.9172L30.3361 27.8742L30.3497 27.797C30.394 27.6217 30.516 27.4735 30.6828 27.3966L32.5509 26.5363L32.6076 26.4972C32.6398 26.4659 32.6608 26.4246 32.6671 26.38L32.6652 26.3117L32.2628 24.2941C32.2221 24.0884 32.2914 23.8758 32.4455 23.7336L33.9562 22.3371L33.9982 22.2834C34.0192 22.2436 34.0264 22.1978 34.0187 22.1535L33.9962 22.089L32.9904 20.2941C32.8881 20.1111 32.8879 19.8881 32.9904 19.7052L33.9962 17.9103L34.0187 17.8459C34.0263 17.8016 34.0192 17.7557 33.9982 17.716L33.9562 17.6623L32.4455 16.2658C32.2916 16.1234 32.2219 15.9109 32.2628 15.7052L32.6652 13.6877L32.6671 13.6193C32.6607 13.5749 32.6397 13.5333 32.6076 13.5021L32.5509 13.463L30.6828 12.6027C30.5161 12.5258 30.3939 12.3777 30.3497 12.2023L30.3361 12.1261L30.0949 10.0822C30.0864 10.0126 30.0429 9.95357 29.9826 9.92399L29.9171 9.90446L27.8742 9.66324C27.6919 9.64162 27.5299 9.53895 27.4337 9.3859L27.3966 9.31754L26.5363 7.4484C26.5067 7.38461 26.4467 7.34159 26.38 7.33219L26.3117 7.33414L24.2941 7.73649C24.114 7.77221 23.929 7.72351 23.7902 7.60758L23.7335 7.55387L22.3371 6.04313C22.2892 5.99169 22.2197 5.96903 22.1535 5.98063L22.089 6.00309L20.2941 7.00992C20.134 7.09939 19.9432 7.11032 19.7755 7.04313L19.7052 7.00992L17.9103 6.00309ZM21.7433 7.60074C21.8854 7.5213 22.0634 7.5496 22.174 7.6691L23.3956 8.99137C23.4582 9.05903 23.5442 9.09931 23.6339 9.10465L23.7238 9.09782L25.4894 8.74625C25.6492 8.71449 25.8098 8.79654 25.8781 8.94449L26.632 10.5802C26.6834 10.6913 26.7887 10.768 26.9103 10.7824L28.6984 10.9933C28.8602 11.0125 28.9878 11.1401 29.007 11.3019L29.2179 13.09C29.2323 13.2119 29.3096 13.318 29.421 13.3693L31.0558 14.1222C31.2038 14.1905 31.2858 14.3511 31.254 14.5109L30.9025 16.2765L30.8966 16.3673C30.9022 16.4568 30.9414 16.5423 31.0089 16.6047L32.3312 17.8263C32.4509 17.937 32.4793 18.1158 32.3996 18.258L31.5197 19.8283L31.4855 19.9123C31.4631 19.9991 31.4747 20.0928 31.5197 20.173L32.3996 21.7433C32.479 21.8855 32.4508 22.0634 32.3312 22.174L31.0089 23.3957L30.9503 23.465C30.902 23.5407 30.8845 23.6335 30.9025 23.7238L31.254 25.4894C31.2858 25.6493 31.2038 25.8098 31.0558 25.8781L29.421 26.632L29.3439 26.6798C29.2747 26.7369 29.2287 26.819 29.2179 26.9103L29.007 28.6984L28.9953 28.757C28.9559 28.8903 28.8402 28.9902 28.6984 29.007L26.9103 29.2179L26.8224 29.2404C26.739 29.2733 26.6704 29.3375 26.632 29.4211L25.8781 31.0558L25.8488 31.1086C25.7813 31.2066 25.668 31.264 25.549 31.2609L25.4894 31.2541L23.7238 30.9025C23.6034 30.8785 23.4789 30.9188 23.3956 31.0089L22.174 32.3312L22.13 32.3722C22.0357 32.4446 21.9101 32.4645 21.798 32.425L21.7433 32.3996L20.173 31.5197C20.066 31.4597 19.9353 31.4598 19.8283 31.5197L18.258 32.3996L18.2023 32.425C18.0902 32.4645 17.9646 32.4446 17.8703 32.3722L17.8263 32.3312L16.6046 31.0089C16.5214 30.9188 16.3968 30.8786 16.2765 30.9025L14.5109 31.2541L14.4513 31.2609C14.3323 31.264 14.219 31.2066 14.1515 31.1086L14.1222 31.0558L13.3693 29.4211C13.3308 29.3375 13.2613 29.2733 13.1779 29.2404L13.09 29.2179L11.3019 29.007C11.1602 28.9902 11.0444 28.8903 11.005 28.757L10.9933 28.6984L10.7824 26.9103C10.7715 26.8191 10.7255 26.7369 10.6564 26.6798L10.5802 26.632L8.94447 25.8781C8.81492 25.8183 8.7357 25.6879 8.7394 25.549L8.74623 25.4894L9.09779 23.7238C9.11579 23.6335 9.09821 23.5407 9.04994 23.465L8.99135 23.3957L7.66908 22.174C7.56444 22.0771 7.52997 21.9289 7.57631 21.798L7.60072 21.7433L8.48158 20.173C8.52651 20.0928 8.53713 19.9991 8.51479 19.9123L8.48158 19.8283L7.60072 18.258C7.53095 18.1335 7.5435 17.9805 7.62807 17.8703L7.66908 17.8263L8.99135 16.6047C9.05885 16.5423 9.09909 16.4568 9.10463 16.3673L9.09779 16.2765L8.74623 14.5109C8.71847 14.3711 8.77741 14.2302 8.89174 14.1515L8.94447 14.1222L10.5802 13.3693C10.6636 13.3308 10.727 13.2612 10.7599 13.1779L10.7824 13.09L10.9933 11.3019C11.0101 11.1602 11.11 11.0444 11.2433 11.005L11.3019 10.9933L13.09 10.7824C13.1813 10.7716 13.2634 10.7256 13.3205 10.6564L13.3693 10.5802L14.1222 8.94449C14.1904 8.7965 14.351 8.71451 14.5109 8.74625L16.2765 9.09782C16.3667 9.11574 16.4596 9.09819 16.5353 9.04996L16.6046 8.99137L17.8263 7.6691C17.937 7.54944 18.1157 7.52103 18.258 7.60074L19.8283 8.4816C19.9085 8.52636 20.0022 8.53738 20.089 8.51481L20.173 8.4816L21.7433 7.60074ZM21.8888 7.75797L21.841 7.77555L20.2706 8.65543C20.124 8.73763 19.9488 8.74812 19.7951 8.68668L19.7296 8.65543L18.1593 7.77555C18.1132 7.74979 18.0585 7.75001 18.0138 7.7736L17.9728 7.80485L16.7511 9.12711C16.637 9.25063 16.474 9.31488 16.3087 9.30387L16.2374 9.2941L14.4718 8.94254C14.4202 8.93231 14.3684 8.94947 14.3331 8.98551L14.3038 9.02848L13.5509 10.6632C13.4805 10.8161 13.3445 10.9274 13.1837 10.9679L13.1134 10.9806L11.3253 11.1916C11.2727 11.1978 11.2284 11.2309 11.2062 11.2765L11.1915 11.3254L10.9806 13.1134C10.9609 13.2805 10.8669 13.4285 10.7267 13.5168L10.6632 13.5509L9.02846 14.3039C8.96441 14.3334 8.92883 14.4027 8.94252 14.4718L9.29408 16.2375L9.30385 16.3088C9.3133 16.4503 9.26772 16.5904 9.1769 16.6994L9.12709 16.7511L7.80483 17.9728C7.75303 18.0207 7.74114 18.0978 7.77553 18.1593L8.65541 19.7297L8.68666 19.7951C8.73935 19.9269 8.73957 20.0745 8.68666 20.2062L8.65541 20.2707L7.77553 21.841C7.74102 21.9025 7.75299 21.9796 7.80483 22.0275L9.12709 23.2492L9.1769 23.3009C9.2677 23.4099 9.31327 23.5501 9.30385 23.6916L9.29408 23.7629L8.94252 25.5285C8.92876 25.5977 8.96437 25.6669 9.02846 25.6964L10.6632 26.4504L10.7267 26.4836C10.8669 26.5718 10.9608 26.7199 10.9806 26.8869L11.1915 28.675L11.2062 28.7238C11.2284 28.7694 11.2727 28.8025 11.3253 28.8088L13.1134 29.0197L13.1837 29.0324C13.3445 29.0729 13.4805 29.1842 13.5509 29.3371L14.3038 30.9718L14.3331 31.0148C14.3684 31.0509 14.4202 31.068 14.4718 31.0578L16.2374 30.7062L16.3087 30.6964C16.474 30.6854 16.637 30.7498 16.7511 30.8732L17.9728 32.1955L18.0138 32.2267C18.0586 32.2503 18.1132 32.2506 18.1593 32.2248L19.7296 31.3449L19.7951 31.3136C19.9488 31.2522 20.124 31.2627 20.2706 31.3449L21.841 32.2248L21.8888 32.2423C21.9388 32.2511 21.9915 32.2344 22.0275 32.1955L23.2492 30.8732L23.3009 30.8234C23.4282 30.7174 23.5979 30.6734 23.7628 30.7062L25.5285 31.0578L25.5802 31.0597C25.6302 31.0524 25.6744 31.0197 25.6964 30.9718L26.4503 29.3371L26.4835 29.2746C26.5717 29.134 26.7196 29.0395 26.8869 29.0197L28.6749 28.8088L28.7238 28.7941C28.7694 28.7718 28.8025 28.7276 28.8087 28.675L29.0197 26.8869L29.0324 26.8166C29.0729 26.6559 29.1843 26.5208 29.3371 26.4504L30.9718 25.6964L31.0148 25.6681C31.039 25.6447 31.0549 25.6135 31.0597 25.5802L31.0578 25.5285L30.7062 23.7629C30.6686 23.5742 30.7319 23.3797 30.8732 23.2492L32.1955 22.0275L32.2267 21.9865C32.2425 21.9566 32.2482 21.9222 32.2423 21.8888L32.2247 21.841L31.3449 20.2707C31.2508 20.1028 31.2508 19.8975 31.3449 19.7297L32.2247 18.1593L32.2423 18.1115C32.2482 18.0782 32.2425 18.0437 32.2267 18.0138L32.1955 17.9728L30.8732 16.7511C30.732 16.6206 30.6686 16.4261 30.7062 16.2375L31.0578 14.4718L31.0597 14.4211C31.055 14.3877 31.0389 14.3567 31.0148 14.3332L30.9718 14.3039L29.3371 13.5509C29.1842 13.4805 29.0729 13.3445 29.0324 13.1838L29.0197 13.1134L28.8087 11.3254C28.8025 11.2728 28.7694 11.2285 28.7238 11.2062L28.6749 11.1916L26.8869 10.9806C26.7199 10.9609 26.5717 10.8669 26.4835 10.7267L26.4503 10.6632L25.6964 9.02848C25.6744 8.98057 25.6302 8.94791 25.5802 8.94059L25.5285 8.94254L23.7628 9.2941C23.5979 9.32698 23.4282 9.28298 23.3009 9.17692L23.2492 9.12711L22.0275 7.80485C21.9915 7.76592 21.9388 7.7492 21.8888 7.75797ZM21.4933 9.37223C21.615 9.304 21.7685 9.32766 21.8634 9.42985L22.9103 10.5636C22.9638 10.6216 23.0376 10.6556 23.1144 10.6603L23.1915 10.6554L24.7052 10.3537C24.842 10.3266 24.9797 10.397 25.0382 10.5236L25.6837 11.925C25.7277 12.0204 25.8187 12.0863 25.923 12.0988L27.4552 12.2795C27.5939 12.2958 27.7032 12.4055 27.7199 12.5441L27.9005 14.0763C27.9128 14.1806 27.9792 14.2715 28.0744 14.3156L29.4757 14.9611C29.6026 15.0195 29.6728 15.1581 29.6456 15.2951L29.3449 16.8078L29.339 16.8859C29.3437 16.9624 29.3781 17.0356 29.4357 17.089L30.5695 18.1359C30.6721 18.2307 30.6963 18.3841 30.6281 18.506L29.8732 19.8517L29.8449 19.924C29.8256 19.9984 29.8348 20.0788 29.8732 20.1476L30.6281 21.4933C30.6964 21.6153 30.6721 21.7686 30.5695 21.8634L29.4357 22.9103L29.3859 22.9699C29.3446 23.0347 29.3296 23.1143 29.3449 23.1916L29.6456 24.7052C29.6728 24.8422 29.6026 24.9798 29.4757 25.0382L28.0744 25.6838L28.0089 25.7248C27.9495 25.7737 27.9098 25.8447 27.9005 25.923L27.7199 27.4552L27.7101 27.506C27.6763 27.6202 27.5767 27.7056 27.4552 27.7199L25.923 27.9005L25.8478 27.9201C25.7763 27.9483 25.7167 28.0029 25.6837 28.0744L25.0382 29.4757L25.0128 29.5207C24.955 29.605 24.8582 29.6542 24.756 29.6515L24.7052 29.6457L23.1915 29.3449C23.0885 29.3245 22.9816 29.3585 22.9103 29.4357L21.8634 30.5695L21.8253 30.6037C21.7442 30.666 21.6366 30.6838 21.5402 30.6496L21.4933 30.6281L20.1476 29.8732C20.0559 29.822 19.9433 29.8218 19.8517 29.8732L18.506 30.6281L18.4591 30.6496C18.3628 30.6836 18.2549 30.6661 18.174 30.6037L18.1359 30.5695L17.089 29.4357C17.0176 29.3588 16.9107 29.3244 16.8078 29.3449L15.2951 29.6457L15.2433 29.6515C15.1413 29.654 15.0441 29.6049 14.9865 29.5207L14.9611 29.4757L14.3156 28.0744C14.2826 28.0032 14.2236 27.9482 14.1525 27.9201L14.0763 27.9005L12.5441 27.7199C12.4229 27.7053 12.324 27.6199 12.2902 27.506L12.2794 27.4552L12.0988 25.923C12.0894 25.8446 12.0499 25.7736 11.9904 25.7248L11.9249 25.6838L10.5236 25.0382C10.4127 24.987 10.3447 24.8749 10.3478 24.756L10.3537 24.7052L10.6554 23.1916C10.6708 23.1142 10.6548 23.0347 10.6134 22.9699L10.5636 22.9103L9.42983 21.8634C9.34031 21.7803 9.31079 21.6523 9.35072 21.5402L9.37221 21.4933L10.1261 20.1476C10.1647 20.0788 10.1747 19.9985 10.1554 19.924L10.1261 19.8517L9.37221 18.506C9.31259 18.3993 9.32301 18.2684 9.39565 18.174L9.42983 18.1359L10.5636 17.089C10.6215 17.0355 10.6556 16.9626 10.6603 16.8859L10.6554 16.8078L10.3537 15.2951C10.3299 15.1752 10.3806 15.0539 10.4787 14.9865L10.5236 14.9611L11.9249 14.3156C11.9965 14.2826 12.052 14.224 12.0802 14.1525L12.0988 14.0763L12.2794 12.5441C12.2939 12.4231 12.3796 12.3242 12.4933 12.2902L12.5441 12.2795L14.0763 12.0988C14.1548 12.0895 14.2256 12.0499 14.2746 11.9904L14.3156 11.925L14.9611 10.5236C15.0195 10.3968 15.1581 10.3266 15.2951 10.3537L16.8078 10.6554C16.8851 10.6708 16.9646 10.6547 17.0294 10.6134L17.089 10.5636L18.1359 9.42985C18.2306 9.32733 18.3841 9.30419 18.506 9.37223L19.8517 10.1261C19.9204 10.1646 20.001 10.1745 20.0753 10.1554L20.1476 10.1261L21.4933 9.37223ZM18.3107 9.54508L18.2833 9.56559L17.2365 10.6994C17.1326 10.8119 16.9837 10.8698 16.8331 10.8595L16.7687 10.8517L15.256 10.55C15.2214 10.5432 15.1858 10.5541 15.1622 10.5783L15.1427 10.6076L14.4972 12.0089C14.4332 12.1477 14.3102 12.2485 14.1642 12.2853L14.0997 12.297L12.5675 12.4787C12.5326 12.483 12.5023 12.5041 12.4874 12.5343L12.4787 12.5675L12.297 14.0998C12.2791 14.2519 12.1934 14.3868 12.0656 14.467L12.0089 14.4972L10.6076 15.1427C10.5649 15.1625 10.5409 15.2099 10.5499 15.256L10.8517 16.7687L10.8595 16.8332C10.8683 16.9621 10.827 17.0894 10.7443 17.1886L10.6994 17.2365L9.56557 18.2834C9.53126 18.3154 9.52329 18.3673 9.54604 18.4084L10.3009 19.7541L10.3292 19.8127C10.3773 19.9325 10.3772 20.0669 10.3292 20.1867L10.3009 20.2453L9.54604 21.591C9.52301 21.6321 9.53116 21.6848 9.56557 21.717L10.6994 22.7638L10.7443 22.8107C10.827 22.9098 10.8681 23.0374 10.8595 23.1662L10.8517 23.2306L10.5499 24.7443C10.5409 24.7904 10.565 24.8368 10.6076 24.8566L12.0089 25.5021L12.0656 25.5334C12.1932 25.6135 12.279 25.7477 12.297 25.8996L12.4787 27.4318L12.4874 27.465C12.5023 27.4954 12.5325 27.5173 12.5675 27.5216L14.0997 27.7023L14.1642 27.714C14.3102 27.7508 14.4332 27.8526 14.4972 27.9914L15.1427 29.3927L15.1622 29.4211C15.1858 29.4454 15.2213 29.4572 15.256 29.4504L16.7687 29.1486L16.8331 29.1398C16.9835 29.1296 17.1326 29.1877 17.2365 29.3L18.2833 30.4338L18.3107 30.4543C18.3406 30.4701 18.3775 30.4705 18.4083 30.4533L19.754 29.6994L19.8126 29.6711C19.9524 29.6149 20.1118 29.6247 20.2453 29.6994L21.591 30.4533L21.6242 30.465C21.6574 30.4707 21.692 30.4595 21.716 30.4338L22.7638 29.3L22.8107 29.255C22.9262 29.1587 23.0808 29.1189 23.2306 29.1486L24.7443 29.4504L24.7785 29.4513C24.8119 29.4465 24.8417 29.4248 24.8566 29.3927L25.5021 27.9914L25.5333 27.9338C25.6135 27.8063 25.7478 27.7203 25.8996 27.7023L27.4318 27.5216L27.465 27.5119C27.4955 27.4969 27.5175 27.467 27.5216 27.4318L27.7023 25.8996L27.714 25.8351C27.7509 25.6893 27.8527 25.566 27.9913 25.5021L29.3927 24.8566L29.421 24.8371C29.4372 24.8214 29.4481 24.8008 29.4513 24.7785L29.4503 24.7443L29.1486 23.2306C29.1146 23.0594 29.1718 22.8824 29.2999 22.7638L30.4337 21.716L30.4542 21.6896C30.4649 21.6696 30.4688 21.6465 30.465 21.6242L30.4533 21.591L29.6994 20.2453C29.6141 20.0928 29.6139 19.9065 29.6994 19.7541L30.4533 18.4084L30.465 18.3761C30.4689 18.3538 30.4648 18.3307 30.4542 18.3107L30.4337 18.2834L29.2999 17.2365C29.1718 17.1178 29.1144 16.94 29.1486 16.7687L29.4503 15.256L29.4513 15.2218C29.4481 15.1994 29.4373 15.1781 29.421 15.1623L29.3927 15.1427L27.9913 14.4972C27.8526 14.4332 27.7508 14.3102 27.714 14.1642L27.7023 14.0998L27.5216 12.5675C27.5173 12.5325 27.4954 12.5023 27.465 12.4875L27.4318 12.4787L25.8996 12.297C25.7477 12.279 25.6134 12.1932 25.5333 12.0656L25.5021 12.0089L24.8566 10.6076C24.8417 10.5757 24.8118 10.5538 24.7785 10.549L24.7443 10.55L23.2306 10.8517C23.0807 10.8815 22.9263 10.8408 22.8107 10.7443L22.7638 10.6994L21.716 9.56559C21.692 9.54025 21.6571 9.52873 21.6242 9.53434L21.591 9.54606L20.2453 10.3009C20.1118 10.3756 19.9524 10.3854 19.8126 10.3293L19.754 10.3009L18.4083 9.54606C18.3776 9.529 18.3405 9.52937 18.3107 9.54508ZM21.2453 11.1437C21.3468 11.0868 21.4738 11.1071 21.5529 11.1925L22.4259 12.1369C22.4706 12.1851 22.5318 12.2141 22.5958 12.2179L22.6603 12.213L23.921 11.9621C24.0352 11.9394 24.1506 11.9979 24.1994 12.1037L24.7374 13.2716C24.7742 13.351 24.8498 13.4059 24.9367 13.4162L26.213 13.5666C26.3286 13.5803 26.42 13.6717 26.4337 13.7873L26.5841 15.0646C26.5945 15.1516 26.6501 15.2272 26.7296 15.2638L27.8976 15.8019C28.0029 15.8508 28.0617 15.9653 28.0392 16.0793L27.7872 17.341L27.7833 17.4054C27.7873 17.4693 27.8152 17.5308 27.8634 17.5754L28.8087 18.4474C28.8939 18.5265 28.9144 18.6546 28.8576 18.756L28.2287 19.8771L28.2042 19.9377C28.1884 19.9996 28.1966 20.066 28.2287 20.1232L28.8576 21.2453C28.9141 21.3466 28.8938 21.4739 28.8087 21.5529L27.8634 22.4259L27.8224 22.4757C27.788 22.5298 27.7744 22.5959 27.7872 22.6603L28.0392 23.9211C28.0618 24.0352 28.0032 24.1506 27.8976 24.1994L26.7296 24.7375L26.6749 24.7716C26.6254 24.8124 26.5918 24.8713 26.5841 24.9367L26.4337 26.213L26.4103 26.2951C26.3734 26.37 26.2996 26.4235 26.213 26.4338L24.9367 26.5841L24.8732 26.6007C24.8137 26.6243 24.7649 26.6701 24.7374 26.7297L24.1994 27.8976L24.1515 27.967C24.1127 28.0071 24.0613 28.0332 24.006 28.0412L23.921 28.0392L22.6603 27.7873C22.5744 27.7701 22.4854 27.7991 22.4259 27.8634L21.5529 28.8088L21.4865 28.8605C21.4373 28.8865 21.3802 28.8953 21.3253 28.8859L21.2453 28.8576L20.1232 28.2287C20.0467 28.1859 19.9535 28.1858 19.8771 28.2287L18.755 28.8576L18.6759 28.8859C18.6211 28.8955 18.564 28.8864 18.5148 28.8605L18.4474 28.8088L17.5753 27.8634C17.5159 27.7991 17.4268 27.7703 17.341 27.7873L16.0792 28.0392L15.9953 28.0412C15.9399 28.0334 15.8887 28.007 15.8497 27.967L15.8019 27.8976L15.2638 26.7297C15.2363 26.67 15.1866 26.6243 15.1271 26.6007L15.0646 26.5841L13.7872 26.4338C13.7008 26.4235 13.6279 26.3698 13.591 26.2951L13.5665 26.213L13.4162 24.9367C13.4085 24.8716 13.3756 24.8124 13.3263 24.7716L13.2716 24.7375L12.1037 24.1994C12.0244 24.1629 11.971 24.0887 11.9591 24.006L11.9621 23.9211L12.213 22.6603C12.2258 22.5961 12.213 22.5297 12.1788 22.4757L12.1369 22.4259L11.1925 21.5529C11.1286 21.4937 11.1012 21.4076 11.1154 21.3254L11.1437 21.2453L11.7726 20.1232C11.8045 20.0661 11.8119 19.9995 11.796 19.9377L11.7726 19.8771L11.1437 18.755C11.1012 18.679 11.1018 18.5886 11.1408 18.5148L11.1925 18.4474L12.1369 17.5754C12.1851 17.5308 12.2139 17.4693 12.2179 17.4054L12.213 17.341L11.9621 16.0793C11.9451 15.9937 11.9735 15.908 12.0333 15.8498L12.1037 15.8019L13.2716 15.2638C13.3313 15.2363 13.3771 15.1867 13.4005 15.1271L13.4162 15.0646L13.5665 13.7873C13.5768 13.7005 13.6311 13.6278 13.7062 13.591L13.7872 13.5666L15.0646 13.4162C15.1298 13.4084 15.1889 13.3758 15.2296 13.3263L15.2638 13.2716L15.8019 12.1037C15.8506 11.9979 15.9651 11.9394 16.0792 11.9621L17.341 12.213C17.4053 12.2257 17.4716 12.2133 17.5255 12.1789L17.5753 12.1369L18.4474 11.1925C18.5264 11.1071 18.6535 11.087 18.755 11.1437L19.8771 11.7726C19.9345 11.8047 20.0015 11.8122 20.0636 11.7961L20.1232 11.7726L21.2453 11.1437ZM21.3429 11.3185L20.2208 11.9464C20.118 12.0041 19.9982 12.0192 19.8869 11.9904L19.7794 11.9464L18.6574 11.3185C18.647 11.3127 18.6353 11.31 18.6242 11.3117L18.5939 11.3283L17.7218 12.2726C17.6418 12.3593 17.532 12.4102 17.4171 12.4172L17.3019 12.4093L16.0402 12.1584C16.0286 12.1561 16.0169 12.1573 16.007 12.1623L15.9835 12.1867L15.4455 13.3547C15.3961 13.4617 15.3073 13.5439 15.2003 13.5861L15.088 13.6144L13.8107 13.7658C13.7989 13.7672 13.7884 13.7725 13.7804 13.7804L13.7658 13.8107L13.6144 15.088C13.6005 15.2052 13.5421 15.3108 13.4533 15.3839L13.3546 15.4455L12.1867 15.9836C12.1652 15.9937 12.1538 16.0169 12.1583 16.0402L12.4093 17.3019L12.4171 17.4172C12.4125 17.4938 12.3882 17.5682 12.3468 17.633L12.2726 17.7218L11.3283 18.5939C11.3107 18.6102 11.3068 18.6365 11.3185 18.6574L11.9464 19.7795L11.9904 19.8869C12.0096 19.961 12.0095 20.0393 11.9904 20.1134L11.9464 20.2209L11.3185 21.3429C11.3068 21.3638 11.3107 21.3902 11.3283 21.4064L12.2726 22.2785L12.3468 22.3683C12.3879 22.4329 12.4124 22.5068 12.4171 22.5832L12.4093 22.6994L12.1583 23.9601C12.1538 23.9835 12.1651 24.0077 12.1867 24.0177L13.3546 24.5558L13.4533 24.6173C13.5419 24.6905 13.6006 24.7962 13.6144 24.9132L13.7658 26.1896L13.7804 26.2209C13.7883 26.2286 13.7991 26.2341 13.8107 26.2355L15.088 26.3859L15.2003 26.4142C15.3073 26.4564 15.3961 26.5386 15.4455 26.6457L15.9835 27.8136L16.007 27.838C16.0169 27.843 16.0286 27.8452 16.0402 27.8429L17.3019 27.591L17.4171 27.5832C17.5319 27.5902 17.6418 27.6411 17.7218 27.7277L18.5939 28.673L18.6242 28.6886C18.6352 28.6904 18.647 28.6885 18.6574 28.6828L19.7794 28.0539L19.8869 28.0109C19.9982 27.982 20.1179 27.9963 20.2208 28.0539L21.3429 28.6828L21.3761 28.6886C21.3873 28.6869 21.3982 28.6817 21.4064 28.673L22.2785 27.7277L22.3683 27.6535C22.4653 27.5918 22.5838 27.5679 22.6994 27.591L23.9601 27.8429L23.9943 27.838C24.0042 27.8329 24.0128 27.8243 24.0177 27.8136L24.5558 26.6457L24.6173 26.547C24.6905 26.4584 24.7962 26.3997 24.9132 26.3859L26.1896 26.2355L26.2208 26.2209C26.2288 26.2129 26.2341 26.2014 26.2355 26.1896L26.3859 24.9132L26.4142 24.8C26.4564 24.6931 26.5386 24.6051 26.6456 24.5558L27.8136 24.0177L27.838 23.9943L27.8429 23.9601L27.591 22.6994C27.5602 22.5451 27.6121 22.3852 27.7277 22.2785L28.673 21.4064L28.6886 21.3761L28.6828 21.3429L28.0538 20.2209C27.9771 20.0837 27.977 19.9166 28.0538 19.7795L28.6828 18.6574L28.6886 18.6242L28.673 18.5939L27.7277 17.7218C27.6123 17.6152 27.5605 17.456 27.591 17.3019L27.8429 16.0402L27.838 16.007L27.8136 15.9836L26.6456 15.4455C26.5385 15.3961 26.4564 15.3073 26.4142 15.2004L26.3859 15.088L26.2355 13.8107C26.2341 13.7991 26.2286 13.7884 26.2208 13.7804L26.1896 13.7658L24.9132 13.6144C24.7962 13.6006 24.6905 13.5419 24.6173 13.4533L24.5558 13.3547L24.0177 12.1867C24.0128 12.1761 24.0041 12.1674 23.9943 12.1623L23.9601 12.1584L22.6994 12.4093C22.5838 12.4324 22.4653 12.4085 22.3683 12.3468L22.2785 12.2726L21.4064 11.3283C21.3982 11.3194 21.3874 11.3134 21.3761 11.3117L21.3429 11.3185ZM19.004 12.9142L19.9015 13.4172C19.9475 13.4429 20.0011 13.4497 20.0509 13.4367L20.0988 13.4172L20.9962 12.9142C21.0773 12.8691 21.1792 12.8853 21.2423 12.9533L21.9406 13.7091C21.9763 13.7478 22.0251 13.7705 22.0763 13.7736L22.1281 13.7707L23.1369 13.5695C23.2281 13.5514 23.3195 13.5983 23.3585 13.6828L23.7892 14.6164C23.8185 14.6799 23.8789 14.7242 23.9484 14.7326L24.9699 14.8527C25.0623 14.8636 25.1355 14.9371 25.1466 15.0295L25.2677 16.0509C25.2759 16.1205 25.3194 16.1817 25.383 16.2111L26.3175 16.6408C26.4021 16.6797 26.4489 16.7721 26.4308 16.8634L26.2296 17.8722L26.2257 17.924C26.2289 17.975 26.2518 18.0241 26.2902 18.0597L27.046 18.758C27.1144 18.8212 27.1306 18.9228 27.0851 19.0041L26.5822 19.9015L26.5626 19.9494C26.5498 19.9989 26.5566 20.053 26.5822 20.0988L27.0851 20.9963C27.1305 21.0775 27.1144 21.1792 27.046 21.2423L26.2902 21.9406L26.257 21.9797C26.2294 22.0229 26.2194 22.0765 26.2296 22.1281L26.4308 23.1369C26.4489 23.2281 26.402 23.3196 26.3175 23.3586L25.383 23.7892L25.339 23.8166C25.2996 23.8491 25.274 23.8964 25.2677 23.9484L25.1466 24.9699L25.1281 25.0353C25.0986 25.0955 25.0394 25.1384 24.9699 25.1466L23.9484 25.2677L23.8986 25.2795C23.8508 25.2982 23.8112 25.3352 23.7892 25.383L23.3585 26.3175L23.3205 26.3732C23.2893 26.4053 23.2485 26.4265 23.2042 26.4328L23.1369 26.4308L22.1281 26.2297C22.0595 26.2161 21.9881 26.239 21.9406 26.2902L21.2423 27.0461L21.1886 27.088C21.1492 27.1088 21.1036 27.1162 21.0597 27.1086L20.9962 27.0851L20.0988 26.5822C20.0377 26.548 19.9626 26.548 19.9015 26.5822L19.004 27.0851L18.9406 27.1086C18.8967 27.1162 18.8511 27.1088 18.8117 27.088L18.758 27.0461L18.0597 26.2902C18.0121 26.2389 17.9408 26.216 17.8722 26.2297L16.8634 26.4308L16.7951 26.4328C16.751 26.4263 16.7098 26.4053 16.6788 26.3732L16.6408 26.3175L16.2111 25.383C16.1891 25.3354 16.1493 25.2982 16.1017 25.2795L16.0509 25.2677L15.0294 25.1466C14.9601 25.1383 14.9016 25.0953 14.8722 25.0353L14.8527 24.9699L14.7326 23.9484C14.7263 23.8962 14.6999 23.8491 14.6603 23.8166L14.6163 23.7892L13.6828 23.3586C13.6194 23.3293 13.5769 23.2705 13.5675 23.2043L13.5695 23.1369L13.7706 22.1281C13.7809 22.0764 13.77 22.0229 13.7423 21.9797L13.7091 21.9406L12.9533 21.2423C12.9022 21.1949 12.8803 21.1255 12.8917 21.0597L12.9142 20.9963L13.4171 20.0988C13.4428 20.0529 13.4495 19.999 13.4367 19.9494L13.4171 19.9015L12.9142 19.0041C12.8803 18.9433 12.8812 18.8707 12.9122 18.8117L12.9533 18.758L13.7091 18.0597C13.7477 18.0241 13.7704 17.9751 13.7736 17.924L13.7706 17.8722L13.5695 16.8634C13.5559 16.7949 13.5781 16.7254 13.6261 16.6789L13.6828 16.6408L14.6163 16.2111C14.664 16.1891 14.701 16.1493 14.7199 16.1017L14.7326 16.0509L14.8527 15.0295C14.8609 14.9603 14.9042 14.9017 14.964 14.8722L15.0294 14.8527L16.0509 14.7326C16.1032 14.7264 16.1501 14.6999 16.1828 14.6603L16.2111 14.6164L16.6408 13.6828C16.6797 13.5983 16.7721 13.5514 16.8634 13.5695L17.8722 13.7707C17.9237 13.7809 17.9765 13.7699 18.0197 13.7423L18.0597 13.7091L18.758 12.9533C18.8211 12.8853 18.923 12.869 19.004 12.9142ZM18.2062 13.8449C18.135 13.9219 18.0378 13.9676 17.9357 13.9738L17.8331 13.966L16.8244 13.7648L16.8224 13.7658L16.3927 14.7004C16.3489 14.7955 16.27 14.8689 16.1749 14.9064L16.0744 14.9308L15.0529 15.0519L15.0519 15.0529L14.9308 16.0744C14.9185 16.1783 14.8669 16.2721 14.7882 16.3371L14.7003 16.3927L13.7658 16.8224L13.7648 16.8244L13.966 17.8332L13.9738 17.9357C13.9697 18.0037 13.9478 18.0696 13.9113 18.1271L13.8449 18.2062L13.089 18.9045V18.9064L13.5919 19.8039L13.63 19.8996C13.6471 19.9655 13.6471 20.0348 13.63 20.1007L13.5919 20.1964L13.089 21.0939V21.0959L13.8449 21.7931L13.9113 21.8722C13.9479 21.9296 13.9696 21.9957 13.9738 22.0636L13.966 22.1672L13.7648 23.1759L13.7658 23.1769L14.7003 23.6076L14.7882 23.6623C14.8669 23.7272 14.9184 23.8212 14.9308 23.925L15.0519 24.9464L15.0529 24.9484L16.0744 25.0685L16.1749 25.0939C16.2698 25.1313 16.3489 25.2041 16.3927 25.299L16.8224 26.2336L16.8244 26.2345L17.8331 26.0334L17.9357 26.0265C18.0376 26.0327 18.135 26.0777 18.2062 26.1545L18.9044 26.9103L18.9064 26.9113L19.8038 26.4074L19.8996 26.3693C19.9984 26.3438 20.1051 26.3563 20.1964 26.4074L21.0939 26.9113L21.0958 26.9103L21.7931 26.1545L21.8722 26.089C21.9584 26.034 22.0643 26.0129 22.1671 26.0334L23.1759 26.2345L23.1769 26.2336L23.6076 25.299L23.6622 25.2121C23.7272 25.1333 23.821 25.0809 23.9249 25.0685L24.9464 24.9484L24.9484 24.9464L25.0685 23.925L25.0939 23.8254C25.1313 23.7304 25.204 23.6515 25.299 23.6076L26.2335 23.1769L26.2345 23.1759L26.0333 22.1672C26.0061 22.0302 26.0519 21.8879 26.1544 21.7931L26.9103 21.0959L26.9113 21.0939L26.4074 20.1964C26.3392 20.0747 26.3393 19.9256 26.4074 19.8039L26.9113 18.9064L26.9103 18.9045L26.1544 18.2062C26.0522 18.1114 26.0061 17.97 26.0333 17.8332L26.2345 16.8244L26.2335 16.8224L25.299 16.3927C25.2041 16.3489 25.1313 16.2698 25.0939 16.175L25.0685 16.0744L24.9484 15.0529L24.9464 15.0519L23.9249 14.9308C23.8211 14.9184 23.7271 14.8669 23.6622 14.7882L23.6076 14.7004L23.1769 13.7658L23.1759 13.7648L22.1671 13.966C22.0643 13.9864 21.9584 13.9663 21.8722 13.9113L21.7931 13.8449L21.0958 13.089H21.0939L20.1964 13.592C20.105 13.6432 19.9985 13.6556 19.8996 13.63L19.8038 13.592L18.9064 13.089H18.9044L18.2062 13.8449ZM19.254 14.6867L19.9269 15.0636C19.9611 15.0826 20.0012 15.0878 20.0382 15.0783L20.0744 15.0636L20.7472 14.6867C20.8081 14.6526 20.8844 14.6648 20.9318 14.716L21.4562 15.2824C21.483 15.3111 21.5195 15.3289 21.5578 15.3312L21.5958 15.3283L22.3527 15.1769C22.421 15.1634 22.4904 15.1987 22.5197 15.2619L22.8429 15.963C22.865 16.0105 22.91 16.0438 22.9621 16.05L23.7287 16.1408C23.7976 16.1493 23.8523 16.2035 23.8605 16.2726L23.9513 17.0392C23.9577 17.0912 23.9906 17.1365 24.0382 17.1584L24.7384 17.4816C24.8015 17.5109 24.8368 17.5793 24.8234 17.6476L24.673 18.4045C24.6628 18.456 24.6803 18.5094 24.7189 18.5451L25.2853 19.0685C25.3363 19.116 25.3487 19.1932 25.3146 19.2541L24.9376 19.9269C24.912 19.9728 24.9119 20.0285 24.9376 20.0744L25.3146 20.7472C25.3484 20.808 25.3363 20.8845 25.2853 20.9318L24.7189 21.4562C24.6803 21.4918 24.6629 21.5444 24.673 21.5959L24.8234 22.3527C24.8368 22.4211 24.8017 22.4905 24.7384 22.5197L24.0382 22.8429C23.9904 22.8649 23.9575 22.9098 23.9513 22.9621L23.8605 23.7287L23.8458 23.7775C23.8238 23.822 23.7801 23.8542 23.7287 23.8605L22.9621 23.9513C22.9098 23.9575 22.8649 23.9905 22.8429 24.0382L22.5197 24.7384L22.4913 24.7804C22.468 24.8046 22.4367 24.8206 22.4035 24.8254L22.3527 24.8234L21.5958 24.673C21.5444 24.6629 21.4918 24.6804 21.4562 24.7189L20.9318 25.2853L20.8917 25.3166C20.8623 25.3321 20.8279 25.3369 20.7951 25.3312L20.7472 25.3146L20.0744 24.9377C20.0285 24.912 19.9727 24.9121 19.9269 24.9377L19.254 25.3146L19.2052 25.3312C19.1724 25.3368 19.138 25.3321 19.1085 25.3166L19.0685 25.2853L18.5451 24.7189C18.5094 24.6803 18.4559 24.6629 18.4044 24.673L17.6476 24.8234L17.5968 24.8254C17.5639 24.8206 17.5331 24.8043 17.5099 24.7804L17.4816 24.7384L17.1583 24.0382C17.1419 24.0024 17.1121 23.9742 17.0763 23.9601L17.0392 23.9513L16.2726 23.8605C16.2208 23.8544 16.1766 23.8222 16.1544 23.7775L16.1408 23.7287L16.0499 22.9621C16.0454 22.9232 16.0255 22.8879 15.9962 22.8634L15.963 22.8429L15.2619 22.5197C15.1987 22.4904 15.1634 22.421 15.1769 22.3527L15.3283 21.5959C15.3358 21.5575 15.3281 21.5177 15.3078 21.4855L15.2824 21.4562L14.716 20.9318C14.6647 20.8844 14.6526 20.8082 14.6867 20.7472L15.0636 20.0744C15.0828 20.0402 15.0876 20.0001 15.0783 19.963L15.0636 19.9269L14.6867 19.2541C14.6525 19.1931 14.6646 19.1159 14.716 19.0685L15.2824 18.5451C15.3112 18.5184 15.3288 18.4818 15.3312 18.4435L15.3283 18.4045L15.1769 17.6476C15.1635 17.5794 15.1988 17.5109 15.2619 17.4816L15.963 17.1584C15.9988 17.1418 16.0261 17.1121 16.0402 17.0763L16.0499 17.0392L16.1408 16.2726C16.149 16.2033 16.2033 16.149 16.2726 16.1408L17.0392 16.05C17.0781 16.0452 17.1135 16.0257 17.1378 15.9963L17.1583 15.963L17.4816 15.2619C17.5109 15.1988 17.5794 15.1635 17.6476 15.1769L18.4044 15.3283C18.443 15.3359 18.4834 15.3284 18.5158 15.3078L18.5451 15.2824L19.0685 14.716C19.1159 14.6646 19.1931 14.6525 19.254 14.6867ZM20.172 15.2384C20.0922 15.2831 19.9987 15.294 19.9122 15.2716L19.8292 15.2384L19.1896 14.8791L18.6925 15.4181C18.6303 15.4855 18.5444 15.525 18.4552 15.5304L18.3654 15.5246L17.6466 15.38L17.34 16.047C17.3016 16.1301 17.2326 16.194 17.1496 16.2267L17.0626 16.2482L16.3341 16.3341L16.2482 17.0627C16.2373 17.1534 16.192 17.2354 16.1232 17.2922L16.047 17.34L15.38 17.6466L15.5246 18.3654L15.5304 18.4552C15.5268 18.5148 15.5079 18.5729 15.4757 18.6232L15.4181 18.6925L14.879 19.1896L15.2384 19.8293L15.2716 19.9123C15.2865 19.9698 15.2864 20.0305 15.2716 20.088L15.2384 20.172L14.879 20.8107L15.4181 21.3088L15.4757 21.3781C15.5076 21.4282 15.5267 21.4858 15.5304 21.5451L15.5246 21.6349L15.38 22.3537L16.047 22.6613L16.1232 22.7091C16.1688 22.7469 16.205 22.7957 16.2267 22.8507L16.2482 22.9386L16.3341 23.6662L17.0626 23.7521L17.1496 23.7746C17.2049 23.7964 17.2543 23.8321 17.2921 23.8781L17.34 23.9543L17.6466 24.6193L18.3654 24.4767L18.4552 24.4709C18.5147 24.4745 18.573 24.4925 18.6232 24.5246L18.6925 24.5832L19.1886 25.1203L19.8292 24.7629L19.9122 24.7297C19.9699 24.7147 20.0304 24.7148 20.088 24.7297L20.172 24.7629L20.8107 25.1203L21.3087 24.5832L21.3781 24.5246C21.4281 24.4927 21.4858 24.4745 21.5451 24.4709L21.6349 24.4767L22.3537 24.6193L22.6613 23.9543L22.7091 23.8781C22.766 23.8091 22.8476 23.7629 22.9386 23.7521L23.6662 23.6662L23.7521 22.9386L23.7746 22.8507C23.8073 22.7678 23.8712 22.6996 23.9542 22.6613L24.6193 22.3537L24.4767 21.6349C24.453 21.5152 24.4934 21.3916 24.5831 21.3088L25.1203 20.8107L24.7628 20.172C24.7032 20.0655 24.7033 19.9358 24.7628 19.8293L25.1203 19.1886L24.5831 18.6925C24.4934 18.6096 24.4529 18.4852 24.4767 18.3654L24.6193 17.6466L23.9542 17.34C23.8711 17.3017 23.8073 17.2326 23.7746 17.1496L23.7521 17.0627L23.6662 16.3341L22.9386 16.2482C22.8478 16.2375 22.766 16.1919 22.7091 16.1232L22.6613 16.047L22.3537 15.38L21.6349 15.5246C21.5453 15.5423 21.4533 15.5236 21.3781 15.4757L21.3087 15.4181L20.8107 14.8791L20.172 15.2384ZM20.4982 16.4572C20.5387 16.4346 20.5897 16.4428 20.6212 16.4767L20.9699 16.8547C20.9816 16.8674 20.9969 16.8767 21.0128 16.882L21.0636 16.8849L21.5685 16.7843C21.614 16.7754 21.6603 16.7989 21.6798 16.841L21.8947 17.3088C21.9093 17.3404 21.9401 17.3622 21.9747 17.3664L22.4855 17.4269C22.5316 17.4325 22.5678 17.4687 22.5734 17.5148L22.6339 18.0255C22.638 18.0603 22.6598 18.0909 22.6915 18.1056L23.1583 18.3205C23.2006 18.34 23.224 18.3861 23.215 18.4318L23.1154 18.9357C23.1085 18.97 23.12 19.0057 23.1456 19.0295L23.5236 19.3791C23.5575 19.4107 23.5657 19.4616 23.5431 19.5021L23.2912 19.9504C23.2741 19.9808 23.2742 20.0185 23.2912 20.049L23.5431 20.4982C23.5656 20.5387 23.5576 20.5897 23.5236 20.6213L23.1456 20.9699C23.12 20.9936 23.1087 21.0294 23.1154 21.0636L23.215 21.5685C23.2241 21.6142 23.2007 21.6604 23.1583 21.6798L22.6915 21.8947C22.6598 21.9094 22.6381 21.94 22.6339 21.9748L22.5734 22.4855L22.5636 22.5177C22.5489 22.5477 22.5201 22.5692 22.4855 22.5734L21.9747 22.6339C21.94 22.6381 21.9093 22.6598 21.8947 22.6916L21.6798 23.1584L21.6603 23.1867C21.6449 23.2026 21.6246 23.2127 21.6027 23.216L21.5685 23.215L21.0636 23.1154C21.0293 23.1087 20.9936 23.12 20.9699 23.1457L20.6212 23.5236L20.5939 23.5441C20.5744 23.5543 20.5521 23.5575 20.5304 23.5539L20.4982 23.5431L20.049 23.2912C20.0185 23.2743 19.9808 23.2741 19.9503 23.2912L19.5021 23.5431L19.4699 23.5539C19.4479 23.5576 19.4251 23.5545 19.4054 23.5441L19.379 23.5236L19.0294 23.1457C19.0056 23.12 18.97 23.1086 18.9357 23.1154L18.4318 23.215L18.3976 23.216C18.3757 23.2128 18.3554 23.2025 18.34 23.1867L18.3205 23.1584L18.1056 22.6916C18.0983 22.6758 18.0869 22.6624 18.0734 22.6525L18.0255 22.6339L17.5148 22.5734C17.4803 22.5692 17.4514 22.5476 17.4367 22.5177L17.4269 22.4855L17.3663 21.9748C17.3643 21.9574 17.3578 21.9406 17.3478 21.9269L17.3087 21.8947L16.841 21.6798C16.7989 21.6603 16.7753 21.614 16.7843 21.5685L16.8849 21.0636C16.8883 21.0464 16.8873 21.029 16.882 21.0129L16.8546 20.9699L16.4767 20.6213C16.4427 20.5897 16.4346 20.5387 16.4572 20.4982L16.7091 20.049C16.7175 20.0338 16.7218 20.017 16.7218 20.0002L16.7091 19.9504L16.4572 19.5021C16.4346 19.4616 16.4427 19.4106 16.4767 19.3791L16.8546 19.0295C16.8673 19.0177 16.8767 19.0034 16.882 18.9875L16.8849 18.9357L16.7843 18.4318C16.7753 18.3863 16.7989 18.34 16.841 18.3205L17.3087 18.1056C17.3245 18.0983 17.3379 18.087 17.3478 18.0734L17.3663 18.0255L17.4269 17.5148C17.4324 17.4687 17.4687 17.4325 17.5148 17.4269L18.0255 17.3664C18.043 17.3643 18.0596 17.3578 18.0734 17.3478L18.1056 17.3088L18.3205 16.841C18.34 16.7989 18.3862 16.7754 18.4318 16.7843L18.9357 16.8849C18.953 16.8884 18.9712 16.8873 18.9874 16.882L19.0294 16.8547L19.379 16.4767C19.4106 16.4427 19.4616 16.4346 19.5021 16.4572L19.9503 16.7091C19.9656 16.7177 19.9832 16.7218 20.0001 16.7218L20.049 16.7091L20.4982 16.4572ZM20.1466 16.883C20.0783 16.9212 19.9989 16.9313 19.9249 16.9123L19.8527 16.883L19.4718 16.6691L19.1769 16.9904C19.1235 17.0481 19.0503 17.0815 18.9738 17.0861L18.8966 17.0812L18.4689 16.9953L18.2872 17.3918C18.2544 17.463 18.1953 17.518 18.1242 17.5461L18.049 17.5646L17.6154 17.6154L17.5646 18.049C17.5554 18.1271 17.5165 18.1975 17.4572 18.2463L17.3917 18.2873L16.9953 18.4689L17.0812 18.8966L17.0861 18.9738C17.083 19.0248 17.0676 19.0743 17.0402 19.1173L16.9904 19.1769L16.6691 19.4718L16.883 19.8527L16.9122 19.925C16.9249 19.9742 16.925 20.0261 16.9122 20.0754L16.883 20.1466L16.6691 20.5275L16.9904 20.8234L17.0402 20.883C17.0674 20.9258 17.0829 20.9749 17.0861 21.0255L17.0812 21.1027L16.9953 21.5304L17.3917 21.713L17.4572 21.7541C17.4966 21.7865 17.5273 21.8286 17.546 21.8761L17.5646 21.9513L17.6154 22.3839L18.049 22.4347L18.1242 22.4543C18.1715 22.4729 18.2139 22.503 18.2462 22.5422L18.2872 22.6076L18.4689 23.0041L18.8966 22.9191L18.9738 22.9132C19.0247 22.9163 19.0743 22.9327 19.1173 22.9601L19.1769 23.0099L19.4718 23.3293L19.8527 23.1164L19.9249 23.088C19.9742 23.0753 20.0261 23.0753 20.0753 23.088L20.1466 23.1164L20.5275 23.3293L20.8234 23.0099L20.883 22.9601C20.9258 22.9329 20.9749 22.9164 21.0255 22.9132L21.1027 22.9191L21.5304 23.0041L21.713 22.6076L21.754 22.5422C21.8027 22.4832 21.8735 22.444 21.9513 22.4347L22.3839 22.3839L22.4347 21.9513L22.4542 21.8761C22.4822 21.8051 22.5365 21.7459 22.6076 21.713L23.004 21.5304L22.9191 21.1027C22.8988 21.0001 22.9331 20.8944 23.0099 20.8234L23.3292 20.5275L23.1163 20.1466C23.0655 20.0554 23.0653 19.9438 23.1163 19.8527L23.3292 19.4718L23.0099 19.1769C22.9331 19.1059 22.8986 18.9993 22.9191 18.8966L23.004 18.4689L22.6076 18.2873C22.5365 18.2544 22.4823 18.1952 22.4542 18.1242L22.4347 18.049L22.3839 17.6154L21.9513 17.5646C21.8733 17.5554 21.8027 17.5164 21.754 17.4572L21.713 17.3918L21.5304 16.9953L21.1027 17.0812C21.026 17.0964 20.9473 17.0811 20.883 17.0402L20.8234 16.9904L20.5275 16.6691L20.1466 16.883ZM20.3107 18.2384L20.4855 18.4279C20.4974 18.4406 20.5153 18.4459 20.5324 18.4425L20.7843 18.3927C20.8072 18.3882 20.8302 18.3999 20.84 18.4211L20.9474 18.6545C20.9547 18.6704 20.97 18.6817 20.9874 18.6838L21.2423 18.713C21.2655 18.7158 21.2845 18.7348 21.2872 18.758L21.3165 19.0129C21.3186 19.0302 21.33 19.0455 21.3458 19.0529L21.5792 19.1603C21.6004 19.1701 21.6121 19.1931 21.6076 19.216L21.5578 19.4679C21.5544 19.485 21.5598 19.5029 21.5724 19.5148L21.7619 19.6896C21.7789 19.7054 21.7829 19.7309 21.7716 19.7511L21.6456 19.9757C21.6372 19.9909 21.6372 20.0094 21.6456 20.0246L21.7716 20.2492C21.7829 20.2695 21.7789 20.2949 21.7619 20.3107L21.5724 20.4855C21.5598 20.4974 21.5544 20.5153 21.5578 20.5324L21.6076 20.7843C21.6121 20.8072 21.6004 20.8303 21.5792 20.84L21.3458 20.9474C21.33 20.9548 21.3186 20.9701 21.3165 20.9875L21.2872 21.2423C21.2845 21.2655 21.2655 21.2845 21.2423 21.2873L20.9874 21.3166C20.97 21.3186 20.9547 21.3299 20.9474 21.3459L20.84 21.5793C20.8302 21.6004 20.8072 21.6121 20.7843 21.6076L20.5324 21.5578C20.5153 21.5544 20.4974 21.5598 20.4855 21.5724L20.3107 21.7619C20.2949 21.7789 20.2694 21.783 20.2492 21.7716L20.0246 21.6457C20.0094 21.6372 19.9909 21.6372 19.9757 21.6457L19.7511 21.7716C19.7308 21.7829 19.7054 21.7789 19.6896 21.7619L19.5148 21.5724C19.5029 21.5598 19.485 21.5544 19.4679 21.5578L19.216 21.6076C19.1931 21.6121 19.17 21.6004 19.1603 21.5793L19.0529 21.3459C19.0455 21.33 19.0302 21.3186 19.0128 21.3166L18.758 21.2873C18.7348 21.2845 18.7158 21.2655 18.713 21.2423L18.6837 20.9875C18.6817 20.9701 18.6704 20.9548 18.6544 20.9474L18.421 20.84C18.3999 20.8303 18.3882 20.8072 18.3927 20.7843L18.4425 20.5324C18.4459 20.5153 18.4405 20.4974 18.4279 20.4855L18.2384 20.3107C18.2214 20.2949 18.2174 20.2694 18.2287 20.2492L18.3546 20.0246C18.3631 20.0094 18.3631 19.9909 18.3546 19.9757L18.2287 19.7511C18.2174 19.7309 18.2214 19.7054 18.2384 19.6896L18.4279 19.5148C18.4405 19.5029 18.4459 19.485 18.4425 19.4679L18.3927 19.216C18.3882 19.1931 18.3999 19.1701 18.421 19.1603L18.6544 19.0529C18.6704 19.0456 18.6817 19.0303 18.6837 19.0129L18.713 18.758C18.7158 18.7348 18.7348 18.7158 18.758 18.713L19.0128 18.6838C19.0302 18.6817 19.0455 18.6703 19.0529 18.6545L19.1603 18.4211C19.17 18.3999 19.1931 18.3882 19.216 18.3927L19.4679 18.4425C19.4849 18.4459 19.5029 18.4405 19.5148 18.4279L19.6896 18.2384C19.7054 18.2214 19.7308 18.2174 19.7511 18.2287L19.9757 18.3547C19.9909 18.3631 20.0094 18.3631 20.0246 18.3547L20.2492 18.2287C20.2694 18.2174 20.2949 18.2214 20.3107 18.2384Z" fill="#DAF3CC"/>
</g>
<defs>
<filter id="filter0_f_86_2009" x="-0.666667" y="-0.666667" width="41.3333" height="41.3333" filterUnits="userSpaceOnUse" color-interpolation-filters="sRGB">
<feFlood flood-opacity="0" result="BackgroundImageFix"/>
<feBlend mode="normal" in="SourceGraphic" in2="BackgroundImageFix" result="shape"/>
<feGaussianBlur stdDeviation="0.333333" result="effect1_foregroundBlur_86_2009"/>
</filter>
</defs>
</svg>
