<svg width="128" height="128" viewBox="0 0 128 128" fill="none" xmlns="http://www.w3.org/2000/svg">
<g opacity="0.8">
<path d="M87.6215 85.1147C87.0342 85.1147 86.447 85.0798 85.8481 85.0101C79.2663 84.1961 73.4928 78.4109 68.3937 73.3118C62.8585 67.7708 58.0791 62.9914 53.4917 65.166C50.8695 67.2649 48.6484 67.9859 46.9157 67.2881C44.8168 66.4393 43.4272 63.4682 42.7993 58.4679C42.0027 50.6477 44.311 42.7403 49.288 36.1934C54.6604 29.1291 62.6085 24.2567 72.2776 22.0996H72.2834C82.2607 20.2798 93.5753 22.8322 101.802 28.7628C108.425 33.5363 112.483 40.0076 113.53 47.4789C113.559 49.386 113.228 51.0431 112.931 52.5025C112.646 53.9095 112.402 55.1247 112.629 56.0085C112.658 58.84 110.623 62.0844 108.256 65.8404C107.163 67.5847 106.029 69.3813 104.977 71.3291C99.8954 80.5854 94.2032 85.1147 87.6215 85.1147ZM55.8465 64.288C59.87 64.288 63.9923 68.4161 68.6437 73.0675C73.7021 78.1259 79.435 83.8646 85.8946 84.667C93.0869 85.5275 99.2151 81.1029 104.675 71.1663C105.733 69.2127 106.867 67.4044 107.966 65.6602C110.297 61.9506 112.315 58.747 112.286 56.0608C112.041 55.1421 112.291 53.8921 112.588 52.4443C112.879 51.0024 113.21 49.3627 113.181 47.5138C112.152 40.1588 108.146 33.7689 101.599 29.0535C93.4474 23.1811 82.2374 20.6461 72.3532 22.4485C62.7713 24.5881 54.8929 29.414 49.5671 36.4144C44.6424 42.8857 42.3632 50.7117 43.1481 58.4388C43.7586 63.2996 45.0726 66.1718 47.0495 66.9742C48.6484 67.6196 50.759 66.9161 53.3056 64.8811C54.1487 64.4799 54.9976 64.2938 55.8465 64.2938V64.288Z" fill="url(#paint0_linear_1_2565)"/>
<path d="M85.8946 82.8937C85.4062 82.8937 84.9353 82.8646 84.4876 82.8239C77.8593 82.2657 71.9636 76.6259 66.7599 71.6488C61.2886 66.416 56.5616 61.8925 52.0498 63.6426C49.4973 65.5264 47.346 66.1195 45.6483 65.3985C43.5202 64.4973 42.1074 61.5204 41.4562 56.5376C39.8165 41.9902 49.3287 24.7044 70.6729 19.7972H70.6787C80.8537 17.8319 92.8427 20.5472 101.209 26.6929C107.75 31.5013 111.64 37.9203 112.46 45.2462C112.419 47.194 111.954 48.8918 111.582 50.2523C111.21 51.6245 110.913 52.706 111.187 53.4153L111.198 53.4734C111.251 55.7177 109.483 58.3225 107.239 61.625C105.896 63.6019 104.372 65.8404 103.07 68.3056C96.401 80.7772 90.2786 82.8878 85.8946 82.8878V82.8937ZM54.0964 62.8984C58.1315 62.8984 62.2945 66.8811 67.0041 71.3872C72.1671 76.3235 78.0163 81.9227 84.5225 82.4692C84.9353 82.5099 85.3423 82.5274 85.7377 82.5274C94.0695 82.5274 99.4186 74.399 102.762 68.1429C104.076 65.6602 105.605 63.4158 106.954 61.4332C109.152 58.2004 110.89 55.6422 110.855 53.5199C110.559 52.7001 110.861 51.578 111.251 50.1651C111.617 48.822 112.076 47.1475 112.117 45.2637C111.315 38.054 107.471 31.7222 101.012 26.9778C92.7206 20.8844 80.8479 18.2041 70.7601 20.1402C54.7534 23.8206 39.677 37.49 41.8167 56.4968C42.4504 61.3401 43.7935 64.224 45.7994 65.0787C47.3751 65.7415 49.4159 65.1659 51.8695 63.3461L51.9102 63.3228C52.637 63.0379 53.3696 62.9042 54.1022 62.9042L54.0964 62.8984Z" fill="url(#paint1_linear_1_2565)"/>
<path d="M83.8771 80.9575C83.6038 80.9575 83.3247 80.9517 83.0456 80.9284C76.3534 80.6377 70.3182 75.12 64.9981 70.2534C59.8234 65.5206 54.9278 61.0552 50.5032 62.4042C48.0437 64.067 45.9564 64.5322 44.2993 63.7996C42.1481 62.8402 40.7119 59.8458 40.0317 54.8921C37.9269 37.8563 50.1078 22.2508 68.9867 17.7738H68.9925C79.528 15.6458 91.9066 18.4483 100.529 24.9137C106.983 29.7512 110.71 36.112 111.309 43.3043C111.193 45.3276 110.605 47.0079 110.134 48.3569C109.698 49.6011 109.355 50.5837 109.663 51.1128L109.687 51.1942C109.762 52.9966 108.128 55.2002 106.064 57.9853C104.442 60.1715 102.599 62.6541 101.087 65.5787C97.1046 73.2187 91.9531 80.9517 83.8887 80.9517H83.8771V80.9575ZM52.166 61.8111C56.2767 61.8111 60.6433 65.8055 65.2307 69.9976C70.5101 74.8234 76.493 80.2947 83.0631 80.5796C83.3364 80.597 83.6038 80.6086 83.8655 80.6086C91.7554 80.6086 96.8255 72.9687 100.762 65.4218C102.291 62.4739 104.14 59.9796 105.768 57.7818C107.78 55.0723 109.367 52.9269 109.326 51.2524C108.971 50.5837 109.32 49.5953 109.791 48.2464C110.256 46.9149 110.838 45.2637 110.948 43.3101C110.361 36.2457 106.681 29.9721 100.308 25.1986C91.7612 18.7913 79.4931 16.0121 69.0565 18.1226C50.352 22.5589 38.2874 38.0017 40.3689 54.8514C41.0317 59.6715 42.3981 62.5786 44.4331 63.4856C45.9797 64.1717 47.9565 63.7065 50.3229 62.1076L50.3694 62.0843C50.9625 61.8983 51.5614 61.8169 52.166 61.8169V61.8111Z" fill="url(#paint2_linear_1_2565)"/>
<path d="M81.8654 79.4749C81.7317 79.4749 81.5921 79.4749 81.4584 79.4691C74.6848 79.4574 68.4984 74.0501 63.0388 69.2883C57.9513 64.8462 53.1429 60.6541 48.8054 61.6134C46.439 63.0612 44.4157 63.41 42.7935 62.6484C40.6131 61.6309 39.1537 58.6133 38.4502 53.6886C36.4792 39.0192 45.7064 21.4368 67.1436 16.1981C77.871 13.9306 90.9473 16.8959 99.6861 23.5765C106.041 28.4372 109.605 34.7399 109.995 41.7984C109.797 43.9206 109.041 45.6707 108.489 46.944C108.001 48.0778 107.646 48.8918 107.96 49.2465L108.001 49.293V49.3511C108.105 50.7814 106.675 52.5373 104.692 54.9619C102.884 57.1771 100.634 59.9273 98.9361 63.2937C94.651 71.7128 89.6216 79.4807 81.8596 79.4807L81.8654 79.4749ZM50.102 61.1192C54.2243 61.1192 58.6315 64.9683 63.2655 69.0208C68.6786 73.7478 74.8127 79.1028 81.4584 79.1202C89.2495 79.3819 94.3195 71.5965 98.6221 63.131C100.343 59.7354 102.605 56.962 104.425 54.7352C106.256 52.4908 107.71 50.7175 107.663 49.4267C107.256 48.9034 107.628 48.0604 108.169 46.8045C108.71 45.5486 109.454 43.8334 109.646 41.7926C109.262 34.862 105.745 28.6523 99.471 23.8556C90.8136 17.2331 77.8535 14.2969 67.2192 16.5412C45.9855 21.7275 36.8455 39.1296 38.7933 53.6421C39.4793 58.4388 40.869 61.3634 42.9388 62.3344C44.4564 63.0438 46.3751 62.6949 48.6426 61.3053L48.695 61.282C49.1601 61.1774 49.6252 61.125 50.0962 61.125L50.102 61.1192Z" fill="url(#paint3_linear_1_2565)"/>
<path d="M79.1385 78.5737C72.4695 78.5737 66.2889 73.4164 60.8177 68.8522C55.8407 64.7008 51.1369 60.7762 46.9099 61.375C44.6366 62.6135 42.6772 62.8402 41.0899 62.0553C38.8863 60.968 37.4036 57.933 36.6768 53.0374C35.514 45.0195 37.5897 36.8214 42.5086 29.9605C47.7181 22.6927 55.5325 17.582 65.1086 15.1749C76.1964 12.7329 89.6739 15.7912 98.6512 22.7916C104.907 27.6697 108.314 33.9142 108.495 40.8507C108.216 43.1066 107.297 44.8451 106.628 46.1184C106.134 47.0603 105.774 47.7464 106.064 47.9325L106.134 47.979V48.0603C106.262 49.1709 104.954 50.6186 103.14 52.6129C101.175 54.7817 98.4767 57.7586 96.5929 61.5553C92.3194 70.1604 87.4994 78.5678 79.6966 78.5678H79.6559C79.4815 78.5737 79.3071 78.5795 79.1326 78.5795H79.1385V78.5737ZM47.7821 60.9622C51.9102 60.9622 56.3523 64.6717 61.0386 68.5848C66.6029 73.2245 72.9114 78.5097 79.6501 78.2132H79.685C87.2959 78.2132 92.0519 69.9046 96.2789 61.3983C98.186 57.5551 100.895 54.5607 102.878 52.3746C104.518 50.5663 105.82 49.1244 105.797 48.165C105.343 47.7871 105.733 47.0429 106.314 45.9498C106.971 44.6997 107.873 42.9903 108.146 40.8274C107.966 34.0247 104.605 27.8732 98.436 23.0648C89.5402 16.1284 76.179 13.0933 65.19 15.5121C55.6953 17.9017 47.9507 22.966 42.7876 30.164C37.9211 36.9493 35.8745 45.0544 37.0199 52.9851C37.7292 57.7586 39.1479 60.7006 41.241 61.7413C42.7295 62.4798 44.5842 62.2472 46.7646 61.0553L46.8227 61.032C47.1425 60.9855 47.4623 60.9622 47.7821 60.9622Z" fill="url(#paint4_linear_1_2565)"/>
<path d="M76.3127 78.4341C69.731 78.4341 63.5504 73.5036 58.0617 69.1255C53.2185 65.259 48.6426 61.6018 44.5377 61.8635C42.3516 62.9042 40.4561 63.0147 38.9037 62.1948C36.6827 61.0262 35.1768 57.9737 34.4267 53.1188C33.1767 45.0486 35.1884 36.7807 40.0898 29.8442C45.2587 22.5299 53.044 17.3552 62.5969 14.8841C73.8707 12.2968 88.0692 15.5295 97.1336 22.7334C103.285 27.629 106.53 33.8154 106.518 40.6297C106.14 43.0426 105 44.8451 104.239 46.037C103.89 46.5835 103.535 47.1475 103.593 47.3045C103.599 47.3278 103.646 47.3394 103.669 47.3452L103.779 47.3743L103.797 47.4847C103.931 48.322 102.82 49.4209 101.134 51.078C98.9012 53.2816 95.8429 56.2934 93.7788 60.5378C89.1158 70.172 84.662 78.1608 77.3942 78.3818C77.0279 78.4109 76.6674 78.4283 76.3069 78.4283H76.3127V78.4341ZM44.9389 61.4972C49.0612 61.4972 53.5441 65.0729 58.2769 68.8522C64.0156 73.428 70.5101 78.6318 77.3768 78.0387C84.4585 77.8236 88.8541 69.922 93.4648 60.3924C95.5522 56.0899 98.6395 53.0548 100.89 50.8338C102.314 49.4325 103.448 48.3104 103.46 47.6359C103.349 47.5778 103.297 47.4964 103.268 47.4266C103.14 47.1068 103.442 46.63 103.942 45.8451C104.681 44.6764 105.803 42.9089 106.169 40.5948C106.175 33.9201 102.977 27.8267 96.9127 23.0008C87.9296 15.8551 73.8533 12.6572 62.6783 15.2155C53.2068 17.6633 45.4971 22.7915 40.3747 30.0361C35.5256 36.9028 33.5313 45.0776 34.7698 53.0548C35.5024 57.7935 36.9501 60.7645 39.0665 61.8751C40.5201 62.6425 42.3225 62.5205 44.4156 61.5204L44.4796 61.5029C44.6308 61.4913 44.7819 61.4855 44.9389 61.4855V61.4972Z" fill="url(#paint5_linear_1_2565)"/>
<path d="M72.516 79.033C65.9982 79.033 59.8002 74.3002 54.2825 70.0906C49.602 66.5207 45.1831 63.1426 41.2236 63.067C39.1188 63.9042 37.2815 63.9042 35.7698 63.0495C33.5371 61.7937 32.008 58.7179 31.2289 53.9037C29.8916 45.7812 31.8452 37.4435 36.7292 30.4257C41.7876 23.1636 49.7415 17.7913 59.1374 15.2969C70.7717 12.5235 85.3772 15.8493 94.6568 23.3788C100.704 28.286 103.791 34.4201 103.593 41.1123C103.105 43.7229 101.698 45.5777 100.855 46.6824C100.622 46.9905 100.355 47.3394 100.297 47.4906H100.477L100.512 47.6243C100.663 48.229 99.7501 49.0255 98.2384 50.3396C95.8661 52.4036 92.2845 55.5201 90.0286 60.2471L89.8949 60.5378C85.7319 69.3406 81.4293 78.4457 74.1963 78.9225C73.6324 78.9923 73.0742 79.0272 72.516 79.0272V79.033ZM41.1597 62.7123H41.1945C45.2762 62.7763 49.7531 66.1951 54.4918 69.8116C60.4281 74.3409 67.1611 79.4807 74.1615 78.5795C81.2025 78.1143 85.4586 69.108 89.5751 60.3982L89.7146 60.1075C91.9996 55.3108 95.6161 52.1652 98.0116 50.0837C99.1163 49.1186 100.087 48.2813 100.174 47.8336C100.099 47.8162 100.012 47.7755 99.9652 47.6824C99.8431 47.444 100.07 47.1417 100.576 46.4789C101.396 45.3974 102.773 43.5834 103.244 41.0832C103.436 34.5305 100.39 28.4953 94.4358 23.6579C85.2376 16.1923 70.7601 12.8956 59.2188 15.64C49.9043 18.1169 42.0202 23.4427 37.0083 30.635C32.1708 37.5772 30.2405 45.8219 31.5661 53.8572C32.322 58.5551 33.793 61.5495 35.9326 62.753C37.3571 63.5554 39.1014 63.5496 41.1189 62.7356L41.1538 62.724V62.7123H41.1597Z" fill="url(#paint6_linear_1_2565)"/>
<path d="M69.103 80.1261C62.6201 80.1261 56.3872 75.5619 50.8171 71.4861C46.3343 68.2068 42.1016 65.1136 38.3223 64.7299C36.2931 65.3869 34.5197 65.2648 33.0371 64.3752C30.7928 63.0205 29.2462 59.9215 28.4497 55.1654C27.0193 46.9905 28.9148 38.5831 33.7872 31.4839C38.8049 24.1753 46.7297 18.739 56.0965 16.1807C67.9053 13.2677 83.255 16.768 92.5927 24.4951C98.5291 29.4082 101.465 35.4899 101.087 42.0716C100.465 44.9439 98.6686 46.8801 97.8081 47.8162C97.7267 47.9092 97.6395 48.0022 97.5639 48.0836L97.622 48.2232C97.7964 48.636 97.1743 49.1069 95.808 50.136C93.4764 51.8861 89.139 55.1479 86.6679 60.4273C86.4179 60.9738 86.1621 61.5204 85.9121 62.0669C81.8654 70.8988 78.0396 79.2365 71.3822 79.9284C70.6147 80.0621 69.8473 80.1261 69.0856 80.1261H69.103ZM38.2758 64.3752H38.3107C42.2004 64.7531 46.4855 67.887 51.0206 71.207C57.1896 75.7188 64.1784 80.8412 71.3473 79.5795C77.8186 78.9051 81.6037 70.6546 85.6098 61.9216C85.8598 61.375 86.1156 60.8227 86.3656 60.2761C88.8716 54.9212 93.2555 51.6245 95.6103 49.857C96.2789 49.3511 97.029 48.7929 97.2441 48.5022C97.1743 48.4964 97.1104 48.4674 97.0697 48.3976C96.965 48.2231 97.0987 48.072 97.5523 47.5836C98.3953 46.6708 100.14 44.7811 100.738 42.0309C101.105 35.5887 98.2093 29.6117 92.3659 24.7684C83.1096 17.1052 67.8878 13.634 56.1779 16.5237C46.8867 19.0646 39.0374 24.4486 34.0662 31.6874C29.2462 38.7052 27.374 47.0254 28.7869 55.1072C29.566 59.7586 31.0544 62.7763 33.2115 64.0787C34.607 64.9218 36.2989 65.0264 38.2409 64.3926L38.2758 64.381V64.3752Z" fill="url(#paint7_linear_1_2565)"/>
<path d="M66.0331 81.6494C59.5502 81.6494 53.2533 77.2189 47.6077 73.2478C43.3691 70.2651 39.363 67.4452 35.7815 66.7998C33.8279 67.2766 32.1068 67.0382 30.6591 66.1021C28.409 64.6427 26.8565 61.5204 26.0309 56.8283C24.5134 48.6011 26.3507 40.1239 31.1998 32.9491C36.1768 25.594 44.0668 20.0995 53.4103 17.4715C65.3877 14.419 81.4933 18.0878 90.8775 26.0127C96.7034 30.9315 99.4942 36.961 98.9419 43.4381C98.4128 45.5893 97.1336 47.5371 95.1335 49.2639C95.151 49.3046 95.1568 49.3453 95.151 49.3919C95.1219 49.607 94.8428 49.793 93.8718 50.3977C91.645 51.7931 86.4296 55.0608 83.6969 61.0029C83.2608 61.9681 82.8364 62.9333 82.4061 63.9043C78.6501 72.4105 75.0976 80.4517 68.9577 81.3413C67.9751 81.5564 66.9925 81.6611 66.0157 81.6611L66.0331 81.6494ZM35.7698 66.4393H35.8047C39.4735 67.0963 43.5203 69.9453 47.8112 72.9571C54.2476 77.4806 61.5329 82.6204 68.9112 80.9808C74.8708 80.1203 78.3826 72.1664 82.0979 63.7531C82.5282 62.7879 82.9526 61.8111 83.3887 60.8518C86.1679 54.8107 91.4415 51.5024 93.6974 50.0896C94.023 49.8861 94.3428 49.6884 94.5579 49.5372C94.5579 49.5372 94.5521 49.5256 94.5463 49.5198C94.4533 49.3802 94.5463 49.3046 94.7905 49.0953C96.808 47.3917 98.093 45.4672 98.6105 43.3683C99.1454 37.0365 96.401 31.1118 90.6624 26.2685C81.3595 18.4134 65.3935 14.7737 53.515 17.7971C44.247 20.4019 36.4268 25.844 31.5022 33.1351C26.6996 40.2344 24.8855 48.6185 26.3856 56.7585C27.188 61.3518 28.6939 64.3985 30.8568 65.7997C32.2231 66.6893 33.8686 66.9044 35.7408 66.4451H35.7756H35.7698V66.4393Z" fill="url(#paint8_linear_1_2565)"/>
<path d="M63.283 83.5623C56.7593 83.5623 50.3637 79.2191 44.6133 75.306C40.6654 72.6257 36.9327 70.0906 33.5953 69.2185C28.6822 70.0034 25.3507 66.4102 23.9669 58.8342C22.3621 50.5605 24.1413 42.0077 28.9729 34.7573C33.9093 27.3557 41.7643 21.7973 51.0904 19.1111C63.4283 15.8609 79.9467 19.6286 89.5111 27.8732C95.2266 32.7979 97.8721 38.7692 97.1511 45.1474C96.1103 48.9616 92.802 51.1012 92.5171 51.1012H92.4183C86.9703 53.6828 83.1561 57.3225 81.0746 61.9216C80.4816 63.2763 79.8943 64.6659 79.3245 66.009C75.8418 74.242 72.5567 82.0215 66.8878 83.0855C65.6784 83.4111 64.4749 83.5565 63.2713 83.5565H63.283V83.5623ZM33.6127 68.8638H33.6476C37.0606 69.7534 40.8224 72.3117 44.811 75.0211C51.5556 79.6028 59.2014 84.7949 66.818 82.7483C72.3125 81.7134 75.5627 74.0211 79.0048 65.8753C79.5746 64.5264 80.1618 63.1368 80.7607 61.782C82.22 58.5493 85.4179 54.02 92.3427 50.7582C92.4183 50.7233 92.488 50.6884 92.552 50.6593C92.5985 50.6245 92.6567 50.5896 92.7264 50.5431L92.7729 50.514H92.9067C93.8428 49.886 96.0115 48.0371 96.8197 45.0776C97.5174 38.8447 94.9184 32.9781 89.2902 28.1348C79.8013 19.96 63.4225 16.2272 51.1893 19.4425C41.9446 22.1055 34.1593 27.6174 29.2695 34.9492C24.4843 42.124 22.7284 50.5838 24.3157 58.7703C25.2518 63.9101 27.6182 69.8348 33.5778 68.8638H33.6127Z" fill="url(#paint9_linear_1_2565)"/>
<path d="M60.8177 85.8066C54.201 85.8066 47.6658 81.4866 41.7701 77.591C38.1769 75.2188 34.7814 72.9745 31.7289 71.9337C26.903 72.2652 23.6296 68.544 22.2284 61.1483C20.5364 52.8222 22.2574 44.1939 27.0717 36.8679C31.9673 29.414 39.7875 23.7974 49.0903 21.0473C61.5852 17.6575 78.8768 21.6054 88.4645 30.0245C94.0695 34.9492 96.5696 40.8739 95.6917 47.1591C94.5637 50.9326 91.2786 52.9153 90.7263 52.9327C90.5809 52.9327 90.5112 52.8281 90.4995 52.7932C90.4763 52.7292 90.4821 52.6711 90.517 52.5955C88.6797 53.1537 81.9177 56.0899 78.778 63.1484C78.0396 64.8694 77.3244 66.6428 76.6325 68.3638C73.4172 76.3584 70.3822 83.9112 65.1435 85.1438C63.7016 85.6031 62.2596 85.8066 60.8177 85.8066ZM31.7754 71.5791L31.8103 71.5907C34.9151 72.6373 38.3455 74.9049 41.9678 77.3003C49.0787 81.9983 57.1372 87.3183 65.0505 84.8065C70.1263 83.6146 73.1265 76.1433 76.3069 68.2359C76.9988 66.5148 77.7139 64.7357 78.4582 63.0088C82.0979 54.8282 90.3077 52.142 90.9705 52.142H91.0984L91.174 52.2757C91.174 52.2757 91.1914 52.3339 91.174 52.3746C92.1798 51.8048 94.4591 50.0256 95.3428 47.0777C96.1975 40.9437 93.7381 35.1294 88.2262 30.2803C78.7198 21.931 61.5735 18.018 49.1833 21.3729C39.9619 24.0998 32.2115 29.6698 27.3624 37.0481C22.6005 44.2985 20.8969 52.828 22.5714 61.0669C23.5249 66.102 25.903 72.021 31.7405 71.5675H31.7754V71.5791Z" fill="url(#paint10_linear_1_2565)"/>
<path d="M58.6083 88.3126C51.8405 88.3126 45.0959 83.9402 39.0026 79.9923C35.8396 77.9457 32.8569 76.0096 30.1532 74.87C25.4437 74.7711 22.2051 70.9046 20.7748 63.6775C18.9957 55.2991 20.6527 46.601 25.4553 39.1936C30.3102 31.699 38.0955 26.0185 47.3751 23.1985C60.2305 19.6169 77.9291 23.6521 87.6854 32.3851C93.1857 37.3098 95.5463 43.188 94.5114 49.3802C93.3427 52.9792 90.1565 54.9561 89.2611 54.991H89.2379C89.0402 54.991 88.9646 54.8863 88.9413 54.8223C88.8774 54.677 88.9588 54.4968 89.1913 54.2526C88.9123 54.2526 88.2785 54.363 87.2668 54.7352C85.5342 55.3747 79.6559 57.9737 76.7662 64.5903C75.8941 66.6602 75.0743 68.8115 74.2836 70.893C71.3183 78.6783 68.5216 86.0276 63.6783 87.4114C61.9922 88.0335 60.3002 88.3067 58.6083 88.3067V88.3126ZM47.4739 23.5358C38.2758 26.3324 30.5602 31.9606 25.746 39.3855C21.0016 46.7114 19.3561 55.3166 21.1179 63.6077C22.8796 72.5268 27.0252 74.463 30.1939 74.5153L30.2579 74.5269C33.0022 75.6723 36.0082 77.6259 39.1944 79.69C46.7413 84.5856 55.2942 90.1324 63.5679 87.0799C68.2542 85.7427 71.0217 78.469 73.9521 70.7709C74.7487 68.6836 75.5685 66.5265 76.4406 64.4508C79.7548 56.8864 87.354 54.0026 89.1041 53.9037C89.296 53.9037 89.5228 53.9037 89.6158 54.0607C89.639 54.1014 89.6856 54.2118 89.5925 54.3456C89.453 54.4793 89.3716 54.5723 89.3309 54.6363C90.0286 54.5084 93.0462 52.7815 94.1742 49.2988C95.18 43.2578 92.8601 37.49 87.4529 32.6467C77.7837 23.9835 60.2188 19.9832 47.4739 23.53V23.5358Z" fill="url(#paint11_linear_1_2565)"/>
<path d="M56.6198 91.0395C49.6078 91.0395 42.5783 86.5101 36.2175 82.4053C33.5953 80.7133 31.1126 79.1144 28.8392 77.9806C24.2343 77.4341 21.0364 73.428 19.5829 66.387C17.7165 57.9563 19.3154 49.1883 24.0947 41.7054C28.9148 34.1642 36.6652 28.4197 45.9215 25.5359C58.9164 21.8147 77.4116 26.0301 87.1563 34.9259C92.552 39.8506 94.7788 45.6823 93.5927 51.7873C92.3659 55.2991 89.1797 57.212 88.0924 57.2585C87.8017 57.2818 87.6912 57.1539 87.6505 57.055C87.5575 56.8574 87.6738 56.5957 88.0052 56.241C87.982 56.1829 87.7901 56.1073 87.2784 56.1538C84.6911 56.4039 78.0047 59.2819 75.0103 66.2125C74.0219 68.6138 73.1207 71.1372 72.2427 73.5792C69.5216 81.1726 66.9517 88.3475 62.4748 89.865C60.5328 90.679 58.5792 91.0337 56.6198 91.0337V91.0395ZM46.0262 25.8731C36.8513 28.7337 29.1648 34.4201 24.3971 41.8914C19.6701 49.293 18.0828 57.9679 19.9317 66.3114C21.7225 75.0211 25.8041 77.2771 28.9148 77.6318L28.9729 77.6492C31.2696 78.7946 33.7697 80.4051 36.4152 82.1087C44.4854 87.3125 53.6312 93.2082 62.3585 89.5394C66.6843 88.0684 69.2251 80.9749 71.9229 73.4629C72.7951 71.0209 73.7021 68.4917 74.6963 66.0788C76.3825 62.1716 79.1268 59.7296 81.1386 58.3691C83.6096 56.6946 85.9528 55.9445 87.2087 55.8108C87.8017 55.7526 88.168 55.8166 88.3134 56.0201C88.3599 56.084 88.418 56.2178 88.3308 56.4039L88.3017 56.4504C87.9703 56.7992 87.982 56.9213 87.982 56.9213H88.0168C88.0808 56.9213 88.2378 56.9155 88.5052 56.8225C89.8076 56.3806 92.2555 54.6014 93.2729 51.7001C94.4242 45.7463 92.238 40.0251 86.9412 35.1818C77.2779 26.3557 58.928 22.1752 46.0436 25.8673H46.0262V25.8731Z" fill="url(#paint12_linear_1_2565)"/>
<path d="M54.922 93.9001C47.3983 93.9001 39.7293 88.894 33.2813 84.6845C31.3277 83.4111 29.4846 82.2076 27.7635 81.2133C23.3214 80.2307 20.0771 75.9688 18.6293 69.2185C16.6757 60.7355 18.2165 51.8978 22.9784 44.3334C27.7577 36.7458 35.4733 30.9431 44.7063 27.9953C58.0501 24.0707 76.9639 28.379 86.854 37.583C92.145 42.5077 94.2381 48.2987 92.9066 54.3223C91.6391 57.7237 88.5052 59.6075 87.1796 59.6715C86.8133 59.6947 86.6505 59.5435 86.5865 59.4156C86.4702 59.1772 86.5923 58.8574 86.9586 58.4272C86.9819 58.3458 86.9761 58.2644 86.79 58.1888C85.1737 57.5318 76.9174 59.8982 73.487 67.9568C72.3881 70.6837 71.4229 73.5676 70.4868 76.3526C67.9925 83.7774 65.6377 90.7836 61.5096 92.4349C59.3467 93.4582 57.1372 93.8942 54.9162 93.8942H54.922V93.9001ZM44.811 28.3267C35.6593 31.2513 28.0077 37.0016 23.2749 44.5195C18.5654 52.0024 17.0362 60.7471 18.9724 69.1429C20.391 75.7712 23.554 79.9342 27.8624 80.8761L27.9147 80.8935C29.6532 81.8994 31.5079 83.1088 33.4732 84.3937C41.7527 89.801 52.0556 96.5223 61.37 92.1209C65.3644 90.5278 67.6901 83.5914 70.1554 76.2479C71.0915 73.4571 72.0625 70.5674 73.1614 67.8289C76.6732 59.5668 85.2434 57.2004 86.9179 57.869C87.261 58.0085 87.3947 58.276 87.2726 58.59L87.2435 58.6423C86.9121 59.0202 86.8714 59.2179 86.9005 59.2703C86.9179 59.3052 87.0168 59.3342 87.1563 59.3284C88.1389 59.2819 91.2903 57.6481 92.5694 54.2293C93.866 48.3569 91.8077 42.6821 86.6156 37.8447C76.8011 28.7105 58.0443 24.4428 44.8052 28.3325L44.811 28.3267Z" fill="url(#paint13_linear_1_2565)"/>
<path d="M53.2882 96.9119C45.2064 96.9119 36.9559 91.3127 30.0021 86.5916C28.9322 85.8648 27.8915 85.1612 26.9031 84.51C22.5598 83.0797 19.3619 78.6783 17.8909 72.114C15.8501 63.5787 17.3386 54.6654 22.0772 47.0313C26.8158 39.3971 34.4965 33.5305 43.7063 30.5187C57.178 26.4604 76.8942 30.9432 86.761 40.2983C91.9531 45.223 93.9184 50.9675 92.4415 56.9213C91.1042 60.2994 87.9122 62.1018 86.4993 62.1658C86.0226 62.189 85.8249 62.0088 85.7493 61.8518C85.6098 61.5786 85.7377 61.189 86.1272 60.7006C86.1621 60.5901 86.1912 60.3634 85.7784 60.2122C83.7783 59.468 75.5452 61.7588 72.1846 69.7767C70.9869 72.8176 69.9752 76.0561 68.9926 79.1958C66.6203 86.7718 64.5737 93.3128 60.7596 95.0862C58.3117 96.377 55.8058 96.9177 53.2824 96.9177H53.2882V96.9119ZM43.811 30.8501C34.6767 33.8387 27.0659 39.653 22.3737 47.2173C17.6874 54.7759 16.2164 63.5903 18.234 72.0384C19.6759 78.4923 22.7982 82.8065 27.031 84.1844L27.0717 84.2077C28.0717 84.8647 29.1183 85.5741 30.1997 86.3067C39.2468 92.4465 50.5032 100.086 60.6084 94.7664C64.2888 93.057 66.4168 86.2718 68.667 79.0853C69.6496 75.9456 70.6671 72.7012 71.8706 69.6429C75.3185 61.4216 83.8422 59.1133 85.9121 59.8808C86.4005 60.061 86.604 60.4099 86.4645 60.8402L86.4354 60.8983C86.0865 61.3285 86.0226 61.596 86.0749 61.7007C86.1156 61.7821 86.2726 61.8286 86.4993 61.8169C87.7959 61.7588 90.8659 59.9912 92.1217 56.8167C93.5579 51.0198 91.6275 45.3916 86.5342 40.5542C76.743 31.2746 57.1838 26.8325 43.8226 30.8501H43.811Z" fill="url(#paint14_linear_1_2565)"/>
<path d="M51.9335 99.9295C42.6714 99.9295 33.0894 92.871 26.2053 87.8009C21.9784 85.9403 18.8154 81.3936 17.3328 75.0153C15.2047 66.4218 16.635 57.4446 21.3504 49.729C26.0484 42.0484 33.6941 36.1237 42.8807 33.0421C56.7012 28.7802 76.8302 33.3444 86.8307 43.0077C91.924 47.9324 93.7672 53.6362 92.1508 59.5145C90.8077 62.7239 87.6738 64.5961 86.0109 64.6659C85.4179 64.6833 85.1853 64.4741 85.0865 64.2938C84.9178 63.974 85.0516 63.5321 85.4702 62.9681C85.5574 62.6193 85.3714 62.3576 84.9062 62.1948C82.7317 61.4332 74.3766 63.5612 71.0566 71.5907C69.7659 74.9397 68.7251 78.533 67.7134 82.0157C65.5563 89.4405 63.6958 95.8479 60.1781 97.7259C57.5094 99.2783 54.7302 99.9295 51.916 99.9295H51.9335ZM42.9911 33.3793C33.8802 36.4318 26.3042 42.3042 21.647 49.9151C16.9781 57.5492 15.5652 66.4335 17.67 74.9339C19.1294 81.2017 22.2226 85.6671 26.3798 87.4986C35.3105 94.0687 48.7531 103.976 60.0211 97.4177C63.4109 95.6037 65.3412 88.958 67.3878 81.9169C68.3995 78.4341 69.4461 74.8293 70.7427 71.4628C74.0219 63.5263 82.284 60.9041 85.0341 61.8692C85.6911 62.1018 85.9702 62.5495 85.8074 63.1019L85.7784 63.16C85.3016 63.7822 85.3597 64.0554 85.4063 64.1426C85.476 64.2764 85.6795 64.3403 86.0051 64.3287C87.3017 64.2706 90.4414 62.7298 91.8252 59.4156C93.395 53.6886 91.5868 48.1011 86.5924 43.2694C81.9119 38.7459 74.4812 35.0771 66.2133 33.1991C57.9396 31.3211 49.4741 31.3908 42.9911 33.3851V33.3793Z" fill="url(#paint15_linear_1_2565)"/>
<path d="M50.7067 102.97C43.7121 102.97 35.4442 99.0225 25.6879 91.0686C21.5481 88.737 18.4259 84.0507 16.9316 77.8818C14.7222 69.236 16.0885 60.1831 20.7864 52.392C25.4437 44.6707 33.0546 38.682 42.2237 35.5364C56.1547 31.1409 77.1035 35.8853 87.0575 45.6824C92.0578 50.6012 93.7788 56.2759 92.0287 62.0844C90.6217 65.2881 87.4529 67.0847 85.697 67.1545H85.5923C84.9702 67.1545 84.7027 66.9161 84.5923 66.7067C84.3946 66.3463 84.5283 65.8346 84.9818 65.2009C85.1272 64.5787 84.6272 64.2647 84.1736 64.1194C81.5398 63.2356 73.3591 65.3986 70.1031 73.3757C68.7309 77.0271 67.6727 80.975 66.6494 84.795C64.7016 92.0686 63.0155 98.3538 59.7828 100.337C57.0268 102.098 54.0092 102.976 50.7067 102.976V102.97ZM42.3341 35.8679C33.2464 38.9901 25.7053 44.9207 21.0888 52.5781C16.4374 60.2878 15.0826 69.2418 17.2746 77.8004C18.7515 83.8763 21.8098 88.4812 25.8914 90.7837C40.148 102.406 51.1602 105.424 59.6025 100.04C62.7248 98.1329 64.3877 91.9116 66.318 84.7077C67.3413 80.8761 68.4053 76.9166 69.7833 73.2478C73.1207 65.0671 81.5805 62.881 84.2957 63.788C85.133 64.0671 85.5109 64.631 85.3249 65.3229L85.2958 65.3811C84.9237 65.8986 84.7841 66.3114 84.912 66.544C85.0109 66.7242 85.29 66.8172 85.6912 66.7998C87.3482 66.7358 90.3658 65.0148 91.7031 61.9623C93.4067 56.305 91.7206 50.7524 86.8133 45.9324C76.9349 36.2167 56.1547 31.513 42.3341 35.8679Z" fill="url(#paint16_linear_1_2565)"/>
<path d="M49.4915 105.965C47.032 105.965 44.4389 105.494 41.712 104.546C35.1361 102.267 29.1532 97.6736 25.2983 94.2257C21.24 91.4174 18.1642 86.5857 16.6583 80.6377C14.3617 71.9396 15.6699 62.817 20.3504 54.9503C24.9669 47.1824 32.5487 41.1356 41.6887 37.9203C48.4507 35.7399 57.3582 35.6353 66.1377 37.6238C74.894 39.6064 82.6445 43.4729 87.3947 48.2348C92.3078 53.1537 93.9067 58.7935 92.0229 64.538C90.5054 67.8463 87.2377 69.4685 85.5109 69.5325C84.883 69.5616 84.4236 69.3697 84.226 69.015C84.069 68.7301 84.0108 68.2068 84.6155 67.323C84.8016 66.4974 84.1329 66.0905 83.534 65.8986C80.7258 64.9974 72.4927 67.0207 69.26 75.0386C67.8064 78.9807 66.7482 83.289 65.7249 87.452C63.9748 94.5862 62.4573 100.749 59.4862 102.819C56.4861 104.912 53.137 105.959 49.4799 105.959H49.4915V105.965ZM41.7992 38.2517C32.7348 41.4379 25.2227 47.4324 20.6469 55.1305C16.0187 62.9158 14.7222 71.9454 16.9955 80.5505C18.4782 86.4171 21.5074 91.179 25.5134 93.9524C29.3625 97.3945 35.2988 101.959 41.8225 104.22C48.5031 106.535 54.3813 105.971 59.2944 102.54C62.1608 100.546 63.6609 94.4408 65.3935 87.3765C66.4168 83.2018 67.4808 78.8876 68.9402 74.9165C70.7485 70.4279 73.9405 68.0556 76.3011 66.8521C79.3245 65.3113 82.1735 65.0962 83.6503 65.5729C84.6911 65.9044 85.1679 66.5905 84.9585 67.4393L84.9353 67.4975C84.5283 68.0906 84.3887 68.5673 84.5457 68.8522C84.6736 69.0848 85.0167 69.2069 85.5109 69.1836C87.2203 69.1255 90.3193 67.4277 91.7089 64.4101C93.5404 58.8168 91.9706 53.299 87.1563 48.479C82.4468 43.7636 74.7603 39.932 66.068 37.961C57.3466 35.9841 48.5089 36.0888 41.805 38.2459L41.7992 38.2517Z" fill="url(#paint17_linear_1_2565)"/>
<path d="M48.4565 108.819C40.1654 108.819 31.5254 103.563 25.0134 97.2258C21.0248 93.9233 17.9956 88.9521 16.4839 83.2425C14.1 74.492 15.3559 65.2939 20.0073 57.3516C24.5831 49.5372 32.1301 43.4322 41.2468 40.1471C55.6081 35.426 77.807 40.4204 87.825 50.6245C92.6508 55.5434 94.1393 61.1483 92.1217 66.8347C90.5461 70.1139 87.197 71.7128 85.4295 71.7652C84.7201 71.771 84.1911 71.5791 83.9643 71.1721C83.7841 70.8523 83.7143 70.2709 84.3597 69.2883C84.5922 68.1836 83.6038 67.701 82.9875 67.5091C79.7141 66.4858 71.638 68.7592 68.5332 76.5561C67.0041 80.7889 65.9633 85.4578 64.9574 89.9638C63.3934 96.9642 62.0387 103.011 59.3176 105.168C55.9279 107.738 52.23 108.825 48.4565 108.825V108.819ZM41.3631 40.4727C32.3219 43.7287 24.8448 49.7814 20.3097 57.5202C15.7048 65.3811 14.4605 74.4804 16.8211 83.1437C18.3096 88.7893 21.3039 93.6908 25.246 96.9584C34.6244 106.087 48.4333 112.959 59.1025 104.877C61.7247 102.802 63.0678 96.8131 64.6144 89.8766C65.6261 85.3589 66.6668 80.6843 68.2076 76.4224C69.9984 71.9221 73.1788 69.5732 75.5336 68.3871C78.2082 67.044 81.1734 66.5672 83.0922 67.1661C84.348 67.5556 84.9295 68.3696 84.6911 69.3871L84.6678 69.4453C84.2259 70.1139 84.0864 70.6604 84.2666 70.9918C84.4236 71.2767 84.8306 71.4279 85.4179 71.4047C87.104 71.3523 90.296 69.8174 91.8019 66.6893C93.7614 61.1541 92.302 55.6712 87.575 50.857C77.6442 40.7344 55.6139 35.7806 41.3631 40.4611V40.4727Z" fill="url(#paint18_linear_1_2565)"/>
<path d="M47.5146 111.494C39.456 111.494 31.0544 106.593 24.8041 100.011C20.8852 96.1909 17.8967 91.0802 16.3908 85.6264C13.9256 76.8236 15.1175 67.5556 19.7515 59.5377C24.2924 51.6827 31.7986 45.5137 40.8922 42.1647C47.8635 39.8274 57.1488 39.682 66.3703 41.7635C75.5568 43.8392 83.5573 47.8627 88.325 52.8048C93.0694 57.7237 94.4416 63.2996 92.3019 68.9278C90.6623 72.2128 87.2958 73.7536 85.4295 73.8001H85.3306C84.5748 73.8001 84.0224 73.5618 83.7724 73.1257C83.5747 72.7768 83.4817 72.1256 84.1678 71.0442C84.4469 69.6953 83.2375 69.1138 82.4933 68.8871C79.0396 67.8405 70.9694 69.9976 67.8704 77.8585C66.2773 82.382 65.2132 87.6265 64.283 92.2605C62.8933 99.1329 61.6956 105.063 59.2071 107.296C55.6139 110.244 51.6079 111.506 47.5146 111.506V111.494ZM41.0084 42.4903C31.9905 45.8102 24.5482 51.9269 20.048 59.7122C15.4605 67.6486 14.2802 76.8177 16.7222 85.5333C18.2107 90.929 21.1643 95.9874 25.0483 99.7667C34.3744 109.575 48.474 115.622 58.9745 107.023C61.3758 104.872 62.562 98.9934 63.9341 92.1849C64.8702 87.5451 65.9342 82.2832 67.539 77.7306C69.3123 73.2245 72.4869 70.8872 74.8417 69.7243C77.5221 68.3987 80.5629 67.9336 82.5921 68.5499C84.0689 68.9976 84.7666 69.9453 84.505 71.143L84.4818 71.2012C83.9992 71.957 83.8596 72.5617 84.0806 72.9455C84.2724 73.2827 84.7492 73.4513 85.4178 73.4455C87.197 73.399 90.4065 71.9221 91.9763 68.7824C94.0578 63.2996 92.7089 57.8516 88.0691 53.0374C83.348 48.1417 75.4115 44.159 66.2889 42.0949C57.1314 40.0309 47.9158 40.1704 41.0026 42.4845H41.0084V42.4903Z" fill="url(#paint19_linear_1_2565)"/>
<path d="M46.6135 114C44.6075 114 42.5318 113.692 40.4038 113.076C29.7928 109.994 19.6701 99.3422 16.3327 87.7428C13.7803 78.8818 14.9199 69.5441 19.5306 61.4506C24.0308 53.5549 31.5022 47.322 40.5782 43.9032C55.3523 38.8564 78.8187 44.1009 88.86 54.6886C93.523 59.6075 94.7905 65.1543 92.5229 70.736V70.7535C90.988 73.7071 87.7378 75.5154 85.4761 75.5619H85.3888C84.54 75.5619 83.9178 75.2944 83.6329 74.8002C83.412 74.4165 83.3015 73.7013 84.0283 72.521C84.2609 71.3465 83.5341 70.422 82.034 69.9743C78.3884 68.8987 70.3473 70.957 67.2599 78.8876C65.597 83.696 64.5796 89.3242 63.6842 94.2838C62.4632 101.023 61.4166 106.848 59.1432 109.145C55.4918 112.366 51.2416 114 46.6135 114ZM53.5906 42.3101C48.9624 42.3101 44.5378 42.9206 40.7003 44.2288C31.7115 47.6185 24.2983 53.7932 19.8387 61.6192C15.2745 69.6313 14.1524 78.8702 16.6758 87.6439C19.9841 99.1329 30.0079 109.686 40.5085 112.738C47.4216 114.75 53.7824 113.419 58.9048 108.889C61.091 106.674 62.1317 100.9 63.3411 94.2199C64.2423 89.2428 65.2598 83.603 66.9343 78.7655C70.0973 70.6314 78.3826 68.5266 82.1387 69.6371C83.8481 70.143 84.6621 71.2303 84.3713 72.6199L84.3481 72.678C83.8306 73.5094 83.6911 74.1839 83.9411 74.6258C84.1562 75.0037 84.6737 75.213 85.3888 75.213H85.4702C87.2901 75.1781 90.581 73.7187 92.2032 70.6023C94.4126 65.1601 93.1683 59.7412 88.6099 54.9328C81.2549 47.1766 66.6378 42.3101 53.5906 42.3101Z" fill="url(#paint20_linear_1_2565)"/>
</g>
<path d="M80.2315 56.7178L87.3889 49.8628H82.8712L78.0861 54.4852L73.3125 49.8744H68.7949L75.9522 56.7295C76.0627 56.8225 76.0627 56.9911 75.9522 57.0899L71.4113 61.4448C71.4113 61.4448 72.6904 62.3867 73.6033 63.6717C74.6789 62.6251 78.1035 59.3284 78.1035 59.3284L82.877 63.9391H87.3947L80.2373 57.0841C80.1269 56.9911 80.1269 56.8225 80.2373 56.7236L80.2315 56.7178Z" fill="white"/>
<path d="M62.7132 66.2474C62.8527 66.2474 65.0214 66.544 65.1551 66.5498L70.6089 61.2995C69.4519 60.4506 66.3413 60.2646 64.8063 60.2646H53.2184C46.5379 60.2646 43.2005 63.131 43.2005 68.8639V88.3765H49.7822V70.5442C49.7822 67.6777 51.6544 66.2474 55.393 66.2474H62.719H62.7132Z" fill="white"/>
<path d="M67.9809 72.6315V87.8997H74.487V68.3871C74.4754 65.1427 74.1324 64.5845 73.7893 64.1833L67.9402 69.9627C67.9402 69.9627 68.0099 69.8697 67.9809 72.6315Z" fill="white"/>
<defs>
<linearGradient id="paint0_linear_1_2565" x1="44.0648" y1="64.1437" x2="112.914" y2="44.3715" gradientUnits="userSpaceOnUse">
<stop stop-color="#007236"/>
<stop offset="1" stop-color="#2E3191"/>
</linearGradient>
<linearGradient id="paint1_linear_1_2565" x1="42.6267" y1="61.8014" x2="111.874" y2="41.9153" gradientUnits="userSpaceOnUse">
<stop stop-color="#007236"/>
<stop offset="1" stop-color="#2E3191"/>
</linearGradient>
<linearGradient id="paint2_linear_1_2565" x1="41.1045" y1="59.7244" x2="110.762" y2="39.7222" gradientUnits="userSpaceOnUse">
<stop stop-color="#007236"/>
<stop offset="1" stop-color="#2E3191"/>
</linearGradient>
<linearGradient id="paint3_linear_1_2565" x1="39.4314" y1="58.1157" x2="109.499" y2="37.9974" gradientUnits="userSpaceOnUse">
<stop stop-color="#007236"/>
<stop offset="1" stop-color="#2E3191"/>
</linearGradient>
<linearGradient id="paint4_linear_1_2565" x1="37.567" y1="57.0718" x2="108.06" y2="36.8284" gradientUnits="userSpaceOnUse">
<stop stop-color="#007236"/>
<stop offset="1" stop-color="#2E3191"/>
</linearGradient>
<linearGradient id="paint5_linear_1_2565" x1="35.2305" y1="56.7608" x2="106.15" y2="36.3979" gradientUnits="userSpaceOnUse">
<stop stop-color="#007236"/>
<stop offset="1" stop-color="#2E3191"/>
</linearGradient>
<linearGradient id="paint6_linear_1_2565" x1="31.952" y1="57.1741" x2="103.303" y2="36.6849" gradientUnits="userSpaceOnUse">
<stop stop-color="#007236"/>
<stop offset="1" stop-color="#2E3191"/>
</linearGradient>
<linearGradient id="paint7_linear_1_2565" x1="29.0891" y1="58.0745" x2="100.882" y2="37.4511" gradientUnits="userSpaceOnUse">
<stop stop-color="#007236"/>
<stop offset="1" stop-color="#2E3191"/>
</linearGradient>
<linearGradient id="paint8_linear_1_2565" x1="26.5899" y1="59.3776" x2="98.8269" y2="38.6314" gradientUnits="userSpaceOnUse">
<stop stop-color="#007236"/>
<stop offset="1" stop-color="#2E3191"/>
</linearGradient>
<linearGradient id="paint9_linear_1_2565" x1="24.4441" y1="61.0318" x2="97.1297" y2="40.156" gradientUnits="userSpaceOnUse">
<stop stop-color="#007236"/>
<stop offset="1" stop-color="#2E3191"/>
</linearGradient>
<linearGradient id="paint10_linear_1_2565" x1="22.6268" y1="63.0008" x2="95.7678" y2="41.9999" gradientUnits="userSpaceOnUse">
<stop stop-color="#007236"/>
<stop offset="1" stop-color="#2E3191"/>
</linearGradient>
<linearGradient id="paint11_linear_1_2565" x1="21.0995" y1="65.209" x2="94.6947" y2="44.0773" gradientUnits="userSpaceOnUse">
<stop stop-color="#007236"/>
<stop offset="1" stop-color="#2E3191"/>
</linearGradient>
<linearGradient id="paint12_linear_1_2565" x1="19.8429" y1="67.6188" x2="93.8913" y2="46.3506" gradientUnits="userSpaceOnUse">
<stop stop-color="#007236"/>
<stop offset="1" stop-color="#2E3191"/>
</linearGradient>
<linearGradient id="paint13_linear_1_2565" x1="18.8253" y1="70.1594" x2="93.3291" y2="48.7661" gradientUnits="userSpaceOnUse">
<stop stop-color="#007236"/>
<stop offset="1" stop-color="#2E3191"/>
</linearGradient>
<linearGradient id="paint14_linear_1_2565" x1="18.0333" y1="72.792" x2="92.9981" y2="51.2725" gradientUnits="userSpaceOnUse">
<stop stop-color="#007236"/>
<stop offset="1" stop-color="#2E3191"/>
</linearGradient>
<linearGradient id="paint15_linear_1_2565" x1="17.4099" y1="75.4387" x2="92.8381" y2="53.7749" gradientUnits="userSpaceOnUse">
<stop stop-color="#007236"/>
<stop offset="1" stop-color="#2E3191"/>
</linearGradient>
<linearGradient id="paint16_linear_1_2565" x1="16.9564" y1="78.0759" x2="92.8618" y2="56.2768" gradientUnits="userSpaceOnUse">
<stop stop-color="#007236"/>
<stop offset="1" stop-color="#2E3191"/>
</linearGradient>
<linearGradient id="paint17_linear_1_2565" x1="16.6356" y1="80.6039" x2="93.002" y2="58.6787" gradientUnits="userSpaceOnUse">
<stop stop-color="#007236"/>
<stop offset="1" stop-color="#2E3191"/>
</linearGradient>
<linearGradient id="paint18_linear_1_2565" x1="16.4098" y1="83.0126" x2="93.2636" y2="60.9441" gradientUnits="userSpaceOnUse">
<stop stop-color="#007236"/>
<stop offset="1" stop-color="#2E3191"/>
</linearGradient>
<linearGradient id="paint19_linear_1_2565" x1="16.2748" y1="85.2197" x2="93.5988" y2="63.0114" gradientUnits="userSpaceOnUse">
<stop stop-color="#007236"/>
<stop offset="1" stop-color="#2E3191"/>
</linearGradient>
<linearGradient id="paint20_linear_1_2565" x1="16.1759" y1="87.1887" x2="93.9931" y2="64.836" gradientUnits="userSpaceOnUse">
<stop stop-color="#007236"/>
<stop offset="1" stop-color="#2E3191"/>
</linearGradient>
</defs>
</svg>
