<svg width="400" height="400" viewBox="0 0 400 400" fill="none" xmlns="http://www.w3.org/2000/svg">
<rect width="400" height="400" fill="#AAAAAA"/>
<g id="pattern/3">
<path id="Union" d="M241.287 40.2766C242.274 39.7067 243.537 40.0451 244.107 41.0325C254.197 58.5093 259.295 77.4987 259.843 96.3489C276.442 87.3984 295.436 82.3187 315.617 82.3186C316.757 82.3186 317.681 83.2429 317.681 84.3831C317.681 104.564 312.602 123.559 303.651 140.158C322.501 140.706 341.49 145.804 358.967 155.894C359.955 156.464 360.293 157.727 359.723 158.714C349.633 176.191 335.737 190.101 319.686 200C335.737 209.9 349.633 223.81 359.723 241.286C360.293 242.274 359.955 243.537 358.967 244.107C341.491 254.197 322.501 259.295 303.651 259.843C312.601 276.442 317.681 295.436 317.681 315.616C317.681 316.757 316.757 317.681 315.617 317.681C295.436 317.681 276.442 312.601 259.843 303.651C259.295 322.501 254.197 341.49 244.107 358.967C243.537 359.955 242.274 360.293 241.287 359.723C223.81 349.633 209.9 335.737 200 319.686C190.101 335.737 176.191 349.633 158.714 359.723C157.727 360.293 156.464 359.955 155.894 358.967C145.804 341.49 140.706 322.501 140.158 303.651C123.559 312.601 104.565 317.681 84.3843 317.681C83.2442 317.681 82.3191 316.757 82.3188 315.616C82.3188 295.436 87.3988 276.442 96.3491 259.843C77.4989 259.295 58.5095 254.197 41.0327 244.107C40.0454 243.537 39.707 242.274 40.2769 241.286C50.3671 223.81 64.2642 209.9 80.3149 200C64.2642 190.101 50.3671 176.191 40.2769 158.714C39.7068 157.727 40.0454 156.464 41.0327 155.894C58.5097 145.803 77.4997 140.706 96.3501 140.158C87.3995 123.559 82.3188 104.564 82.3188 84.3831C82.3189 83.2429 83.2441 82.3186 84.3843 82.3186C104.565 82.3187 123.559 87.3985 140.158 96.3489C140.706 77.4987 145.804 58.5093 155.894 41.0325C156.464 40.0452 157.727 39.7066 158.714 40.2766C176.191 50.3669 190.101 64.2631 200 80.3138C209.9 64.2632 223.81 50.3668 241.287 40.2766ZM182.64 264.788C172.794 279.691 159.647 292.222 144.243 301.341C144.421 319.595 149.011 338.05 158.444 355.089C175.133 345.049 188.335 331.362 197.617 315.643C188.835 300.043 183.716 282.618 182.64 264.788ZM217.36 264.788C216.284 282.618 211.165 300.043 202.383 315.643C211.665 331.362 224.867 345.049 241.556 355.089C250.989 338.05 255.579 319.596 255.757 301.341C240.353 292.222 227.206 279.691 217.36 264.788ZM152.572 247.429C136.593 255.412 118.943 259.69 101.042 259.885C92.07 275.783 86.8177 294.059 86.4673 313.533C105.94 313.182 124.217 307.93 140.115 298.957C140.31 281.057 144.589 263.407 152.572 247.429ZM247.429 247.429C255.412 263.407 259.69 281.057 259.885 298.957C275.783 307.93 294.06 313.182 313.534 313.533C313.183 294.059 307.931 275.783 298.958 259.885C281.058 259.69 263.408 255.412 247.429 247.429ZM200 222.061C197.534 235.067 192.926 247.317 186.558 258.428C186.676 276.905 191.307 295.122 200 311.401C208.693 295.122 213.324 276.905 213.442 258.428C207.074 247.317 202.467 235.067 200 222.061ZM188.969 219.106C180.33 229.136 170.215 237.44 159.145 243.879C150.009 259.94 144.91 278.032 144.299 296.476C159.967 286.725 173.086 273.263 182.427 257.321C182.468 244.515 184.602 231.603 188.969 219.106ZM211.031 219.106C215.398 231.603 217.533 244.515 217.574 257.321C226.915 273.263 240.033 286.725 255.701 296.476C255.09 278.032 249.991 259.94 240.855 243.879C229.785 237.441 219.67 229.136 211.031 219.106ZM84.3579 202.383C68.6384 211.665 54.9507 224.867 44.9106 241.556C61.9501 250.989 80.4044 255.579 98.6587 255.757C107.777 240.352 120.309 227.206 135.211 217.36C117.382 216.284 99.9572 211.164 84.3579 202.383ZM315.643 202.383C300.044 211.164 282.619 216.284 264.79 217.36C279.692 227.206 292.223 240.353 301.341 255.757C319.596 255.579 338.05 250.989 355.089 241.556C345.049 224.867 331.363 211.665 315.643 202.383ZM180.894 211.031C168.396 215.398 155.485 217.532 142.678 217.574C126.736 226.915 113.275 240.033 103.524 255.7C121.968 255.09 140.06 249.991 156.121 240.855C162.559 229.785 170.863 219.67 180.894 211.031ZM219.106 211.031C229.136 219.67 237.441 229.785 243.879 240.855C259.94 249.991 278.032 255.09 296.476 255.7C286.725 240.033 273.264 226.915 257.322 217.574C244.515 217.532 231.604 215.398 219.106 211.031ZM197.583 209.024C191.457 221.863 187.954 235.371 186.899 248.894C192.747 236.655 196.467 223.206 197.583 209.024ZM202.418 209.024C203.534 223.205 207.254 236.655 213.101 248.893C212.046 235.371 208.544 221.863 202.418 209.024ZM193.394 206.606C181.67 214.662 171.883 224.61 164.208 235.793C175.391 228.118 185.337 218.33 193.394 206.606ZM206.606 206.606C214.663 218.33 224.61 228.118 235.793 235.793C228.118 224.61 218.331 214.662 206.606 206.606ZM141.573 186.558C123.095 186.676 104.878 191.307 88.5991 200C104.877 208.693 123.095 213.323 141.572 213.442C152.683 207.074 164.932 202.466 177.939 199.999C164.933 197.532 152.684 192.925 141.573 186.558ZM258.428 186.558C247.317 192.925 235.068 197.532 222.062 199.999C235.069 202.466 247.318 207.074 258.429 213.442C276.906 213.323 295.123 208.693 311.401 200C295.123 191.307 276.906 186.676 258.428 186.558ZM190.977 202.417C176.794 203.532 163.344 207.253 151.105 213.101C164.628 212.046 178.137 208.543 190.977 202.417ZM209.023 202.417C221.863 208.543 235.372 212.046 248.895 213.101C236.656 207.253 223.206 203.532 209.023 202.417ZM98.6597 144.242C80.4052 144.421 61.9503 149.01 44.9106 158.444C54.9507 175.133 68.6384 188.335 84.3579 197.616C99.9574 188.835 117.383 183.716 135.212 182.64C120.31 172.794 107.778 159.647 98.6597 144.242ZM301.341 144.242C292.222 159.647 279.691 172.794 264.789 182.64C282.618 183.716 300.044 188.835 315.643 197.616C331.363 188.335 345.049 175.133 355.089 158.444C338.05 149.01 319.596 144.421 301.341 144.242ZM151.107 186.899C163.345 192.746 176.795 196.466 190.976 197.581C178.137 191.456 164.629 187.954 151.107 186.899ZM248.894 186.899C235.372 187.954 221.864 191.456 209.025 197.581C223.206 196.466 236.656 192.746 248.894 186.899ZM164.208 164.207C171.883 175.391 181.67 185.337 193.394 193.394C185.338 181.67 175.391 171.882 164.208 164.207ZM235.793 164.207C224.61 171.882 214.663 181.669 206.606 193.394C218.33 185.337 228.118 175.391 235.793 164.207ZM186.899 151.105C187.954 164.628 191.457 178.137 197.583 190.977C196.468 176.794 192.747 163.344 186.899 151.105ZM213.101 151.106C207.254 163.344 203.533 176.794 202.418 190.976C208.544 178.136 212.046 164.628 213.101 151.106ZM103.525 144.299C113.276 159.967 126.736 173.086 142.679 182.427C155.485 182.468 168.397 184.602 180.894 188.969C170.864 180.329 162.559 170.215 156.121 159.145C140.06 150.009 121.968 144.91 103.525 144.299ZM296.476 144.299C278.032 144.91 259.94 150.009 243.879 159.145C237.441 170.215 229.137 180.329 219.106 188.969C231.603 184.602 244.515 182.468 257.321 182.427C273.264 173.086 286.725 159.967 296.476 144.299ZM144.3 103.524C144.911 121.968 150.009 140.059 159.145 156.12C170.215 162.559 180.33 170.863 188.969 180.894C184.602 168.396 182.468 155.484 182.427 142.678C173.086 126.735 159.968 113.275 144.3 103.524ZM255.701 103.524C240.033 113.275 226.915 126.736 217.574 142.679C217.533 155.485 215.398 168.396 211.031 180.894C219.67 170.863 229.785 162.559 240.855 156.12C249.991 140.059 255.09 121.968 255.701 103.524ZM200 88.5989C191.308 104.877 186.677 123.094 186.558 141.571C192.926 152.682 197.534 164.931 200 177.938C202.467 164.931 207.074 152.683 213.442 141.572C213.324 123.094 208.693 104.877 200 88.5989ZM86.4673 86.4661C86.8176 105.939 92.0697 124.216 101.042 140.115C118.943 140.309 136.593 144.589 152.572 152.572C144.589 136.593 140.309 118.943 140.115 101.042C124.217 92.0697 105.94 86.8165 86.4673 86.4661ZM313.534 86.4661C294.06 86.8165 275.783 92.0696 259.885 101.042C259.691 118.942 255.412 136.593 247.429 152.572C263.408 144.589 281.058 140.309 298.958 140.115C307.93 124.216 313.183 105.939 313.534 86.4661ZM158.444 44.9104C149.011 61.9498 144.421 80.4042 144.243 98.6585C159.647 107.777 172.794 120.309 182.64 135.211C183.716 117.382 188.835 99.956 197.617 84.3567C188.335 68.6374 175.133 54.9504 158.444 44.9104ZM241.556 44.9104C224.867 54.9504 211.665 68.6373 202.383 84.3567C211.165 99.9561 216.284 117.382 217.36 135.211C227.206 120.308 240.353 107.777 255.757 98.6585C255.579 80.4042 250.989 61.9499 241.556 44.9104Z" fill="white" fill-opacity="0.6"/>
</g>
</svg>
