<svg width="400" height="400" viewBox="0 0 400 400" fill="none" xmlns="http://www.w3.org/2000/svg">
<rect width="400" height="400" fill="#AAAAAA"/>
<g id="pattern/5">
<path id="Union" d="M222.407 40.579C224.236 39.5537 226.53 39.9167 227.953 41.457L243.658 58.4609C244.662 59.5479 246.129 60.072 247.584 59.8789L247.874 59.83L270.574 55.3056C272.631 54.8957 274.7 55.9506 275.577 57.8554L285.26 78.8789C285.92 80.3124 287.278 81.2993 288.846 81.4843L311.833 84.1962C313.916 84.4419 315.558 86.0843 315.804 88.1669L318.516 111.154C318.701 112.722 319.687 114.08 321.121 114.74L342.144 124.423C344.049 125.3 345.104 127.369 344.694 129.426L340.17 152.126L340.121 152.416C339.928 153.871 340.452 155.338 341.539 156.342L358.543 172.047C360.083 173.47 360.446 175.764 359.421 177.593L348.103 197.783L347.968 198.045C347.334 199.369 347.38 200.926 348.103 202.217L359.421 222.407C360.446 224.236 360.083 226.53 358.543 227.953L341.539 243.658L341.329 243.865C340.318 244.929 339.881 246.423 340.17 247.874L344.694 270.574C345.104 272.631 344.049 274.7 342.144 275.577L321.121 285.26L320.857 285.392C319.567 286.09 318.689 287.376 318.516 288.846L315.804 311.833L315.776 312.027C315.455 314.017 313.85 315.566 311.833 315.804L288.846 318.516L288.555 318.56C287.111 318.826 285.879 319.777 285.26 321.121L275.577 342.144L275.492 342.321C274.601 344.056 272.695 345.027 270.768 344.728L270.574 344.694L247.874 340.17C246.326 339.861 244.729 340.38 243.658 341.539L227.953 358.543L227.817 358.684C226.434 360.059 224.321 360.393 222.58 359.513L222.407 359.421L202.217 348.103C200.84 347.332 199.16 347.332 197.783 348.103L177.593 359.421L177.42 359.513C175.679 360.393 173.566 360.059 172.183 358.684L172.047 358.543L156.342 341.539C155.271 340.38 153.674 339.861 152.126 340.17L129.426 344.694L129.232 344.728C127.305 345.027 125.399 344.056 124.508 342.321L124.423 342.144L114.74 321.121C114.121 319.777 112.888 318.826 111.445 318.56L111.154 318.516L88.1669 315.804C86.1494 315.566 84.5453 314.017 84.2236 312.027L84.1962 311.833L81.4843 288.846C81.3109 287.376 80.4329 286.09 79.1425 285.392L78.8788 285.26L57.8554 275.577C56.0103 274.727 54.9626 272.759 55.2714 270.768L55.3056 270.574L59.83 247.874C60.1192 246.423 59.6819 244.929 58.6708 243.865L58.4609 243.658L41.457 227.953C39.9648 226.575 39.5777 224.379 40.4872 222.58L40.579 222.407L51.8964 202.217C52.62 200.926 52.6654 199.369 52.0321 198.045L51.8964 197.783L40.579 177.593C39.5857 175.821 39.8954 173.612 41.3163 172.183L41.457 172.047L58.4609 156.342C59.5479 155.338 60.0719 153.871 59.8788 152.416L59.83 152.126L55.3056 129.426C54.9085 127.433 55.8855 125.429 57.6786 124.508L57.8554 124.423L78.8788 114.74C80.2229 114.121 81.1743 112.888 81.4404 111.445L81.4843 111.154L84.1962 88.1669C84.4342 86.1495 85.9827 84.5453 87.9726 84.2236L88.1669 84.1962L111.154 81.4843C112.624 81.3109 113.909 80.4329 114.608 79.1425L114.74 78.8789L124.423 57.8554C125.3 55.9506 127.369 54.8957 129.426 55.3056L152.126 59.83C153.577 60.1192 155.071 59.6819 156.135 58.6708L156.342 58.4609L172.047 41.457C173.47 39.9167 175.764 39.5537 177.593 40.579L197.783 51.8964C199.074 52.62 200.631 52.6654 201.955 52.0322L202.217 51.8964L222.407 40.579ZM176.615 42.3232C175.657 41.786 174.47 41.9316 173.671 42.6611L173.516 42.8144L157.81 59.8173C156.363 61.384 154.25 62.1395 152.153 61.8613L151.734 61.7919L129.035 57.2675C127.958 57.0528 126.874 57.557 126.339 58.498L126.239 58.6914L116.557 79.7158C115.665 81.6527 113.888 83.0237 111.809 83.4072L111.389 83.4706L88.4013 86.1826C87.3105 86.3112 86.4361 87.1255 86.2177 88.1855L86.1825 88.4013L83.4706 111.389C83.2207 113.506 81.9553 115.36 80.0956 116.367L79.7157 116.557L58.6913 126.239C57.6272 126.729 57.0385 127.886 57.2675 129.035L61.7919 151.734L61.8612 152.153C62.121 154.11 61.4804 156.082 60.12 157.513L59.8173 157.81L42.8144 173.516C41.9536 174.311 41.7502 175.593 42.3232 176.615L53.6415 196.806L53.8368 197.183C54.6885 198.964 54.6885 201.036 53.8368 202.817L53.6415 203.194L42.3232 223.385C41.7502 224.407 41.9536 225.689 42.8144 226.484L59.8173 242.189L60.12 242.487C61.4804 243.918 62.121 245.89 61.8612 247.847L61.7919 248.266L57.2675 270.965C57.0385 272.114 57.6272 273.27 58.6913 273.761L79.7157 283.443L80.0956 283.633C81.9553 284.64 83.2207 286.493 83.4706 288.611L86.1825 311.599L86.2177 311.814C86.4361 312.874 87.3105 313.689 88.4013 313.817L111.389 316.529L111.809 316.593C113.888 316.976 115.665 318.347 116.557 320.284L126.239 341.309L126.339 341.502C126.874 342.443 127.958 342.947 129.035 342.732L151.734 338.208L152.153 338.139C154.25 337.86 156.363 338.616 157.81 340.183L173.516 357.185L173.671 357.339C174.47 358.068 175.657 358.214 176.615 357.677L196.806 346.358L197.183 346.163C199.091 345.251 201.334 345.316 203.194 346.358L223.385 357.677L223.58 357.774C224.566 358.221 225.739 357.992 226.484 357.185L242.189 340.183L242.487 339.88C244.02 338.422 246.174 337.791 248.266 338.208L270.965 342.732L271.181 342.767C272.256 342.887 273.301 342.306 273.761 341.309L283.443 320.284L283.633 319.904C284.64 318.045 286.493 316.779 288.611 316.529L311.599 313.817L311.814 313.782C312.874 313.564 313.689 312.689 313.817 311.599L316.529 288.611L316.593 288.191C316.976 286.112 318.347 284.335 320.284 283.443L341.309 273.761L341.502 273.661C342.38 273.162 342.879 272.185 342.767 271.181L342.732 270.965L338.208 248.266C337.763 246.035 338.512 243.733 340.183 242.189L357.185 226.484L357.339 226.329C358.02 225.583 358.191 224.5 357.774 223.58L357.677 223.385L346.358 203.194C345.246 201.21 345.246 198.79 346.358 196.806L357.677 176.615L357.774 176.42C358.191 175.5 358.02 174.417 357.339 173.671L357.185 173.516L340.183 157.81C338.512 156.267 337.763 153.965 338.208 151.734L342.732 129.035L342.767 128.819C342.879 127.815 342.38 126.838 341.502 126.339L341.309 126.239L320.284 116.557C318.347 115.665 316.976 113.888 316.593 111.809L316.529 111.389L313.817 88.4013C313.689 87.3105 312.874 86.4361 311.814 86.2177L311.599 86.1826L288.611 83.4706C286.493 83.2207 284.64 81.9554 283.633 80.0956L283.443 79.7158L273.761 58.6914C273.301 57.6937 272.256 57.1133 271.181 57.2333L270.965 57.2675L248.266 61.7919C246.174 62.2088 244.02 61.5775 242.487 60.1201L242.189 59.8173L226.484 42.8144C225.739 42.0075 224.566 41.779 223.58 42.2255L223.385 42.3232L203.194 53.6415C201.334 54.6843 199.091 54.7493 197.183 53.8369L196.806 53.6415L176.615 42.3232ZM219.917 58.2929C221.543 57.3814 223.582 57.7048 224.847 59.0742L238.807 74.1874C239.699 75.1534 241.003 75.6196 242.296 75.4482L242.555 75.4052L262.732 71.3837C264.56 71.0194 266.4 71.9562 267.18 73.6494L275.786 92.3378C276.373 93.6118 277.581 94.4889 278.974 94.6533L299.407 97.0634C301.258 97.282 302.718 98.7426 302.936 100.594L305.347 121.026C305.511 122.419 306.388 123.627 307.662 124.214L326.35 132.82C328.044 133.6 328.98 135.44 328.616 137.268L324.595 157.445L324.552 157.704C324.38 158.997 324.846 160.301 325.812 161.193L340.927 175.153C342.296 176.418 342.618 178.457 341.707 180.083L331.646 198.03L331.526 198.263C330.964 199.439 331.003 200.823 331.646 201.971L341.707 219.918C342.618 221.544 342.296 223.583 340.927 224.848L325.812 238.808L325.626 238.992C324.727 239.937 324.338 241.266 324.595 242.556L328.616 262.733C328.98 264.561 328.044 266.401 326.35 267.181L307.662 275.787L307.429 275.904C306.282 276.526 305.501 277.668 305.347 278.975L302.936 299.408L302.881 299.75C302.534 301.436 301.142 302.733 299.407 302.937L278.974 305.348L278.715 305.387C277.432 305.623 276.336 306.469 275.786 307.663L267.18 326.352L267.021 326.66C266.227 328.057 264.672 328.849 263.075 328.671L262.732 328.617L242.555 324.596C241.179 324.321 239.758 324.783 238.807 325.813L224.847 340.928L224.601 341.172C223.413 342.254 221.69 342.527 220.226 341.864L219.917 341.708L201.97 331.647C200.746 330.961 199.253 330.961 198.029 331.647L180.082 341.708L179.772 341.864C178.309 342.527 176.586 342.255 175.398 341.172L175.152 340.928L161.192 325.813C160.24 324.783 158.82 324.321 157.444 324.596L137.267 328.617L136.924 328.671C135.327 328.849 133.772 328.057 132.977 326.66L132.819 326.352L124.213 307.663C123.663 306.469 122.567 305.623 121.284 305.387L121.025 305.348L100.593 302.937C98.8573 302.733 97.4653 301.436 97.1181 299.75L97.0624 299.408L94.6523 278.975C94.4982 277.669 93.7179 276.526 92.5712 275.904L92.3368 275.787L73.6484 267.181C72.0613 266.45 71.1383 264.787 71.329 263.076L71.3827 262.733L75.4042 242.556C75.6613 241.266 75.2717 239.937 74.373 238.992L74.1864 238.809L59.0732 224.848C57.7895 223.662 57.4253 221.796 58.1357 220.227L58.2919 219.918L68.3525 201.971C68.9955 200.823 69.0353 199.439 68.4726 198.263L68.3525 198.03L58.2919 180.083C57.4375 178.559 57.668 176.671 58.828 175.399L59.0732 175.153L74.1864 161.193C75.1525 160.301 75.6185 158.997 75.4472 157.704L75.4042 157.445L71.3827 137.268C71.0412 135.554 71.8432 133.83 73.3398 132.978L73.6484 132.82L92.3368 124.214C93.5313 123.664 94.3767 122.568 94.6132 121.285L94.6523 121.026L97.0624 100.594C97.2671 98.8582 98.5634 97.4662 100.25 97.1191L100.593 97.0634L121.025 94.6533C122.331 94.4992 123.474 93.7188 124.096 92.5722L124.213 92.3378L132.819 73.6494C133.599 71.9563 135.438 71.0194 137.267 71.3837L157.444 75.4052C158.734 75.6623 160.062 75.2726 161.008 74.374L161.192 74.1874L175.152 59.0742C176.417 57.7048 178.456 57.3815 180.082 58.2929L198.029 68.3535C199.176 68.9965 200.56 69.0363 201.737 68.4736L201.97 68.3535L219.917 58.2929ZM179.104 60.0371C178.337 59.6067 177.386 59.7231 176.745 60.3076L176.621 60.4306L162.661 75.5449C161.326 76.9904 159.375 77.6872 157.44 77.4306L157.054 77.3671L136.876 73.3447C136.013 73.1726 135.144 73.577 134.716 74.331L134.636 74.4863L126.029 93.1738C125.206 94.9612 123.567 96.2271 121.647 96.581L121.26 96.6396L100.826 99.0498C99.9523 99.153 99.2518 99.806 99.0771 100.655L99.0488 100.827L96.6386 121.261C96.4079 123.215 95.2397 124.926 93.5234 125.855L93.1728 126.03L74.4853 134.637C73.6327 135.029 73.1602 135.956 73.3437 136.877L77.3661 157.055L77.4296 157.441C77.669 159.247 77.0782 161.067 75.8232 162.387L75.5439 162.662L60.4296 176.622C59.7402 177.259 59.5771 178.287 60.0361 179.105L70.0966 197.053L70.2773 197.4C71.063 199.044 71.0631 200.957 70.2773 202.601L70.0966 202.948L60.0361 220.896C59.5777 221.715 59.7403 222.742 60.4296 223.379L75.5439 237.339L75.8232 237.614C77.0782 238.934 77.6691 240.754 77.4296 242.56L77.3661 242.946L73.3437 263.124C73.1604 264.044 73.6327 264.972 74.4853 265.364L93.1728 273.971L93.5234 274.145C95.2398 275.075 96.408 276.786 96.6386 278.74L99.0488 299.174L99.0771 299.346C99.2519 300.195 99.9524 300.848 100.826 300.951L121.26 303.361L121.647 303.42C123.567 303.774 125.206 305.039 126.029 306.827L134.636 325.515L134.716 325.67C135.144 326.424 136.013 326.828 136.876 326.656L157.054 322.635L157.44 322.57C159.375 322.314 161.326 323.01 162.661 324.456L176.621 339.57L176.745 339.693C177.386 340.278 178.337 340.394 179.104 339.964L197.052 329.903L197.399 329.723C199.16 328.881 201.23 328.941 202.947 329.903L220.895 339.964L221.051 340.042C221.84 340.4 222.781 340.217 223.378 339.57L237.338 324.456L237.613 324.177C239.028 322.832 241.015 322.25 242.945 322.635L263.123 326.656L263.296 326.683C264.157 326.779 264.995 326.314 265.363 325.515L273.97 306.827L274.144 306.477C275.074 304.76 276.785 303.592 278.739 303.361L299.173 300.951L299.345 300.923C300.194 300.748 300.847 300.047 300.95 299.174L303.36 278.74L303.419 278.352C303.773 276.433 305.039 274.794 306.826 273.971L325.514 265.364L325.669 265.284C326.372 264.884 326.771 264.101 326.682 263.297L326.655 263.124L322.634 242.946C322.223 240.887 322.913 238.763 324.455 237.339L339.569 223.379L339.692 223.255C340.238 222.657 340.375 221.789 340.041 221.052L339.963 220.896L329.902 202.948C328.876 201.117 328.876 198.884 329.902 197.053L339.963 179.105L340.041 178.949C340.375 178.212 340.238 177.344 339.692 176.746L339.569 176.622L324.455 162.662C322.913 161.238 322.224 159.113 322.634 157.055L326.655 136.877L326.682 136.704C326.771 135.9 326.372 135.117 325.669 134.717L325.514 134.637L306.826 126.03C305.039 125.207 303.773 123.568 303.419 121.648L303.36 121.261L300.95 100.827C300.847 99.9532 300.194 99.2528 299.345 99.0781L299.173 99.0498L278.739 96.6396C276.785 96.409 275.074 95.2407 274.144 93.5244L273.97 93.1738L265.363 74.4863C264.995 73.6869 264.158 73.2221 263.296 73.3183L263.123 73.3447L242.945 77.3671C241.015 77.7517 239.028 77.1688 237.613 75.8242L237.338 75.5449L223.378 60.4306C222.781 59.784 221.841 59.601 221.051 59.9589L220.895 60.0371L202.947 70.0976C201.23 71.0597 199.16 71.1202 197.399 70.2783L197.052 70.0976L179.104 60.0371ZM217.427 76.0058C218.849 75.2083 220.633 75.4913 221.74 76.6894L233.956 89.914C234.737 90.7593 235.877 91.1667 237.009 91.0165L237.234 90.9794L254.891 87.4599C256.49 87.1413 258.099 87.9619 258.781 89.4433L266.312 105.795C266.826 106.91 267.882 107.677 269.101 107.821L286.98 109.931C288.6 110.122 289.877 111.399 290.068 113.019L292.178 130.897C292.321 132.116 293.089 133.173 294.204 133.686L310.557 141.218C312.038 141.9 312.858 143.51 312.539 145.109L309.019 162.765L308.982 162.99C308.832 164.122 309.239 165.263 310.085 166.044L323.31 178.259C324.508 179.365 324.791 181.15 323.993 182.572L315.19 198.276L315.085 198.479C314.592 199.509 314.628 200.72 315.19 201.724L323.993 217.428C324.791 218.85 324.508 220.634 323.31 221.741L310.085 233.957L309.922 234.117C309.135 234.944 308.795 236.107 309.019 237.235L312.539 254.892C312.858 256.491 312.038 258.1 310.557 258.782L294.204 266.313L293.999 266.416C292.995 266.96 292.312 267.96 292.178 269.102L290.068 286.981L290.02 287.281C289.717 288.757 288.499 289.89 286.98 290.069L269.101 292.179L268.875 292.213C267.752 292.42 266.794 293.16 266.312 294.205L258.781 310.558L258.643 310.827C257.948 312.049 256.588 312.743 255.19 312.587L254.891 312.54L237.234 309.02C236.031 308.781 234.789 309.184 233.956 310.086L221.74 323.311L221.525 323.525C220.486 324.473 218.978 324.711 217.697 324.131L217.427 323.994L201.723 315.191C200.652 314.591 199.346 314.591 198.275 315.191L182.571 323.994L182.301 324.131C181.02 324.711 179.512 324.473 178.473 323.525L178.258 323.311L166.043 310.086C165.21 309.184 163.967 308.781 162.764 309.02L145.108 312.54L144.809 312.587C143.411 312.743 142.051 312.049 141.355 310.827L141.217 310.558L133.685 294.205C133.204 293.16 132.246 292.42 131.123 292.213L130.896 292.179L113.018 290.069C111.499 289.89 110.281 288.757 109.977 287.281L109.93 286.981L107.82 269.102C107.685 267.96 107.003 266.96 105.999 266.416L105.794 266.313L89.4423 258.782C88.0535 258.143 87.2459 256.689 87.413 255.191L87.4589 254.892L90.9784 237.235C91.2033 236.107 90.8627 234.944 90.0761 234.117L89.913 233.957L76.6884 221.741C75.565 220.704 75.2461 219.071 75.8681 217.698L76.0048 217.428L84.8075 201.724C85.3702 200.72 85.4055 199.509 84.913 198.479L84.8075 198.276L76.0048 182.572C75.2571 181.238 75.4589 179.587 76.4745 178.474L76.6884 178.259L89.913 166.044C90.7585 165.263 91.1658 164.122 91.0155 162.99L90.9784 162.765L87.4589 145.109C87.16 143.61 87.8623 142.101 89.1718 141.356L89.4423 141.218L105.794 133.686C106.839 133.205 107.579 132.247 107.786 131.124L107.82 130.897L109.93 113.019C110.109 111.5 111.243 110.282 112.719 109.978L113.018 109.931L130.896 107.821C132.039 107.686 133.039 107.003 133.583 106L133.685 105.795L141.217 89.4433C141.899 87.9618 143.509 87.1411 145.108 87.4599L162.764 90.9794C163.892 91.2044 165.055 90.8636 165.882 90.0771L166.043 89.914L178.258 76.6894C179.364 75.4912 181.148 75.2083 182.571 76.0058L198.275 84.8085C199.279 85.3713 200.49 85.4064 201.519 84.914L201.723 84.8085L217.427 76.0058ZM220.271 78.0458C219.823 77.56 219.116 77.4226 218.522 77.6914L218.405 77.7509L202.701 86.5537C201.128 87.4356 199.23 87.4904 197.616 86.7187L197.298 86.5537L181.594 77.7509C181.016 77.4274 180.302 77.5147 179.82 77.954L179.726 78.0458L167.512 91.2705C166.288 92.5956 164.5 93.2344 162.726 92.999L162.373 92.9404L144.717 89.4218C144.068 89.2925 143.415 89.5961 143.093 90.163L143.033 90.2792L135.503 106.632C134.748 108.27 133.245 109.43 131.486 109.754L131.131 109.808L113.252 111.917C112.595 111.994 112.068 112.485 111.936 113.123L111.916 113.253L109.807 131.132C109.595 132.923 108.525 134.491 106.952 135.343L106.631 135.504L90.2782 143.034C89.6374 143.329 89.283 144.026 89.4208 144.718L92.9394 162.374L92.998 162.727C93.2177 164.383 92.6761 166.051 91.5253 167.261L91.2695 167.513L78.0448 179.727C77.5264 180.206 77.4048 180.979 77.7499 181.595L86.5527 197.299L86.7177 197.617C87.4379 199.123 87.4379 200.876 86.7177 202.383L86.5527 202.702L77.7499 218.406C77.4049 219.022 77.5265 219.794 78.0448 220.272L91.2695 232.487L91.5253 232.739C92.6762 233.949 93.2176 235.617 92.998 237.272L92.9394 237.627L89.4208 255.282C89.2829 255.974 89.6374 256.67 90.2782 256.966L106.631 264.497L106.952 264.657C108.525 265.509 109.595 267.077 109.807 268.868L111.916 286.747L111.936 286.877C112.068 287.515 112.595 288.005 113.252 288.083L131.131 290.192L131.486 290.246C133.245 290.57 134.748 291.73 135.503 293.368L143.033 309.721L143.093 309.838C143.415 310.404 144.068 310.708 144.717 310.579L162.373 307.06L162.726 307.001C164.5 306.766 166.288 307.404 167.512 308.729L179.726 321.954L179.82 322.047C180.302 322.486 181.017 322.573 181.594 322.25L197.298 313.447L197.616 313.281C199.23 312.51 201.128 312.565 202.701 313.447L218.405 322.25L218.522 322.309C219.116 322.577 219.823 322.44 220.271 321.954L232.486 308.729L232.738 308.474C234.035 307.241 235.857 306.707 237.626 307.06L255.281 310.579L255.411 310.599C256.059 310.671 256.688 310.322 256.965 309.721L264.496 293.368L264.656 293.047C265.508 291.474 267.076 290.404 268.867 290.192L286.746 288.083L286.876 288.062C287.514 287.931 288.004 287.404 288.082 286.747L290.191 268.868L290.245 268.513C290.569 266.754 291.729 265.252 293.367 264.497L309.72 256.966L309.837 256.906C310.366 256.605 310.665 256.017 310.598 255.412L310.578 255.282L307.059 237.627C306.682 235.74 307.315 233.793 308.728 232.487L321.953 220.272L322.046 220.18C322.456 219.73 322.559 219.078 322.308 218.523L322.249 218.406L313.446 202.702C312.505 201.024 312.506 198.977 313.446 197.299L322.249 181.595L322.308 181.477C322.559 180.923 322.456 180.271 322.046 179.821L321.953 179.727L308.728 167.513C307.315 166.207 306.683 164.261 307.059 162.374L310.578 144.718L310.598 144.588C310.665 143.983 310.366 143.394 309.837 143.094L309.72 143.034L293.367 135.504C291.729 134.749 290.569 133.246 290.245 131.487L290.191 131.132L288.082 113.253C288.004 112.596 287.514 112.069 286.876 111.937L286.746 111.917L268.867 109.808C267.076 109.596 265.508 108.526 264.656 106.953L264.496 106.632L256.965 90.2792C256.688 89.6785 256.059 89.3291 255.411 89.4013L255.281 89.4218L237.626 92.9404C235.857 93.293 234.035 92.7593 232.738 91.5263L232.486 91.2705L220.271 78.0458ZM214.938 93.7197C216.158 93.0361 217.687 93.2788 218.636 94.3056L229.106 105.641C229.776 106.365 230.753 106.714 231.723 106.586L231.917 106.555L247.05 103.538C248.421 103.265 249.801 103.967 250.386 105.237L256.841 119.254C257.281 120.209 258.187 120.867 259.231 120.99L274.556 122.798C275.944 122.962 277.039 124.057 277.203 125.445L279.011 140.77C279.134 141.815 279.792 142.721 280.748 143.161L294.764 149.615C296.033 150.2 296.737 151.58 296.464 152.951L293.447 168.085L293.415 168.278C293.287 169.248 293.636 170.225 294.36 170.894L305.695 181.365C306.722 182.314 306.965 183.843 306.281 185.062L298.736 198.523L298.645 198.697C298.224 199.58 298.254 200.618 298.736 201.478L306.281 214.938C306.965 216.158 306.722 217.687 305.695 218.636L294.36 229.106L294.221 229.244C293.546 229.953 293.254 230.95 293.447 231.917L296.464 247.05C296.737 248.421 296.033 249.801 294.764 250.386L280.748 256.841L280.572 256.929C279.712 257.395 279.126 258.252 279.011 259.231L277.203 274.556L277.162 274.812C276.902 276.077 275.857 277.05 274.556 277.203L259.231 279.011L259.037 279.04C258.075 279.217 257.253 279.852 256.841 280.748L250.386 294.764L250.267 294.995C249.671 296.042 248.505 296.636 247.308 296.503L247.05 296.464L231.917 293.447C230.885 293.242 229.82 293.587 229.106 294.36L218.636 305.695L218.452 305.879C217.562 306.691 216.269 306.896 215.171 306.398L214.938 306.281L201.478 298.736C200.561 298.222 199.441 298.222 198.523 298.736L185.062 306.281L184.83 306.398C183.732 306.895 182.44 306.691 181.55 305.879L181.365 305.695L170.894 294.36C170.181 293.588 169.117 293.242 168.085 293.447L152.951 296.464L152.694 296.503C151.496 296.637 150.33 296.043 149.734 294.995L149.615 294.764L143.161 280.748C142.748 279.852 141.926 279.217 140.964 279.04L140.77 279.011L125.445 277.203C124.144 277.05 123.1 276.077 122.84 274.812L122.798 274.556L120.99 259.231C120.875 258.252 120.289 257.395 119.429 256.929L119.254 256.841L105.237 250.386C104.047 249.838 103.355 248.591 103.498 247.308L103.538 247.05L106.555 231.917C106.747 230.95 106.455 229.953 105.781 229.244L105.641 229.106L94.3056 218.636C93.343 217.746 93.0699 216.347 93.6025 215.171L93.7197 214.938L101.266 201.478C101.748 200.618 101.777 199.58 101.355 198.697L101.266 198.523L93.7197 185.062C93.0789 183.919 93.2521 182.504 94.122 181.55L94.3056 181.365L105.641 170.894C106.365 170.225 106.714 169.248 106.586 168.278L106.555 168.085L103.538 152.951C103.282 151.666 103.883 150.373 105.006 149.734L105.237 149.615L119.254 143.161C120.15 142.748 120.783 141.926 120.961 140.964L120.99 140.77L122.798 125.445C122.951 124.144 123.924 123.1 125.188 122.84L125.445 122.798L140.77 120.99C141.75 120.874 142.607 120.289 143.073 119.429L143.161 119.254L149.615 105.237C150.2 103.967 151.58 103.265 152.951 103.538L168.085 106.555C169.052 106.747 170.048 106.455 170.757 105.781L170.894 105.641L181.365 94.3056C182.314 93.2786 183.843 93.0361 185.062 93.7197L198.523 101.266C199.384 101.748 200.421 101.777 201.304 101.355L201.478 101.266L214.938 93.7197ZM217.167 95.663C216.886 95.3593 216.456 95.2583 216.076 95.3925L215.917 95.4648L202.456 103.01C201.026 103.811 199.302 103.861 197.835 103.16L197.545 103.01L184.085 95.4648C183.724 95.2625 183.282 95.2995 182.963 95.5449L182.834 95.6621L172.364 106.998C171.252 108.202 169.627 108.783 168.016 108.569L167.693 108.516L152.56 105.499C152.155 105.418 151.747 105.59 151.518 105.922L151.433 106.074L144.977 120.09C144.292 121.579 142.926 122.633 141.327 122.928L141.004 122.977L125.68 124.784C125.269 124.833 124.934 125.122 124.819 125.509L124.784 125.68L122.976 141.004C122.784 142.632 121.811 144.057 120.382 144.831L120.09 144.977L106.074 151.433C105.645 151.63 105.407 152.097 105.499 152.56L108.516 167.693L108.569 168.016C108.769 169.52 108.276 171.035 107.23 172.135L106.998 172.364L95.662 182.834C95.315 183.155 95.2337 183.673 95.4648 184.085L103.01 197.545L103.16 197.835C103.814 199.204 103.814 200.797 103.16 202.166L103.01 202.456L95.4648 215.917C95.234 216.329 95.3151 216.846 95.662 217.167L106.998 227.637L107.23 227.866C108.276 228.966 108.769 230.481 108.569 231.985L108.516 232.308L105.499 247.441C105.407 247.905 105.645 248.372 106.074 248.569L120.09 255.023L120.382 255.17C121.811 255.944 122.784 257.369 122.976 258.997L124.784 274.322L124.819 274.493C124.934 274.879 125.269 275.168 125.68 275.217L141.004 277.024L141.327 277.073C142.926 277.368 144.292 278.422 144.977 279.911L151.433 293.928L151.518 294.079C151.747 294.411 152.155 294.583 152.56 294.502L167.693 291.485L168.016 291.433C169.627 291.219 171.252 291.799 172.364 293.003L182.834 304.339L182.963 304.456C183.282 304.701 183.724 304.739 184.085 304.537L197.545 296.991L197.835 296.841C199.302 296.139 201.026 296.19 202.456 296.991L215.917 304.537L216.076 304.608C216.455 304.742 216.886 304.642 217.167 304.339L227.637 293.003L227.866 292.77C229.044 291.65 230.7 291.165 232.308 291.485L247.441 294.502L247.614 294.521C248.017 294.532 248.396 294.303 248.569 293.928L255.023 279.911L255.17 279.619C255.944 278.19 257.369 277.216 258.997 277.024L274.322 275.217L274.493 275.182C274.879 275.067 275.168 274.732 275.217 274.322L277.024 258.997L277.073 258.674C277.368 257.075 278.422 255.709 279.911 255.023L293.928 248.569L294.079 248.482C294.363 248.287 294.53 247.959 294.521 247.614L294.502 247.441L291.485 232.308C291.144 230.593 291.719 228.823 293.003 227.637L304.339 217.167L304.456 217.038C304.666 216.764 304.723 216.401 304.608 216.076L304.537 215.917L296.991 202.456C296.136 200.931 296.136 199.07 296.991 197.545L304.537 184.085L304.608 183.926C304.724 183.6 304.666 183.237 304.456 182.963L304.339 182.834L293.003 172.364C291.718 171.178 291.144 169.408 291.485 167.693L294.502 152.56L294.521 152.387C294.53 152.042 294.363 151.714 294.079 151.519L293.928 151.433L279.911 144.977C278.422 144.292 277.368 142.926 277.073 141.327L277.024 141.004L275.217 125.68C275.168 125.269 274.879 124.934 274.493 124.819L274.322 124.784L258.997 122.977C257.369 122.784 255.944 121.811 255.17 120.382L255.023 120.09L248.569 106.074C248.396 105.698 248.017 105.469 247.614 105.479L247.441 105.499L232.308 108.516C230.7 108.836 229.044 108.351 227.866 107.23L227.637 106.998L217.167 95.663ZM212.448 111.433C213.464 110.863 214.74 111.065 215.53 111.921L224.255 121.367C224.813 121.971 225.627 122.262 226.435 122.155L226.597 122.128L239.208 119.614C240.351 119.386 241.5 119.973 241.987 121.031L247.367 132.711C247.734 133.507 248.489 134.055 249.359 134.158L262.13 135.665C263.287 135.802 264.199 136.714 264.336 137.871L265.842 150.642C265.945 151.512 266.493 152.267 267.289 152.634L278.97 158.013C280.028 158.5 280.613 159.649 280.386 160.792L277.872 173.403L277.846 173.564C277.738 174.373 278.029 175.187 278.633 175.745L288.079 184.471C288.935 185.261 289.137 186.535 288.567 187.552L282.279 198.768L282.204 198.914C281.852 199.649 281.877 200.514 282.279 201.231L288.567 212.448C289.137 213.464 288.935 214.74 288.079 215.53L278.633 224.255L278.517 224.37C277.955 224.961 277.711 225.791 277.872 226.597L280.386 239.208C280.613 240.35 280.028 241.5 278.97 241.987L267.289 247.367L267.143 247.44C266.427 247.829 265.938 248.543 265.842 249.359L264.336 262.13L264.301 262.344C264.084 263.398 263.214 264.208 262.13 264.336L249.359 265.842L249.197 265.866C248.396 266.014 247.711 266.543 247.367 267.289L241.987 278.97L241.889 279.162C241.392 280.035 240.42 280.531 239.422 280.419L239.208 280.386L226.597 277.872C225.737 277.701 224.85 277.989 224.255 278.633L215.53 288.079L215.376 288.232C214.634 288.909 213.556 289.08 212.642 288.665L212.448 288.567L201.231 282.279C200.467 281.851 199.533 281.851 198.768 282.279L187.552 288.567L187.358 288.665C186.443 289.079 185.366 288.909 184.624 288.232L184.471 288.079L175.745 278.633C175.15 277.989 174.263 277.701 173.403 277.872L160.792 280.386L160.578 280.419C159.58 280.53 158.608 280.035 158.111 279.162L158.013 278.97L152.634 267.289C152.29 266.543 151.605 266.014 150.804 265.866L150.642 265.842L137.871 264.336C136.786 264.208 135.916 263.398 135.699 262.344L135.665 262.13L134.158 249.359C134.062 248.543 133.574 247.829 132.857 247.44L132.711 247.367L121.031 241.987C120.039 241.53 119.461 240.491 119.581 239.422L119.614 239.208L122.128 226.597C122.288 225.791 122.045 224.961 121.483 224.37L121.367 224.255L111.921 215.53C111.118 214.789 110.891 213.622 111.335 212.642L111.433 212.448L117.721 201.231C118.123 200.514 118.148 199.65 117.796 198.914L117.721 198.768L111.433 187.552C110.899 186.599 111.043 185.419 111.768 184.624L111.921 184.471L121.367 175.745C121.971 175.187 122.262 174.373 122.155 173.564L122.128 173.403L119.614 160.792C119.401 159.721 119.902 158.643 120.838 158.111L121.031 158.013L132.711 152.634C133.457 152.29 133.986 151.605 134.134 150.804L134.158 150.642L135.665 137.871C135.793 136.786 136.603 135.916 137.657 135.699L137.871 135.665L150.642 134.158C151.458 134.062 152.172 133.574 152.56 132.857L152.634 132.711L158.013 121.031C158.5 119.973 159.649 119.387 160.792 119.614L173.403 122.128C174.21 122.289 175.04 122.045 175.631 121.483L175.745 121.367L184.471 111.921C185.261 111.065 186.535 110.863 187.552 111.433L198.768 117.721C199.485 118.122 200.35 118.147 201.086 117.796L201.231 117.721L212.448 111.433ZM214.06 113.278C213.918 113.124 213.699 113.072 213.507 113.141L213.427 113.178L202.209 119.465C200.922 120.186 199.371 120.231 198.052 119.601L197.791 119.465L186.574 113.178C186.391 113.075 186.167 113.094 186.005 113.219L185.939 113.278L177.215 122.725C176.214 123.808 174.752 124.33 173.302 124.138L173.013 124.09L160.401 121.576C160.196 121.535 159.989 121.622 159.873 121.79L159.829 121.867L154.45 133.548C153.833 134.887 152.604 135.835 151.166 136.101L150.876 136.144L138.105 137.651C137.897 137.676 137.727 137.823 137.669 138.019L137.651 138.105L136.144 150.876C135.972 152.34 135.096 153.623 133.81 154.319L133.548 154.45L121.867 159.829C121.649 159.929 121.529 160.166 121.576 160.401L124.09 173.013L124.138 173.302C124.317 174.655 123.874 176.019 122.934 177.009L122.725 177.215L113.278 185.939C113.102 186.102 113.06 186.365 113.178 186.574L119.465 197.791L119.601 198.052C120.189 199.283 120.19 200.717 119.601 201.949L119.465 202.209L113.178 213.427C113.061 213.636 113.102 213.898 113.278 214.06L122.725 222.786L122.934 222.992C123.874 223.982 124.317 225.345 124.138 226.698L124.09 226.988L121.576 239.6C121.53 239.834 121.65 240.071 121.867 240.171L133.548 245.55L133.81 245.682C135.096 246.378 135.972 247.66 136.144 249.125L137.651 261.895L137.669 261.982C137.727 262.178 137.897 262.325 138.105 262.35L150.876 263.855L151.166 263.899C152.605 264.165 153.833 265.113 154.45 266.453L159.829 278.133L159.873 278.21C159.989 278.378 160.196 278.466 160.401 278.425L173.013 275.911L173.302 275.862C174.752 275.67 176.214 276.193 177.215 277.276L185.939 286.723L186.005 286.782C186.167 286.906 186.391 286.926 186.574 286.823L197.791 280.535L198.052 280.4C199.371 279.769 200.922 279.814 202.209 280.535L213.427 286.823L213.507 286.859C213.699 286.928 213.918 286.877 214.06 286.723L222.786 277.276L222.992 277.067C224.052 276.059 225.542 275.623 226.988 275.911L239.6 278.425L239.687 278.435C239.891 278.44 240.083 278.323 240.171 278.133L245.55 266.453L245.682 266.19C246.378 264.904 247.66 264.028 249.125 263.855L261.895 262.35L261.982 262.332C262.178 262.274 262.325 262.104 262.35 261.895L263.855 249.125L263.899 248.834C264.165 247.396 265.113 246.167 266.453 245.55L278.133 240.171L278.21 240.127C278.354 240.028 278.439 239.862 278.434 239.687L278.425 239.6L275.911 226.988C275.604 225.445 276.121 223.854 277.276 222.786L286.723 214.06L286.782 213.995C286.889 213.856 286.918 213.672 286.859 213.507L286.823 213.427L280.535 202.209C279.766 200.837 279.766 199.163 280.535 197.791L286.823 186.574L286.859 186.493C286.918 186.328 286.889 186.144 286.782 186.005L286.723 185.939L277.276 177.215C276.121 176.147 275.604 174.555 275.911 173.013L278.425 160.401L278.434 160.313C278.439 160.138 278.354 159.972 278.21 159.873L278.133 159.829L266.453 154.45C265.113 153.833 264.165 152.604 263.899 151.166L263.855 150.876L262.35 138.105C262.325 137.897 262.178 137.727 261.982 137.669L261.895 137.651L249.125 136.144C247.66 135.972 246.378 135.096 245.682 133.81L245.55 133.548L240.171 121.867C240.083 121.677 239.891 121.561 239.687 121.566L239.6 121.576L226.988 124.09C225.542 124.378 224.052 123.941 222.992 122.934L222.786 122.725L214.06 113.278ZM187.576 129.536C188.208 128.852 189.228 128.69 190.041 129.145L199.015 134.176C199.588 134.497 200.28 134.517 200.868 134.236L200.984 134.176L209.959 129.146C210.772 128.691 211.791 128.852 212.424 129.536L219.403 137.094C219.85 137.577 220.502 137.809 221.148 137.724L221.277 137.702L231.366 135.691C232.28 135.509 233.2 135.978 233.59 136.824L237.893 146.168C238.186 146.805 238.791 147.244 239.487 147.326L249.703 148.531C250.628 148.64 251.358 149.37 251.468 150.296L252.673 160.513C252.755 161.209 253.194 161.813 253.831 162.106L263.176 166.41C264.022 166.8 264.491 167.72 264.309 168.634L262.298 178.723L262.276 178.852C262.191 179.498 262.423 180.149 262.906 180.596L270.463 187.576C271.147 188.208 271.309 189.228 270.853 190.041L265.823 199.015L265.763 199.131C265.481 199.719 265.502 200.411 265.823 200.984L270.853 209.959C271.309 210.772 271.147 211.791 270.463 212.424L262.906 219.403L262.812 219.495C262.363 219.968 262.169 220.632 262.298 221.277L264.309 231.366C264.491 232.28 264.022 233.2 263.176 233.59L253.831 237.893L253.714 237.951C253.14 238.262 252.75 238.834 252.673 239.487L251.468 249.703L251.44 249.875C251.267 250.718 250.571 251.365 249.703 251.468L239.487 252.673L239.357 252.692C238.716 252.811 238.168 253.234 237.893 253.831L233.59 263.176L233.511 263.329C233.113 264.028 232.336 264.424 231.537 264.335L231.366 264.309L221.277 262.298C220.589 262.161 219.879 262.391 219.403 262.906L212.424 270.463L212.301 270.585C211.707 271.127 210.845 271.263 210.113 270.932L209.959 270.853L200.984 265.823C200.373 265.48 199.626 265.48 199.015 265.823L190.041 270.853L189.887 270.932C189.155 271.263 188.293 271.127 187.699 270.585L187.576 270.463L180.596 262.906C180.12 262.391 179.41 262.161 178.723 262.298L168.634 264.309L168.462 264.335C167.663 264.424 166.886 264.028 166.489 263.329L166.41 263.176L162.106 253.831C161.831 253.234 161.284 252.811 160.643 252.692L160.513 252.673L150.296 251.468C149.428 251.365 148.733 250.718 148.559 249.875L148.531 249.703L147.326 239.487C147.249 238.834 146.859 238.262 146.285 237.951L146.168 237.893L136.824 233.59C136.03 233.224 135.569 232.393 135.665 231.537L135.691 231.366L137.702 221.277C137.831 220.632 137.636 219.968 137.186 219.495L137.094 219.403L129.536 212.424C128.894 211.831 128.712 210.897 129.067 210.113L129.145 209.959L134.176 200.984C134.497 200.411 134.518 199.719 134.236 199.131L134.176 199.015L129.145 190.041C128.718 189.279 128.834 188.335 129.414 187.699L129.536 187.576L137.094 180.596C137.576 180.149 137.809 179.498 137.724 178.852L137.702 178.723L135.691 168.634C135.521 167.777 135.922 166.915 136.67 166.489L136.824 166.41L146.168 162.106C146.765 161.831 147.188 161.284 147.307 160.643L147.326 160.513L148.531 150.296C148.634 149.428 149.282 148.733 150.125 148.56L150.296 148.531L160.513 147.326C161.166 147.249 161.737 146.859 162.048 146.285L162.106 146.168L166.41 136.824C166.8 135.978 167.72 135.509 168.634 135.691L178.723 137.702C179.367 137.831 180.031 137.636 180.504 137.186L180.596 137.094L187.576 129.536ZM189.049 130.891H189.048L189.045 130.894L182.065 138.45C181.176 139.413 179.877 139.877 178.589 139.706L178.331 139.664L168.242 137.652H168.238C168.237 137.652 168.235 137.653 168.233 137.654C168.231 137.655 168.229 137.657 168.228 137.657V137.658L168.226 137.661L163.923 147.005C163.375 148.195 162.283 149.038 161.005 149.273L160.747 149.312L150.53 150.518C150.529 150.518 150.528 150.518 150.527 150.519H150.526C150.525 150.519 150.523 150.52 150.521 150.521C150.52 150.523 150.519 150.525 150.518 150.526V150.527L150.518 150.53L149.312 160.747C149.159 162.049 148.381 163.188 147.238 163.807L147.005 163.923L137.661 168.227C137.659 168.227 137.659 168.228 137.658 168.228H137.657C137.657 168.229 137.655 168.231 137.654 168.233C137.653 168.235 137.652 168.237 137.652 168.238V168.242L139.664 178.331L139.706 178.589C139.865 179.791 139.472 181.003 138.637 181.882L138.45 182.065L130.893 189.045C130.892 189.046 130.891 189.047 130.891 189.048V189.049C130.89 189.05 130.889 189.051 130.889 189.054V189.06C130.889 189.06 130.89 189.062 130.891 189.063L135.921 198.037L136.041 198.268C136.564 199.363 136.564 200.637 136.041 201.731L135.921 201.963L130.891 210.936C130.89 210.938 130.889 210.939 130.889 210.939V210.946C130.889 210.948 130.89 210.95 130.891 210.951V210.952C130.891 210.952 130.892 210.953 130.893 210.954L138.45 217.935L138.637 218.117C139.473 218.996 139.866 220.208 139.706 221.411L139.664 221.668L137.652 231.757V231.762C137.652 231.763 137.653 231.764 137.654 231.767C137.655 231.769 137.656 231.77 137.657 231.77L137.658 231.771C137.659 231.772 137.66 231.773 137.661 231.773L147.005 236.076L147.238 236.193C148.381 236.812 149.159 237.951 149.312 239.253L150.518 249.469L150.518 249.473V249.474C150.519 249.474 150.52 249.476 150.521 249.477C150.523 249.479 150.525 249.48 150.526 249.48L150.527 249.481C150.528 249.482 150.529 249.481 150.53 249.481L160.747 250.686L161.005 250.726C162.283 250.961 163.374 251.804 163.923 252.994L168.226 262.339L168.228 262.342V262.343C168.229 262.343 168.231 262.345 168.233 262.346C168.235 262.347 168.237 262.347 168.238 262.348H168.239C168.24 262.348 168.241 262.347 168.242 262.347L178.331 260.336L178.589 260.293C179.877 260.122 181.176 260.586 182.065 261.549L189.045 269.106L189.048 269.108L189.049 269.109C189.05 269.11 189.051 269.11 189.054 269.11H189.059C189.06 269.11 189.062 269.11 189.063 269.109L198.037 264.079L198.268 263.959C199.441 263.398 200.82 263.438 201.963 264.079L210.936 269.109L210.939 269.11H210.946C210.948 269.11 210.95 269.11 210.951 269.109L210.954 269.106L217.934 261.549L218.117 261.363C219.059 260.468 220.383 260.08 221.668 260.336L231.757 262.347L231.761 262.348H231.762C231.763 262.347 231.764 262.347 231.767 262.346C231.768 262.345 231.77 262.343 231.77 262.343L231.771 262.342C231.772 262.341 231.773 262.34 231.773 262.339L236.076 252.994L236.193 252.762C236.812 251.619 237.951 250.84 239.253 250.686L249.469 249.481H249.473L249.474 249.48C249.474 249.48 249.476 249.479 249.477 249.477C249.479 249.476 249.48 249.474 249.48 249.474L249.481 249.473C249.481 249.472 249.481 249.47 249.481 249.469L250.686 239.253L250.726 238.994C250.961 237.716 251.804 236.624 252.994 236.076L262.339 231.773L262.342 231.771L262.343 231.77C262.343 231.77 262.345 231.768 262.346 231.767C262.347 231.764 262.347 231.763 262.348 231.762V231.761L262.347 231.757L260.336 221.668C260.063 220.297 260.522 218.883 261.549 217.935L269.106 210.954L269.109 210.951C269.11 210.95 269.11 210.948 269.11 210.946V210.939L269.109 210.936L264.079 201.963C263.396 200.744 263.396 199.256 264.079 198.037L269.109 189.063L269.11 189.06V189.054C269.11 189.051 269.11 189.05 269.109 189.049L269.108 189.048L269.106 189.045L261.549 182.065C260.522 181.117 260.063 179.702 260.336 178.331L262.347 168.242L262.348 168.239V168.238C262.347 168.237 262.347 168.235 262.346 168.233C262.345 168.231 262.343 168.229 262.343 168.228L262.342 168.227L262.339 168.227L252.994 163.923C251.804 163.374 250.961 162.283 250.726 161.005L250.686 160.747L249.481 150.53C249.481 150.529 249.481 150.528 249.481 150.527L249.48 150.526C249.48 150.525 249.479 150.523 249.477 150.521C249.476 150.52 249.474 150.519 249.474 150.519H249.473L249.469 150.518L239.253 149.312C237.951 149.159 236.812 148.381 236.193 147.238L236.076 147.005L231.773 137.661C231.773 137.66 231.772 137.659 231.771 137.658L231.77 137.657C231.77 137.657 231.769 137.655 231.767 137.654C231.764 137.653 231.763 137.652 231.762 137.652H231.757L221.668 139.664C220.383 139.92 219.059 139.532 218.117 138.637L217.934 138.45L210.954 130.894C210.953 130.892 210.952 130.891 210.952 130.891H210.951C210.95 130.89 210.948 130.889 210.946 130.889H210.939L210.936 130.891L201.963 135.921C200.82 136.562 199.441 136.602 198.268 136.041L198.037 135.921L189.063 130.891C189.062 130.89 189.06 130.889 189.059 130.889H189.054C189.051 130.889 189.05 130.89 189.049 130.891ZM207.469 146.86C208.078 146.519 208.843 146.639 209.317 147.152L214.552 152.82C214.864 153.158 215.311 153.333 215.764 153.303L215.957 153.277L223.524 151.769C224.21 151.632 224.899 151.984 225.191 152.619L228.419 159.627C228.639 160.104 229.092 160.433 229.614 160.495L237.277 161.399C237.971 161.481 238.519 162.029 238.601 162.723L239.505 170.385C239.567 170.907 239.895 171.36 240.373 171.58L247.381 174.808C248.016 175.1 248.367 175.79 248.23 176.476L246.723 184.042C246.62 184.558 246.793 185.09 247.179 185.447L252.847 190.683C253.36 191.157 253.481 191.922 253.14 192.531L249.367 199.262C249.11 199.721 249.11 200.28 249.367 200.739L253.14 207.47C253.481 208.079 253.36 208.844 252.847 209.318L247.179 214.553C246.792 214.91 246.62 215.442 246.723 215.958L248.23 223.525C248.367 224.211 248.015 224.9 247.381 225.192L240.373 228.42C239.895 228.64 239.567 229.093 239.505 229.615L238.601 237.278L238.58 237.406C238.45 238.038 237.928 238.525 237.277 238.602L229.614 239.506C229.092 239.568 228.639 239.896 228.419 240.374L225.191 247.382L225.133 247.498C224.835 248.022 224.251 248.319 223.652 248.252L223.524 248.231L215.957 246.724C215.441 246.621 214.909 246.793 214.552 247.18L209.317 252.848L209.225 252.939C208.779 253.345 208.133 253.448 207.584 253.199L207.469 253.141L200.738 249.368C200.279 249.111 199.72 249.111 199.261 249.368L192.53 253.141L192.414 253.199C191.865 253.448 191.219 253.345 190.773 252.939L190.682 252.848L185.446 247.18C185.089 246.793 184.557 246.621 184.041 246.724L176.475 248.231L176.346 248.252C175.747 248.319 175.164 248.021 174.866 247.498L174.807 247.382L171.579 240.374C171.386 239.956 171.016 239.652 170.576 239.541L170.384 239.506L162.722 238.602C162.071 238.525 161.549 238.038 161.419 237.406L161.398 237.278L160.494 229.615C160.44 229.158 160.181 228.755 159.798 228.514L159.626 228.42L152.618 225.192C151.983 224.9 151.631 224.211 151.768 223.525L153.276 215.958C153.366 215.507 153.244 215.043 152.954 214.695L152.819 214.553L147.151 209.318C146.638 208.844 146.518 208.079 146.859 207.47L150.632 200.739C150.857 200.338 150.885 199.858 150.716 199.437L150.632 199.262L146.859 192.531C146.518 191.922 146.638 191.157 147.151 190.683L152.819 185.447C153.157 185.135 153.332 184.688 153.302 184.236L153.276 184.042L151.768 176.476C151.631 175.79 151.983 175.1 152.618 174.808L159.626 171.58C160.044 171.387 160.348 171.017 160.459 170.577L160.494 170.385L161.398 162.723C161.48 162.028 162.027 161.481 162.722 161.399L170.384 160.495C170.841 160.441 171.245 160.183 171.486 159.799L171.579 159.627L174.807 152.619C175.099 151.984 175.789 151.632 176.475 151.769L184.041 153.277C184.492 153.367 184.957 153.246 185.305 152.955L185.446 152.82L190.682 147.152C191.156 146.639 191.921 146.519 192.53 146.86L199.261 150.633C199.662 150.858 200.141 150.885 200.561 150.717L200.738 150.633L207.469 146.86ZM186.916 154.178C186.138 155.02 185.002 155.426 183.875 155.276L183.65 155.238L176.461 153.806L173.396 160.463C172.917 161.504 171.961 162.241 170.844 162.447L170.618 162.481L163.339 163.34L162.48 170.619C162.346 171.757 161.665 172.754 160.666 173.295L160.462 173.397L153.805 176.462L155.237 183.651L155.275 183.876C155.415 184.928 155.07 185.988 154.339 186.757L154.177 186.917L148.791 191.89L152.376 198.283L152.481 198.486C152.939 199.443 152.939 200.558 152.481 201.515L152.376 201.717L148.792 208.11L154.177 213.084L154.339 213.244C155.07 214.013 155.415 215.072 155.275 216.124L155.237 216.35L153.805 223.537L160.462 226.603L160.666 226.706C161.599 227.211 162.254 228.112 162.446 229.155L162.48 229.382L163.339 236.66L170.618 237.519L170.844 237.554C171.887 237.746 172.789 238.4 173.294 239.333L173.396 239.537L176.462 246.194L183.65 244.762L183.875 244.725C184.927 244.585 185.987 244.929 186.756 245.66L186.916 245.823L191.889 251.208L198.282 247.623L198.485 247.518C199.442 247.061 200.556 247.061 201.514 247.518L201.716 247.623L208.109 251.207L213.083 245.823L213.243 245.66C214.012 244.929 215.071 244.585 216.123 244.725L216.349 244.762L223.536 246.194L226.602 239.537L226.705 239.333C227.246 238.334 228.242 237.654 229.38 237.519L236.659 236.66L237.518 229.382L237.553 229.155C237.759 228.038 238.495 227.083 239.536 226.603L246.193 223.537L244.761 216.35C244.522 215.151 244.924 213.913 245.822 213.084L251.206 208.11L247.622 201.717C247.024 200.651 247.024 199.349 247.622 198.283L251.207 191.89L245.822 186.917C244.924 186.088 244.522 184.85 244.761 183.651L246.193 176.463L239.536 173.397C238.495 172.918 237.759 171.962 237.553 170.845L237.518 170.619L236.659 163.34L229.38 162.481C228.242 162.347 227.246 161.666 226.705 160.667L226.602 160.463L223.536 153.806L216.349 155.238C215.225 155.462 214.067 155.123 213.243 154.34L213.083 154.178L208.109 148.793L201.716 152.377C200.716 152.937 199.511 152.973 198.485 152.482L198.282 152.377L191.889 148.792L186.916 154.178ZM204.98 164.573C205.387 164.345 205.897 164.426 206.213 164.769L209.703 168.547C209.911 168.772 210.209 168.889 210.511 168.868L210.64 168.852L215.684 167.846C216.14 167.755 216.601 167.989 216.796 168.412L218.947 173.084C219.094 173.402 219.396 173.622 219.744 173.663L224.852 174.266C225.315 174.32 225.681 174.686 225.735 175.148L226.338 180.257C226.379 180.605 226.599 180.907 226.917 181.054L231.589 183.205C232.012 183.4 232.246 183.86 232.155 184.316L231.149 189.361C231.081 189.705 231.197 190.06 231.454 190.298L235.232 193.788C235.575 194.104 235.655 194.614 235.428 195.02L232.913 199.508C232.742 199.814 232.742 200.186 232.913 200.492L235.428 204.979C235.655 205.386 235.575 205.896 235.232 206.212L231.454 209.702C231.197 209.94 231.081 210.295 231.149 210.639L232.155 215.683C232.246 216.139 232.012 216.6 231.589 216.795L226.917 218.946C226.598 219.093 226.379 219.395 226.338 219.743L225.735 224.852L225.7 225.02C225.587 225.401 225.257 225.687 224.852 225.734L219.744 226.337C219.396 226.378 219.094 226.598 218.947 226.916L216.796 231.588L216.711 231.737C216.518 232.018 216.195 232.182 215.855 232.173L215.684 232.154L210.64 231.148C210.296 231.08 209.941 231.196 209.703 231.453L206.213 235.231L206.086 235.348C205.816 235.555 205.458 235.612 205.137 235.498L204.98 235.427L200.493 232.912C200.187 232.741 199.815 232.741 199.509 232.912L195.021 235.427L194.865 235.498C194.544 235.612 194.186 235.555 193.916 235.348L193.789 235.231L190.299 231.453C190.061 231.196 189.706 231.08 189.362 231.148L184.317 232.154L184.146 232.173C183.806 232.182 183.484 232.018 183.291 231.737L183.206 231.588L181.055 226.916C180.926 226.637 180.679 226.434 180.386 226.36L180.258 226.337L175.149 225.734C174.745 225.687 174.415 225.401 174.302 225.02L174.267 224.852L173.664 219.743C173.628 219.439 173.456 219.169 173.2 219.009L173.085 218.946L168.413 216.795C167.99 216.6 167.756 216.14 167.847 215.683L168.852 210.639C168.912 210.338 168.831 210.028 168.638 209.796L168.548 209.702L164.769 206.212C164.427 205.896 164.346 205.386 164.574 204.979L167.089 200.492C167.239 200.225 167.258 199.905 167.145 199.625L167.089 199.508L164.574 195.02C164.346 194.614 164.427 194.104 164.769 193.788L168.548 190.298C168.773 190.09 168.889 189.792 168.869 189.49L168.852 189.361L167.847 184.316C167.756 183.86 167.99 183.4 168.413 183.205L173.085 181.054C173.364 180.925 173.567 180.678 173.641 180.385L173.664 180.257L174.267 175.148C174.321 174.686 174.687 174.32 175.149 174.266L180.258 173.663C180.562 173.627 180.831 173.455 180.992 173.199L181.055 173.084L183.206 168.412C183.401 167.989 183.86 167.755 184.317 167.846L189.362 168.852C189.663 168.911 189.972 168.83 190.204 168.637L190.299 168.547L193.789 164.769C194.105 164.426 194.615 164.345 195.021 164.573L199.509 167.088C199.776 167.238 200.095 167.257 200.376 167.144L200.493 167.088L204.98 164.573ZM191.768 169.903C191.102 170.624 190.129 170.973 189.164 170.845L188.971 170.812L184.694 169.959L182.871 173.921C182.46 174.813 181.642 175.444 180.684 175.62L180.491 175.649L176.161 176.16L175.65 180.49C175.535 181.465 174.953 182.318 174.097 182.782L173.922 182.87L169.96 184.693L170.813 188.97L170.846 189.163C170.965 190.064 170.67 190.971 170.044 191.63L169.904 191.768L166.7 194.726L168.834 198.529L168.924 198.703C169.316 199.523 169.316 200.477 168.924 201.297L168.834 201.471L166.701 205.273L169.904 208.232L170.044 208.37C170.67 209.029 170.965 209.936 170.846 210.837L170.813 211.029L169.96 215.306L173.922 217.13L174.097 217.218C174.895 217.65 175.456 218.422 175.621 219.315L175.65 219.509L176.161 223.839L180.491 224.351L180.684 224.38C181.578 224.544 182.35 225.105 182.783 225.904L182.871 226.079L184.694 230.039L188.971 229.187L189.164 229.155C190.065 229.036 190.972 229.331 191.631 229.957L191.768 230.096L194.726 233.299L198.53 231.167L198.704 231.077C199.524 230.685 200.478 230.685 201.298 231.077L201.472 231.167L205.274 233.299L208.233 230.096L208.371 229.957C209.03 229.331 209.937 229.036 210.838 229.155L211.03 229.187L215.307 230.039L217.131 226.079L217.219 225.904C217.682 225.048 218.535 224.466 219.51 224.351L223.84 223.839L224.351 219.509L224.381 219.315C224.557 218.358 225.189 217.54 226.08 217.13L230.04 215.306L229.188 211.029C228.984 210.002 229.328 208.943 230.097 208.232L233.3 205.273L231.168 201.471C230.656 200.557 230.656 199.443 231.168 198.529L233.3 194.726L230.097 191.768C229.327 191.057 228.984 189.997 229.188 188.97L230.04 184.693L226.08 182.87C225.188 182.459 224.557 181.641 224.381 180.684L224.351 180.49L223.84 176.16L219.51 175.649C218.535 175.534 217.682 174.952 217.219 174.096L217.131 173.921L215.307 169.959L211.03 170.812C210.068 171.004 209.077 170.714 208.371 170.043L208.233 169.903L205.274 166.7L201.472 168.833C200.615 169.313 199.582 169.343 198.704 168.923L198.53 168.833L194.726 166.699L191.768 169.903ZM202.49 182.286C202.693 182.172 202.948 182.213 203.106 182.384L204.851 184.273C204.97 184.402 205.147 184.46 205.319 184.426L207.842 183.923C208.07 183.877 208.3 183.994 208.397 184.206L209.474 186.542C209.547 186.701 209.698 186.811 209.872 186.832L212.427 187.133C212.658 187.16 212.84 187.343 212.867 187.574L213.169 190.128C213.189 190.302 213.299 190.453 213.458 190.526L215.794 191.602C216.005 191.7 216.123 191.93 216.077 192.158L215.575 194.681C215.541 194.853 215.598 195.03 215.726 195.149L217.616 196.893C217.787 197.052 217.828 197.307 217.714 197.511L216.456 199.754C216.37 199.907 216.37 200.093 216.456 200.246L217.714 202.489C217.828 202.692 217.787 202.947 217.616 203.105L215.726 204.851C215.598 204.97 215.541 205.147 215.575 205.319L216.077 207.842C216.123 208.07 216.005 208.3 215.794 208.397L213.458 209.474C213.299 209.547 213.189 209.698 213.169 209.872L212.867 212.426C212.84 212.657 212.658 212.84 212.427 212.867L209.872 213.168C209.698 213.188 209.547 213.299 209.474 213.458L208.397 215.794C208.3 216.005 208.07 216.123 207.842 216.077L205.319 215.574C205.147 215.54 204.97 215.598 204.851 215.727L203.106 217.616C202.948 217.787 202.693 217.828 202.49 217.714L200.247 216.456C200.094 216.37 199.907 216.37 199.754 216.456L197.511 217.714C197.308 217.828 197.053 217.787 196.894 217.616L195.149 215.727C195.03 215.598 194.853 215.54 194.681 215.574L192.159 216.077C191.931 216.123 191.7 216.006 191.602 215.794L190.527 213.458C190.454 213.299 190.303 213.189 190.129 213.168L187.574 212.867C187.343 212.84 187.161 212.657 187.134 212.426L186.832 209.872C186.811 209.698 186.702 209.547 186.543 209.474L184.207 208.397C183.995 208.3 183.877 208.07 183.923 207.842L184.426 205.319C184.46 205.147 184.402 204.97 184.273 204.851L182.385 203.105C182.214 202.947 182.173 202.692 182.287 202.489L183.545 200.246C183.63 200.093 183.63 199.907 183.545 199.754L182.287 197.511C182.173 197.307 182.214 197.052 182.385 196.893L184.273 195.149C184.402 195.03 184.46 194.853 184.426 194.681L183.923 192.158C183.877 191.93 183.995 191.7 184.207 191.602L186.543 190.526C186.702 190.453 186.811 190.302 186.832 190.128L187.134 187.574C187.161 187.343 187.343 187.16 187.574 187.133L190.129 186.832C190.303 186.811 190.454 186.701 190.527 186.542L191.602 184.206C191.7 183.994 191.931 183.877 192.159 183.923L194.681 184.426C194.853 184.46 195.03 184.402 195.149 184.273L196.894 182.384C197.053 182.213 197.308 182.172 197.511 182.286L199.754 183.544C199.907 183.63 200.094 183.63 200.247 183.544L202.49 182.286Z" fill="white" fill-opacity="0.6"/>
</g>
</svg>
