<svg width="160" height="128" viewBox="0 0 160 128" fill="none" xmlns="http://www.w3.org/2000/svg">
<g opacity="0.8">
<path d="M101.641 83.2206C101.096 83.2206 100.547 83.188 99.9877 83.1228C93.8591 82.3637 88.4849 76.9802 83.7348 72.2301C78.5796 67.0702 74.1321 62.6228 69.8617 64.6439C67.4214 66.5998 65.3537 67.2705 63.7378 66.6185C61.7818 65.8268 60.4918 63.0605 59.9051 58.4082C59.1646 51.1247 61.3115 43.7667 65.9452 37.6707C70.9468 31.0951 78.3467 26.5545 87.3486 24.5473H87.3533C96.644 22.8522 107.178 25.2273 114.839 30.7504C121.005 35.1932 124.781 41.2193 125.759 48.1768C125.787 49.9512 125.48 51.4973 125.201 52.8524C124.935 54.1611 124.707 55.2927 124.921 56.117C124.949 58.7528 123.054 61.7752 120.851 65.2726C119.831 66.8979 118.779 68.5698 117.796 70.3813C113.064 79.0014 107.765 83.2159 101.636 83.2159L101.641 83.2206ZM72.0551 63.8243C75.7993 63.8243 79.6413 67.6663 83.9723 71.9973C88.6805 76.7055 94.0221 82.0517 100.034 82.7968C106.731 83.5978 112.436 79.4764 117.521 70.2276C118.508 68.4068 119.561 66.7256 120.585 65.1003C122.756 61.6448 124.637 58.6644 124.609 56.1636C124.381 55.3067 124.614 54.1424 124.889 52.7966C125.159 51.4554 125.466 49.9279 125.443 48.2048C124.483 41.3544 120.753 35.4074 114.657 31.0159C107.066 25.5486 96.63 23.1875 87.4278 24.864C78.505 26.8572 71.1703 31.3512 66.2106 37.8663C61.6235 43.8924 59.5046 51.1806 60.2357 58.371C60.8039 62.8975 62.0287 65.5707 63.8682 66.3204C65.3584 66.9212 67.3236 66.2645 69.694 64.3738C70.4811 64.0013 71.2681 63.8289 72.0598 63.8289L72.0551 63.8243Z" fill="white"/>
<path d="M100.03 81.1482C99.5732 81.1482 99.1354 81.1203 98.721 81.083C92.5505 80.5615 87.0599 75.3131 82.2166 70.6794C77.1219 65.8082 72.7211 61.5936 68.5205 63.2235C66.1454 64.9792 64.1429 65.5287 62.5595 64.8581C60.5803 64.0199 59.2624 61.249 58.657 56.606C57.1295 43.0588 65.9871 26.9643 85.8584 22.3958H85.8631C95.3353 20.5656 106.498 23.0944 114.289 28.8178C120.381 33.2931 123.999 39.2727 124.763 46.0905C124.726 47.9021 124.292 49.4855 123.943 50.7521C123.599 52.0282 123.319 53.0387 123.575 53.6954L123.585 53.7512C123.631 55.8422 121.987 58.2685 119.896 61.3421C118.644 63.1816 117.228 65.268 116.017 67.5638C109.809 79.1783 104.109 81.1389 100.025 81.1389L100.03 81.1482ZM70.4252 62.539C74.1834 62.539 78.058 66.2459 82.4448 70.4418C87.2508 75.0383 92.6995 80.2494 98.7582 80.7617C99.1448 80.799 99.522 80.8176 99.8899 80.8176C107.648 80.8176 112.627 73.25 115.742 67.4241C116.967 65.1143 118.387 63.0233 119.645 61.1791C121.689 58.1707 123.31 55.7863 123.277 53.8118C123.002 53.048 123.282 52.0049 123.645 50.687C123.985 49.4342 124.414 47.8788 124.451 46.1231C123.706 39.4124 120.124 33.5167 114.112 29.0972C106.391 23.425 95.34 20.9289 85.9469 22.7311C71.0445 26.1587 57.0038 38.8862 58.9969 56.5827C59.5884 61.0906 60.8365 63.7777 62.7039 64.5741C64.1708 65.1934 66.0709 64.6532 68.3575 62.9627L68.3947 62.9395C69.07 62.674 69.7546 62.5483 70.4345 62.5483H70.4298L70.4252 62.539Z" fill="white"/>
<path d="M98.1528 79.346C97.8967 79.346 97.6406 79.3413 97.3798 79.3181C91.1487 79.0479 85.5278 73.9113 80.5774 69.3801C75.7574 64.9746 71.2029 60.8159 67.0815 62.0733C64.7902 63.6194 62.8483 64.0525 61.3068 63.3726C59.3043 62.4784 57.9678 59.6936 57.3344 55.0785C55.3738 39.2168 66.7182 24.687 84.2937 20.5191H84.2983C94.1059 18.5398 105.632 21.1477 113.661 27.1692C119.668 31.6725 123.138 37.5962 123.696 44.2929C123.589 46.179 123.04 47.7391 122.602 48.9965C122.197 50.1561 121.875 51.0688 122.164 51.5625L122.187 51.637C122.257 53.3135 120.735 55.3672 118.816 57.9612C117.307 59.9963 115.589 62.3061 114.182 65.0304C110.475 72.1417 105.679 79.346 98.1668 79.346H98.1575H98.1528ZM68.6276 61.5191C72.4556 61.5191 76.5212 65.24 80.7916 69.1426C85.7094 73.6365 91.2791 78.7313 97.3937 78.9967C97.6499 79.0107 97.8967 79.0247 98.1389 79.0247C105.483 79.0247 110.205 71.9135 113.87 64.8861C115.295 62.1431 117.014 59.8193 118.532 57.7749C120.404 55.2508 121.885 53.2529 121.843 51.6975C121.512 51.0735 121.838 50.1561 122.276 48.8987C122.709 47.6599 123.249 46.1231 123.352 44.3022C122.807 37.7266 119.379 31.8821 113.446 27.4393C105.488 21.4737 94.064 18.8845 84.3496 20.8497C66.9325 24.9804 55.6998 39.3565 57.6371 55.0459C58.2565 59.5352 59.5279 62.2409 61.4233 63.0838C62.8623 63.7218 64.7018 63.2887 66.9092 61.7985L66.9511 61.7752C67.5053 61.6029 68.0594 61.5284 68.6229 61.5284L68.6276 61.5191Z" fill="white"/>
<path d="M96.2807 77.9675C96.155 77.9675 96.0246 77.9675 95.9035 77.9629C89.5979 77.9536 83.8373 72.9194 78.7518 68.4859C74.0157 64.3505 69.5357 60.448 65.4981 61.3421C63.2953 62.688 61.4093 63.014 59.9004 62.3061C57.87 61.3607 56.5101 58.5479 55.8581 53.9655C54.0233 40.3066 62.6154 23.9373 82.5752 19.0568C92.5644 16.9471 104.738 19.7041 112.874 25.9258C118.793 30.4524 122.108 36.3202 122.472 42.8912C122.285 44.8657 121.582 46.4957 121.07 47.6832C120.613 48.7403 120.283 49.4948 120.576 49.8254L120.613 49.8673V49.9232C120.711 51.2551 119.379 52.8897 117.535 55.1483C115.849 57.2114 113.758 59.7727 112.175 62.9069C108.184 70.7446 103.504 77.9768 96.276 77.9768H96.2807V77.9675ZM66.7042 60.8764C70.5416 60.8764 74.6444 64.4623 78.9614 68.2344C84.0003 72.6353 89.7144 77.6229 95.8988 77.6369C103.154 77.879 107.872 70.6328 111.882 62.7485C113.484 59.5864 115.589 57.0065 117.284 54.9295C118.988 52.8385 120.343 51.1899 120.297 49.9884C119.92 49.4994 120.264 48.717 120.767 47.5481C121.27 46.3792 121.964 44.7819 122.141 42.8819C121.782 36.4273 118.508 30.648 112.669 26.1819C104.607 20.0161 92.5411 17.2825 82.6404 19.3734C62.8715 24.2027 54.3586 40.4043 56.1748 53.9189C56.8128 58.3849 58.1075 61.1093 60.0354 62.0127C61.4465 62.674 63.2348 62.348 65.3444 61.0534L65.391 61.0301C65.8241 60.9323 66.2572 60.8857 66.6949 60.8857H66.6996L66.7042 60.8764Z" fill="white"/>
<path d="M93.7427 77.1246C87.5349 77.1246 81.7789 72.3233 76.6841 68.0715C72.0504 64.2062 67.6682 60.5504 63.7331 61.1093C61.6142 62.2642 59.7933 62.4738 58.3124 61.7426C56.2586 60.7321 54.8802 57.9053 54.2049 53.3461C53.1245 45.881 55.0571 38.2482 59.635 31.8588C64.4875 25.0922 71.7617 20.3328 80.6798 18.0928C91.0044 15.8202 103.55 18.6656 111.91 25.1853C117.735 29.7259 120.907 35.5425 121.074 42.0017C120.814 44.102 119.961 45.7226 119.337 46.9055C118.876 47.781 118.541 48.419 118.811 48.596L118.876 48.6379V48.7124C118.997 49.7462 117.777 51.0921 116.087 52.9502C114.257 54.9714 111.747 57.7423 109.991 61.2769C106.014 69.2869 101.524 77.1153 94.2596 77.1153H94.2223C94.0593 77.12 93.8963 77.1246 93.7333 77.1246H93.738H93.7427ZM64.5434 60.7274C68.3854 60.7274 72.5208 64.1829 76.8844 67.8246C82.063 72.1463 87.9401 77.0641 94.213 76.7893H94.2456C101.334 76.7893 105.762 69.0541 109.697 61.1326C111.472 57.556 113.996 54.7665 115.84 52.7314C117.368 51.0455 118.578 49.7043 118.56 48.8102C118.136 48.4563 118.499 47.767 119.039 46.7472C119.649 45.5829 120.492 43.9902 120.744 41.9784C120.576 35.6449 117.447 29.9168 111.705 25.4415C103.42 18.9823 90.9811 16.1555 80.7497 18.4094C71.9107 20.6355 64.6971 25.3483 59.8911 32.0497C55.3598 38.3692 53.4551 45.9136 54.5216 53.2995C55.1829 57.7423 56.5008 60.4852 58.4521 61.4539C59.8399 62.1431 61.5629 61.9242 63.5934 60.8159L63.6493 60.7926C63.9473 60.7507 64.2454 60.7274 64.5434 60.7274Z" fill="white"/>
<path d="M91.1115 76.9942C84.9829 76.9942 79.2269 72.4025 74.1182 68.3276C69.6102 64.7278 65.3491 61.3235 61.5257 61.5657C59.4906 62.5343 57.7256 62.6368 56.2819 61.873C54.2142 60.7833 52.8125 57.9425 52.1139 53.4206C50.9497 45.9042 52.8218 38.2063 57.3856 31.7517C62.1963 24.9432 69.4472 20.1232 78.342 17.8227C88.8389 15.415 102.06 18.4234 110.498 25.1295C116.227 29.6887 119.249 35.4493 119.235 41.7921C118.881 44.0368 117.824 45.718 117.111 46.8263C116.785 47.3339 116.455 47.8602 116.511 48.0045C116.515 48.0278 116.557 48.0371 116.58 48.0418L116.683 48.0697L116.697 48.1722C116.823 48.9499 115.789 49.9744 114.219 51.5159C112.142 53.5696 109.292 56.3731 107.369 60.3223C103.029 69.2916 98.8793 76.7288 92.1127 76.9383C91.7727 76.9663 91.4375 76.9803 91.1021 76.9803H91.1068L91.1115 76.9942ZM61.8982 61.2257C65.7356 61.2257 69.9082 64.5554 74.3184 68.0761C79.66 72.3372 85.7094 77.1805 92.1034 76.631C98.6977 76.4307 102.791 69.0727 107.085 60.2012C109.027 56.1962 111.905 53.3694 113.996 51.3017C115.323 49.9977 116.376 48.9499 116.39 48.3259C116.287 48.27 116.236 48.1955 116.213 48.1303C116.091 47.8322 116.376 47.3898 116.841 46.6587C117.53 45.5689 118.574 43.925 118.914 41.7689C118.918 35.5518 115.942 29.8796 110.294 25.3856C101.93 18.7308 88.8249 15.755 78.4165 18.1347C69.5962 20.4119 62.4198 25.19 57.6511 31.9333C53.1338 38.3273 51.2803 45.9368 52.4306 53.3647C53.1105 57.7749 54.461 60.5411 56.4309 61.575C57.7861 62.2875 59.4626 62.1757 61.4093 61.2443L61.4698 61.2304C61.6095 61.221 61.7492 61.2164 61.8982 61.2164V61.2257Z" fill="white"/>
<path d="M87.5768 77.5531C81.5088 77.5531 75.7388 73.1475 70.5975 69.2264C66.2386 65.9013 62.1265 62.7578 58.4381 62.688C56.4775 63.4657 54.7684 63.4657 53.362 62.674C51.285 61.5051 49.86 58.6411 49.1335 54.1564C47.8901 46.5935 49.7063 38.8303 54.2562 32.2965C58.9644 25.5346 66.3736 20.533 75.1194 18.2092C85.9516 15.6292 99.5499 18.7215 108.193 25.7349C113.824 30.3034 116.697 36.0175 116.515 42.2485C116.059 44.6794 114.75 46.4072 113.963 47.4364C113.749 47.7251 113.498 48.0464 113.442 48.1908H113.609L113.642 48.3165C113.782 48.88 112.934 49.6205 111.523 50.8453C109.316 52.7686 105.981 55.6699 103.881 60.0708L103.755 60.3409C99.8806 68.5371 95.8709 77.0128 89.1369 77.4599C88.6107 77.5251 88.0938 77.5577 87.5722 77.5577L87.5768 77.5531ZM58.3776 62.3573H58.4102C62.2103 62.4179 66.3783 65.5986 70.7931 68.9656C76.3209 73.1848 82.5892 77.9675 89.109 77.1293C95.666 76.6962 99.6291 68.309 103.462 60.2012L103.592 59.931C105.72 55.465 109.087 52.5358 111.318 50.5985C112.347 49.6997 113.251 48.922 113.33 48.5028C113.26 48.4889 113.176 48.4469 113.134 48.3631C113.023 48.1396 113.232 47.8602 113.702 47.2408C114.466 46.2349 115.747 44.5444 116.189 42.2159C116.366 36.1153 113.53 30.4943 107.988 25.991C99.4242 19.0381 85.9422 15.9692 75.1986 18.5259C66.5273 20.8311 59.1833 25.7907 54.517 32.4875C50.0137 38.9514 48.2161 46.6261 49.4502 54.1098C50.1534 58.4827 51.5225 61.2723 53.5157 62.3946C54.8429 63.1397 56.4682 63.135 58.345 62.3806L58.3776 62.3713V62.362V62.3573Z" fill="white"/>
<path d="M84.3961 78.5729C78.3607 78.5729 72.5581 74.3211 67.3702 70.5303C63.1975 67.4753 59.2531 64.5973 55.7371 64.2387C53.8463 64.8488 52.1978 64.737 50.8146 63.9081C48.7237 62.646 47.2847 59.7634 46.5442 55.3346C45.2123 47.7251 46.9773 39.8967 51.5132 33.2838C56.1841 26.48 63.5655 21.4178 72.2833 19.0334C83.2784 16.3231 97.5707 19.5783 106.265 26.7733C111.793 31.3465 114.527 37.0094 114.173 43.138C113.595 45.8111 111.919 47.6133 111.118 48.4888C111.043 48.5773 110.96 48.6611 110.89 48.7356L110.946 48.866C111.109 49.2526 110.526 49.6903 109.255 50.645C107.085 52.275 103.047 55.3113 100.747 60.2291C100.514 60.7367 100.276 61.2489 100.044 61.7566C96.2761 69.9808 92.7135 77.744 86.515 78.3866C85.8025 78.5124 85.0853 78.5729 84.3775 78.5729H84.3915H84.3961ZM55.6952 63.9081H55.7277C59.3509 64.262 63.3373 67.1773 67.5611 70.2695C73.3032 74.4701 79.8136 79.2389 86.4871 78.0653C92.5132 77.4366 96.0385 69.7572 99.7688 61.6262C100.002 61.1186 100.239 60.6016 100.472 60.094C102.805 55.1064 106.889 52.0374 109.078 50.3935C109.702 49.9232 110.401 49.4016 110.601 49.1315C110.536 49.1268 110.475 49.0989 110.438 49.0337C110.34 48.8707 110.466 48.731 110.885 48.2746C111.672 47.4224 113.293 45.6667 113.851 43.1054C114.191 37.1072 111.495 31.5421 106.056 27.0341C97.4356 19.8996 83.2645 16.6677 72.3625 19.3594C63.7098 21.7252 56.403 26.7361 51.774 33.4794C47.2847 40.0131 45.5429 47.7623 46.8562 55.2834C47.5827 59.6143 48.9658 62.4225 50.9776 63.638C52.2769 64.425 53.851 64.5181 55.6626 63.9314L55.6952 63.9221V63.9081Z" fill="white"/>
<path d="M81.5367 79.9887C75.5013 79.9887 69.6381 75.8626 64.3804 72.165C60.436 69.3894 56.7057 66.7629 53.3713 66.1621C51.5504 66.6045 49.9484 66.3857 48.6026 65.5148C46.5069 64.155 45.0633 61.249 44.2949 56.8808C42.8838 49.22 44.5929 41.3265 49.1055 34.6484C53.7392 27.7979 61.0879 22.6846 69.7872 20.2397C80.9406 17.3989 95.9361 20.8125 104.673 28.1938C110.098 32.7716 112.697 38.3879 112.18 44.4187C111.686 46.4212 110.494 48.2374 108.636 49.8441C108.65 49.8813 108.659 49.9186 108.65 49.9652C108.622 50.1654 108.361 50.3377 107.457 50.9012C105.385 52.2005 100.528 55.2415 97.9852 60.774C97.58 61.6728 97.1842 62.5716 96.7837 63.475C93.2863 71.3966 89.9798 78.8803 84.2611 79.7093C83.3483 79.9095 82.4309 80.0073 81.5227 80.0073L81.5367 79.998V79.9887ZM53.362 65.8268H53.3946C56.8128 66.4369 60.5803 69.0914 64.576 71.8949C70.5695 76.1048 77.3501 80.8921 84.2238 79.3647C89.7749 78.5637 93.0441 71.1591 96.4996 63.326C96.9001 62.4272 97.2959 61.5191 97.7011 60.625C100.29 54.9993 105.199 51.9211 107.299 50.6032C107.602 50.4122 107.9 50.2306 108.1 50.0909C108.1 50.0909 108.095 50.0816 108.091 50.0769C108.002 49.9465 108.091 49.8767 108.319 49.6811C110.196 48.093 111.393 46.3048 111.877 44.3488C112.375 38.4531 109.819 32.9392 104.477 28.4266C95.815 21.1152 80.9499 17.7249 69.8896 20.5377C61.2602 22.964 53.9767 28.0308 49.3943 34.8207C44.9236 41.4289 43.2331 49.2387 44.6302 56.8156C45.3753 61.0907 46.7817 63.9268 48.7935 65.2354C50.0649 66.0643 51.597 66.2646 53.3387 65.8361H53.3713H53.3667L53.362 65.8268Z" fill="white"/>
<path d="M78.98 81.7723C72.9073 81.7723 66.9511 77.73 61.5955 74.0836C57.9212 71.5875 54.4424 69.2264 51.3362 68.4161C46.7631 69.1472 43.6615 65.8035 42.3715 58.7482C40.8766 51.0456 42.5345 43.0821 47.0332 36.3295C51.6296 29.4372 58.9411 24.2633 67.6263 21.7625C79.1151 18.7355 94.4924 22.2422 103.401 29.9215C108.724 34.5086 111.188 40.0644 110.512 46.0067C109.544 49.56 106.461 51.5485 106.2 51.5485H106.107C101.035 53.9515 97.4822 57.3418 95.5449 61.6216C94.9907 62.8836 94.4458 64.1782 93.9149 65.4263C90.6737 73.0917 87.6141 80.3333 82.333 81.3252C81.2061 81.6279 80.0884 81.763 78.9661 81.763H78.9754L78.98 81.7723ZM51.3548 68.0854H51.3874C54.5635 68.9144 58.0655 71.2941 61.7818 73.8182C68.0594 78.084 75.1799 82.9179 82.2725 81.0132C87.3905 80.0492 90.4129 72.8868 93.6216 65.3052C94.1525 64.0478 94.6973 62.7532 95.2562 61.4958C96.616 58.4874 99.5918 54.2682 106.042 51.2318C106.112 51.1992 106.177 51.1666 106.237 51.1387C106.279 51.1061 106.335 51.0735 106.4 51.0316L106.442 51.0037H106.568C107.439 50.4169 109.46 48.6984 110.21 45.9415C110.857 40.1389 108.44 34.6763 103.201 30.1683C94.3667 22.5588 79.1151 19.0801 67.7241 22.0745C59.118 24.552 51.8671 29.684 47.3126 36.5111C42.8559 43.1892 41.2213 51.0688 42.7022 58.6923C43.573 63.4797 45.7758 68.9936 51.3269 68.0901H51.3595L51.3548 68.0854Z" fill="white"/>
<path d="M76.6841 83.8633C70.523 83.8633 64.4363 79.8396 58.9504 76.2119C55.6067 74.0045 52.4446 71.9135 49.5992 70.9448C45.1052 71.2522 42.0595 67.7874 40.7556 60.9044C39.1815 53.1505 40.7835 45.1172 45.2635 38.2994C49.8227 31.3605 57.1016 26.1307 65.7635 23.5694C77.3967 20.412 93.4958 24.091 102.423 31.9287C107.644 36.5158 109.968 42.0296 109.153 47.8835C108.1 51.3948 105.045 53.2436 104.528 53.2576C104.393 53.2576 104.328 53.1598 104.319 53.1272C104.295 53.0667 104.305 53.0155 104.333 52.9409C102.624 53.4625 96.3273 56.1962 93.4027 62.7672C92.7135 64.3692 92.0475 66.0224 91.4049 67.6244C88.4104 75.0662 85.5836 82.0983 80.7078 83.2486C79.3666 83.677 78.0207 83.8679 76.6795 83.8679L76.6841 83.8633ZM49.6411 70.6142L49.6737 70.6235C52.5657 71.5968 55.7604 73.7111 59.132 75.9418C65.7542 80.3147 73.2566 85.2697 80.624 82.9319C85.3508 81.8235 88.145 74.866 91.1068 67.5033C91.7495 65.9013 92.4154 64.2434 93.1093 62.6368C96.4996 55.018 104.142 52.5172 104.761 52.5172H104.882L104.952 52.6429C104.952 52.6429 104.966 52.6988 104.952 52.736C105.888 52.2051 108.012 50.5473 108.831 47.8043C109.628 42.0948 107.336 36.6788 102.204 32.1662C93.3515 24.3937 77.3874 20.7473 65.852 23.8721C57.2646 26.4101 50.0509 31.598 45.5336 38.4671C41.1002 45.2197 39.5122 53.1598 41.0722 60.8299C41.9617 65.5194 44.1738 71.0286 49.6085 70.6049H49.6411V70.6142Z" fill="white"/>
<path d="M74.6258 86.1964C68.3249 86.1964 62.0426 82.1262 56.3704 78.4519C53.4272 76.5472 50.647 74.7449 48.1322 73.6832C43.7453 73.59 40.7323 69.9902 39.4004 63.2608C37.7425 55.4604 39.2886 47.3619 43.7593 40.4649C48.2812 33.4888 55.5275 28.1985 64.1708 25.5719C76.1393 22.2375 92.6203 25.9957 101.701 34.1268C106.824 38.7139 109.022 44.1859 108.058 49.9512C106.968 53.3042 104.002 55.1437 103.168 55.1763H103.145C102.959 55.1763 102.889 55.0785 102.87 55.018C102.81 54.8829 102.884 54.7153 103.103 54.4871C102.842 54.4871 102.251 54.5895 101.31 54.9342C99.6989 55.5302 94.2223 57.9472 91.5352 64.1084C90.7249 66.0364 89.9612 68.0389 89.2254 69.9762C86.4638 77.2271 83.8605 84.0682 79.3526 85.3582C77.7832 85.9357 76.2091 86.1918 74.6304 86.1918L74.6258 86.1964ZM64.2593 25.8793C55.6951 28.4825 48.5094 33.7216 44.0294 40.6372C39.6099 47.4597 38.0778 55.4697 39.7217 63.191C41.361 71.4944 45.2216 73.2966 48.1741 73.3478L48.2347 73.3572C50.7913 74.4236 53.5902 76.2445 56.5567 78.1632C63.5841 82.7223 71.5475 87.8869 79.2501 85.0462C83.6137 83.8028 86.189 77.0269 88.918 69.8598C89.6585 67.9178 90.4222 65.906 91.2372 63.9734C94.3248 56.932 101.399 54.2449 103.029 54.1518C103.206 54.1518 103.42 54.1518 103.504 54.2962C103.527 54.3334 103.569 54.4359 103.48 54.5616C103.35 54.6873 103.275 54.7712 103.238 54.8317C103.886 54.7106 106.698 53.104 107.746 49.8627C108.682 44.2371 106.521 38.8676 101.487 34.3596C92.4853 26.2937 76.13 22.5682 64.264 25.87L64.2593 25.8793Z" fill="white"/>
<path d="M72.7723 88.7345C66.2432 88.7345 59.7002 84.5153 53.7765 80.6965C51.3362 79.1225 49.0217 77.6322 46.9075 76.5751C42.6184 76.0675 39.6426 72.3373 38.2874 65.7802C36.5503 57.9286 38.0406 49.7649 42.488 42.7981C46.9773 35.7753 54.191 30.4291 62.811 27.742C74.9099 24.2773 92.1314 28.2031 101.203 36.4832C106.228 41.0703 108.3 46.5004 107.197 52.1819C106.056 55.4511 103.089 57.2347 102.074 57.2766C101.804 57.2999 101.701 57.1788 101.664 57.0857C101.576 56.8994 101.687 56.6572 101.995 56.3266C101.972 56.2707 101.795 56.2008 101.32 56.2474C98.9119 56.4803 92.6855 59.158 89.896 65.6126C88.9739 67.8479 88.1357 70.1997 87.3207 72.4723C84.7873 79.5416 82.3936 86.2244 78.2256 87.6354C76.4187 88.3945 74.5978 88.7252 72.7723 88.7252V88.7345ZM62.9088 28.0587C54.3679 30.7225 47.2102 36.0175 42.7721 42.975C38.3712 49.8673 36.8949 57.9425 38.6134 65.7104C40.2806 73.8182 44.0807 75.9185 46.9773 76.2491L47.0332 76.2631C49.1707 77.3295 51.4992 78.8291 53.9628 80.4171C61.4791 85.2604 69.9921 90.751 78.1185 87.3374C82.1468 85.9682 84.5125 79.3646 87.0227 72.3699C87.833 70.0973 88.6805 67.7408 89.6026 65.4962C91.172 61.8591 93.7287 59.5865 95.6008 58.3198C97.9014 56.7597 100.085 56.0611 101.254 55.94C101.809 55.8842 102.149 55.9447 102.284 56.1356C102.325 56.1962 102.381 56.3219 102.298 56.4942L102.27 56.5361C101.962 56.8621 101.972 56.9739 101.972 56.9739H102.004C102.065 56.9739 102.209 56.9692 102.461 56.8808C103.671 56.4709 105.953 54.8131 106.899 52.112C107.97 46.5702 105.935 41.2426 101.003 36.73C92.0056 28.5104 74.9192 24.6219 62.9228 28.0587H62.9088Z" fill="white"/>
<path d="M71.1936 91.3983C64.1895 91.3983 57.0457 86.7366 51.0428 82.8155C49.2219 81.6279 47.5082 80.5103 45.9062 79.5835C41.7708 78.6708 38.7484 74.6984 37.4025 68.4161C35.5817 60.5179 37.016 52.289 41.4541 45.2476C45.9062 38.183 53.0872 32.7809 61.684 30.0333C74.1088 26.3775 91.7169 30.3919 100.928 38.9607C105.855 43.5478 107.802 48.936 106.563 54.5476C105.385 57.7144 102.465 59.47 101.231 59.5259C100.891 59.5492 100.737 59.4048 100.677 59.2884C100.57 59.0649 100.682 58.7668 101.022 58.3663C101.045 58.2918 101.035 58.2126 100.863 58.1428C99.359 57.5327 91.6703 59.7355 88.4756 67.2379C87.4511 69.7759 86.5523 72.463 85.6814 75.0569C83.3576 81.9679 81.1642 88.4923 77.3222 90.0291C75.3103 90.9838 73.2519 91.389 71.1842 91.389H71.1889L71.1936 91.3983ZM61.7772 30.3406C53.2549 33.065 46.1297 38.4158 41.7242 45.4153C37.3373 52.3821 35.917 60.5225 37.7192 68.3416C39.0418 74.5121 41.985 78.3913 45.9947 79.2668L46.0412 79.2808C47.6619 80.2169 49.3849 81.3439 51.2151 82.5407C58.9224 87.5749 68.5158 93.8339 77.1918 89.7357C80.9127 88.2502 83.0782 81.7956 85.3694 74.9545C86.2403 72.3559 87.1437 69.6642 88.1682 67.1168C91.4374 59.4235 99.4195 57.2207 100.975 57.8447C101.296 57.9751 101.417 58.222 101.306 58.5154L101.278 58.5619C100.97 58.9159 100.933 59.0975 100.956 59.1487C100.97 59.1813 101.063 59.2092 101.194 59.2046C102.107 59.1627 105.045 57.6398 106.233 54.4591C107.439 48.9918 105.525 43.7062 100.691 39.2029C91.5539 30.6992 74.0902 26.7268 61.7632 30.3453H61.7678L61.7772 30.3406Z" fill="white"/>
<path d="M69.6707 94.2018C62.1451 94.2018 54.4657 88.9906 47.9878 84.5944C46.9913 83.9192 46.0226 83.2625 45.1005 82.6571C41.0583 81.3252 38.0778 77.2271 36.7087 71.1171C34.8086 63.1677 36.1964 54.8689 40.6065 47.7624C45.0167 40.6558 52.1698 35.1932 60.7433 32.3897C73.2846 28.6129 91.6423 32.7855 100.831 41.4941C105.665 46.0812 107.495 51.4274 106.121 56.9739C104.877 60.1174 101.902 61.7985 100.588 61.8591C100.146 61.8823 99.9597 61.7147 99.8899 61.5657C99.7595 61.3095 99.8806 60.9463 100.244 60.4946C100.276 60.3921 100.304 60.1826 99.9178 60.0382C98.055 59.3443 90.3896 61.4772 87.2601 68.9423C86.1471 71.7738 85.2018 74.7868 84.289 77.7114C82.0816 84.7667 80.1769 90.8534 76.6236 92.5066C74.3463 93.7081 72.0132 94.2111 69.6614 94.2111H69.6661L69.6707 94.2018ZM60.8458 32.6924C52.3421 35.4773 45.2542 40.8887 40.886 47.93C36.5224 54.9667 35.1532 63.177 37.03 71.0426C38.3712 77.0501 41.2818 81.0691 45.2216 82.3498L45.2589 82.3731C46.1903 82.9831 47.1636 83.6444 48.1695 84.329C56.5939 90.0477 67.0721 97.1589 76.4839 92.2039C79.9114 90.6112 81.8907 84.2964 83.9863 77.6043C84.8991 74.6797 85.8491 71.662 86.9714 68.8119C90.1801 61.1559 98.1202 59.009 100.044 59.7215C100.5 59.8892 100.686 60.2152 100.556 60.6157L100.528 60.6715C100.202 61.072 100.141 61.3189 100.193 61.4167C100.23 61.4912 100.379 61.5377 100.588 61.5238C101.795 61.4679 104.654 59.824 105.823 56.8668C107.159 51.4693 105.362 46.2302 100.621 41.7269C91.5026 33.0882 73.2939 28.9529 60.8504 32.6924H60.8411H60.8458Z" fill="white"/>
<path d="M68.4087 97.0099C59.784 97.0099 50.8612 90.4389 44.4532 85.7167C40.5181 83.9843 37.5702 79.7511 36.1917 73.8135C34.2125 65.8128 35.5444 57.4535 39.9313 50.2678C44.3042 43.1147 51.4247 37.6008 59.9796 34.7321C72.8468 30.7644 91.5911 35.0116 100.9 44.0088C105.641 48.596 107.36 53.9049 105.855 59.3769C104.603 62.3666 101.687 64.1083 100.137 64.1735C99.5825 64.1875 99.3683 63.9966 99.2752 63.8289C99.1168 63.5309 99.2425 63.1211 99.6337 62.5948C99.7129 62.2688 99.5406 62.0267 99.1075 61.873C97.0817 61.1651 89.3046 63.1444 86.2123 70.6235C85.0108 73.7436 84.0422 77.0873 83.1015 80.3286C81.0943 87.2395 79.3619 93.2098 76.0834 94.9562C73.5966 96.3998 71.0119 97.0099 68.3901 97.0099H68.404H68.4087ZM60.0867 35.0488C51.6017 37.8896 44.551 43.3569 40.2154 50.4448C35.8704 57.5513 34.5525 65.8268 36.5131 73.739C37.8729 79.5742 40.7509 83.7328 44.6209 85.4373C52.9382 91.5566 65.4515 100.777 75.9437 94.6721C79.1011 92.9816 80.8987 86.7971 82.8034 80.2401C83.7441 76.9989 84.7221 73.6412 85.9282 70.507C88.9832 63.1164 96.6766 60.6762 99.2332 61.575C99.8433 61.7892 100.104 62.2083 99.9551 62.7206L99.9271 62.7765C99.4847 63.3539 99.5359 63.61 99.5825 63.6892C99.6477 63.815 99.8387 63.8755 100.141 63.8615C101.348 63.8056 104.272 62.3713 105.562 59.2884C107.024 53.9561 105.339 48.7543 100.691 44.2557C96.3319 40.0457 89.4163 36.6275 81.7183 34.8812C74.0157 33.1348 66.1314 33.1953 60.096 35.0535L60.0867 35.0488Z" fill="white"/>
<path d="M67.2678 99.8414C60.7573 99.8414 53.0593 96.167 43.9736 88.7578C40.1176 86.5876 37.2116 82.224 35.8192 76.482C33.7608 68.43 35.0322 60.0009 39.4097 52.75C43.7454 45.5596 50.8333 39.9852 59.3695 37.056C72.3392 32.9625 91.8473 37.382 101.115 46.505C105.772 51.0828 107.374 56.3685 105.744 61.7752C104.435 64.7603 101.483 66.4322 99.848 66.4974H99.7502C99.1727 66.4974 98.9212 66.2739 98.8188 66.0783C98.6325 65.743 98.7583 65.268 99.182 64.6765C99.3171 64.0991 98.8514 63.8057 98.4276 63.6706C95.9734 62.8463 88.3592 64.8628 85.3275 72.2907C84.0515 75.6903 83.0642 79.3646 82.1096 82.9226C80.298 89.6938 78.7239 95.5476 75.7155 97.3918C73.1495 99.031 70.3414 99.8507 67.2631 99.8507L67.2678 99.8414ZM59.472 37.3633C51.0103 40.2693 43.9875 45.7925 39.6891 52.9223C35.3582 60.0987 34.0961 68.4394 36.1359 76.4074C37.5097 82.0657 40.3598 86.3501 44.1598 88.497C57.4322 99.3198 67.6869 102.128 75.5479 97.117C78.4538 95.3427 80.0046 89.5494 81.8022 82.8434C82.7569 79.2761 83.7442 75.5878 85.0295 72.1743C88.1357 64.5554 96.0153 62.5203 98.544 63.3679C99.3217 63.6287 99.6757 64.1549 99.5034 64.7976L99.4754 64.8535C99.1308 65.3332 99.0004 65.7197 99.1168 65.9339C99.21 66.1016 99.4708 66.19 99.8433 66.1714C101.385 66.1109 104.198 64.5089 105.441 61.6681C107.029 56.4011 105.455 51.2318 100.886 46.7425C91.6889 37.6987 72.3392 33.3164 59.472 37.3727V37.3633Z" fill="white"/>
<path d="M66.1361 102.631C63.8449 102.631 61.4326 102.193 58.8945 101.308C52.7706 99.1848 47.2008 94.9097 43.6103 91.701C39.8335 89.0884 36.9695 84.5898 35.5677 79.048C33.4302 70.9495 34.6456 62.4552 39.0046 55.1297C43.303 47.8975 50.3629 42.2672 58.8712 39.2727C65.1675 37.2423 73.4615 37.1445 81.6345 38.998C89.7889 40.8421 97.0026 44.442 101.427 48.8801C106 53.4579 107.49 58.711 105.734 64.0618C104.323 67.1401 101.278 68.6536 99.671 68.7142C99.0842 68.7421 98.6604 68.5605 98.4742 68.2345C98.3298 67.969 98.2739 67.4801 98.8374 66.6604C99.0097 65.892 98.3903 65.5148 97.8315 65.3332C95.2189 64.4949 87.5489 66.3763 84.5405 73.8415C83.1853 77.5112 82.2027 81.5255 81.248 85.4001C79.6181 92.041 78.207 97.783 75.4408 99.7063C72.6466 101.653 69.531 102.631 66.1221 102.631H66.1315H66.1361ZM58.9737 39.5848C50.5352 42.5513 43.5405 48.135 39.2793 55.3021C34.9716 62.553 33.7608 70.9588 35.8797 78.9688C37.2582 84.4314 40.0803 88.8649 43.8106 91.4449C47.3964 94.6489 52.9196 98.9007 58.997 101.006C65.2187 103.162 70.6906 102.636 75.2638 99.4409C77.9322 97.5828 79.3293 91.9012 80.9406 85.3209C81.8953 81.4324 82.8826 77.418 84.2424 73.7204C85.9283 69.5431 88.8994 67.331 91.0975 66.2134C93.9103 64.779 96.5648 64.5788 97.9386 65.0212C98.9073 65.3285 99.3497 65.9665 99.1587 66.7582L99.1355 66.8141C98.7582 67.3683 98.6278 67.8107 98.7722 68.0761C98.8933 68.2904 99.21 68.4068 99.671 68.3835C101.264 68.3276 104.146 66.7489 105.441 63.9408C107.145 58.7342 105.683 53.5976 101.203 49.1083C96.8163 44.7167 89.6632 41.1495 81.5693 39.3147C73.4476 37.4751 65.2187 37.5729 58.9783 39.5801H58.9737V39.5848Z" fill="white"/>
<path d="M65.1721 105.29C57.4508 105.29 49.4082 100.396 43.3449 94.4951C39.6332 91.4215 36.8111 86.7925 35.4047 81.4742C33.1833 73.3245 34.3522 64.7603 38.6832 57.3697C42.9444 50.0955 49.9717 44.4093 58.4614 41.3497C71.8316 36.9535 92.5039 41.6058 101.832 51.1061C106.326 55.6839 107.709 60.9043 105.832 66.1993C104.365 69.2543 101.245 70.7399 99.6011 70.7911C98.9399 70.7958 98.4462 70.6188 98.2366 70.2369C98.069 69.9389 98.0038 69.3987 98.6045 68.4813C98.8188 67.4521 97.9013 67.005 97.3285 66.8234C94.2829 65.8687 86.7619 67.9876 83.8699 75.2478C82.4448 79.1876 81.4762 83.5373 80.5401 87.7332C79.0825 94.253 77.8205 99.8832 75.2871 101.89C72.1296 104.284 68.6881 105.295 65.1768 105.295L65.1721 105.29ZM58.5685 41.6571C50.1487 44.6888 43.1865 50.3237 38.9673 57.528C34.6782 64.8488 33.5233 73.3199 35.7214 81.3857C37.1092 86.6435 39.894 91.2073 43.5637 94.2483C52.2956 102.747 65.1535 109.146 75.0868 101.62C77.5271 99.6876 78.7798 94.1133 80.2188 87.654C81.1595 83.4488 82.1282 79.0945 83.5625 75.1268C85.2297 70.9355 88.1915 68.7514 90.385 67.643C92.8765 66.3903 95.638 65.9479 97.4217 66.5067C98.5906 66.8699 99.1308 67.629 98.9119 68.5744L98.8886 68.6303C98.4788 69.2543 98.3484 69.7619 98.5161 70.0693C98.6604 70.3347 99.0423 70.4744 99.5872 70.4558C101.157 70.4092 104.128 68.9795 105.529 66.0643C107.355 60.909 105.995 55.805 101.594 51.3249C92.3502 41.8992 71.8362 37.2888 58.5685 41.6477V41.6571Z" fill="white"/>
<path d="M64.2966 107.782C56.7942 107.782 48.9705 103.218 43.1492 97.0891C39.4982 93.5312 36.718 88.7717 35.3162 83.6956C33.0203 75.4993 34.1287 66.87 38.4457 59.4048C42.6742 52.0934 49.6643 46.3467 58.1307 43.2311C64.6226 41.0563 73.2659 40.9213 81.8534 42.8586C90.4082 44.7912 97.8548 48.5354 102.293 53.1412C106.712 57.719 107.988 62.9115 105.995 68.1553C104.468 71.2149 101.334 72.6493 99.5965 72.6912H99.5033C98.8001 72.6912 98.2832 72.4676 98.0503 72.0625C97.8641 71.7365 97.7802 71.1311 98.4183 70.1252C98.679 68.8678 97.552 68.3276 96.8582 68.118C93.6402 67.1447 86.1285 69.1519 83.2412 76.4726C81.7556 80.6826 80.7683 85.5677 79.9021 89.8801C78.6075 96.2788 77.4944 101.802 75.1753 103.879C71.8316 106.622 68.1013 107.8 64.2873 107.8V107.791L64.2966 107.782ZM58.2378 43.5292C49.8413 46.6214 42.9117 52.3169 38.7205 59.5632C34.45 66.9538 33.351 75.49 35.6236 83.6071C37.0113 88.632 39.759 93.3402 43.3774 96.8609C52.0627 105.993 65.1907 111.624 74.9657 103.618C77.2011 101.616 78.3048 96.1437 79.5854 89.8009C80.4563 85.4792 81.4482 80.5801 82.9431 76.3423C84.5963 72.1463 87.5489 69.9715 89.7423 68.8864C92.2384 67.6523 95.0699 67.2192 96.9606 67.792C98.3344 68.2112 98.9864 69.0913 98.7396 70.2044L98.7163 70.2602C98.2692 70.9634 98.1388 71.5269 98.3437 71.8855C98.5207 72.1975 98.9678 72.3559 99.5872 72.3512C101.245 72.3093 104.23 70.9308 105.692 68.0109C107.63 62.9069 106.372 57.8354 102.055 53.3508C97.6592 48.7916 90.2685 45.0846 81.7742 43.1613C73.2473 41.238 64.6691 41.3683 58.2285 43.5245H58.2332L58.2378 43.5292Z" fill="white"/>
<path d="M63.4583 110.11C61.5909 110.11 59.6582 109.821 57.6744 109.248C47.7923 106.38 38.3712 96.4604 35.2603 85.6609C32.8853 77.4087 33.9471 68.7141 38.2361 61.1791C42.4274 53.8258 49.3849 48.0232 57.8327 44.8425C71.5894 40.1436 93.4399 45.0287 102.787 54.8829C107.127 59.4607 108.31 64.6253 106.195 69.8225V69.8365C104.766 72.5887 101.739 74.2699 99.6337 74.3118H99.5546C98.7629 74.3118 98.1854 74.065 97.92 73.604C97.715 73.2454 97.6126 72.5794 98.2879 71.4804C98.5021 70.386 97.8268 69.5244 96.4297 69.11C93.0348 68.1087 85.5464 70.0227 82.673 77.4087C81.1269 81.8841 80.1769 87.1278 79.3433 91.7429C78.207 98.0158 77.2337 103.441 75.1147 105.579C71.7151 108.578 67.7567 110.101 63.449 110.101L63.4583 110.11ZM69.9548 43.3615C65.6471 43.3615 61.5257 43.9297 57.9538 45.1498C49.5852 48.3073 42.6835 54.054 38.5295 61.3421C34.2777 68.8026 33.2345 77.4041 35.5863 85.5724C38.6646 96.2695 48.0018 106.096 57.7768 108.936C64.2128 110.809 70.1364 109.57 74.9052 105.351C76.9403 103.288 77.9089 97.9134 79.0359 91.6917C79.8742 87.058 80.8242 81.8049 82.3796 77.3016C85.3228 69.7293 93.0394 67.7688 96.5368 68.8026C98.1295 69.273 98.8886 70.2882 98.6139 71.5782L98.5906 71.6341C98.1109 72.4071 97.9805 73.0358 98.2133 73.4456C98.4136 73.7995 98.8933 73.9905 99.5592 73.9905H99.6337C101.329 73.9579 104.393 72.5981 105.902 69.6968C107.96 64.63 106.801 59.5865 102.558 55.1064C95.7079 47.8835 82.1002 43.3522 69.9501 43.3522L69.9548 43.3615Z" fill="white"/>
</g>
<path d="M141.416 50.9897L147.149 45.4991H143.53L139.698 49.2014L135.874 45.5084H132.256L137.989 50.999C138.077 51.0735 138.077 51.2085 137.989 51.2877L134.352 54.7758L136.107 56.5594L139.712 53.0806L143.535 56.7736H147.154L141.421 51.2831C141.332 51.2085 141.332 51.0735 141.421 50.9943L141.416 50.9897Z" fill="white"/>
<path d="M32.8434 75.6018V61.4725C32.8434 59.2046 31.3811 58.0683 28.4565 58.0683H22.6539C19.6921 58.0683 18.2112 59.2046 18.2112 61.4725V75.6018H13V60.1407C13 55.6001 15.6452 53.3322 20.9355 53.3322H30.1191C35.3721 53.3322 37.994 55.6001 37.994 60.1407V75.6018H32.8387H32.8434Z" fill="white"/>
<path d="M47.2102 53.3275V67.1587C47.2102 68.3043 47.5967 69.245 48.3651 69.9715C48.9751 70.5257 50.1534 70.8005 51.8904 70.8005H57.4602C60.5384 70.8005 62.0799 69.6269 62.0799 67.2751V53.3228H67.291V68.5465C67.291 73.2454 64.5667 75.5971 59.118 75.5971H50.1767C44.7233 75.5971 42.0037 73.2454 42.0037 68.5465V53.3228H47.2148L47.2102 53.3275Z" fill="white"/>
<path d="M76.5118 53.3275V67.1587C76.5118 68.3043 76.8984 69.245 77.6668 69.9715C78.2768 70.5257 79.4551 70.8005 81.1921 70.8005H86.7619C89.8401 70.8005 91.3862 69.6269 91.3862 67.2751V53.3228H96.5974V68.5465C96.5974 73.2454 93.8731 75.5971 88.4244 75.5971H79.483C74.0297 75.5971 71.31 73.2454 71.31 68.5465V53.3228H76.5212H76.5165L76.5118 53.3275Z" fill="white"/>
<path d="M100.588 75.6018V60.6157C100.588 55.7585 103.117 53.3275 108.175 53.3275H112.911C114.452 53.3275 115.668 53.5324 116.553 53.9329C117.442 54.3381 118.29 55.0925 119.105 56.2009C120.544 54.2822 122.63 53.3275 125.35 53.3275H130.002C132.382 53.3275 134.04 54.6082 134.04 54.6082L130.388 58.0264C129.546 57.9612 126.924 58.0078 125.201 58.0078C124.036 58.0078 123.091 58.3943 122.36 59.1627C121.889 59.6563 121.652 60.5645 121.652 61.887V75.6018H116.497V61.887C116.497 59.9917 115.863 58.7948 114.601 58.3012C113.954 58.1056 112.347 58.0031 109.805 58.0031C107.099 58.0031 105.744 59.2605 105.744 61.766V75.5972H100.584L100.588 75.6018Z" fill="white"/>
<path d="M136.331 56.7597L132.256 60.6948V75.6018H137.467V60.7321C137.467 58.8693 136.331 56.7644 136.331 56.7644V56.7597Z" fill="white"/>
<path d="M82.6886 86.5731V90.9368H82.1602V86.5731H82.6886ZM84.1827 88.968V90.9368H83.6799V87.664H84.1657V88.1754H84.2083C84.285 88.0092 84.4015 87.8757 84.5577 87.7748C84.714 87.6726 84.9157 87.6214 85.1628 87.6214C85.3844 87.6214 85.5783 87.6669 85.7445 87.7578C85.9107 87.8473 86.04 87.9836 86.1323 88.1669C86.2246 88.3487 86.2708 88.5788 86.2708 88.8572V90.9368H85.768V88.8913C85.768 88.6342 85.7012 88.4339 85.5677 88.2905C85.4342 88.1456 85.2509 88.0731 85.018 88.0731C84.8574 88.0731 84.714 88.1079 84.5876 88.1775C84.4626 88.2471 84.3638 88.3487 84.2914 88.4822C84.219 88.6157 84.1827 88.7777 84.1827 88.968ZM89.5078 88.397L89.0561 88.5248C89.0277 88.4496 88.9858 88.3764 88.9304 88.3054C88.8764 88.2329 88.8026 88.1733 88.7088 88.1264C88.6151 88.0795 88.4951 88.0561 88.3487 88.0561C88.1485 88.0561 87.9816 88.1023 87.848 88.1946C87.7159 88.2855 87.6499 88.4013 87.6499 88.5419C87.6499 88.6669 87.6953 88.7656 87.7862 88.838C87.8772 88.9105 88.0192 88.9709 88.2124 89.0192L88.6982 89.1385C88.9908 89.2095 89.2088 89.3182 89.3523 89.4645C89.4958 89.6094 89.5675 89.7961 89.5675 90.0248C89.5675 90.2123 89.5135 90.3799 89.4056 90.5277C89.299 90.6754 89.1499 90.7919 88.9581 90.8771C88.7664 90.9623 88.5434 91.0049 88.2891 91.0049C87.9553 91.0049 87.679 90.9325 87.4603 90.7876C87.2415 90.6427 87.103 90.4311 87.0448 90.1527L87.522 90.0334C87.5675 90.2095 87.6534 90.3416 87.7799 90.4297C87.9077 90.5177 88.0746 90.5618 88.2806 90.5618C88.5149 90.5618 88.701 90.5121 88.8388 90.4126C88.978 90.3118 89.0476 90.191 89.0476 90.0504C89.0476 89.9368 89.0078 89.8416 88.9283 89.7649C88.8487 89.6868 88.7266 89.6285 88.5618 89.5902L88.0164 89.4623C87.7166 89.3913 87.4965 89.2812 87.3559 89.1321C87.2166 88.9815 87.147 88.7933 87.147 88.5674C87.147 88.3828 87.1989 88.2194 87.3026 88.0774C87.4077 87.9353 87.5505 87.8238 87.7309 87.7429C87.9127 87.6619 88.1186 87.6214 88.3487 87.6214C88.6726 87.6214 88.9269 87.6924 89.1115 87.8345C89.2976 87.9765 89.4297 88.164 89.5078 88.397ZM90.3244 92.164V87.664H90.8102V88.1839H90.8699C90.9068 88.1271 90.9579 88.0547 91.0233 87.9666C91.09 87.8771 91.1852 87.7976 91.3088 87.728C91.4338 87.6569 91.6028 87.6214 91.8159 87.6214C92.0915 87.6214 92.3344 87.6903 92.5446 87.8281C92.7548 87.9659 92.9189 88.1612 93.0368 88.414C93.1547 88.6669 93.2136 88.9652 93.2136 89.3089C93.2136 89.6555 93.1547 89.9559 93.0368 90.2102C92.9189 90.463 92.7555 90.6591 92.5467 90.7983C92.3379 90.9361 92.0972 91.0049 91.8244 91.0049C91.6142 91.0049 91.4459 90.9701 91.3195 90.9005C91.193 90.8295 91.0957 90.7493 91.0275 90.6598C90.9594 90.5689 90.9068 90.4936 90.8699 90.4339H90.8273V92.164H90.3244ZM90.8187 89.3004C90.8187 89.5476 90.855 89.7656 90.9274 89.9545C90.9999 90.142 91.1057 90.289 91.2449 90.3956C91.3841 90.5007 91.5545 90.5532 91.7562 90.5532C91.9665 90.5532 92.1419 90.4978 92.2825 90.3871C92.4246 90.2748 92.5311 90.1243 92.6021 89.9353C92.6746 89.745 92.7108 89.5334 92.7108 89.3004C92.7108 89.0703 92.6753 88.8629 92.6043 88.6782C92.5347 88.4922 92.4288 88.3451 92.2868 88.2372C92.1462 88.1278 91.9693 88.0731 91.7562 88.0731C91.5517 88.0731 91.3798 88.125 91.2406 88.2287C91.1014 88.3309 90.9963 88.4744 90.9253 88.6591C90.8543 88.8423 90.8187 89.0561 90.8187 89.3004ZM93.9807 90.9368V87.664H94.4835V90.9368H93.9807ZM94.2364 87.1186C94.1383 87.1186 94.0538 87.0852 93.9828 87.0184C93.9132 86.9517 93.8784 86.8714 93.8784 86.7777C93.8784 86.6839 93.9132 86.6037 93.9828 86.5369C94.0538 86.4701 94.1383 86.4368 94.2364 86.4368C94.3344 86.4368 94.4182 86.4701 94.4878 86.5369C94.5588 86.6037 94.5943 86.6839 94.5943 86.7777C94.5943 86.8714 94.5588 86.9517 94.4878 87.0184C94.4182 87.0852 94.3344 87.1186 94.2364 87.1186ZM95.4045 90.9368V87.664H95.8903V88.1584H95.9244C95.984 87.9964 96.092 87.865 96.2483 87.7642C96.4045 87.6633 96.5806 87.6129 96.7767 87.6129C96.8136 87.6129 96.8598 87.6136 96.9152 87.615C96.9706 87.6165 97.0125 87.6186 97.0409 87.6214V88.1328C97.0238 88.1285 96.9848 88.1221 96.9237 88.1136C96.864 88.1037 96.8008 88.0987 96.734 88.0987C96.575 88.0987 96.4329 88.1321 96.3079 88.1988C96.1843 88.2642 96.0863 88.3551 96.0139 88.4716C95.9429 88.5866 95.9073 88.718 95.9073 88.8657V90.9368H95.4045ZM97.6369 90.9368V87.664H98.1398V90.9368H97.6369ZM97.8926 87.1186C97.7946 87.1186 97.7101 87.0852 97.6391 87.0184C97.5695 86.9517 97.5347 86.8714 97.5347 86.7777C97.5347 86.6839 97.5695 86.6037 97.6391 86.5369C97.7101 86.4701 97.7946 86.4368 97.8926 86.4368C97.9906 86.4368 98.0744 86.4701 98.144 86.5369C98.215 86.6037 98.2506 86.6839 98.2506 86.7777C98.2506 86.8714 98.215 86.9517 98.144 87.0184C98.0744 87.0852 97.9906 87.1186 97.8926 87.1186ZM99.5636 88.968V90.9368H99.0608V87.664H99.5465V88.1754H99.5892C99.6659 88.0092 99.7823 87.8757 99.9386 87.7748C100.095 87.6726 100.297 87.6214 100.544 87.6214C100.765 87.6214 100.959 87.6669 101.125 87.7578C101.292 87.8473 101.421 87.9836 101.513 88.1669C101.605 88.3487 101.652 88.5788 101.652 88.8572V90.9368H101.149V88.8913C101.149 88.6342 101.082 88.4339 100.949 88.2905C100.815 88.1456 100.632 88.0731 100.399 88.0731C100.238 88.0731 100.095 88.1079 99.9684 88.1775C99.8434 88.2471 99.7447 88.3487 99.6723 88.4822C99.5998 88.6157 99.5636 88.7777 99.5636 88.968ZM103.892 92.2322C103.649 92.2322 103.44 92.201 103.265 92.1385C103.09 92.0774 102.945 91.9964 102.828 91.8956C102.713 91.7961 102.622 91.6896 102.553 91.576L102.954 91.2947C102.999 91.3544 103.057 91.4226 103.127 91.4993C103.196 91.5774 103.291 91.6449 103.412 91.7017C103.534 91.7599 103.694 91.789 103.892 91.789C104.156 91.789 104.374 91.7251 104.546 91.5973C104.718 91.4694 104.803 91.2692 104.803 90.9964V90.3317H104.761C104.724 90.3913 104.671 90.4652 104.603 90.5532C104.536 90.6399 104.44 90.7173 104.313 90.7855C104.188 90.8523 104.019 90.8856 103.806 90.8856C103.542 90.8856 103.305 90.8231 103.095 90.6981C102.886 90.5731 102.72 90.3913 102.598 90.1527C102.477 89.914 102.417 89.6243 102.417 89.2834C102.417 88.9481 102.476 88.6562 102.594 88.4076C102.712 88.1576 102.876 87.9645 103.086 87.8281C103.296 87.6903 103.539 87.6214 103.815 87.6214C104.028 87.6214 104.197 87.6569 104.322 87.728C104.448 87.7976 104.545 87.8771 104.612 87.9666C104.68 88.0547 104.732 88.1271 104.769 88.1839H104.821V87.664H105.306V91.0305C105.306 91.3118 105.242 91.5405 105.115 91.7166C104.988 91.8942 104.818 92.0241 104.603 92.1065C104.39 92.1903 104.153 92.2322 103.892 92.2322ZM103.874 90.4339C104.076 90.4339 104.247 90.3878 104.386 90.2954C104.525 90.2031 104.631 90.0703 104.703 89.897C104.776 89.7237 104.812 89.5163 104.812 89.2748C104.812 89.039 104.776 88.8309 104.705 88.6505C104.634 88.4701 104.529 88.3288 104.39 88.2265C104.251 88.1243 104.079 88.0731 103.874 88.0731C103.661 88.0731 103.484 88.1271 103.342 88.2351C103.201 88.343 103.095 88.4879 103.024 88.6697C102.955 88.8515 102.92 89.0532 102.92 89.2748C102.92 89.5021 102.955 89.7031 103.026 89.8778C103.099 90.0511 103.205 90.1875 103.346 90.2869C103.488 90.3849 103.664 90.4339 103.874 90.4339ZM109.338 87.664V88.0902H107.642V87.664H109.338ZM108.136 86.8799H108.639V89.9993C108.639 90.1413 108.659 90.2478 108.7 90.3189C108.743 90.3885 108.797 90.4353 108.862 90.4595C108.929 90.4822 108.999 90.4936 109.073 90.4936C109.129 90.4936 109.174 90.4907 109.21 90.4851C109.245 90.478 109.274 90.4723 109.295 90.468L109.397 90.9197C109.363 90.9325 109.316 90.9453 109.254 90.9581C109.193 90.9723 109.116 90.9794 109.022 90.9794C108.88 90.9794 108.741 90.9488 108.605 90.8878C108.47 90.8267 108.357 90.7336 108.268 90.6086C108.18 90.4836 108.136 90.326 108.136 90.1356V86.8799ZM111.388 91.0049C111.093 91.0049 110.834 90.9346 110.611 90.794C110.389 90.6534 110.216 90.4567 110.091 90.2038C109.967 89.951 109.905 89.6555 109.905 89.3174C109.905 88.9765 109.967 88.679 110.091 88.4247C110.216 88.1704 110.389 87.973 110.611 87.8324C110.834 87.6917 111.093 87.6214 111.388 87.6214C111.684 87.6214 111.942 87.6917 112.164 87.8324C112.387 87.973 112.56 88.1704 112.684 88.4247C112.809 88.679 112.871 88.9765 112.871 89.3174C112.871 89.6555 112.809 89.951 112.684 90.2038C112.56 90.4567 112.387 90.6534 112.164 90.794C111.942 90.9346 111.684 91.0049 111.388 91.0049ZM111.388 90.5532C111.613 90.5532 111.797 90.4957 111.942 90.3807C112.087 90.2656 112.194 90.1143 112.264 89.9268C112.334 89.7393 112.368 89.5362 112.368 89.3174C112.368 89.0987 112.334 88.8949 112.264 88.7059C112.194 88.517 112.087 88.3643 111.942 88.2478C111.797 88.1314 111.613 88.0731 111.388 88.0731C111.164 88.0731 110.979 88.1314 110.834 88.2478C110.689 88.3643 110.582 88.517 110.513 88.7059C110.443 88.8949 110.408 89.0987 110.408 89.3174C110.408 89.5362 110.443 89.7393 110.513 89.9268C110.582 90.1143 110.689 90.2656 110.834 90.3807C110.979 90.4957 111.164 90.5532 111.388 90.5532ZM113.639 90.9368V87.664H114.125V88.1754H114.167C114.235 88.0007 114.346 87.865 114.498 87.7684C114.65 87.6704 114.832 87.6214 115.045 87.6214C115.261 87.6214 115.441 87.6704 115.584 87.7684C115.729 87.865 115.842 88.0007 115.923 88.1754H115.957C116.041 88.0064 116.167 87.8721 116.334 87.7727C116.502 87.6719 116.703 87.6214 116.937 87.6214C117.23 87.6214 117.469 87.713 117.655 87.8963C117.841 88.0781 117.934 88.3615 117.934 88.7464V90.9368H117.431V88.7464C117.431 88.5049 117.365 88.3324 117.233 88.2287C117.101 88.125 116.946 88.0731 116.767 88.0731C116.537 88.0731 116.358 88.1427 116.232 88.2819C116.105 88.4197 116.042 88.5944 116.042 88.8061V90.9368H115.531V88.6953C115.531 88.5092 115.471 88.3594 115.35 88.2457C115.229 88.1307 115.074 88.0731 114.883 88.0731C114.753 88.0731 114.63 88.1079 114.517 88.1775C114.405 88.2471 114.314 88.3437 114.244 88.4673C114.176 88.5895 114.142 88.7308 114.142 88.8913V90.9368H113.639ZM120.183 91.0049C119.888 91.0049 119.629 90.9346 119.406 90.794C119.184 90.6534 119.011 90.4567 118.886 90.2038C118.762 89.951 118.7 89.6555 118.7 89.3174C118.7 88.9765 118.762 88.679 118.886 88.4247C119.011 88.1704 119.184 87.973 119.406 87.8324C119.629 87.6917 119.888 87.6214 120.183 87.6214C120.479 87.6214 120.737 87.6917 120.959 87.8324C121.182 87.973 121.355 88.1704 121.479 88.4247C121.604 88.679 121.666 88.9765 121.666 89.3174C121.666 89.6555 121.604 89.951 121.479 90.2038C121.355 90.4567 121.182 90.6534 120.959 90.794C120.737 90.9346 120.479 91.0049 120.183 91.0049ZM120.183 90.5532C120.408 90.5532 120.592 90.4957 120.737 90.3807C120.882 90.2656 120.989 90.1143 121.059 89.9268C121.129 89.7393 121.163 89.5362 121.163 89.3174C121.163 89.0987 121.129 88.8949 121.059 88.7059C120.989 88.517 120.882 88.3643 120.737 88.2478C120.592 88.1314 120.408 88.0731 120.183 88.0731C119.959 88.0731 119.774 88.1314 119.629 88.2478C119.484 88.3643 119.377 88.517 119.308 88.7059C119.238 88.8949 119.203 89.0987 119.203 89.3174C119.203 89.5362 119.238 89.7393 119.308 89.9268C119.377 90.1143 119.484 90.2656 119.629 90.3807C119.774 90.4957 119.959 90.5532 120.183 90.5532ZM122.434 90.9368V87.664H122.92V88.1584H122.954C123.013 87.9964 123.121 87.865 123.278 87.7642C123.434 87.6633 123.61 87.6129 123.806 87.6129C123.843 87.6129 123.889 87.6136 123.944 87.615C124 87.6165 124.042 87.6186 124.07 87.6214V88.1328C124.053 88.1285 124.014 88.1221 123.953 88.1136C123.893 88.1037 123.83 88.0987 123.763 88.0987C123.604 88.0987 123.462 88.1321 123.337 88.1988C123.214 88.2642 123.116 88.3551 123.043 88.4716C122.972 88.5866 122.937 88.718 122.937 88.8657V90.9368H122.434ZM124.666 90.9368V87.664H125.152V88.1584H125.186C125.246 87.9964 125.354 87.865 125.51 87.7642C125.666 87.6633 125.842 87.6129 126.038 87.6129C126.075 87.6129 126.121 87.6136 126.177 87.615C126.232 87.6165 126.274 87.6186 126.303 87.6214V88.1328C126.286 88.1285 126.246 88.1221 126.185 88.1136C126.126 88.1037 126.063 88.0987 125.996 88.0987C125.837 88.0987 125.695 88.1321 125.57 88.1988C125.446 88.2642 125.348 88.3551 125.276 88.4716C125.205 88.5866 125.169 88.718 125.169 88.8657V90.9368H124.666ZM128.129 91.0049C127.833 91.0049 127.574 90.9346 127.351 90.794C127.129 90.6534 126.956 90.4567 126.831 90.2038C126.707 89.951 126.646 89.6555 126.646 89.3174C126.646 88.9765 126.707 88.679 126.831 88.4247C126.956 88.1704 127.129 87.973 127.351 87.8324C127.574 87.6917 127.833 87.6214 128.129 87.6214C128.424 87.6214 128.683 87.6917 128.904 87.8324C129.127 87.973 129.3 88.1704 129.424 88.4247C129.549 88.679 129.612 88.9765 129.612 89.3174C129.612 89.6555 129.549 89.951 129.424 90.2038C129.3 90.4567 129.127 90.6534 128.904 90.794C128.683 90.9346 128.424 91.0049 128.129 91.0049ZM128.129 90.5532C128.353 90.5532 128.538 90.4957 128.683 90.3807C128.827 90.2656 128.935 90.1143 129.004 89.9268C129.074 89.7393 129.109 89.5362 129.109 89.3174C129.109 89.0987 129.074 88.8949 129.004 88.7059C128.935 88.517 128.827 88.3643 128.683 88.2478C128.538 88.1314 128.353 88.0731 128.129 88.0731C127.904 88.0731 127.719 88.1314 127.575 88.2478C127.43 88.3643 127.322 88.517 127.253 88.7059C127.183 88.8949 127.148 89.0987 127.148 89.3174C127.148 89.5362 127.183 89.7393 127.253 89.9268C127.322 90.1143 127.43 90.2656 127.575 90.3807C127.719 90.4957 127.904 90.5532 128.129 90.5532ZM131.009 90.9368L130.012 87.664H130.541L131.248 90.1697H131.282L131.981 87.664H132.518L133.208 90.1612H133.242L133.95 87.664H134.478L133.481 90.9368H132.987L132.271 88.4226H132.219L131.504 90.9368H131.009Z" fill="white"/>
</svg>
