<svg width="189" height="32" viewBox="0 0 189 32" fill="none" xmlns="http://www.w3.org/2000/svg">
<g id="Logo">
<path id="Vector" d="M173.311 26.2089C172.103 26.2089 170.963 25.9663 169.889 25.4759C168.831 24.9856 167.974 24.2579 167.314 23.2979C166.653 22.3379 166.323 21.156 166.323 19.7624V12.0979C166.323 11.8553 166.266 11.6437 166.152 11.4734C166.059 11.2824 165.925 11.1431 165.755 11.0502C165.585 10.9572 165.388 10.9108 165.161 10.9108C164.934 10.9108 164.728 10.9572 164.542 11.0502C164.372 11.1431 164.232 11.2876 164.119 11.4734C164.026 11.6437 163.979 11.8502 163.979 12.0979V26.3482H158.152V12.1547C158.152 10.7766 158.472 9.61015 159.112 8.64499C159.773 7.68499 160.64 6.94693 161.714 6.44112C162.787 5.93015 163.938 5.67725 165.167 5.67725C166.395 5.67725 167.53 5.93015 168.588 6.44112C169.647 6.95209 170.503 7.68499 171.164 8.64499C171.825 9.60499 172.155 10.7766 172.155 12.1547V19.8192C172.155 20.0618 172.212 20.2837 172.325 20.4695C172.439 20.6398 172.578 20.7689 172.748 20.8669C172.919 20.965 173.099 21.0063 173.285 21.0063C173.492 21.0063 173.693 20.9598 173.879 20.8669C174.065 20.774 174.219 20.6398 174.333 20.4695C174.447 20.2785 174.503 20.0618 174.503 19.8192V12.1547C174.503 10.7766 174.834 9.61015 175.494 8.64499C176.155 7.68499 177.012 6.94693 178.07 6.44112C179.143 5.93015 180.284 5.67725 181.492 5.67725C182.699 5.67725 183.83 5.93015 184.888 6.44112C185.946 6.95209 186.803 7.68499 187.463 8.64499C188.124 9.60499 188.454 10.7766 188.454 12.1547V26.3482H182.658V12.0153C182.658 11.7882 182.601 11.6024 182.488 11.4476C182.374 11.2772 182.235 11.1482 182.065 11.0502C181.894 10.9572 181.703 10.9108 181.497 10.9108C181.29 10.9108 181.089 10.9572 180.903 11.0502C180.717 11.1431 180.563 11.2772 180.449 11.4476C180.356 11.5972 180.31 11.7882 180.31 12.0153V19.7676C180.31 21.1611 179.969 22.343 179.293 23.303C178.632 24.263 177.776 24.9908 176.718 25.4811C175.659 25.9714 174.529 26.214 173.321 26.214L173.311 26.2089Z" fill="white"/>
<path id="Vector_2" d="M155.463 21.5947C154.937 21.5947 154.467 21.2695 154.276 20.7843L149.817 8.58304C149.445 7.61272 148.836 6.89014 147.984 6.40497C147.154 5.91981 146.204 5.67725 145.135 5.67725C144.067 5.67725 143.112 5.93014 142.261 6.43079C141.43 6.91595 140.831 7.63853 140.459 8.60886L136.01 20.7585C135.824 21.2592 135.35 21.5947 134.813 21.5947H133.951V26.3843H134.787H137.972C139.453 26.3843 140.764 25.4347 141.228 24.0256L141.615 22.8385H148.557L148.898 23.9276C149.352 25.3882 150.704 26.3792 152.227 26.3792H155.474H156.315V21.5895H155.453L155.463 21.5947ZM142.937 18.054L144.939 11.5198C144.96 11.463 144.986 11.4269 145.027 11.4063C145.068 11.3701 145.104 11.3495 145.141 11.3495C145.197 11.3495 145.249 11.3701 145.285 11.4063C145.321 11.4269 145.352 11.463 145.373 11.5198L147.262 18.054H142.932H142.937Z" fill="white"/>
<path id="Vector_3" d="M113.631 26.374V5.67725H123.448C124.944 5.67725 126.307 5.99209 127.53 6.62177C128.753 7.25145 129.729 8.12887 130.457 9.25403C131.184 10.3585 131.551 11.6385 131.551 13.0992C131.551 14.3018 131.257 15.4372 130.663 16.5005C130.09 17.5431 129.321 18.4102 128.356 19.1018L129.507 20.9031C129.646 21.0992 129.791 21.2489 129.951 21.3469C130.106 21.445 130.343 21.4966 130.658 21.4966H132.134V26.374H128.821C127.778 26.374 126.839 26.1469 126.013 25.6927C125.203 25.2385 124.583 24.6501 124.15 23.9172L122.168 20.5779H120.01V26.374H113.626H113.631ZM120.015 15.7005H122.792C123.184 15.7005 123.561 15.6024 123.917 15.4063C124.273 15.1895 124.557 14.8953 124.774 14.5185C124.991 14.1263 125.099 13.6721 125.099 13.1611C125.099 12.6501 124.991 12.2166 124.774 11.8605C124.557 11.4837 124.273 11.1998 123.917 11.0037C123.561 10.7869 123.19 10.6785 122.792 10.6785H120.015V15.7056V15.7005Z" fill="white"/>
<path id="Vector_4" d="M103.252 5.68241C101.631 5.68241 100.16 5.95595 98.8336 6.49789C97.5226 7.03982 96.3871 7.78306 95.4219 8.73274C94.4774 9.68241 93.7445 10.7869 93.2284 12.0463C92.7278 13.3056 92.4749 14.6682 92.4749 16.0824C92.4749 17.4966 92.6968 18.8127 93.1407 20.036C93.6052 21.254 94.24 22.3224 95.0503 23.2308C95.8761 24.1392 96.8413 24.8669 97.9355 25.4089C99.0348 25.9508 100.227 26.2708 101.517 26.3689H106.632H105.951H111.386V15.9018H105.956V21.3056H102.736C102.137 21.2076 101.59 21.0269 101.089 20.7534C100.609 20.4798 100.196 20.1237 99.8452 19.6798C99.4994 19.2153 99.2258 18.6837 99.0348 18.0798C98.8594 17.4605 98.7768 16.7998 98.7768 16.0463C98.7768 15.2927 98.8903 14.5908 99.1226 13.956C99.3549 13.2953 99.6697 12.7276 100.077 12.2424C100.48 11.7572 100.955 11.3908 101.492 11.1379C102.034 10.8747 102.622 10.7405 103.257 10.7353H111.391V5.67725H103.257L103.252 5.68241Z" fill="white"/>
<path id="Vector_5" d="M52.3201 26.3689C50.9988 26.3689 49.8272 26.0953 48.8001 25.543C47.773 24.9701 46.9678 24.2011 46.3743 23.236C45.7807 22.2501 45.4865 21.1353 45.4865 19.8966V10.6734H40.1343V5.67725H57.1046V10.6734H51.8711V20.2218C51.8711 20.5366 51.9794 20.8153 52.1962 21.0476C52.413 21.2643 52.6814 21.3727 52.9962 21.3727H54.9782V26.3689H52.3149H52.3201Z" fill="white"/>
<path id="Vector_6" d="M35.1999 26.3637C33.347 26.3637 31.6902 26.116 30.2347 25.6256C28.7741 25.1147 27.5457 24.4024 26.5392 23.4992C25.5328 22.5753 24.7637 21.4811 24.2321 20.2166C23.7005 18.9573 23.4321 17.5534 23.4321 16.0205C23.4321 14.4876 23.7005 13.0837 24.2321 11.8243C24.7637 10.565 25.5328 9.48113 26.5392 8.57274C27.5663 7.64887 28.7947 6.93661 30.2347 6.44629C31.6954 5.93532 33.347 5.67725 35.1999 5.67725H38.3328V10.6734H35.4063C34.4979 10.6734 33.7031 10.8127 33.0115 11.0863C32.3199 11.3598 31.7521 11.7469 31.2979 12.2373C30.8437 12.7121 30.4979 13.2695 30.2657 13.925C30.0489 14.5753 29.9405 15.2773 29.9405 16.0256C29.9405 16.774 30.0489 17.476 30.2657 18.1263C30.5031 18.7766 30.8489 19.3495 31.2979 19.8398C31.7521 20.3147 32.325 20.6863 33.0115 20.965C33.7031 21.2385 34.4979 21.3779 35.4063 21.3779H38.3328V26.374H35.1999V26.3637Z" fill="white"/>
<path id="Vector_7" d="M10.8077 26.374C9.22839 26.374 7.77806 26.116 6.44645 25.605C5.13548 25.094 3.99484 24.3714 3.02452 23.4372C2.07484 22.4876 1.33161 21.3831 0.799998 20.1289C0.268385 18.8747 0 17.5069 0 16.0256C0 14.5444 0.268385 13.1766 0.799998 11.9224C1.33161 10.6476 2.07484 9.54821 3.02452 8.61402C3.99484 7.68499 5.13548 6.96242 6.44645 6.44629C7.77806 5.93532 9.22839 5.67725 10.8077 5.67725C12.3871 5.67725 13.8271 5.93532 15.1381 6.44629C16.4697 6.95726 17.6103 7.67983 18.56 8.61402C19.5303 9.54305 20.2787 10.6476 20.8103 11.9224C21.3419 13.1766 21.6103 14.5444 21.6103 16.0256C21.6103 17.5069 21.3419 18.8747 20.8103 20.1289C20.2787 21.3831 19.5252 22.4876 18.56 23.4372C17.6103 24.3663 16.4697 25.0889 15.1381 25.605C13.8271 26.116 12.3819 26.374 10.8077 26.374ZM10.8077 21.414C11.5097 21.414 12.1497 21.2798 12.7174 21.0166C13.2852 20.7327 13.7703 20.3405 14.1729 19.8502C14.5703 19.3547 14.8748 18.7869 15.0864 18.1418C15.2981 17.476 15.4013 16.774 15.4013 16.0308C15.4013 15.2876 15.2981 14.596 15.0864 13.9508C14.88 13.285 14.5755 12.7069 14.1729 12.2114C13.7755 11.716 13.2903 11.3392 12.7174 11.0708C12.1497 10.7869 11.5097 10.6424 10.8077 10.6424C10.1058 10.6424 9.46581 10.7869 8.89807 11.0708C8.33033 11.3392 7.84516 11.716 7.44258 12.2114C7.04516 12.7069 6.74065 13.285 6.52903 13.9508C6.31742 14.596 6.21419 15.2927 6.21419 16.0308C6.21419 16.7689 6.31742 17.476 6.52903 18.1418C6.74065 18.7869 7.04 19.3598 7.44258 19.8502C7.84 20.3456 8.32516 20.7327 8.89807 21.0166C9.46581 21.285 10.1058 21.414 10.8077 21.414Z" fill="white"/>
<g id="Vector_8">
<path d="M85.8627 23.692C84.9054 22.6687 85.1818 21.5568 85.3554 21.1507C82.4756 21.2315 78.8497 18.7 79.2958 14.2207C74.8211 14.8299 72.2334 11.293 72.1584 8.39878C71.6175 8.56439 70.7569 8.56833 69.997 7.88027C69.6042 7.48793 65.2775 3.14465 63.5662 1.4235C63.2958 1.15143 62.8556 1.14945 62.5833 1.42152C61.9102 2.08987 60.8088 3.18013 60.1673 3.82285C59.8969 4.09492 59.8969 4.53261 60.1673 4.80271C61.618 6.24981 65.6526 10.2757 66.3316 10.9539C67.5514 11.9219 67.283 14.7826 64.7624 14.9344C64.19 14.9482 60.9844 14.9344 59.5356 14.9265C59.1507 14.9265 58.8369 15.2361 58.8389 15.6205C58.8389 16.5353 58.8389 18.0968 58.8389 19.0214C58.8389 19.4058 59.1507 19.7174 59.5356 19.7174C61.2549 19.7174 63.3353 19.7193 64.9321 19.7174C67.3599 19.8711 67.7251 22.5071 66.523 23.6703C65.994 24.1947 65.0486 25.1351 64.415 25.7621C64.1426 26.0322 64.1406 26.4718 64.4091 26.7459C65.092 27.4359 66.1559 28.5025 66.8092 29.157C67.0797 29.4271 67.5159 29.4311 67.7883 29.163C68.4613 28.5045 69.4108 27.5897 69.9358 27.0396C71.1438 25.7759 73.7572 26.3634 73.8381 28.7056C73.8381 28.7056 73.8381 30.2828 73.8381 31.3041C73.8381 31.6885 74.15 32 74.5349 32H77.9338C78.3187 32 78.6306 31.6905 78.6306 31.306C78.6306 30.4839 78.6365 29.2753 78.6365 28.7982C78.6069 27.0988 80.8057 25.5531 82.5802 27.1875C83.2533 27.8598 84.3745 28.9796 85.0535 29.6578C85.3258 29.9299 85.764 29.9299 86.0364 29.6578C86.7332 28.9619 87.7379 27.9564 88.4445 27.2506C88.7169 26.9785 88.7169 26.5408 88.4445 26.2688C87.5721 25.3954 86.0601 23.8832 85.8627 23.692ZM71.4734 16.7344C70.8754 16.6851 70.8615 15.7822 71.5129 15.7565C71.5504 15.7546 75.8771 15.7388 75.958 15.7487C75.883 15.9419 75.81 16.3145 75.9442 16.7147C75.9284 16.7206 71.5563 16.7364 71.4734 16.7344ZM73.5262 20.7169C73.0722 21.1092 72.415 20.5296 72.8374 20.015C72.9104 19.9421 75.9718 16.9119 76.0113 16.8705C76.1277 17.1149 76.3725 17.4087 76.7061 17.5546C76.3251 17.9351 73.6506 20.5907 73.5262 20.7149V20.7169ZM77.8016 22.097C77.7206 22.7456 76.8462 22.6885 76.8186 22.0694C76.8206 21.3912 76.9074 17.6315 76.9074 17.6315C77.2055 17.7222 77.5351 17.7005 77.8016 17.6039C77.8016 18.4556 77.8016 21.6987 77.8016 22.097Z" fill="#FF4700"/>
<path d="M90.8368 15.6362C90.8368 15.2518 90.525 14.9403 90.1401 14.9403C89.1137 14.9403 87.3214 14.9442 85.8055 14.9403C85.1956 14.9383 84.8423 14.471 84.487 14.477C84.2186 14.4809 83.9975 14.6899 83.9975 14.9679C83.9975 15.2754 84.2955 15.5495 84.6567 15.4312C85.1324 15.309 85.3614 15.9891 84.8877 16.1705C84.1297 16.4032 83.2099 15.9182 83.2218 14.9659C83.2316 14.1536 84.0231 13.4675 84.9252 13.779C85.2232 13.8618 85.4621 13.7534 85.6062 13.4754C85.6733 13.3039 85.5983 13.1955 85.7996 12.8051C85.8766 12.6553 86.074 12.3753 86.4154 12.2156C88.5926 11.1451 89.3742 8.21143 87.4399 6.14724C86.0029 4.61339 82.7244 4.44975 81.3525 7.21581C81.1433 7.60223 80.7466 7.88219 80.2196 7.94133C79.9393 7.97288 79.6491 8.26861 79.7853 8.66686C79.9432 9.13017 79.8998 9.48701 79.5879 9.93061C78.6997 10.944 77.0338 10.1337 77.393 8.77135C77.5233 8.24495 78.2951 8.48351 78.1451 9.01582C78.0819 9.24255 78.1964 9.59348 78.6089 9.62502C78.8872 9.61516 79.1004 9.40224 79.1004 9.16171C79.1004 8.59785 78.6326 8.70037 78.6326 7.81121C78.6326 6.35031 78.6365 2.39738 78.6365 0.695951C78.6365 0.311502 78.3247 0 77.9398 0H74.5349C74.15 0.00394307 73.8381 0.315446 73.8381 0.699895C73.8381 2.08194 73.8421 5.08656 73.8381 6.19259C73.8381 6.61252 73.7868 7.2375 73.1098 7.87233C72.8709 11.498 76.7101 14.7116 80.6578 12.7893C78.8793 16.969 82.3256 20.7524 86.1786 20.1353C86.3089 20.0544 86.824 19.7015 87.5129 19.7311H90.1421C90.527 19.7311 90.8388 19.4176 90.8388 19.0332C90.8388 18.1204 90.8388 16.5609 90.8388 15.6343L90.8368 15.6362ZM78.7885 12.4463C76.4851 12.5291 75.4962 10.6936 75.3481 9.7788C75.206 9.14988 76.1712 8.91921 76.3094 9.62108C76.5502 10.7764 77.5253 11.4369 78.5753 11.4842C79.4656 11.5256 81.0051 10.7961 80.9519 9.00399C80.8907 8.28832 81.8776 8.25875 81.919 8.91133C82.0355 10.4294 80.9262 12.3438 78.7866 12.4463H78.7885ZM83.8948 18.2327C83.2632 18.1125 82.4678 17.7931 81.7947 16.9138C80.3775 15.0093 81.4315 11.5591 84.71 11.6537C85.3871 11.7681 85.2193 12.6434 84.637 12.6218C82.8803 12.5409 82.0947 14.0787 82.1362 14.9659C82.1401 15.8511 82.7263 17.0459 84.1021 17.2825C84.6646 17.452 84.5206 18.3096 83.8948 18.2327Z" fill="#FF4700"/>
</g>
</g>
</svg>
