<svg width="315" height="360" viewBox="0 0 315 360" fill="none" xmlns="http://www.w3.org/2000/svg">
<g clip-path="url(#clip0_434_33830)">
<mask id="path-1-inside-1_434_33830" fill="white">
<path d="M0 8C0 3.58172 3.58172 0 8 0H307C311.418 0 315 3.58172 315 8V352C315 356.418 311.418 360 307 360H8C3.58172 360 0 356.418 0 352V8Z"/>
</mask>
<path d="M0 8C0 3.58172 3.58172 0 8 0H307C311.418 0 315 3.58172 315 8V352C315 356.418 311.418 360 307 360H8C3.58172 360 0 356.418 0 352V8Z" fill="white" fill-opacity="0.01"/>
<g filter="url(#filter0_f_434_33830)">
<circle cx="25" cy="25" r="50" fill="#0160B6"/>
</g>
<g filter="url(#filter1_f_434_33830)">
<circle cx="290" cy="335" r="50" fill="#1D776C"/>
</g>
<g opacity="0.8">
<path d="M39.303 23.222C39.382 23.1766 39.483 23.2037 39.5286 23.2826C40.3358 24.6807 40.7435 26.2003 40.7874 27.7083C42.1153 26.9923 43.6348 26.5853 45.2493 26.5853C45.3404 26.5853 45.4141 26.6593 45.4143 26.7503C45.4143 28.3646 45.0082 29.8844 44.2923 31.2122C45.8002 31.2561 47.319 31.6648 48.7171 32.472C48.7961 32.5176 48.8232 32.6186 48.7776 32.6976C47.9704 34.0955 46.8584 35.2084 45.5745 36.0003C46.8586 36.7923 47.9704 37.9049 48.7776 39.3031C48.8232 39.3821 48.7961 39.483 48.7171 39.5287C47.3191 40.3357 45.8001 40.7436 44.2923 40.7874C45.0083 42.1153 45.4143 43.6349 45.4143 45.2494C45.4143 45.3406 45.3405 45.4144 45.2493 45.4144C43.6349 45.4144 42.1153 45.0083 40.7874 44.2923C40.7435 45.8002 40.3357 47.3191 39.5286 48.7171C39.483 48.7961 39.382 48.8233 39.303 48.7777C37.9049 47.9704 36.7923 46.8586 36.0003 45.5745C35.2084 46.8585 34.0955 47.9705 32.6975 48.7777C32.6185 48.8233 32.5166 48.7961 32.471 48.7171C31.664 47.3192 31.2561 45.8001 31.2122 44.2923C29.8844 45.0082 28.3646 45.4144 26.7503 45.4144C26.6592 45.4142 26.5852 45.3404 26.5852 45.2494C26.5852 43.6349 26.9922 42.1153 27.7083 40.7874C26.2003 40.7436 24.6806 40.3359 23.2825 39.5287C23.2036 39.4831 23.1765 39.382 23.222 39.3031C24.0291 37.905 25.1411 36.7923 26.4251 36.0003C25.1411 35.2084 24.0292 34.0956 23.222 32.6976C23.1764 32.6187 23.2037 32.5177 23.2825 32.472C24.6807 31.6648 26.2002 31.2561 27.7083 31.2122C26.9923 29.8844 26.5852 28.3647 26.5852 26.7503C26.5854 26.6594 26.6594 26.5855 26.7503 26.5853C28.3647 26.5853 29.8843 26.9923 31.2122 27.7083C31.256 26.2003 31.6647 24.6807 32.472 23.2826C32.5176 23.2038 32.6186 23.1765 32.6975 23.222C34.0956 24.0292 35.2083 25.1411 36.0003 26.4251C36.7922 25.1411 37.9049 24.0292 39.303 23.222ZM34.6116 41.1829C33.8239 42.3752 32.7717 43.3783 31.5393 44.1078C31.5537 45.568 31.9205 47.0445 32.6751 48.4076C34.0102 47.6044 35.0663 46.5088 35.8089 45.2513C35.1065 44.0034 34.6977 42.6092 34.6116 41.1829ZM37.3889 41.1829C37.3029 42.6093 36.8932 44.0034 36.1907 45.2513C36.9332 46.5089 37.9894 47.6044 39.3245 48.4076C40.0791 47.0445 40.4459 45.568 40.4602 44.1078C39.2279 43.3783 38.1766 42.3752 37.3889 41.1829ZM32.2053 39.7943C30.9271 40.4328 29.5152 40.7758 28.0833 40.7913C27.3657 42.063 26.9453 43.5248 26.9173 45.0824C28.4751 45.0543 29.9374 44.6342 31.2093 43.9163C31.2249 42.4845 31.5668 41.0724 32.2053 39.7943ZM39.7942 39.7943C40.4328 41.0725 40.7757 42.4844 40.7913 43.9163C42.063 44.634 43.5247 45.0543 45.0823 45.0824C45.0542 43.5247 44.634 42.063 43.9163 40.7913C42.4844 40.7757 41.0724 40.4329 39.7942 39.7943ZM36.0003 37.765C35.8029 38.8054 35.4344 39.7853 34.9251 40.6742C34.9345 42.1523 35.3048 43.6102 36.0003 44.9124C36.6957 43.6102 37.066 42.1524 37.0755 40.6742C36.5661 39.7853 36.1976 38.8055 36.0003 37.765ZM35.1175 37.5287C34.4264 38.331 33.6172 38.995 32.7317 39.5101C32.0008 40.795 31.5931 42.2426 31.5442 43.7181C32.7975 42.938 33.8468 41.8606 34.594 40.5853C34.5974 39.561 34.7682 38.5283 35.1175 37.5287ZM36.8821 37.5287C37.2314 38.5283 37.4022 39.5609 37.4055 40.5853C38.1528 41.8607 39.2029 42.938 40.4563 43.7181C40.4075 42.2426 39.9997 40.795 39.2688 39.5101C38.3832 38.995 37.5733 38.3311 36.8821 37.5287ZM26.7483 36.1908C25.4909 36.9333 24.3962 37.9895 23.593 39.3245C24.9562 40.0791 26.4326 40.446 27.8928 40.4603C28.6223 39.2281 29.6247 38.1766 30.8167 37.389C29.3904 37.3029 27.9962 36.8932 26.7483 36.1908ZM45.2512 36.1908C44.0033 36.8932 42.6092 37.3029 41.1829 37.389C42.3751 38.1767 43.3782 39.228 44.1077 40.4603C45.5679 40.446 47.0445 40.0791 48.4075 39.3245C47.6043 37.9894 46.5088 36.9333 45.2512 36.1908ZM34.472 36.8822C33.4722 37.2315 32.4388 37.4023 31.4143 37.4056C30.1389 38.1529 29.0616 39.203 28.2815 40.4564C29.7569 40.4075 31.2047 39.9997 32.4895 39.2689C33.0046 38.3833 33.6695 37.5733 34.472 36.8822ZM37.5286 36.8822C38.331 37.5733 38.9949 38.3833 39.51 39.2689C40.7949 39.9998 42.2425 40.4075 43.718 40.4564C42.938 39.2031 41.8615 38.1529 40.5862 37.4056C39.5617 37.4023 38.5284 37.2315 37.5286 36.8822ZM35.8069 36.722C35.3169 37.7492 35.0359 38.8297 34.9514 39.9115C35.4193 38.9324 35.7177 37.8566 35.8069 36.722ZM36.1936 36.722C36.2828 37.8565 36.5803 38.9324 37.0481 39.9115C36.9637 38.8297 36.6836 37.7491 36.1936 36.722ZM35.472 36.5287C34.534 37.1732 33.751 37.969 33.137 38.8636C34.0316 38.2496 34.8275 37.4665 35.472 36.5287ZM36.5286 36.5287C37.1731 37.4665 37.9689 38.2496 38.8636 38.8636C38.2496 37.969 37.4665 37.1732 36.5286 36.5287ZM31.3255 34.9251C29.8474 34.9346 28.3903 35.305 27.0882 36.0003C28.3903 36.6956 29.8475 37.066 31.3255 37.0755C32.2142 36.5662 33.1943 36.1977 34.2346 36.0003C33.1943 35.803 32.2142 35.4345 31.3255 34.9251ZM40.6741 34.9251C39.7853 35.4344 38.8053 35.803 37.7649 36.0003C38.8054 36.1977 39.7852 36.5661 40.6741 37.0755C42.1523 37.0661 43.6101 36.6958 44.9124 36.0003C43.6101 35.3049 42.1523 34.9346 40.6741 34.9251ZM35.2786 36.1937C34.144 36.2829 33.0673 36.5803 32.0882 37.0482C33.17 36.9638 34.2514 36.6838 35.2786 36.1937ZM36.722 36.1937C37.749 36.6837 38.8297 36.9638 39.9114 37.0482C38.9324 36.5804 37.8565 36.2829 36.722 36.1937ZM27.8928 31.5394C26.4326 31.5537 24.9561 31.9206 23.593 32.6751C24.3962 34.0101 25.4909 35.0664 26.7483 35.8089C27.9962 35.1064 29.3904 34.6978 30.8167 34.6117C29.6245 33.8239 28.6224 32.7718 27.8928 31.5394ZM44.1077 31.5394C43.3782 32.7718 42.3751 33.8239 41.1829 34.6117C42.6091 34.6977 44.0034 35.1065 45.2512 35.8089C46.5088 35.0664 47.6043 34.0102 48.4075 32.6751C47.0445 31.9205 45.5679 31.5537 44.1077 31.5394ZM32.0882 34.9515C33.0671 35.4192 34.1432 35.7177 35.2776 35.807C34.2505 35.317 33.1699 35.0359 32.0882 34.9515ZM39.9114 34.9515C38.8296 35.0359 37.7491 35.317 36.722 35.807C37.8565 35.7178 38.9323 35.4193 39.9114 34.9515ZM33.137 33.137C33.7509 34.0315 34.5342 34.8276 35.472 35.472C34.8275 34.5342 34.0315 33.751 33.137 33.137ZM38.8636 33.137C37.9689 33.751 37.1731 34.5341 36.5286 35.472C37.4665 34.8275 38.2496 34.0316 38.8636 33.137ZM34.9514 32.0882C35.0358 33.1701 35.3169 34.2515 35.8069 35.2787C35.7177 34.144 35.4193 33.0673 34.9514 32.0882ZM37.0481 32.0882C36.5804 33.0672 36.2829 34.1433 36.1936 35.2777C36.6835 34.2506 36.9637 33.1699 37.0481 32.0882ZM28.2815 31.5443C29.0616 32.7977 30.1389 33.8468 31.4143 34.5941C32.4388 34.5974 33.4722 34.7682 34.472 35.1175C33.6695 34.4264 33.0046 33.6174 32.4895 32.7318C31.2047 32.0009 29.757 31.5931 28.2815 31.5443ZM43.718 31.5443C42.2425 31.5931 40.7949 32.0009 39.51 32.7318C38.995 33.6172 38.3309 34.4264 37.5286 35.1175C38.5282 34.7682 39.5609 34.5974 40.5852 34.5941C41.8606 33.8468 42.938 32.7976 43.718 31.5443ZM31.5442 28.2816C31.5931 29.7571 32.0008 31.2047 32.7317 32.4896C33.6173 33.0047 34.4263 33.6696 35.1175 34.472C34.7681 33.4722 34.5973 32.4389 34.594 31.4144C33.8467 30.139 32.7976 29.0616 31.5442 28.2816ZM40.4563 28.2816C39.2029 29.0617 38.1528 30.139 37.4055 31.4144C37.4023 32.4389 37.2315 33.4722 36.8821 34.472C37.5733 33.6696 38.3832 33.0047 39.2688 32.4896C39.9996 31.2048 40.4075 29.757 40.4563 28.2816ZM36.0003 27.0882C35.3049 28.3904 34.9346 29.8475 34.9251 31.3255C35.4344 32.2143 35.8029 33.1943 36.0003 34.2347C36.1976 33.1943 36.5661 32.2143 37.0755 31.3255C37.066 29.8475 36.6956 28.3903 36.0003 27.0882ZM26.9173 26.9173C26.9453 28.4752 27.3655 29.9375 28.0833 31.2093C29.5151 31.2249 30.9272 31.5669 32.2053 32.2054C31.5668 30.9272 31.2248 29.5152 31.2093 28.0833C29.9374 27.3655 28.4751 26.9454 26.9173 26.9173ZM45.0823 26.9173C43.5247 26.9454 42.0629 27.3657 40.7913 28.0833C40.7757 29.5153 40.4328 30.9272 39.7942 32.2054C41.0724 31.5669 42.4844 31.2249 43.9163 31.2093C44.6341 29.9375 45.0543 28.4752 45.0823 26.9173ZM32.6751 23.5931C31.9205 24.9562 31.5536 26.4327 31.5393 27.8929C32.7717 28.6224 33.8239 29.6245 34.6116 30.8167C34.6977 29.3905 35.1064 27.9963 35.8089 26.7484C35.0663 25.491 34.0101 24.3962 32.6751 23.5931ZM39.3245 23.5931C37.9895 24.3963 36.9332 25.4909 36.1907 26.7484C36.8932 27.9963 37.3028 29.3905 37.3889 30.8167C38.1766 29.6247 39.2281 28.6224 40.4602 27.8929C40.446 26.4326 40.0791 24.9562 39.3245 23.5931Z" fill="white"/>
</g>
<path d="M22.88 101H20.448L29.152 79.56H32.384L41.056 101H38.592L32 85L30.784 81.736H30.624L29.376 85L22.88 101ZM37.184 94.728H24.32V92.616H37.184V94.728ZM44.6325 101H42.3285V79.56H44.6325V101ZM60.7793 101H54.5073V98.888H60.7793C62.6779 98.888 64.2246 98.5787 65.4193 97.96C66.6139 97.3413 67.4886 96.392 68.0433 95.112C68.6193 93.832 68.9073 92.2213 68.9073 90.28C68.9073 88.3387 68.6193 86.728 68.0433 85.448C67.4886 84.168 66.6139 83.2187 65.4193 82.6C64.2246 81.96 62.6779 81.64 60.7793 81.64H54.5073V79.56H60.7793C62.9339 79.56 64.8006 79.9973 66.3793 80.872C67.9579 81.7467 69.1739 82.984 70.0273 84.584C70.8806 86.184 71.3073 88.0827 71.3073 90.28C71.3073 92.456 70.8806 94.344 70.0273 95.944C69.1739 97.544 67.9579 98.792 66.3793 99.688C64.8006 100.563 62.9339 101 60.7793 101ZM55.8513 101H53.5473V79.56H55.8513V101ZM80.576 101.32C78.9547 101.32 77.5893 100.968 76.48 100.264C75.392 99.5387 74.56 98.5573 73.984 97.32C73.4293 96.0827 73.152 94.6747 73.152 93.096C73.152 91.496 73.4507 90.0773 74.048 88.84C74.6667 87.6027 75.52 86.632 76.608 85.928C77.7173 85.224 79.0187 84.872 80.512 84.872C81.792 84.872 82.9547 85.128 84 85.64C85.0667 86.152 85.9093 86.92 86.528 87.944C87.1467 88.968 87.456 90.2587 87.456 91.816C87.456 92.2 87.4347 92.5627 87.392 92.904C87.3707 93.2453 87.3387 93.5227 87.296 93.736H74.368V92.04H85.632L85.248 92.456C85.3547 91.0907 85.2267 90.0027 84.864 89.192C84.5013 88.3813 83.9467 87.784 83.2 87.4C82.4533 87.016 81.5467 86.824 80.48 86.824C78.6027 86.824 77.2693 87.3573 76.48 88.424C75.712 89.4693 75.328 90.888 75.328 92.68V93.288C75.328 94.5467 75.488 95.624 75.808 96.52C76.1493 97.3947 76.704 98.0773 77.472 98.568C78.24 99.0373 79.2853 99.272 80.608 99.272C82.1867 99.272 83.3173 98.952 84 98.312C84.704 97.6507 85.056 96.8507 85.056 95.912V95.72H87.328V95.944C87.328 96.968 87.04 97.8853 86.464 98.696C85.9093 99.5067 85.12 100.147 84.096 100.616C83.0933 101.085 81.92 101.32 80.576 101.32ZM97.0688 101H94.1888L87.7248 85.192H90.2528L95.5648 98.76H95.7248L101.037 85.192H103.533L97.0688 101ZM111.014 101.32C109.392 101.32 108.027 100.968 106.918 100.264C105.83 99.5387 104.998 98.5573 104.422 97.32C103.867 96.0827 103.59 94.6747 103.59 93.096C103.59 91.496 103.888 90.0773 104.486 88.84C105.104 87.6027 105.958 86.632 107.046 85.928C108.155 85.224 109.456 84.872 110.95 84.872C112.23 84.872 113.392 85.128 114.438 85.64C115.504 86.152 116.347 86.92 116.966 87.944C117.584 88.968 117.894 90.2587 117.894 91.816C117.894 92.2 117.872 92.5627 117.83 92.904C117.808 93.2453 117.776 93.5227 117.734 93.736H104.806V92.04H116.07L115.686 92.456C115.792 91.0907 115.664 90.0027 115.302 89.192C114.939 88.3813 114.384 87.784 113.638 87.4C112.891 87.016 111.984 86.824 110.918 86.824C109.04 86.824 107.707 87.3573 106.918 88.424C106.15 89.4693 105.766 90.888 105.766 92.68V93.288C105.766 94.5467 105.926 95.624 106.246 96.52C106.587 97.3947 107.142 98.0773 107.91 98.568C108.678 99.0373 109.723 99.272 111.046 99.272C112.624 99.272 113.755 98.952 114.438 98.312C115.142 97.6507 115.494 96.8507 115.494 95.912V95.72H117.766V95.944C117.766 96.968 117.478 97.8853 116.902 98.696C116.347 99.5067 115.558 100.147 114.534 100.616C113.531 101.085 112.358 101.32 111.014 101.32ZM122.69 101H120.386V79.56H122.69V101ZM132.707 101.32C131.171 101.32 129.827 100.968 128.675 100.264C127.523 99.56 126.627 98.5893 125.987 97.352C125.347 96.0933 125.027 94.664 125.027 93.064C125.027 91.4853 125.347 90.088 125.987 88.872C126.627 87.6347 127.523 86.664 128.675 85.96C129.827 85.2347 131.171 84.872 132.707 84.872C134.243 84.872 135.576 85.2347 136.707 85.96C137.838 86.664 138.712 87.6347 139.331 88.872C139.95 90.088 140.259 91.4853 140.259 93.064C140.259 94.664 139.95 96.0933 139.331 97.352C138.712 98.5893 137.838 99.56 136.707 100.264C135.576 100.968 134.243 101.32 132.707 101.32ZM132.707 99.24C134.627 99.24 135.992 98.7067 136.803 97.64C137.635 96.5733 138.051 95.048 138.051 93.064C138.051 91.1013 137.635 89.5867 136.803 88.52C135.992 87.4533 134.627 86.92 132.707 86.92C130.787 86.92 129.411 87.4533 128.579 88.52C127.747 89.5867 127.331 91.1013 127.331 93.064C127.331 95.048 127.747 96.5733 128.579 97.64C129.411 98.7067 130.787 99.24 132.707 99.24ZM150.573 101.32C149.059 101.32 147.811 100.979 146.829 100.296C145.869 99.6133 145.219 98.8453 144.877 97.992H144.173L144.269 94.472H144.877C144.877 95.5387 145.08 96.4347 145.485 97.16C145.891 97.8853 146.467 98.4293 147.213 98.792C147.981 99.1547 148.888 99.336 149.933 99.336C150.701 99.336 151.395 99.24 152.013 99.048C152.632 98.8347 153.155 98.504 153.581 98.056C154.029 97.5867 154.371 96.9467 154.605 96.136C154.84 95.3253 154.957 94.312 154.957 93.096C154.957 91.88 154.84 90.8773 154.605 90.088C154.371 89.2987 154.04 88.6693 153.613 88.2C153.187 87.7093 152.664 87.368 152.045 87.176C151.427 86.9627 150.723 86.856 149.933 86.856C148.909 86.856 148.013 87.0373 147.245 87.4C146.477 87.7627 145.891 88.3067 145.485 89.032C145.08 89.736 144.877 90.632 144.877 91.72H144.269L144.173 88.232H144.781C145.123 87.2507 145.752 86.4507 146.669 85.832C147.608 85.192 148.824 84.872 150.317 84.872C152.536 84.872 154.243 85.6187 155.437 87.112C156.632 88.6053 157.229 90.6 157.229 93.096C157.229 95.592 156.653 97.5867 155.501 99.08C154.371 100.573 152.728 101.32 150.573 101.32ZM144.877 106.568H142.605V85.192H144.653V89.288L144.877 89.704V106.568ZM184.15 101H181.846V91.784C181.846 90.0987 181.526 88.8613 180.886 88.072C180.246 87.2827 179.115 86.888 177.494 86.888C176.001 86.888 174.881 87.2827 174.134 88.072C173.387 88.84 173.014 90.0987 173.014 91.848L172.406 91.912L172.278 88.488H172.694C172.907 87.912 173.238 87.3573 173.686 86.824C174.134 86.2693 174.721 85.8107 175.446 85.448C176.193 85.064 177.11 84.872 178.198 84.872C179.563 84.872 180.683 85.1387 181.558 85.672C182.433 86.2053 183.083 86.952 183.51 87.912C183.937 88.872 184.15 89.992 184.15 91.272V101ZM161.846 101H159.542V85.192H161.622V90.216L161.846 90.376V101ZM173.014 101H170.71V91.784C170.71 90.0987 170.39 88.8613 169.75 88.072C169.11 87.2827 168.001 86.888 166.422 86.888C164.907 86.888 163.766 87.2827 162.998 88.072C162.23 88.84 161.846 90.0987 161.846 91.848L161.238 91.912L161.174 88.456H161.75C161.942 87.9013 162.262 87.3573 162.71 86.824C163.158 86.2693 163.755 85.8107 164.502 85.448C165.249 85.064 166.166 84.872 167.254 84.872C168.577 84.872 169.654 85.1387 170.486 85.672C171.339 86.2053 171.969 86.9627 172.374 87.944C172.801 88.904 173.014 90.024 173.014 91.304V101ZM193.857 101.32C192.236 101.32 190.871 100.968 189.761 100.264C188.673 99.5387 187.841 98.5573 187.265 97.32C186.711 96.0827 186.433 94.6747 186.433 93.096C186.433 91.496 186.732 90.0773 187.329 88.84C187.948 87.6027 188.801 86.632 189.889 85.928C190.999 85.224 192.3 84.872 193.793 84.872C195.073 84.872 196.236 85.128 197.281 85.64C198.348 86.152 199.191 86.92 199.809 87.944C200.428 88.968 200.737 90.2587 200.737 91.816C200.737 92.2 200.716 92.5627 200.673 92.904C200.652 93.2453 200.62 93.5227 200.577 93.736H187.649V92.04H198.913L198.529 92.456C198.636 91.0907 198.508 90.0027 198.145 89.192C197.783 88.3813 197.228 87.784 196.481 87.4C195.735 87.016 194.828 86.824 193.761 86.824C191.884 86.824 190.551 87.3573 189.761 88.424C188.993 89.4693 188.609 90.888 188.609 92.68V93.288C188.609 94.5467 188.769 95.624 189.089 96.52C189.431 97.3947 189.985 98.0773 190.753 98.568C191.521 99.0373 192.567 99.272 193.889 99.272C195.468 99.272 196.599 98.952 197.281 98.312C197.985 97.6507 198.337 96.8507 198.337 95.912V95.72H200.609V95.944C200.609 96.968 200.321 97.8853 199.745 98.696C199.191 99.5067 198.401 100.147 197.377 100.616C196.375 101.085 195.201 101.32 193.857 101.32ZM216.99 101H214.686V91.784C214.686 90.0987 214.366 88.8613 213.726 88.072C213.086 87.2827 211.956 86.888 210.334 86.888C209.31 86.888 208.436 87.0587 207.71 87.4C206.985 87.7413 206.43 88.2747 206.046 89C205.684 89.7253 205.502 90.6853 205.502 91.88L204.894 91.912L204.83 88.456H205.406C205.598 87.9013 205.929 87.3573 206.398 86.824C206.868 86.2693 207.486 85.8107 208.254 85.448C209.022 85.064 209.95 84.872 211.038 84.872C212.404 84.872 213.513 85.1387 214.366 85.672C215.241 86.2053 215.892 86.9627 216.318 87.944C216.766 88.904 216.99 90.024 216.99 91.304V101ZM205.502 101H203.198V85.192H205.278V90.216L205.502 90.376V101ZM225.65 101.032C224.178 101.032 223.037 100.701 222.226 100.04C221.416 99.3573 221.01 98.184 221.01 96.52V85.448L221.618 81.16H223.314V96.648C223.314 97.5867 223.549 98.1947 224.018 98.472C224.488 98.7493 225.234 98.888 226.258 98.888H228.306V100.776C228.05 100.819 227.677 100.872 227.186 100.936C226.717 101 226.205 101.032 225.65 101.032ZM228.306 87.176H218.354V85.192H228.306V87.176ZM30.4 131.64H23.008V129.592H30.752C32.5013 129.592 33.792 129.208 34.624 128.44C35.456 127.651 35.872 126.371 35.872 124.6C35.872 122.851 35.456 121.592 34.624 120.824C33.792 120.035 32.5013 119.64 30.752 119.64H23.008V117.56H30.4C31.8933 117.56 33.2267 117.837 34.4 118.392C35.5733 118.947 36.4907 119.747 37.152 120.792C37.8347 121.837 38.176 123.107 38.176 124.6C38.176 126.093 37.8347 127.373 37.152 128.44C36.4907 129.485 35.5733 130.285 34.4 130.84C33.2267 131.373 31.8933 131.64 30.4 131.64ZM24.32 139H22.016V117.56H24.32V139ZM52.0228 139H49.9428V135.544L49.8468 134.776V128.824C49.8468 127.437 49.5268 126.445 48.8868 125.848C48.2681 125.229 47.2121 124.92 45.7188 124.92C44.2681 124.92 43.2014 125.208 42.5188 125.784C41.8361 126.36 41.4948 127.288 41.4948 128.568V129.048H39.2548V128.792C39.2548 127.683 39.5214 126.68 40.0548 125.784C40.5881 124.888 41.3454 124.184 42.3268 123.672C43.3294 123.139 44.5134 122.872 45.8788 122.872C47.2868 122.872 48.4388 123.149 49.3348 123.704C50.2521 124.259 50.9241 125.005 51.3508 125.944C51.7988 126.861 52.0228 127.917 52.0228 129.112V139ZM43.8308 139.32C42.4014 139.32 41.1961 138.968 40.2148 138.264C39.2548 137.539 38.7747 136.515 38.7747 135.192C38.7747 134.253 38.9881 133.496 39.4148 132.92C39.8628 132.323 40.5028 131.843 41.3348 131.48C42.1668 131.117 43.1481 130.872 44.2788 130.744L50.1668 129.944V131.672L44.4708 132.472C43.2121 132.621 42.3161 132.877 41.7828 133.24C41.2708 133.581 41.0148 134.179 41.0148 135.032C41.0148 135.843 41.2814 136.44 41.8148 136.824C42.3694 137.208 43.2548 137.4 44.4708 137.4C45.3881 137.4 46.2521 137.229 47.0628 136.888C47.8948 136.547 48.5668 136.003 49.0788 135.256C49.5908 134.509 49.8468 133.507 49.8468 132.248L50.2948 136.152L49.7828 136.056C49.4841 136.653 49.0574 137.197 48.5028 137.688C47.9481 138.179 47.2761 138.573 46.4868 138.872C45.7188 139.171 44.8334 139.32 43.8308 139.32ZM57.346 139H55.042V123H57.122V127.352L57.346 127.512V139ZM57.346 128.536H56.578V125.624H57.282C57.5593 124.899 58.0607 124.259 58.786 123.704C59.5327 123.149 60.4927 122.872 61.666 122.872C62.754 122.872 63.6287 123.107 64.29 123.576C64.9513 124.024 65.4313 124.632 65.73 125.4C66.0287 126.168 66.178 127.011 66.178 127.928V128.792H63.874V128.28C63.874 127.043 63.65 126.168 63.202 125.656C62.754 125.123 61.9647 124.856 60.834 124.856C59.618 124.856 58.7327 125.144 58.178 125.72C57.6233 126.296 57.346 127.235 57.346 128.536ZM74.2128 139.032C72.7408 139.032 71.5994 138.701 70.7888 138.04C69.9781 137.357 69.5728 136.184 69.5728 134.52V123.448L70.1808 119.16H71.8768V134.648C71.8768 135.587 72.1114 136.195 72.5808 136.472C73.0501 136.749 73.7968 136.888 74.8208 136.888H76.8688V138.776C76.6128 138.819 76.2394 138.872 75.7488 138.936C75.2794 139 74.7674 139.032 74.2128 139.032ZM76.8688 125.176H66.9168V123.192H76.8688V125.176ZM92.4903 139H90.1863V129.784C90.1863 128.099 89.8663 126.861 89.2263 126.072C88.5863 125.283 87.4556 124.888 85.8343 124.888C84.8103 124.888 83.9356 125.059 83.2103 125.4C82.4849 125.741 81.9303 126.275 81.5463 127C81.1836 127.725 81.0023 128.685 81.0023 129.88L80.3943 129.912L80.3303 126.456H80.9062C81.0983 125.901 81.4289 125.357 81.8983 124.824C82.3676 124.269 82.9863 123.811 83.7543 123.448C84.5223 123.064 85.4503 122.872 86.5383 122.872C87.9036 122.872 89.0129 123.139 89.8663 123.672C90.7409 124.205 91.3916 124.963 91.8183 125.944C92.2663 126.904 92.4903 128.024 92.4903 129.304V139ZM81.0023 139H78.6983V123.192H80.7783V128.216L81.0023 128.376V139ZM102.17 139.32C100.548 139.32 99.1831 138.968 98.0738 138.264C96.9858 137.539 96.1538 136.557 95.5778 135.32C95.0231 134.083 94.7458 132.675 94.7458 131.096C94.7458 129.496 95.0444 128.077 95.6418 126.84C96.2604 125.603 97.1138 124.632 98.2018 123.928C99.3111 123.224 100.612 122.872 102.106 122.872C103.386 122.872 104.548 123.128 105.594 123.64C106.66 124.152 107.503 124.92 108.122 125.944C108.74 126.968 109.05 128.259 109.05 129.816C109.05 130.2 109.028 130.563 108.986 130.904C108.964 131.245 108.932 131.523 108.89 131.736H95.9618V130.04H107.226L106.842 130.456C106.948 129.091 106.82 128.003 106.458 127.192C106.095 126.381 105.54 125.784 104.794 125.4C104.047 125.016 103.14 124.824 102.074 124.824C100.196 124.824 98.8631 125.357 98.0738 126.424C97.3058 127.469 96.9218 128.888 96.9218 130.68V131.288C96.9218 132.547 97.0818 133.624 97.4018 134.52C97.7431 135.395 98.2978 136.077 99.0658 136.568C99.8338 137.037 100.879 137.272 102.202 137.272C103.78 137.272 104.911 136.952 105.594 136.312C106.298 135.651 106.65 134.851 106.65 133.912V133.72H108.922V133.944C108.922 134.968 108.634 135.885 108.058 136.696C107.503 137.507 106.714 138.147 105.69 138.616C104.687 139.085 103.514 139.32 102.17 139.32ZM113.815 139H111.511V123H113.591V127.352L113.815 127.512V139ZM113.815 128.536H113.047V125.624H113.751C114.028 124.899 114.529 124.259 115.255 123.704C116.001 123.149 116.961 122.872 118.135 122.872C119.223 122.872 120.097 123.107 120.759 123.576C121.42 124.024 121.9 124.632 122.199 125.4C122.497 126.168 122.647 127.011 122.647 127.928V128.792H120.343V128.28C120.343 127.043 120.119 126.168 119.671 125.656C119.223 125.123 118.433 124.856 117.303 124.856C116.087 124.856 115.201 125.144 114.647 125.72C114.092 126.296 113.815 127.235 113.815 128.536Z" fill="white"/>
<path d="M319.332 262.954C322.513 262.954 325.091 265.533 325.091 268.714C325.091 271.726 322.778 274.196 319.832 274.449V306.809C322.779 307.062 325.091 309.533 325.091 312.546C325.091 315.558 322.778 318.029 319.832 318.282V350.64C322.778 350.893 325.091 353.364 325.091 356.376C325.091 359.557 322.513 362.136 319.332 362.136C316.32 362.136 313.85 359.824 313.595 356.878H281.237C280.983 359.824 278.512 362.136 275.5 362.136C272.488 362.135 270.018 359.824 269.763 356.878H237.405C237.151 359.824 234.68 362.136 231.669 362.136C228.487 362.136 225.909 359.557 225.909 356.376C225.909 353.364 228.222 350.893 231.169 350.64V318.282C228.222 318.029 225.909 315.558 225.909 312.546C225.909 309.533 228.222 307.062 231.169 306.809V274.45C228.222 274.197 225.909 271.726 225.909 268.714C225.909 265.533 228.487 262.954 231.669 262.954C234.681 262.954 237.151 265.267 237.405 268.213H269.763C270.017 265.267 272.488 262.954 275.5 262.954C278.512 262.954 280.983 265.266 281.237 268.213H313.594C313.848 265.266 316.319 262.954 319.332 262.954ZM231.169 351.642C228.775 351.891 226.909 353.916 226.909 356.376C226.909 359.005 229.04 361.136 231.669 361.136C234.128 361.136 236.151 359.271 236.402 356.878H231.669V356.377H231.169V351.642ZM270.767 356.878C271.018 359.271 273.041 361.135 275.5 361.136C277.959 361.136 279.982 359.271 280.233 356.878H270.767ZM319.832 356.377H319.332V356.878H314.598C314.849 359.271 316.872 361.136 319.332 361.136C321.96 361.136 324.091 359.005 324.091 356.376C324.091 353.916 322.225 351.891 319.832 351.642V356.377ZM318.832 351.642C316.602 351.874 314.83 353.648 314.598 355.878H318.832V351.642ZM232.169 355.878H236.402C236.17 353.648 234.399 351.874 232.169 351.642V355.878ZM237.405 313.045C237.166 315.827 234.951 318.043 232.169 318.282V350.64C234.951 350.879 237.166 353.095 237.405 355.878H269.763C270.002 353.095 272.217 350.879 275 350.64V318.282C272.217 318.043 270.002 315.827 269.763 313.045H237.405ZM275 351.642C272.77 351.875 270.999 353.648 270.767 355.878H275V351.642ZM276 355.878H280.233C280.001 353.648 278.23 351.874 276 351.642V355.878ZM281.237 313.045C280.998 315.828 278.782 318.043 276 318.282V350.639C278.782 350.878 280.998 353.095 281.237 355.878H313.595C313.834 353.095 316.049 350.879 318.832 350.64V318.282C316.049 318.043 313.834 315.827 313.595 313.045H281.237ZM314.598 313.045C314.831 315.275 316.602 317.046 318.832 317.279V313.045H314.598ZM319.832 317.279C322.225 317.029 324.091 315.006 324.091 312.546C324.091 310.086 322.225 308.061 319.832 307.812V317.279ZM231.169 307.812C228.775 308.061 226.909 310.086 226.909 312.546C226.909 315.006 228.775 317.029 231.169 317.279V307.812ZM232.169 317.279C234.398 317.046 236.17 315.275 236.402 313.045H232.169V317.279ZM270.767 313.045C271 315.275 272.77 317.046 275 317.279V313.045H270.767ZM276 317.279C278.229 317.047 280.001 315.275 280.233 313.045H276V317.279ZM232.169 312.045H236.402C236.169 309.816 234.398 308.044 232.169 307.812V312.045ZM237.405 269.213C237.166 271.995 234.951 274.21 232.169 274.449V306.809C234.95 307.048 237.165 309.263 237.405 312.045H269.763C270.003 309.263 272.218 307.048 275 306.809V274.449C272.217 274.21 270.002 271.995 269.763 269.213H237.405ZM275 307.812C272.771 308.044 271 309.816 270.767 312.045H275V307.812ZM276 312.045H280.233C280 309.816 278.229 308.044 276 307.812V312.045ZM281.237 269.213C280.998 271.995 278.782 274.211 276 274.45V306.809C278.782 307.048 280.997 309.263 281.237 312.045H313.595C313.835 309.263 316.05 307.048 318.832 306.809V274.45C316.049 274.211 313.833 271.995 313.594 269.213H281.237ZM318.832 307.812C316.603 308.044 314.831 309.816 314.598 312.045H318.832V307.812ZM231.669 263.954C229.04 263.954 226.909 266.085 226.909 268.714C226.909 271.174 228.775 273.197 231.169 273.447V268.713H231.669V268.213H236.402C236.152 265.82 234.128 263.954 231.669 263.954ZM232.169 273.447C234.398 273.214 236.17 271.443 236.402 269.213H232.169V273.447ZM270.767 269.213C271 271.443 272.77 273.214 275 273.447V269.213H270.767ZM276 273.447C278.229 273.215 280.001 271.443 280.233 269.213H276V273.447ZM314.598 269.213C314.831 271.443 316.602 273.215 318.832 273.447V269.213H314.598ZM319.332 263.954C316.872 263.954 314.849 265.82 314.598 268.213H319.332V268.713H319.832V273.447C322.225 273.197 324.091 271.174 324.091 268.714C324.091 266.085 321.96 263.954 319.332 263.954ZM275.5 263.954C273.04 263.954 271.017 265.82 270.767 268.213H280.233C279.983 265.82 277.959 263.954 275.5 263.954Z" fill="#BCEAA3"/>
<path d="M21.0312 184V172.359H28.0156V173.609H22.4375V177.672H27.4844V178.922H22.4375V184H21.0312ZM28.9062 184V175.266H30.1875V176.594H30.2812C30.4427 176.161 30.7318 175.812 31.1484 175.547C31.5703 175.276 32.0417 175.141 32.5625 175.141C32.6615 175.141 32.7839 175.143 32.9297 175.148C33.0755 175.148 33.1875 175.151 33.2656 175.156V176.516C33.2188 176.505 33.1146 176.49 32.9531 176.469C32.7917 176.448 32.6198 176.438 32.4375 176.438C32.0156 176.438 31.638 176.526 31.3047 176.703C30.9714 176.88 30.7083 177.122 30.5156 177.43C30.3281 177.737 30.2344 178.089 30.2344 178.484V184H28.9062ZM36.875 184.188C36.0885 184.188 35.3984 184 34.8047 183.625C34.2109 183.25 33.7474 182.724 33.4141 182.047C33.0859 181.37 32.9219 180.583 32.9219 179.688C32.9219 178.776 33.0859 177.982 33.4141 177.305C33.7474 176.622 34.2109 176.094 34.8047 175.719C35.3984 175.344 36.0885 175.156 36.875 175.156C37.6667 175.156 38.3594 175.344 38.9531 175.719C39.5469 176.094 40.0104 176.622 40.3438 177.305C40.6771 177.982 40.8438 178.776 40.8438 179.688C40.8438 180.583 40.6771 181.37 40.3438 182.047C40.0104 182.724 39.5469 183.25 38.9531 183.625C38.3594 184 37.6667 184.188 36.875 184.188ZM36.875 182.984C37.4792 182.984 37.974 182.831 38.3594 182.523C38.7448 182.216 39.0312 181.812 39.2188 181.312C39.4062 180.807 39.5 180.266 39.5 179.688C39.5 179.099 39.4062 178.552 39.2188 178.047C39.0312 177.542 38.7448 177.135 38.3594 176.828C37.974 176.516 37.4792 176.359 36.875 176.359C36.2812 176.359 35.7917 176.516 35.4062 176.828C35.0208 177.135 34.7344 177.542 34.5469 178.047C34.3594 178.552 34.2656 179.099 34.2656 179.688C34.2656 180.266 34.3594 180.807 34.5469 181.312C34.7344 181.812 35.0208 182.216 35.4062 182.523C35.7917 182.831 36.2812 182.984 36.875 182.984ZM41.6406 184V175.266H42.9219V176.641H43.0469C43.2292 176.172 43.5234 175.807 43.9297 175.547C44.3359 175.286 44.8229 175.156 45.3906 175.156C45.9635 175.156 46.4401 175.286 46.8203 175.547C47.2057 175.807 47.5052 176.172 47.7188 176.641H47.8125C48.0417 176.188 48.3776 175.828 48.8203 175.562C49.2682 175.292 49.8021 175.156 50.4219 175.156C51.2031 175.156 51.8438 175.401 52.3438 175.891C52.8438 176.375 53.0938 177.13 53.0938 178.156V184H51.75V178.156C51.75 177.51 51.5729 177.049 51.2188 176.773C50.8646 176.497 50.4479 176.359 49.9688 176.359C49.3594 176.359 48.8854 176.547 48.5469 176.922C48.2135 177.292 48.0469 177.755 48.0469 178.312V184H46.6719V178.016C46.6719 177.521 46.513 177.122 46.1953 176.82C45.8776 176.513 45.4635 176.359 44.9531 176.359C44.6042 176.359 44.2786 176.453 43.9766 176.641C43.6745 176.828 43.4297 177.086 43.2422 177.414C43.0599 177.742 42.9688 178.12 42.9688 178.547V184H41.6406ZM59.1406 172.359V184H57.7344V172.359H59.1406ZM63.8125 184.188C63.0833 184.188 62.4401 184.003 61.8828 183.633C61.3255 183.263 60.8906 182.74 60.5781 182.062C60.2656 181.38 60.1094 180.578 60.1094 179.656C60.1094 178.74 60.2656 177.945 60.5781 177.273C60.8958 176.596 61.3333 176.076 61.8906 175.711C62.4479 175.341 63.0938 175.156 63.8281 175.156C64.401 175.156 64.8516 175.25 65.1797 175.438C65.513 175.625 65.7682 175.839 65.9453 176.078C66.1224 176.312 66.2604 176.505 66.3594 176.656H66.4688V172.359H67.7969V184H66.5156V182.656H66.3594C66.2604 182.812 66.1198 183.013 65.9375 183.258C65.7552 183.497 65.4948 183.714 65.1562 183.906C64.8229 184.094 64.375 184.188 63.8125 184.188ZM63.9844 182.984C64.526 182.984 64.9818 182.844 65.3516 182.562C65.7214 182.276 66.0026 181.883 66.1953 181.383C66.388 180.878 66.4844 180.297 66.4844 179.641C66.4844 178.984 66.3906 178.411 66.2031 177.922C66.0156 177.427 65.7344 177.044 65.3594 176.773C64.9896 176.497 64.5312 176.359 63.9844 176.359C63.4219 176.359 62.9531 176.505 62.5781 176.797C62.2031 177.089 61.9219 177.482 61.7344 177.977C61.5469 178.471 61.4531 179.026 61.4531 179.641C61.4531 180.26 61.5469 180.823 61.7344 181.328C61.9271 181.833 62.2109 182.237 62.5859 182.539C62.9609 182.836 63.4271 182.984 63.9844 182.984ZM72.6719 184.188C71.8333 184.188 71.1068 184 70.4922 183.625C69.8828 183.25 69.4141 182.727 69.0859 182.055C68.7578 181.378 68.5938 180.594 68.5938 179.703C68.5938 178.807 68.7552 178.018 69.0781 177.336C69.401 176.654 69.8542 176.12 70.4375 175.734C71.026 175.349 71.7135 175.156 72.5 175.156C72.9531 175.156 73.4036 175.232 73.8516 175.383C74.2995 175.534 74.7057 175.779 75.0703 176.117C75.4401 176.456 75.7344 176.904 75.9531 177.461C76.1719 178.018 76.2812 178.703 76.2812 179.516V180.094H69.5469V178.938H75.5547L74.9375 179.375C74.9375 178.792 74.8464 178.273 74.6641 177.82C74.4818 177.367 74.2083 177.01 73.8438 176.75C73.4844 176.49 73.0365 176.359 72.5 176.359C71.9635 176.359 71.5026 176.492 71.1172 176.758C70.737 177.018 70.4453 177.359 70.2422 177.781C70.0391 178.203 69.9375 178.656 69.9375 179.141V179.906C69.9375 180.568 70.0521 181.128 70.2812 181.586C70.5104 182.044 70.8307 182.393 71.2422 182.633C71.6536 182.867 72.1302 182.984 72.6719 182.984C73.0208 182.984 73.3385 182.935 73.625 182.836C73.9115 182.732 74.1589 182.578 74.3672 182.375C74.5755 182.167 74.7344 181.911 74.8438 181.609L76.1406 181.984C76.0052 182.422 75.776 182.807 75.4531 183.141C75.1354 183.469 74.7396 183.727 74.2656 183.914C73.7917 184.096 73.2604 184.188 72.6719 184.188ZM79.6094 184.203C79.0573 184.203 78.5547 184.099 78.1016 183.891C77.6484 183.677 77.2891 183.37 77.0234 182.969C76.7578 182.568 76.625 182.083 76.625 181.516C76.625 181.016 76.724 180.612 76.9219 180.305C77.1198 179.992 77.3828 179.747 77.7109 179.57C78.0443 179.388 78.4089 179.253 78.8047 179.164C79.2057 179.076 79.6094 179.005 80.0156 178.953C80.5469 178.885 80.9766 178.833 81.3047 178.797C81.638 178.76 81.8802 178.698 82.0312 178.609C82.1875 178.521 82.2656 178.37 82.2656 178.156V178.109C82.2656 177.552 82.112 177.12 81.8047 176.812C81.5026 176.5 81.0417 176.344 80.4219 176.344C79.7865 176.344 79.2865 176.484 78.9219 176.766C78.5573 177.042 78.3021 177.339 78.1562 177.656L76.875 177.203C77.1042 176.672 77.4089 176.258 77.7891 175.961C78.1745 175.664 78.5911 175.456 79.0391 175.336C79.4922 175.216 79.9375 175.156 80.375 175.156C80.6562 175.156 80.9792 175.19 81.3438 175.258C81.7083 175.32 82.0625 175.456 82.4062 175.664C82.7552 175.867 83.0417 176.177 83.2656 176.594C83.4948 177.005 83.6094 177.557 83.6094 178.25V184H82.2656V182.812H82.2031C82.1146 183 81.9635 183.203 81.75 183.422C81.5365 183.635 81.2526 183.82 80.8984 183.977C80.5495 184.128 80.1198 184.203 79.6094 184.203ZM79.8125 183C80.3438 183 80.7917 182.896 81.1562 182.688C81.5208 182.479 81.7969 182.211 81.9844 181.883C82.1719 181.549 82.2656 181.203 82.2656 180.844V179.609C82.2083 179.677 82.0833 179.74 81.8906 179.797C81.7031 179.849 81.4844 179.896 81.2344 179.938C80.9896 179.979 80.75 180.016 80.5156 180.047C80.2812 180.073 80.0938 180.094 79.9531 180.109C79.6042 180.156 79.2786 180.232 78.9766 180.336C78.6745 180.435 78.4297 180.583 78.2422 180.781C78.0599 180.979 77.9688 181.25 77.9688 181.594C77.9688 182.057 78.1406 182.409 78.4844 182.648C78.8333 182.883 79.276 183 79.8125 183ZM91.8594 175.266V176.406H87.3438V175.266H91.8594ZM88.6562 173.188H89.9844V181.5C89.9844 181.953 90.0781 182.286 90.2656 182.5C90.4531 182.708 90.75 182.812 91.1562 182.812C91.2448 182.812 91.3359 182.807 91.4297 182.797C91.5286 182.786 91.6354 182.771 91.75 182.75L92.0312 183.953C91.9062 184 91.7526 184.036 91.5703 184.062C91.3932 184.094 91.2135 184.109 91.0312 184.109C90.3281 184.109 89.7552 183.901 89.3125 183.484C88.875 183.068 88.6562 182.526 88.6562 181.859V173.188ZM96.0781 184.188C95.2917 184.188 94.6016 184 94.0078 183.625C93.4141 183.25 92.9505 182.724 92.6172 182.047C92.2891 181.37 92.125 180.583 92.125 179.688C92.125 178.776 92.2891 177.982 92.6172 177.305C92.9505 176.622 93.4141 176.094 94.0078 175.719C94.6016 175.344 95.2917 175.156 96.0781 175.156C96.8698 175.156 97.5625 175.344 98.1562 175.719C98.75 176.094 99.2135 176.622 99.5469 177.305C99.8802 177.982 100.047 178.776 100.047 179.688C100.047 180.583 99.8802 181.37 99.5469 182.047C99.2135 182.724 98.75 183.25 98.1562 183.625C97.5625 184 96.8698 184.188 96.0781 184.188ZM96.0781 182.984C96.6823 182.984 97.1771 182.831 97.5625 182.523C97.9479 182.216 98.2344 181.812 98.4219 181.312C98.6094 180.807 98.7031 180.266 98.7031 179.688C98.7031 179.099 98.6094 178.552 98.4219 178.047C98.2344 177.542 97.9479 177.135 97.5625 176.828C97.1771 176.516 96.6823 176.359 96.0781 176.359C95.4844 176.359 94.9948 176.516 94.6094 176.828C94.224 177.135 93.9375 177.542 93.75 178.047C93.5625 178.552 93.4688 179.099 93.4688 179.688C93.4688 180.266 93.5625 180.807 93.75 181.312C93.9375 181.812 94.224 182.216 94.6094 182.523C94.9948 182.831 95.4844 182.984 96.0781 182.984ZM105.672 172.359V184H104.266V172.359H105.672ZM107.062 184V175.266H108.344V176.641H108.469C108.651 176.172 108.945 175.807 109.352 175.547C109.758 175.286 110.245 175.156 110.812 175.156C111.385 175.156 111.862 175.286 112.242 175.547C112.628 175.807 112.927 176.172 113.141 176.641H113.234C113.464 176.188 113.799 175.828 114.242 175.562C114.69 175.292 115.224 175.156 115.844 175.156C116.625 175.156 117.266 175.401 117.766 175.891C118.266 176.375 118.516 177.13 118.516 178.156V184H117.172V178.156C117.172 177.51 116.995 177.049 116.641 176.773C116.286 176.497 115.87 176.359 115.391 176.359C114.781 176.359 114.307 176.547 113.969 176.922C113.635 177.292 113.469 177.755 113.469 178.312V184H112.094V178.016C112.094 177.521 111.935 177.122 111.617 176.82C111.299 176.513 110.885 176.359 110.375 176.359C110.026 176.359 109.701 176.453 109.398 176.641C109.096 176.828 108.852 177.086 108.664 177.414C108.482 177.742 108.391 178.12 108.391 178.547V184H107.062ZM119.734 187.266V175.266H121.016V176.656H121.172C121.271 176.505 121.409 176.312 121.586 176.078C121.763 175.839 122.018 175.625 122.352 175.438C122.685 175.25 123.135 175.156 123.703 175.156C124.438 175.156 125.083 175.341 125.641 175.711C126.198 176.076 126.633 176.596 126.945 177.273C127.263 177.945 127.422 178.74 127.422 179.656C127.422 180.578 127.266 181.38 126.953 182.062C126.641 182.74 126.206 183.263 125.648 183.633C125.091 184.003 124.448 184.188 123.719 184.188C123.161 184.188 122.714 184.094 122.375 183.906C122.036 183.714 121.776 183.497 121.594 183.258C121.411 183.013 121.271 182.812 121.172 182.656H121.062V187.266H119.734ZM123.547 182.984C124.104 182.984 124.57 182.836 124.945 182.539C125.32 182.237 125.602 181.833 125.789 181.328C125.982 180.823 126.078 180.26 126.078 179.641C126.078 179.026 125.984 178.471 125.797 177.977C125.609 177.482 125.328 177.089 124.953 176.797C124.583 176.505 124.115 176.359 123.547 176.359C123 176.359 122.542 176.497 122.172 176.773C121.802 177.044 121.521 177.427 121.328 177.922C121.141 178.411 121.047 178.984 121.047 179.641C121.047 180.297 121.143 180.878 121.336 181.383C121.529 181.883 121.81 182.276 122.18 182.562C122.555 182.844 123.01 182.984 123.547 182.984ZM130.781 184.203C130.229 184.203 129.727 184.099 129.273 183.891C128.82 183.677 128.461 183.37 128.195 182.969C127.93 182.568 127.797 182.083 127.797 181.516C127.797 181.016 127.896 180.612 128.094 180.305C128.292 179.992 128.555 179.747 128.883 179.57C129.216 179.388 129.581 179.253 129.977 179.164C130.378 179.076 130.781 179.005 131.188 178.953C131.719 178.885 132.148 178.833 132.477 178.797C132.81 178.76 133.052 178.698 133.203 178.609C133.359 178.521 133.438 178.37 133.438 178.156V178.109C133.438 177.552 133.284 177.12 132.977 176.812C132.674 176.5 132.214 176.344 131.594 176.344C130.958 176.344 130.458 176.484 130.094 176.766C129.729 177.042 129.474 177.339 129.328 177.656L128.047 177.203C128.276 176.672 128.581 176.258 128.961 175.961C129.346 175.664 129.763 175.456 130.211 175.336C130.664 175.216 131.109 175.156 131.547 175.156C131.828 175.156 132.151 175.19 132.516 175.258C132.88 175.32 133.234 175.456 133.578 175.664C133.927 175.867 134.214 176.177 134.438 176.594C134.667 177.005 134.781 177.557 134.781 178.25V184H133.438V182.812H133.375C133.286 183 133.135 183.203 132.922 183.422C132.708 183.635 132.424 183.82 132.07 183.977C131.721 184.128 131.292 184.203 130.781 184.203ZM130.984 183C131.516 183 131.964 182.896 132.328 182.688C132.693 182.479 132.969 182.211 133.156 181.883C133.344 181.549 133.438 181.203 133.438 180.844V179.609C133.38 179.677 133.255 179.74 133.062 179.797C132.875 179.849 132.656 179.896 132.406 179.938C132.161 179.979 131.922 180.016 131.688 180.047C131.453 180.073 131.266 180.094 131.125 180.109C130.776 180.156 130.451 180.232 130.148 180.336C129.846 180.435 129.602 180.583 129.414 180.781C129.232 180.979 129.141 181.25 129.141 181.594C129.141 182.057 129.312 182.409 129.656 182.648C130.005 182.883 130.448 183 130.984 183ZM139.531 184.188C138.719 184.188 138.016 183.995 137.422 183.609C136.833 183.219 136.378 182.685 136.055 182.008C135.737 181.331 135.578 180.557 135.578 179.688C135.578 178.797 135.742 178.013 136.07 177.336C136.398 176.654 136.857 176.12 137.445 175.734C138.039 175.349 138.729 175.156 139.516 175.156C140.13 175.156 140.682 175.271 141.172 175.5C141.667 175.724 142.07 176.042 142.383 176.453C142.701 176.865 142.896 177.344 142.969 177.891H141.625C141.557 177.625 141.435 177.375 141.258 177.141C141.081 176.906 140.846 176.719 140.555 176.578C140.268 176.432 139.927 176.359 139.531 176.359C139.01 176.359 138.555 176.495 138.164 176.766C137.773 177.036 137.469 177.419 137.25 177.914C137.031 178.404 136.922 178.979 136.922 179.641C136.922 180.312 137.029 180.901 137.242 181.406C137.456 181.906 137.758 182.294 138.148 182.57C138.544 182.846 139.005 182.984 139.531 182.984C140.057 182.984 140.508 182.849 140.883 182.578C141.258 182.302 141.505 181.927 141.625 181.453H142.969C142.896 181.969 142.708 182.432 142.406 182.844C142.109 183.255 141.716 183.583 141.227 183.828C140.742 184.068 140.177 184.188 139.531 184.188ZM147.516 175.266V176.406H143V175.266H147.516ZM144.312 173.188H145.641V181.5C145.641 181.953 145.734 182.286 145.922 182.5C146.109 182.708 146.406 182.812 146.812 182.812C146.901 182.812 146.992 182.807 147.086 182.797C147.185 182.786 147.292 182.771 147.406 182.75L147.688 183.953C147.562 184 147.409 184.036 147.227 184.062C147.049 184.094 146.87 184.109 146.688 184.109C145.984 184.109 145.411 183.901 144.969 183.484C144.531 183.068 144.312 182.526 144.312 181.859V173.188ZM21.0312 204V192.359H28.0625V193.609H22.4375V197.5H27.6875V198.75H22.4375V202.75H28.1406V204H21.0312ZM30.5 198.75V204H29.1719V195.266H30.4531V196.641H30.5781C30.7812 196.193 31.0911 195.833 31.5078 195.562C31.9245 195.292 32.4635 195.156 33.125 195.156C33.7135 195.156 34.2292 195.276 34.6719 195.516C35.1146 195.755 35.4583 196.12 35.7031 196.609C35.9531 197.094 36.0781 197.708 36.0781 198.453V204H34.75V198.547C34.75 197.865 34.5703 197.331 34.2109 196.945C33.8516 196.555 33.362 196.359 32.7422 196.359C32.3151 196.359 31.9323 196.453 31.5938 196.641C31.2552 196.828 30.987 197.099 30.7891 197.453C30.5964 197.807 30.5 198.24 30.5 198.75ZM40.5781 204.188C39.849 204.188 39.2057 204.003 38.6484 203.633C38.0911 203.263 37.6562 202.74 37.3438 202.062C37.0312 201.38 36.875 200.578 36.875 199.656C36.875 198.74 37.0312 197.945 37.3438 197.273C37.6615 196.596 38.099 196.076 38.6562 195.711C39.2135 195.341 39.8594 195.156 40.5938 195.156C41.1667 195.156 41.6172 195.25 41.9453 195.438C42.2786 195.625 42.5339 195.839 42.7109 196.078C42.888 196.312 43.026 196.505 43.125 196.656H43.2344V192.359H44.5625V204H43.2812V202.656H43.125C43.026 202.812 42.8854 203.013 42.7031 203.258C42.5208 203.497 42.2604 203.714 41.9219 203.906C41.5885 204.094 41.1406 204.188 40.5781 204.188ZM40.75 202.984C41.2917 202.984 41.7474 202.844 42.1172 202.562C42.487 202.276 42.7682 201.883 42.9609 201.383C43.1536 200.878 43.25 200.297 43.25 199.641C43.25 198.984 43.1562 198.411 42.9688 197.922C42.7812 197.427 42.5 197.044 42.125 196.773C41.7552 196.497 41.2969 196.359 40.75 196.359C40.1875 196.359 39.7188 196.505 39.3438 196.797C38.9688 197.089 38.6875 197.482 38.5 197.977C38.3125 198.471 38.2188 199.026 38.2188 199.641C38.2188 200.26 38.3125 200.823 38.5 201.328C38.6927 201.833 38.9766 202.237 39.3516 202.539C39.7266 202.836 40.1927 202.984 40.75 202.984ZM50.7656 198.391V199.641H45.6719V198.391H50.7656ZM55.6562 195.266V196.406H51.1406V195.266H55.6562ZM52.4531 193.188H53.7812V201.5C53.7812 201.953 53.875 202.286 54.0625 202.5C54.25 202.708 54.5469 202.812 54.9531 202.812C55.0417 202.812 55.1328 202.807 55.2266 202.797C55.3255 202.786 55.4323 202.771 55.5469 202.75L55.8281 203.953C55.7031 204 55.5495 204.036 55.3672 204.062C55.1901 204.094 55.0104 204.109 54.8281 204.109C54.125 204.109 53.5521 203.901 53.1094 203.484C52.6719 203.068 52.4531 202.526 52.4531 201.859V193.188ZM59.875 204.188C59.0885 204.188 58.3984 204 57.8047 203.625C57.2109 203.25 56.7474 202.724 56.4141 202.047C56.0859 201.37 55.9219 200.583 55.9219 199.688C55.9219 198.776 56.0859 197.982 56.4141 197.305C56.7474 196.622 57.2109 196.094 57.8047 195.719C58.3984 195.344 59.0885 195.156 59.875 195.156C60.6667 195.156 61.3594 195.344 61.9531 195.719C62.5469 196.094 63.0104 196.622 63.3438 197.305C63.6771 197.982 63.8438 198.776 63.8438 199.688C63.8438 200.583 63.6771 201.37 63.3438 202.047C63.0104 202.724 62.5469 203.25 61.9531 203.625C61.3594 204 60.6667 204.188 59.875 204.188ZM59.875 202.984C60.4792 202.984 60.974 202.831 61.3594 202.523C61.7448 202.216 62.0312 201.812 62.2188 201.312C62.4062 200.807 62.5 200.266 62.5 199.688C62.5 199.099 62.4062 198.552 62.2188 198.047C62.0312 197.542 61.7448 197.135 61.3594 196.828C60.974 196.516 60.4792 196.359 59.875 196.359C59.2812 196.359 58.7917 196.516 58.4062 196.828C58.0208 197.135 57.7344 197.542 57.5469 198.047C57.3594 198.552 57.2656 199.099 57.2656 199.688C57.2656 200.266 57.3594 200.807 57.5469 201.312C57.7344 201.812 58.0208 202.216 58.4062 202.523C58.7917 202.831 59.2812 202.984 59.875 202.984ZM69.625 198.391V199.641H64.5312V198.391H69.625ZM70.9062 204V192.359H77.9375V193.609H72.3125V197.5H77.5625V198.75H72.3125V202.75H78.0156V204H70.9062ZM80.375 198.75V204H79.0469V195.266H80.3281V196.641H80.4531C80.6562 196.193 80.9661 195.833 81.3828 195.562C81.7995 195.292 82.3385 195.156 83 195.156C83.5885 195.156 84.1042 195.276 84.5469 195.516C84.9896 195.755 85.3333 196.12 85.5781 196.609C85.8281 197.094 85.9531 197.708 85.9531 198.453V204H84.625V198.547C84.625 197.865 84.4453 197.331 84.0859 196.945C83.7266 196.555 83.237 196.359 82.6172 196.359C82.1901 196.359 81.8073 196.453 81.4688 196.641C81.1302 196.828 80.862 197.099 80.6641 197.453C80.4714 197.807 80.375 198.24 80.375 198.75ZM90.4531 204.188C89.724 204.188 89.0807 204.003 88.5234 203.633C87.9661 203.263 87.5312 202.74 87.2188 202.062C86.9062 201.38 86.75 200.578 86.75 199.656C86.75 198.74 86.9062 197.945 87.2188 197.273C87.5365 196.596 87.974 196.076 88.5312 195.711C89.0885 195.341 89.7344 195.156 90.4688 195.156C91.0417 195.156 91.4922 195.25 91.8203 195.438C92.1536 195.625 92.4089 195.839 92.5859 196.078C92.763 196.312 92.901 196.505 93 196.656H93.1094V192.359H94.4375V204H93.1562V202.656H93C92.901 202.812 92.7604 203.013 92.5781 203.258C92.3958 203.497 92.1354 203.714 91.7969 203.906C91.4635 204.094 91.0156 204.188 90.4531 204.188ZM90.625 202.984C91.1667 202.984 91.6224 202.844 91.9922 202.562C92.362 202.276 92.6432 201.883 92.8359 201.383C93.0286 200.878 93.125 200.297 93.125 199.641C93.125 198.984 93.0312 198.411 92.8438 197.922C92.6562 197.427 92.375 197.044 92 196.773C91.6302 196.497 91.1719 196.359 90.625 196.359C90.0625 196.359 89.5938 196.505 89.2188 196.797C88.8438 197.089 88.5625 197.482 88.375 197.977C88.1875 198.471 88.0938 199.026 88.0938 199.641C88.0938 200.26 88.1875 200.823 88.375 201.328C88.5677 201.833 88.8516 202.237 89.2266 202.539C89.6016 202.836 90.0677 202.984 90.625 202.984ZM99.5625 204H98.0781L102.359 192.359H103.812L108.078 204H106.609L103.125 194.203H103.031L99.5625 204ZM100.109 199.453H106.062V200.703H100.109V199.453ZM110.047 192.359V204H108.641V192.359H110.047ZM114.859 204V192.359H118.797C119.708 192.359 120.453 192.523 121.031 192.852C121.615 193.18 122.047 193.622 122.328 194.18C122.609 194.737 122.75 195.359 122.75 196.047C122.75 196.729 122.609 197.352 122.328 197.914C122.052 198.477 121.622 198.924 121.039 199.258C120.461 199.586 119.719 199.75 118.812 199.75H116V198.5H118.766C119.391 198.5 119.893 198.393 120.273 198.18C120.654 197.966 120.93 197.674 121.102 197.305C121.273 196.93 121.359 196.51 121.359 196.047C121.359 195.578 121.273 195.161 121.102 194.797C120.93 194.427 120.651 194.138 120.266 193.93C119.885 193.716 119.38 193.609 118.75 193.609H116.266V204H114.859ZM123.594 204V195.266H124.875V196.594H124.969C125.13 196.161 125.419 195.812 125.836 195.547C126.258 195.276 126.729 195.141 127.25 195.141C127.349 195.141 127.471 195.143 127.617 195.148C127.763 195.148 127.875 195.151 127.953 195.156V196.516C127.906 196.505 127.802 196.49 127.641 196.469C127.479 196.448 127.307 196.438 127.125 196.438C126.703 196.438 126.326 196.526 125.992 196.703C125.659 196.88 125.396 197.122 125.203 197.43C125.016 197.737 124.922 198.089 124.922 198.484V204H123.594ZM131.562 204.188C130.776 204.188 130.086 204 129.492 203.625C128.898 203.25 128.435 202.724 128.102 202.047C127.773 201.37 127.609 200.583 127.609 199.688C127.609 198.776 127.773 197.982 128.102 197.305C128.435 196.622 128.898 196.094 129.492 195.719C130.086 195.344 130.776 195.156 131.562 195.156C132.354 195.156 133.047 195.344 133.641 195.719C134.234 196.094 134.698 196.622 135.031 197.305C135.365 197.982 135.531 198.776 135.531 199.688C135.531 200.583 135.365 201.37 135.031 202.047C134.698 202.724 134.234 203.25 133.641 203.625C133.047 204 132.354 204.188 131.562 204.188ZM131.562 202.984C132.167 202.984 132.661 202.831 133.047 202.523C133.432 202.216 133.719 201.812 133.906 201.312C134.094 200.807 134.188 200.266 134.188 199.688C134.188 199.099 134.094 198.552 133.906 198.047C133.719 197.542 133.432 197.135 133.047 196.828C132.661 196.516 132.167 196.359 131.562 196.359C130.969 196.359 130.479 196.516 130.094 196.828C129.708 197.135 129.422 197.542 129.234 198.047C129.047 198.552 128.953 199.099 128.953 199.688C128.953 200.266 129.047 200.807 129.234 201.312C129.422 201.812 129.708 202.216 130.094 202.523C130.479 202.831 130.969 202.984 131.562 202.984ZM139.609 204.188C138.88 204.188 138.237 204.003 137.68 203.633C137.122 203.263 136.688 202.74 136.375 202.062C136.062 201.38 135.906 200.578 135.906 199.656C135.906 198.74 136.062 197.945 136.375 197.273C136.693 196.596 137.13 196.076 137.688 195.711C138.245 195.341 138.891 195.156 139.625 195.156C140.198 195.156 140.648 195.25 140.977 195.438C141.31 195.625 141.565 195.839 141.742 196.078C141.919 196.312 142.057 196.505 142.156 196.656H142.266V192.359H143.594V204H142.312V202.656H142.156C142.057 202.812 141.917 203.013 141.734 203.258C141.552 203.497 141.292 203.714 140.953 203.906C140.62 204.094 140.172 204.188 139.609 204.188ZM139.781 202.984C140.323 202.984 140.779 202.844 141.148 202.562C141.518 202.276 141.799 201.883 141.992 201.383C142.185 200.878 142.281 200.297 142.281 199.641C142.281 198.984 142.188 198.411 142 197.922C141.812 197.427 141.531 197.044 141.156 196.773C140.786 196.497 140.328 196.359 139.781 196.359C139.219 196.359 138.75 196.505 138.375 196.797C138 197.089 137.719 197.482 137.531 197.977C137.344 198.471 137.25 199.026 137.25 199.641C137.25 200.26 137.344 200.823 137.531 201.328C137.724 201.833 138.008 202.237 138.383 202.539C138.758 202.836 139.224 202.984 139.781 202.984ZM150.312 200.438V195.266H151.641V204H150.312V202.516H150.219C150.01 202.958 149.69 203.336 149.258 203.648C148.831 203.961 148.286 204.115 147.625 204.109C147.078 204.109 146.594 203.992 146.172 203.758C145.75 203.518 145.417 203.154 145.172 202.664C144.932 202.174 144.812 201.557 144.812 200.812V195.266H146.141V200.734C146.141 201.365 146.32 201.87 146.68 202.25C147.044 202.63 147.505 202.818 148.062 202.812C148.396 202.812 148.734 202.729 149.078 202.562C149.427 202.391 149.719 202.13 149.953 201.781C150.193 201.427 150.312 200.979 150.312 200.438ZM156.391 204.188C155.578 204.188 154.875 203.995 154.281 203.609C153.693 203.219 153.237 202.685 152.914 202.008C152.596 201.331 152.438 200.557 152.438 199.688C152.438 198.797 152.602 198.013 152.93 197.336C153.258 196.654 153.716 196.12 154.305 195.734C154.898 195.349 155.589 195.156 156.375 195.156C156.99 195.156 157.542 195.271 158.031 195.5C158.526 195.724 158.93 196.042 159.242 196.453C159.56 196.865 159.755 197.344 159.828 197.891H158.484C158.417 197.625 158.294 197.375 158.117 197.141C157.94 196.906 157.706 196.719 157.414 196.578C157.128 196.432 156.786 196.359 156.391 196.359C155.87 196.359 155.414 196.495 155.023 196.766C154.633 197.036 154.328 197.419 154.109 197.914C153.891 198.404 153.781 198.979 153.781 199.641C153.781 200.312 153.888 200.901 154.102 201.406C154.315 201.906 154.617 202.294 155.008 202.57C155.404 202.846 155.865 202.984 156.391 202.984C156.917 202.984 157.367 202.849 157.742 202.578C158.117 202.302 158.365 201.927 158.484 201.453H159.828C159.755 201.969 159.568 202.432 159.266 202.844C158.969 203.255 158.576 203.583 158.086 203.828C157.602 204.068 157.036 204.188 156.391 204.188ZM164.375 195.266V196.406H159.859V195.266H164.375ZM161.172 193.188H162.5V201.5C162.5 201.953 162.594 202.286 162.781 202.5C162.969 202.708 163.266 202.812 163.672 202.812C163.76 202.812 163.852 202.807 163.945 202.797C164.044 202.786 164.151 202.771 164.266 202.75L164.547 203.953C164.422 204 164.268 204.036 164.086 204.062C163.909 204.094 163.729 204.109 163.547 204.109C162.844 204.109 162.271 203.901 161.828 203.484C161.391 203.068 161.172 202.526 161.172 201.859V193.188ZM168.578 204V192.359H175.609V193.609H169.984V197.5H175.234V198.75H169.984V202.75H175.688V204H168.578ZM178.047 198.75V204H176.719V195.266H178V196.641H178.125C178.328 196.193 178.638 195.833 179.055 195.562C179.471 195.292 180.01 195.156 180.672 195.156C181.26 195.156 181.776 195.276 182.219 195.516C182.661 195.755 183.005 196.12 183.25 196.609C183.5 197.094 183.625 197.708 183.625 198.453V204H182.297V198.547C182.297 197.865 182.117 197.331 181.758 196.945C181.398 196.555 180.909 196.359 180.289 196.359C179.862 196.359 179.479 196.453 179.141 196.641C178.802 196.828 178.534 197.099 178.336 197.453C178.143 197.807 178.047 198.24 178.047 198.75ZM188.359 207.453C187.385 207.453 186.615 207.276 186.047 206.922C185.484 206.568 185.068 206.161 184.797 205.703L185.859 204.953C185.979 205.115 186.133 205.297 186.32 205.5C186.508 205.708 186.763 205.888 187.086 206.039C187.409 206.19 187.833 206.266 188.359 206.266C189.062 206.266 189.643 206.096 190.102 205.758C190.565 205.419 190.797 204.885 190.797 204.156V202.391H190.672C190.578 202.547 190.44 202.742 190.258 202.977C190.081 203.206 189.823 203.411 189.484 203.594C189.151 203.771 188.698 203.859 188.125 203.859C187.422 203.859 186.792 203.693 186.234 203.359C185.677 203.026 185.234 202.542 184.906 201.906C184.583 201.271 184.422 200.5 184.422 199.594C184.422 198.698 184.578 197.919 184.891 197.258C185.208 196.591 185.648 196.076 186.211 195.711C186.773 195.341 187.422 195.156 188.156 195.156C188.724 195.156 189.174 195.25 189.508 195.438C189.846 195.625 190.104 195.839 190.281 196.078C190.464 196.312 190.604 196.505 190.703 196.656H190.844V195.266H192.125V204.25C192.125 205 191.956 205.609 191.617 206.078C191.284 206.552 190.831 206.898 190.258 207.117C189.69 207.341 189.057 207.453 188.359 207.453ZM188.312 202.656C189.12 202.656 189.737 202.383 190.164 201.836C190.596 201.289 190.812 200.531 190.812 199.562C190.812 198.932 190.719 198.378 190.531 197.898C190.344 197.419 190.062 197.044 189.688 196.773C189.318 196.497 188.859 196.359 188.312 196.359C187.745 196.359 187.271 196.505 186.891 196.797C186.516 197.083 186.234 197.469 186.047 197.953C185.859 198.438 185.766 198.974 185.766 199.562C185.766 200.167 185.859 200.703 186.047 201.172C186.24 201.635 186.526 202 186.906 202.266C187.286 202.526 187.755 202.656 188.312 202.656ZM193.344 204V195.266H194.672V204H193.344ZM194.016 193.812C193.755 193.812 193.531 193.724 193.344 193.547C193.156 193.37 193.062 193.156 193.062 192.906C193.062 192.656 193.156 192.443 193.344 192.266C193.531 192.089 193.755 192 194.016 192C194.276 192 194.5 192.089 194.688 192.266C194.875 192.443 194.969 192.656 194.969 192.906C194.969 193.156 194.875 193.37 194.688 193.547C194.5 193.724 194.276 193.812 194.016 193.812ZM197.219 198.75V204H195.891V195.266H197.172V196.641H197.297C197.5 196.193 197.81 195.833 198.227 195.562C198.643 195.292 199.182 195.156 199.844 195.156C200.432 195.156 200.948 195.276 201.391 195.516C201.833 195.755 202.177 196.12 202.422 196.609C202.672 197.094 202.797 197.708 202.797 198.453V204H201.469V198.547C201.469 197.865 201.289 197.331 200.93 196.945C200.57 196.555 200.081 196.359 199.461 196.359C199.034 196.359 198.651 196.453 198.312 196.641C197.974 196.828 197.706 197.099 197.508 197.453C197.315 197.807 197.219 198.24 197.219 198.75ZM207.672 204.188C206.833 204.188 206.107 204 205.492 203.625C204.883 203.25 204.414 202.727 204.086 202.055C203.758 201.378 203.594 200.594 203.594 199.703C203.594 198.807 203.755 198.018 204.078 197.336C204.401 196.654 204.854 196.12 205.438 195.734C206.026 195.349 206.714 195.156 207.5 195.156C207.953 195.156 208.404 195.232 208.852 195.383C209.299 195.534 209.706 195.779 210.07 196.117C210.44 196.456 210.734 196.904 210.953 197.461C211.172 198.018 211.281 198.703 211.281 199.516V200.094H204.547V198.938H210.555L209.938 199.375C209.938 198.792 209.846 198.273 209.664 197.82C209.482 197.367 209.208 197.01 208.844 196.75C208.484 196.49 208.036 196.359 207.5 196.359C206.964 196.359 206.503 196.492 206.117 196.758C205.737 197.018 205.445 197.359 205.242 197.781C205.039 198.203 204.938 198.656 204.938 199.141V199.906C204.938 200.568 205.052 201.128 205.281 201.586C205.51 202.044 205.831 202.393 206.242 202.633C206.654 202.867 207.13 202.984 207.672 202.984C208.021 202.984 208.339 202.935 208.625 202.836C208.911 202.732 209.159 202.578 209.367 202.375C209.576 202.167 209.734 201.911 209.844 201.609L211.141 201.984C211.005 202.422 210.776 202.807 210.453 203.141C210.135 203.469 209.74 203.727 209.266 203.914C208.792 204.096 208.26 204.188 207.672 204.188ZM215.703 204.188C214.865 204.188 214.138 204 213.523 203.625C212.914 203.25 212.445 202.727 212.117 202.055C211.789 201.378 211.625 200.594 211.625 199.703C211.625 198.807 211.786 198.018 212.109 197.336C212.432 196.654 212.885 196.12 213.469 195.734C214.057 195.349 214.745 195.156 215.531 195.156C215.984 195.156 216.435 195.232 216.883 195.383C217.331 195.534 217.737 195.779 218.102 196.117C218.471 196.456 218.766 196.904 218.984 197.461C219.203 198.018 219.312 198.703 219.312 199.516V200.094H212.578V198.938H218.586L217.969 199.375C217.969 198.792 217.878 198.273 217.695 197.82C217.513 197.367 217.24 197.01 216.875 196.75C216.516 196.49 216.068 196.359 215.531 196.359C214.995 196.359 214.534 196.492 214.148 196.758C213.768 197.018 213.477 197.359 213.273 197.781C213.07 198.203 212.969 198.656 212.969 199.141V199.906C212.969 200.568 213.083 201.128 213.312 201.586C213.542 202.044 213.862 202.393 214.273 202.633C214.685 202.867 215.161 202.984 215.703 202.984C216.052 202.984 216.37 202.935 216.656 202.836C216.943 202.732 217.19 202.578 217.398 202.375C217.607 202.167 217.766 201.911 217.875 201.609L219.172 201.984C219.036 202.422 218.807 202.807 218.484 203.141C218.167 203.469 217.771 203.727 217.297 203.914C216.823 204.096 216.292 204.188 215.703 204.188ZM220.078 204V195.266H221.359V196.594H221.453C221.615 196.161 221.904 195.812 222.32 195.547C222.742 195.276 223.214 195.141 223.734 195.141C223.833 195.141 223.956 195.143 224.102 195.148C224.247 195.148 224.359 195.151 224.438 195.156V196.516C224.391 196.505 224.286 196.49 224.125 196.469C223.964 196.448 223.792 196.438 223.609 196.438C223.188 196.438 222.81 196.526 222.477 196.703C222.143 196.88 221.88 197.122 221.688 197.43C221.5 197.737 221.406 198.089 221.406 198.484V204H220.078ZM224.781 204V195.266H226.109V204H224.781ZM225.453 193.812C225.193 193.812 224.969 193.724 224.781 193.547C224.594 193.37 224.5 193.156 224.5 192.906C224.5 192.656 224.594 192.443 224.781 192.266C224.969 192.089 225.193 192 225.453 192C225.714 192 225.938 192.089 226.125 192.266C226.312 192.443 226.406 192.656 226.406 192.906C226.406 193.156 226.312 193.37 226.125 193.547C225.938 193.724 225.714 193.812 225.453 193.812ZM228.656 198.75V204H227.328V195.266H228.609V196.641H228.734C228.938 196.193 229.247 195.833 229.664 195.562C230.081 195.292 230.62 195.156 231.281 195.156C231.87 195.156 232.385 195.276 232.828 195.516C233.271 195.755 233.615 196.12 233.859 196.609C234.109 197.094 234.234 197.708 234.234 198.453V204H232.906V198.547C232.906 197.865 232.727 197.331 232.367 196.945C232.008 196.555 231.518 196.359 230.898 196.359C230.471 196.359 230.089 196.453 229.75 196.641C229.411 196.828 229.143 197.099 228.945 197.453C228.753 197.807 228.656 198.24 228.656 198.75ZM238.969 207.453C237.995 207.453 237.224 207.276 236.656 206.922C236.094 206.568 235.677 206.161 235.406 205.703L236.469 204.953C236.589 205.115 236.742 205.297 236.93 205.5C237.117 205.708 237.372 205.888 237.695 206.039C238.018 206.19 238.443 206.266 238.969 206.266C239.672 206.266 240.253 206.096 240.711 205.758C241.174 205.419 241.406 204.885 241.406 204.156V202.391H241.281C241.188 202.547 241.049 202.742 240.867 202.977C240.69 203.206 240.432 203.411 240.094 203.594C239.76 203.771 239.307 203.859 238.734 203.859C238.031 203.859 237.401 203.693 236.844 203.359C236.286 203.026 235.844 202.542 235.516 201.906C235.193 201.271 235.031 200.5 235.031 199.594C235.031 198.698 235.188 197.919 235.5 197.258C235.818 196.591 236.258 196.076 236.82 195.711C237.383 195.341 238.031 195.156 238.766 195.156C239.333 195.156 239.784 195.25 240.117 195.438C240.456 195.625 240.714 195.839 240.891 196.078C241.073 196.312 241.214 196.505 241.312 196.656H241.453V195.266H242.734V204.25C242.734 205 242.565 205.609 242.227 206.078C241.893 206.552 241.44 206.898 240.867 207.117C240.299 207.341 239.667 207.453 238.969 207.453ZM238.922 202.656C239.729 202.656 240.346 202.383 240.773 201.836C241.206 201.289 241.422 200.531 241.422 199.562C241.422 198.932 241.328 198.378 241.141 197.898C240.953 197.419 240.672 197.044 240.297 196.773C239.927 196.497 239.469 196.359 238.922 196.359C238.354 196.359 237.88 196.505 237.5 196.797C237.125 197.083 236.844 197.469 236.656 197.953C236.469 198.438 236.375 198.974 236.375 199.562C236.375 200.167 236.469 200.703 236.656 201.172C236.849 201.635 237.135 202 237.516 202.266C237.896 202.526 238.365 202.656 238.922 202.656Z" fill="#A9AAA9"/>
</g>
<path d="M8 0V2H307V0V-2H8V0ZM315 8H313V352H315H317V8H315ZM307 360V358H8V360V362H307V360ZM0 352H2V8H0H-2V352H0ZM8 360V358C4.68629 358 2 355.314 2 352H0H-2C-2 357.523 2.47715 362 8 362V360ZM315 352H313C313 355.314 310.314 358 307 358V360V362C312.523 362 317 357.523 317 352H315ZM307 0V2C310.314 2 313 4.68629 313 8H315H317C317 2.47715 312.523 -2 307 -2V0ZM8 0V-2C2.47715 -2 -2 2.47715 -2 8H0H2C2 4.68629 4.68629 2 8 2V0Z" fill="url(#paint0_linear_434_33830)" mask="url(#path-1-inside-1_434_33830)"/>
<defs>
<filter id="filter0_f_434_33830" x="-125" y="-125" width="300" height="300" filterUnits="userSpaceOnUse" color-interpolation-filters="sRGB">
<feFlood flood-opacity="0" result="BackgroundImageFix"/>
<feBlend mode="normal" in="SourceGraphic" in2="BackgroundImageFix" result="shape"/>
<feGaussianBlur stdDeviation="50" result="effect1_foregroundBlur_434_33830"/>
</filter>
<filter id="filter1_f_434_33830" x="140" y="185" width="300" height="300" filterUnits="userSpaceOnUse" color-interpolation-filters="sRGB">
<feFlood flood-opacity="0" result="BackgroundImageFix"/>
<feBlend mode="normal" in="SourceGraphic" in2="BackgroundImageFix" result="shape"/>
<feGaussianBlur stdDeviation="50" result="effect1_foregroundBlur_434_33830"/>
</filter>
<linearGradient id="paint0_linear_434_33830" x1="157.5" y1="0" x2="157.5" y2="360" gradientUnits="userSpaceOnUse">
<stop stop-color="#08537B"/>
<stop offset="1" stop-color="#1D776C"/>
</linearGradient>
<clipPath id="clip0_434_33830">
<path d="M0 8C0 3.58172 3.58172 0 8 0H307C311.418 0 315 3.58172 315 8V352C315 356.418 311.418 360 307 360H8C3.58172 360 0 356.418 0 352V8Z" fill="white"/>
</clipPath>
</defs>
</svg>
