<svg width="315" height="360" viewBox="0 0 315 360" fill="none" xmlns="http://www.w3.org/2000/svg">
<g clip-path="url(#clip0_434_33821)">
<mask id="path-1-inside-1_434_33821" fill="white">
<path d="M0 8C0 3.58172 3.58172 0 8 0H307C311.418 0 315 3.58172 315 8V352C315 356.418 311.418 360 307 360H8C3.58172 360 0 356.418 0 352V8Z"/>
</mask>
<path d="M0 8C0 3.58172 3.58172 0 8 0H307C311.418 0 315 3.58172 315 8V352C315 356.418 311.418 360 307 360H8C3.58172 360 0 356.418 0 352V8Z" fill="white" fill-opacity="0.01"/>
<g filter="url(#filter0_f_434_33821)">
<circle cx="25" cy="25" r="50" fill="#0160B6"/>
</g>
<g filter="url(#filter1_f_434_33821)">
<circle cx="290" cy="335" r="50" fill="#1D776C"/>
</g>
<g opacity="0.8">
<path d="M39.303 23.222C39.382 23.1766 39.483 23.2037 39.5286 23.2826C40.3358 24.6807 40.7435 26.2003 40.7874 27.7083C42.1153 26.9923 43.6349 26.5853 45.2493 26.5853C45.3404 26.5853 45.4141 26.6593 45.4143 26.7503C45.4143 28.3646 45.0082 29.8844 44.2923 31.2122C45.8002 31.2561 47.319 31.6648 48.7171 32.472C48.7961 32.5176 48.8232 32.6186 48.7776 32.6976C47.9704 34.0955 46.8584 35.2084 45.5745 36.0003C46.8586 36.7923 47.9704 37.9049 48.7776 39.3031C48.8232 39.3821 48.7961 39.483 48.7171 39.5287C47.3191 40.3357 45.8001 40.7436 44.2923 40.7874C45.0083 42.1153 45.4143 43.6349 45.4143 45.2494C45.4143 45.3406 45.3405 45.4144 45.2493 45.4144C43.6349 45.4144 42.1153 45.0083 40.7874 44.2923C40.7435 45.8002 40.3357 47.3191 39.5286 48.7171C39.483 48.7961 39.382 48.8233 39.303 48.7777C37.9049 47.9704 36.7923 46.8586 36.0003 45.5745C35.2084 46.8585 34.0955 47.9705 32.6976 48.7777C32.6186 48.8233 32.5166 48.7961 32.471 48.7171C31.664 47.3192 31.2561 45.8001 31.2122 44.2923C29.8844 45.0082 28.3646 45.4144 26.7503 45.4144C26.6593 45.4142 26.5853 45.3404 26.5852 45.2494C26.5852 43.6349 26.9923 42.1153 27.7083 40.7874C26.2003 40.7436 24.6807 40.3359 23.2825 39.5287C23.2036 39.4831 23.1765 39.382 23.222 39.3031C24.0292 37.905 25.1411 36.7923 26.4251 36.0003C25.1411 35.2084 24.0292 34.0956 23.222 32.6976C23.1764 32.6187 23.2037 32.5177 23.2825 32.472C24.6807 31.6648 26.2003 31.2561 27.7083 31.2122C26.9923 29.8844 26.5852 28.3647 26.5852 26.7503C26.5854 26.6594 26.6594 26.5855 26.7503 26.5853C28.3647 26.5853 29.8843 26.9923 31.2122 27.7083C31.2561 26.2003 31.6647 24.6807 32.472 23.2826C32.5177 23.2038 32.6187 23.1765 32.6976 23.222C34.0956 24.0292 35.2084 25.1411 36.0003 26.4251C36.7923 25.1411 37.9049 24.0292 39.303 23.222ZM34.6116 41.1829C33.8239 42.3752 32.7717 43.3783 31.5393 44.1078C31.5537 45.568 31.9205 47.0445 32.6751 48.4076C34.0102 47.6044 35.0663 46.5088 35.8089 45.2513C35.1065 44.0034 34.6977 42.6092 34.6116 41.1829ZM37.389 41.1829C37.3029 42.6093 36.8932 44.0034 36.1907 45.2513C36.9333 46.5089 37.9894 47.6044 39.3245 48.4076C40.0791 47.0445 40.4459 45.568 40.4602 44.1078C39.2279 43.3783 38.1767 42.3752 37.389 41.1829ZM32.2054 39.7943C30.9271 40.4328 29.5152 40.7758 28.0833 40.7913C27.3657 42.063 26.9454 43.5248 26.9173 45.0824C28.4751 45.0543 29.9374 44.6342 31.2093 43.9163C31.2249 42.4845 31.5668 41.0724 32.2054 39.7943ZM39.7942 39.7943C40.4328 41.0725 40.7757 42.4844 40.7913 43.9163C42.063 44.634 43.5247 45.0543 45.0823 45.0824C45.0542 43.5247 44.634 42.063 43.9163 40.7913C42.4844 40.7757 41.0724 40.4329 39.7942 39.7943ZM36.0003 37.765C35.803 38.8054 35.4344 39.7853 34.9251 40.6742C34.9345 42.1523 35.3048 43.6102 36.0003 44.9124C36.6957 43.6102 37.066 42.1524 37.0755 40.6742C36.5661 39.7853 36.1976 38.8055 36.0003 37.765ZM35.1175 37.5287C34.4264 38.331 33.6172 38.995 32.7317 39.5101C32.0008 40.795 31.5931 42.2426 31.5442 43.7181C32.7975 42.938 33.8468 41.8606 34.594 40.5853C34.5974 39.561 34.7682 38.5283 35.1175 37.5287ZM36.8821 37.5287C37.2314 38.5283 37.4022 39.5609 37.4056 40.5853C38.1528 41.8607 39.2029 42.938 40.4563 43.7181C40.4075 42.2426 39.9997 40.795 39.2688 39.5101C38.3832 38.995 37.5733 38.3311 36.8821 37.5287ZM26.7483 36.1908C25.4909 36.9333 24.3962 37.9895 23.5931 39.3245C24.9562 40.0791 26.4326 40.446 27.8929 40.4603C28.6223 39.2281 29.6247 38.1766 30.8167 37.389C29.3904 37.3029 27.9962 36.8932 26.7483 36.1908ZM45.2513 36.1908C44.0034 36.8932 42.6092 37.3029 41.1829 37.389C42.3751 38.1767 43.3782 39.228 44.1077 40.4603C45.5679 40.446 47.0445 40.0791 48.4075 39.3245C47.6043 37.9894 46.5088 36.9333 45.2513 36.1908ZM34.472 36.8822C33.4722 37.2315 32.4388 37.4023 31.4143 37.4056C30.1389 38.1529 29.0616 39.203 28.2815 40.4564C29.7569 40.4075 31.2047 39.9997 32.4895 39.2689C33.0046 38.3833 33.6695 37.5733 34.472 36.8822ZM37.5286 36.8822C38.3311 37.5733 38.995 38.3833 39.5101 39.2689C40.7949 39.9998 42.2426 40.4075 43.7181 40.4564C42.938 39.2031 41.8615 38.1529 40.5862 37.4056C39.5617 37.4023 38.5284 37.2315 37.5286 36.8822ZM35.8069 36.722C35.3169 37.7492 35.0359 38.8297 34.9515 39.9115C35.4193 38.9324 35.7177 37.8566 35.8069 36.722ZM36.1936 36.722C36.2829 37.8565 36.5804 38.9324 37.0481 39.9115C36.9637 38.8297 36.6836 37.7491 36.1936 36.722ZM35.472 36.5287C34.534 37.1732 33.751 37.969 33.137 38.8636C34.0316 38.2496 34.8275 37.4665 35.472 36.5287ZM36.5286 36.5287C37.1731 37.4665 37.9689 38.2496 38.8636 38.8636C38.2496 37.969 37.4665 37.1732 36.5286 36.5287ZM31.3255 34.9251C29.8474 34.9346 28.3903 35.305 27.0882 36.0003C28.3903 36.6956 29.8475 37.066 31.3255 37.0755C32.2143 36.5662 33.1943 36.1977 34.2347 36.0003C33.1943 35.803 32.2143 35.4345 31.3255 34.9251ZM40.6741 34.9251C39.7853 35.4344 38.8053 35.803 37.7649 36.0003C38.8054 36.1977 39.7853 36.5661 40.6741 37.0755C42.1523 37.0661 43.6102 36.6958 44.9124 36.0003C43.6101 35.3049 42.1523 34.9346 40.6741 34.9251ZM35.2786 36.1937C34.144 36.2829 33.0673 36.5803 32.0882 37.0482C33.17 36.9638 34.2514 36.6838 35.2786 36.1937ZM36.722 36.1937C37.7491 36.6837 38.8297 36.9638 39.9114 37.0482C38.9324 36.5804 37.8565 36.2829 36.722 36.1937ZM27.8929 31.5394C26.4326 31.5537 24.9561 31.9206 23.5931 32.6751C24.3962 34.0101 25.4909 35.0664 26.7483 35.8089C27.9962 35.1064 29.3904 34.6978 30.8167 34.6117C29.6245 33.8239 28.6224 32.7718 27.8929 31.5394ZM44.1077 31.5394C43.3782 32.7718 42.3751 33.8239 41.1829 34.6117C42.6091 34.6977 44.0034 35.1065 45.2513 35.8089C46.5088 35.0664 47.6043 34.0102 48.4075 32.6751C47.0445 31.9205 45.5679 31.5537 44.1077 31.5394ZM32.0882 34.9515C33.0671 35.4192 34.1433 35.7177 35.2776 35.807C34.2506 35.317 33.1699 35.0359 32.0882 34.9515ZM39.9114 34.9515C38.8296 35.0359 37.7491 35.317 36.722 35.807C37.8565 35.7178 38.9324 35.4193 39.9114 34.9515ZM33.137 33.137C33.751 34.0315 34.5342 34.8276 35.472 35.472C34.8276 34.5342 34.0315 33.751 33.137 33.137ZM38.8636 33.137C37.9689 33.751 37.1731 34.5341 36.5286 35.472C37.4665 34.8275 38.2496 34.0316 38.8636 33.137ZM34.9515 32.0882C35.0359 33.1701 35.3169 34.2515 35.8069 35.2787C35.7177 34.144 35.4193 33.0673 34.9515 32.0882ZM37.0481 32.0882C36.5804 33.0672 36.2829 34.1433 36.1936 35.2777C36.6835 34.2506 36.9637 33.1699 37.0481 32.0882ZM28.2815 31.5443C29.0616 32.7977 30.1389 33.8468 31.4143 34.5941C32.4388 34.5974 33.4722 34.7682 34.472 35.1175C33.6695 34.4264 33.0046 33.6174 32.4895 32.7318C31.2047 32.0009 29.757 31.5931 28.2815 31.5443ZM43.7181 31.5443C42.2426 31.5931 40.7949 32.0009 39.5101 32.7318C38.995 33.6172 38.3309 34.4264 37.5286 35.1175C38.5282 34.7682 39.5609 34.5974 40.5852 34.5941C41.8606 33.8468 42.938 32.7976 43.7181 31.5443ZM31.5442 28.2816C31.5931 29.7571 32.0008 31.2047 32.7317 32.4896C33.6173 33.0047 34.4263 33.6696 35.1175 34.472C34.7681 33.4722 34.5973 32.4389 34.594 31.4144C33.8468 30.139 32.7976 29.0616 31.5442 28.2816ZM40.4563 28.2816C39.2029 29.0617 38.1528 30.139 37.4056 31.4144C37.4023 32.4389 37.2315 33.4722 36.8821 34.472C37.5733 33.6696 38.3832 33.0047 39.2688 32.4896C39.9997 31.2048 40.4075 29.757 40.4563 28.2816ZM36.0003 27.0882C35.3049 28.3904 34.9346 29.8475 34.9251 31.3255C35.4344 32.2143 35.8029 33.1943 36.0003 34.2347C36.1977 33.1943 36.5662 32.2143 37.0755 31.3255C37.066 29.8475 36.6956 28.3903 36.0003 27.0882ZM26.9173 26.9173C26.9453 28.4752 27.3655 29.9375 28.0833 31.2093C29.5151 31.2249 30.9272 31.5669 32.2054 32.2054C31.5669 30.9272 31.2248 29.5152 31.2093 28.0833C29.9374 27.3655 28.4751 26.9454 26.9173 26.9173ZM45.0823 26.9173C43.5247 26.9454 42.063 27.3657 40.7913 28.0833C40.7757 29.5153 40.4328 30.9272 39.7942 32.2054C41.0724 31.5669 42.4844 31.2249 43.9163 31.2093C44.6341 29.9375 45.0543 28.4752 45.0823 26.9173ZM32.6751 23.5931C31.9206 24.9562 31.5536 26.4327 31.5393 27.8929C32.7717 28.6224 33.8239 29.6245 34.6116 30.8167C34.6977 29.3905 35.1064 27.9963 35.8089 26.7484C35.0664 25.491 34.0101 24.3962 32.6751 23.5931ZM39.3245 23.5931C37.9895 24.3963 36.9332 25.4909 36.1907 26.7484C36.8932 27.9963 37.3029 29.3905 37.389 30.8167C38.1766 29.6247 39.2281 28.6224 40.4602 27.8929C40.446 26.4326 40.0791 24.9562 39.3245 23.5931Z" fill="white"/>
</g>
<path d="M22.88 101H20.448L29.152 79.56H32.384L41.056 101H38.592L32 85L30.784 81.736H30.624L29.376 85L22.88 101ZM37.184 94.728H24.32V92.616H37.184V94.728ZM44.6325 101H42.3285V79.56H44.6325V101ZM61.6113 101.32C59.6486 101.32 58.0379 101.011 56.7793 100.392C55.5206 99.752 54.5819 98.92 53.9633 97.896C53.3659 96.8507 53.0673 95.72 53.0673 94.504V94.024H55.3393V94.344C55.3393 95.3467 55.5313 96.2107 55.9153 96.936C56.3206 97.64 56.9819 98.1947 57.8993 98.6C58.8166 98.984 60.0753 99.176 61.6753 99.176C63.4673 99.176 64.7793 98.8773 65.6113 98.28C66.4646 97.6827 66.8913 96.776 66.8913 95.56C66.8913 94.7493 66.7526 94.0987 66.4753 93.608C66.2193 93.096 65.7713 92.68 65.1313 92.36C64.5126 92.04 63.6593 91.7627 62.5713 91.528L58.8593 90.728C57.7286 90.4933 56.7366 90.152 55.8833 89.704C55.0513 89.2347 54.3899 88.6267 53.8993 87.88C53.4299 87.112 53.1953 86.1627 53.1953 85.032C53.1953 83.9867 53.4833 83.0267 54.0593 82.152C54.6353 81.256 55.4886 80.552 56.6193 80.04C57.7713 79.5067 59.1793 79.24 60.8433 79.24C62.6993 79.24 64.2139 79.5707 65.3873 80.232C66.5819 80.872 67.4566 81.7253 68.0113 82.792C68.5659 83.8373 68.8433 84.9467 68.8433 86.12V86.536H66.5713V86.184C66.5713 85.1813 66.3793 84.328 65.9953 83.624C65.6326 82.8987 65.0246 82.344 64.1713 81.96C63.3393 81.5547 62.2193 81.352 60.8113 81.352C59.0406 81.352 57.7179 81.6507 56.8433 82.248C55.9686 82.824 55.5312 83.6987 55.5312 84.872C55.5312 85.6827 55.6699 86.3333 55.9473 86.824C56.2246 87.2933 56.6833 87.6773 57.3233 87.976C57.9633 88.2533 58.7953 88.5093 59.8193 88.744L63.5313 89.608C64.7259 89.864 65.7393 90.2373 66.5713 90.728C67.4033 91.1973 68.0433 91.816 68.4913 92.584C68.9606 93.352 69.1953 94.3013 69.1953 95.432C69.1953 96.4987 68.9179 97.4907 68.3633 98.408C67.8086 99.304 66.9659 100.019 65.8353 100.552C64.7046 101.064 63.2966 101.32 61.6113 101.32ZM77.1815 101.032C75.7095 101.032 74.5682 100.701 73.7575 100.04C72.9468 99.3573 72.5415 98.184 72.5415 96.52V85.448L73.1495 81.16H74.8455V96.648C74.8455 97.5867 75.0802 98.1947 75.5495 98.472C76.0188 98.7493 76.7655 98.888 77.7895 98.888H79.8375V100.776C79.5815 100.819 79.2082 100.872 78.7175 100.936C78.2482 101 77.7362 101.032 77.1815 101.032ZM79.8375 87.176H69.8855V85.192H79.8375V87.176ZM83.971 101H81.667V85H83.747V89.352L83.971 89.512V101ZM83.971 90.536H83.203V87.624H83.907C84.1843 86.8987 84.6857 86.2587 85.411 85.704C86.1577 85.1493 87.1177 84.872 88.291 84.872C89.379 84.872 90.2537 85.1067 90.915 85.576C91.5763 86.024 92.0563 86.632 92.355 87.4C92.6537 88.168 92.803 89.0107 92.803 89.928V90.792H90.499V90.28C90.499 89.0427 90.275 88.168 89.827 87.656C89.379 87.1227 88.5897 86.856 87.459 86.856C86.243 86.856 85.3577 87.144 84.803 87.72C84.2483 88.296 83.971 89.2347 83.971 90.536ZM106.773 101H104.693V97.544L104.597 96.776V90.824C104.597 89.4373 104.277 88.4453 103.637 87.848C103.018 87.2293 101.962 86.92 100.469 86.92C99.0181 86.92 97.9514 87.208 97.2688 87.784C96.5861 88.36 96.2448 89.288 96.2448 90.568V91.048H94.0048V90.792C94.0048 89.6827 94.2714 88.68 94.8048 87.784C95.3381 86.888 96.0954 86.184 97.0768 85.672C98.0794 85.1387 99.2634 84.872 100.629 84.872C102.037 84.872 103.189 85.1493 104.085 85.704C105.002 86.2587 105.674 87.0053 106.101 87.944C106.549 88.8613 106.773 89.9173 106.773 91.112V101ZM98.5808 101.32C97.1514 101.32 95.9461 100.968 94.9648 100.264C94.0048 99.5387 93.5247 98.5147 93.5247 97.192C93.5247 96.2533 93.7381 95.496 94.1648 94.92C94.6128 94.3227 95.2528 93.8427 96.0848 93.48C96.9168 93.1173 97.8981 92.872 99.0288 92.744L104.917 91.944V93.672L99.2208 94.472C97.9621 94.6213 97.0661 94.8773 96.5328 95.24C96.0208 95.5813 95.7648 96.1787 95.7648 97.032C95.7648 97.8427 96.0314 98.44 96.5648 98.824C97.1194 99.208 98.0048 99.4 99.2208 99.4C100.138 99.4 101.002 99.2293 101.813 98.888C102.645 98.5467 103.317 98.0027 103.829 97.256C104.341 96.5093 104.597 95.5067 104.597 94.248L105.045 98.152L104.533 98.056C104.234 98.6533 103.807 99.1973 103.253 99.688C102.698 100.179 102.026 100.573 101.237 100.872C100.469 101.171 99.5834 101.32 98.5808 101.32ZM115.494 101.032C114.022 101.032 112.881 100.701 112.07 100.04C111.259 99.3573 110.854 98.184 110.854 96.52V85.448L111.462 81.16H113.158V96.648C113.158 97.5867 113.393 98.1947 113.862 98.472C114.331 98.7493 115.078 98.888 116.102 98.888H118.15V100.776C117.894 100.819 117.521 100.872 117.03 100.936C116.561 101 116.049 101.032 115.494 101.032ZM118.15 87.176H108.198V85.192H118.15V87.176ZM126.045 101.32C124.423 101.32 123.058 100.968 121.949 100.264C120.861 99.5387 120.029 98.5573 119.453 97.32C118.898 96.0827 118.621 94.6747 118.621 93.096C118.621 91.496 118.919 90.0773 119.517 88.84C120.135 87.6027 120.989 86.632 122.077 85.928C123.186 85.224 124.487 84.872 125.981 84.872C127.261 84.872 128.423 85.128 129.469 85.64C130.535 86.152 131.378 86.92 131.997 87.944C132.615 88.968 132.925 90.2587 132.925 91.816C132.925 92.2 132.903 92.5627 132.861 92.904C132.839 93.2453 132.807 93.5227 132.765 93.736H119.837V92.04H131.101L130.717 92.456C130.823 91.0907 130.695 90.0027 130.333 89.192C129.97 88.3813 129.415 87.784 128.669 87.4C127.922 87.016 127.015 86.824 125.949 86.824C124.071 86.824 122.738 87.3573 121.949 88.424C121.181 89.4693 120.797 90.888 120.797 92.68V93.288C120.797 94.5467 120.957 95.624 121.277 96.52C121.618 97.3947 122.173 98.0773 122.941 98.568C123.709 99.0373 124.754 99.272 126.077 99.272C127.655 99.272 128.786 98.952 129.469 98.312C130.173 97.6507 130.525 96.8507 130.525 95.912V95.72H132.797V95.944C132.797 96.968 132.509 97.8853 131.933 98.696C131.378 99.5067 130.589 100.147 129.565 100.616C128.562 101.085 127.389 101.32 126.045 101.32ZM142.646 106.76C141.302 106.76 140.107 106.525 139.062 106.056C138.038 105.608 137.227 104.957 136.63 104.104C136.054 103.251 135.766 102.205 135.766 100.968H138.07C138.07 101.843 138.219 102.557 138.518 103.112C138.817 103.667 139.307 104.072 139.99 104.328C140.673 104.584 141.569 104.712 142.678 104.712C143.83 104.712 144.737 104.563 145.398 104.264C146.059 103.965 146.529 103.496 146.806 102.856C147.105 102.216 147.254 101.373 147.254 100.328V89.704L147.51 89.288V85.192H149.558V100.328C149.558 101.757 149.27 102.941 148.694 103.88C148.118 104.84 147.307 105.555 146.262 106.024C145.238 106.515 144.033 106.76 142.646 106.76ZM141.75 99.592C139.574 99.592 137.889 98.9307 136.694 97.608C135.499 96.264 134.902 94.472 134.902 92.232C134.902 89.992 135.499 88.2107 136.694 86.888C137.889 85.544 139.585 84.872 141.782 84.872C143.169 84.872 144.363 85.192 145.366 85.832C146.369 86.4507 147.041 87.2613 147.382 88.264H147.99L147.862 91.72H147.254C147.254 90.6533 147.03 89.7573 146.582 89.032C146.155 88.3067 145.558 87.7627 144.79 87.4C144.022 87.0373 143.147 86.856 142.166 86.856C141.163 86.856 140.289 87.016 139.542 87.336C138.817 87.6347 138.241 88.1787 137.814 88.968C137.409 89.7573 137.206 90.8453 137.206 92.232C137.206 93.2773 137.323 94.152 137.558 94.856C137.814 95.5387 138.166 96.0827 138.614 96.488C139.062 96.872 139.595 97.16 140.214 97.352C140.854 97.5227 141.547 97.608 142.294 97.608C143.233 97.608 144.075 97.4267 144.822 97.064C145.59 96.7013 146.187 96.1573 146.614 95.432C147.041 94.7067 147.254 93.8 147.254 92.712H147.926V96.296H147.222C146.859 97.2133 146.198 97.992 145.238 98.632C144.299 99.272 143.137 99.592 141.75 99.592ZM154.438 106.44C154.054 106.44 153.67 106.408 153.286 106.344C152.902 106.301 152.603 106.259 152.39 106.216V104.36H154.214C154.918 104.36 155.43 104.253 155.75 104.04C156.091 103.848 156.4 103.443 156.678 102.824L157.926 100.008L157.67 101L150.822 85.192H153.286L156.998 93.992L158.661 97.864H158.885L160.422 93.992L163.91 85.192H166.406L158.694 103.528C158.352 104.317 157.958 104.925 157.51 105.352C157.083 105.779 156.614 106.067 156.102 106.216C155.59 106.365 155.035 106.44 154.438 106.44ZM30.4 131.64H23.008V129.592H30.752C32.5013 129.592 33.792 129.208 34.624 128.44C35.456 127.651 35.872 126.371 35.872 124.6C35.872 122.851 35.456 121.592 34.624 120.824C33.792 120.035 32.5013 119.64 30.752 119.64H23.008V117.56H30.4C31.8933 117.56 33.2267 117.837 34.4 118.392C35.5733 118.947 36.4907 119.747 37.152 120.792C37.8347 121.837 38.176 123.107 38.176 124.6C38.176 126.093 37.8347 127.373 37.152 128.44C36.4907 129.485 35.5733 130.285 34.4 130.84C33.2267 131.373 31.8933 131.64 30.4 131.64ZM24.32 139H22.016V117.56H24.32V139ZM52.0228 139H49.9428V135.544L49.8468 134.776V128.824C49.8468 127.437 49.5268 126.445 48.8868 125.848C48.2681 125.229 47.2121 124.92 45.7188 124.92C44.2681 124.92 43.2014 125.208 42.5188 125.784C41.8361 126.36 41.4948 127.288 41.4948 128.568V129.048H39.2548V128.792C39.2548 127.683 39.5214 126.68 40.0548 125.784C40.5881 124.888 41.3454 124.184 42.3268 123.672C43.3294 123.139 44.5134 122.872 45.8788 122.872C47.2868 122.872 48.4388 123.149 49.3348 123.704C50.2521 124.259 50.9241 125.005 51.3508 125.944C51.7988 126.861 52.0228 127.917 52.0228 129.112V139ZM43.8308 139.32C42.4014 139.32 41.1961 138.968 40.2148 138.264C39.2548 137.539 38.7747 136.515 38.7747 135.192C38.7747 134.253 38.9881 133.496 39.4148 132.92C39.8628 132.323 40.5028 131.843 41.3348 131.48C42.1668 131.117 43.1481 130.872 44.2788 130.744L50.1668 129.944V131.672L44.4708 132.472C43.2121 132.621 42.3161 132.877 41.7828 133.24C41.2708 133.581 41.0148 134.179 41.0148 135.032C41.0148 135.843 41.2814 136.44 41.8148 136.824C42.3694 137.208 43.2548 137.4 44.4708 137.4C45.3881 137.4 46.2521 137.229 47.0628 136.888C47.8948 136.547 48.5668 136.003 49.0788 135.256C49.5908 134.509 49.8468 133.507 49.8468 132.248L50.2948 136.152L49.7828 136.056C49.4841 136.653 49.0574 137.197 48.5028 137.688C47.9481 138.179 47.2761 138.573 46.4868 138.872C45.7188 139.171 44.8334 139.32 43.8308 139.32ZM57.346 139H55.042V123H57.122V127.352L57.346 127.512V139ZM57.346 128.536H56.578V125.624H57.282C57.5593 124.899 58.0607 124.259 58.786 123.704C59.5327 123.149 60.4927 122.872 61.666 122.872C62.754 122.872 63.6287 123.107 64.29 123.576C64.9513 124.024 65.4313 124.632 65.73 125.4C66.0287 126.168 66.178 127.011 66.178 127.928V128.792H63.874V128.28C63.874 127.043 63.65 126.168 63.202 125.656C62.754 125.123 61.9647 124.856 60.834 124.856C59.618 124.856 58.7327 125.144 58.178 125.72C57.6233 126.296 57.346 127.235 57.346 128.536ZM74.2128 139.032C72.7408 139.032 71.5994 138.701 70.7888 138.04C69.9781 137.357 69.5728 136.184 69.5728 134.52V123.448L70.1808 119.16H71.8768V134.648C71.8768 135.587 72.1114 136.195 72.5808 136.472C73.0501 136.749 73.7968 136.888 74.8208 136.888H76.8688V138.776C76.6128 138.819 76.2394 138.872 75.7488 138.936C75.2794 139 74.7674 139.032 74.2128 139.032ZM76.8688 125.176H66.9168V123.192H76.8688V125.176ZM92.4903 139H90.1863V129.784C90.1863 128.099 89.8663 126.861 89.2263 126.072C88.5863 125.283 87.4556 124.888 85.8343 124.888C84.8103 124.888 83.9356 125.059 83.2103 125.4C82.4849 125.741 81.9303 126.275 81.5463 127C81.1836 127.725 81.0023 128.685 81.0023 129.88L80.3943 129.912L80.3303 126.456H80.9062C81.0983 125.901 81.4289 125.357 81.8983 124.824C82.3676 124.269 82.9863 123.811 83.7543 123.448C84.5223 123.064 85.4503 122.872 86.5383 122.872C87.9036 122.872 89.0129 123.139 89.8663 123.672C90.7409 124.205 91.3916 124.963 91.8183 125.944C92.2663 126.904 92.4903 128.024 92.4903 129.304V139ZM81.0023 139H78.6983V123.192H80.7783V128.216L81.0023 128.376V139ZM102.17 139.32C100.548 139.32 99.1831 138.968 98.0738 138.264C96.9858 137.539 96.1538 136.557 95.5778 135.32C95.0231 134.083 94.7458 132.675 94.7458 131.096C94.7458 129.496 95.0444 128.077 95.6418 126.84C96.2604 125.603 97.1138 124.632 98.2018 123.928C99.3111 123.224 100.612 122.872 102.106 122.872C103.386 122.872 104.548 123.128 105.594 123.64C106.66 124.152 107.503 124.92 108.122 125.944C108.74 126.968 109.05 128.259 109.05 129.816C109.05 130.2 109.028 130.563 108.986 130.904C108.964 131.245 108.932 131.523 108.89 131.736H95.9618V130.04H107.226L106.842 130.456C106.948 129.091 106.82 128.003 106.458 127.192C106.095 126.381 105.54 125.784 104.794 125.4C104.047 125.016 103.14 124.824 102.074 124.824C100.196 124.824 98.8631 125.357 98.0738 126.424C97.3058 127.469 96.9218 128.888 96.9218 130.68V131.288C96.9218 132.547 97.0818 133.624 97.4018 134.52C97.7431 135.395 98.2978 136.077 99.0658 136.568C99.8338 137.037 100.879 137.272 102.202 137.272C103.78 137.272 104.911 136.952 105.594 136.312C106.298 135.651 106.65 134.851 106.65 133.912V133.72H108.922V133.944C108.922 134.968 108.634 135.885 108.058 136.696C107.503 137.507 106.714 138.147 105.69 138.616C104.687 139.085 103.514 139.32 102.17 139.32ZM113.815 139H111.511V123H113.591V127.352L113.815 127.512V139ZM113.815 128.536H113.047V125.624H113.751C114.028 124.899 114.529 124.259 115.255 123.704C116.001 123.149 116.961 122.872 118.135 122.872C119.223 122.872 120.097 123.107 120.759 123.576C121.42 124.024 121.9 124.632 122.199 125.4C122.497 126.168 122.647 127.011 122.647 127.928V128.792H120.343V128.28C120.343 127.043 120.119 126.168 119.671 125.656C119.223 125.123 118.433 124.856 117.303 124.856C116.087 124.856 115.201 125.144 114.647 125.72C114.092 126.296 113.815 127.235 113.815 128.536Z" fill="white"/>
<path d="M20.0312 172.359H21.6406L24.875 177.797H25.0156L28.2344 172.359H29.8594L25.6406 179.203V184H24.2344V179.203L20.0312 172.359ZM32.5469 184.188C31.7604 184.188 31.0703 184 30.4766 183.625C29.8828 183.25 29.4193 182.724 29.0859 182.047C28.7578 181.37 28.5938 180.583 28.5938 179.688C28.5938 178.776 28.7578 177.982 29.0859 177.305C29.4193 176.622 29.8828 176.094 30.4766 175.719C31.0703 175.344 31.7604 175.156 32.5469 175.156C33.3385 175.156 34.0312 175.344 34.625 175.719C35.2188 176.094 35.6823 176.622 36.0156 177.305C36.349 177.982 36.5156 178.776 36.5156 179.688C36.5156 180.583 36.349 181.37 36.0156 182.047C35.6823 182.724 35.2188 183.25 34.625 183.625C34.0312 184 33.3385 184.188 32.5469 184.188ZM32.5469 182.984C33.151 182.984 33.6458 182.831 34.0312 182.523C34.4167 182.216 34.7031 181.812 34.8906 181.312C35.0781 180.807 35.1719 180.266 35.1719 179.688C35.1719 179.099 35.0781 178.552 34.8906 178.047C34.7031 177.542 34.4167 177.135 34.0312 176.828C33.6458 176.516 33.151 176.359 32.5469 176.359C31.9531 176.359 31.4635 176.516 31.0781 176.828C30.6927 177.135 30.4062 177.542 30.2188 178.047C30.0312 178.552 29.9375 179.099 29.9375 179.688C29.9375 180.266 30.0312 180.807 30.2188 181.312C30.4062 181.812 30.6927 182.216 31.0781 182.523C31.4635 182.831 31.9531 182.984 32.5469 182.984ZM42.8125 180.438V175.266H44.1406V184H42.8125V182.516H42.7188C42.5104 182.958 42.1901 183.336 41.7578 183.648C41.3307 183.961 40.7865 184.115 40.125 184.109C39.5781 184.109 39.0938 183.992 38.6719 183.758C38.25 183.518 37.9167 183.154 37.6719 182.664C37.4323 182.174 37.3125 181.557 37.3125 180.812V175.266H38.6406V180.734C38.6406 181.365 38.8203 181.87 39.1797 182.25C39.5443 182.63 40.0052 182.818 40.5625 182.812C40.8958 182.812 41.2344 182.729 41.5781 182.562C41.9271 182.391 42.2188 182.13 42.4531 181.781C42.6927 181.427 42.8125 180.979 42.8125 180.438ZM45.3594 184V175.266H46.6406V176.594H46.7344C46.8958 176.161 47.1849 175.812 47.6016 175.547C48.0234 175.276 48.4948 175.141 49.0156 175.141C49.1146 175.141 49.237 175.143 49.3828 175.148C49.5286 175.148 49.6406 175.151 49.7188 175.156V176.516C49.6719 176.505 49.5677 176.49 49.4062 176.469C49.2448 176.448 49.0729 176.438 48.8906 176.438C48.4688 176.438 48.0911 176.526 47.7578 176.703C47.4245 176.88 47.1615 177.122 46.9688 177.43C46.7812 177.737 46.6875 178.089 46.6875 178.484V184H45.3594ZM52.8438 173.609V172.359H61.5781V173.609H57.9219V184H56.5156V173.609H52.8438ZM61.4219 184V175.266H62.7031V176.594H62.7969C62.9583 176.161 63.2474 175.812 63.6641 175.547C64.0859 175.276 64.5573 175.141 65.0781 175.141C65.1771 175.141 65.2995 175.143 65.4453 175.148C65.5911 175.148 65.7031 175.151 65.7812 175.156V176.516C65.7344 176.505 65.6302 176.49 65.4688 176.469C65.3073 176.448 65.1354 176.438 64.9531 176.438C64.5312 176.438 64.1536 176.526 63.8203 176.703C63.487 176.88 63.224 177.122 63.0312 177.43C62.8438 177.737 62.75 178.089 62.75 178.484V184H61.4219ZM71.625 180.438V175.266H72.9531V184H71.625V182.516H71.5312C71.3229 182.958 71.0026 183.336 70.5703 183.648C70.1432 183.961 69.599 184.115 68.9375 184.109C68.3906 184.109 67.9062 183.992 67.4844 183.758C67.0625 183.518 66.7292 183.154 66.4844 182.664C66.2448 182.174 66.125 181.557 66.125 180.812V175.266H67.4531V180.734C67.4531 181.365 67.6328 181.87 67.9922 182.25C68.3568 182.63 68.8177 182.818 69.375 182.812C69.7083 182.812 70.0469 182.729 70.3906 182.562C70.7396 182.391 71.0312 182.13 71.2656 181.781C71.5052 181.427 71.625 180.979 71.625 180.438ZM80.3438 177.234L79.1406 177.562C79.026 177.266 78.8281 176.984 78.5469 176.719C78.2708 176.448 77.8385 176.312 77.25 176.312C76.7188 176.312 76.276 176.438 75.9219 176.688C75.5677 176.932 75.3906 177.24 75.3906 177.609C75.3906 177.943 75.5104 178.208 75.75 178.406C75.9948 178.604 76.375 178.766 76.8906 178.891L78.1875 179.203C78.9635 179.391 79.5417 179.68 79.9219 180.07C80.3073 180.461 80.5 180.958 80.5 181.562C80.5 182.062 80.3568 182.51 80.0703 182.906C79.7839 183.302 79.3854 183.615 78.875 183.844C78.3646 184.073 77.7708 184.188 77.0938 184.188C76.2031 184.188 75.4661 183.992 74.8828 183.602C74.3047 183.211 73.9375 182.646 73.7812 181.906L75.0469 181.594C75.1667 182.062 75.3958 182.414 75.7344 182.648C76.0781 182.883 76.526 183 77.0781 183C77.6979 183 78.1927 182.867 78.5625 182.602C78.9375 182.331 79.125 182.01 79.125 181.641C79.125 181.026 78.6927 180.615 77.8281 180.406L76.375 180.062C75.5729 179.87 74.9844 179.576 74.6094 179.18C74.2344 178.784 74.0469 178.286 74.0469 177.688C74.0469 177.193 74.1849 176.755 74.4609 176.375C74.7422 175.995 75.125 175.698 75.6094 175.484C76.0938 175.266 76.6406 175.156 77.25 175.156C78.1198 175.156 78.7995 175.349 79.2891 175.734C79.7839 176.115 80.1354 176.615 80.3438 177.234ZM85.0625 175.266V176.406H80.5469V175.266H85.0625ZM81.8594 173.188H83.1875V181.5C83.1875 181.953 83.2812 182.286 83.4688 182.5C83.6562 182.708 83.9531 182.812 84.3594 182.812C84.4479 182.812 84.5391 182.807 84.6328 182.797C84.7318 182.786 84.8385 182.771 84.9531 182.75L85.2344 183.953C85.1094 184 84.9557 184.036 84.7734 184.062C84.5964 184.094 84.4167 184.109 84.2344 184.109C83.5312 184.109 82.9583 183.901 82.5156 183.484C82.0781 183.068 81.8594 182.526 81.8594 181.859V173.188ZM89.4062 184.188C88.5677 184.188 87.8411 184 87.2266 183.625C86.6172 183.25 86.1484 182.727 85.8203 182.055C85.4922 181.378 85.3281 180.594 85.3281 179.703C85.3281 178.807 85.4896 178.018 85.8125 177.336C86.1354 176.654 86.5885 176.12 87.1719 175.734C87.7604 175.349 88.4479 175.156 89.2344 175.156C89.6875 175.156 90.138 175.232 90.5859 175.383C91.0339 175.534 91.4401 175.779 91.8047 176.117C92.1745 176.456 92.4688 176.904 92.6875 177.461C92.9062 178.018 93.0156 178.703 93.0156 179.516V180.094H86.2812V178.938H92.2891L91.6719 179.375C91.6719 178.792 91.5807 178.273 91.3984 177.82C91.2161 177.367 90.9427 177.01 90.5781 176.75C90.2188 176.49 89.7708 176.359 89.2344 176.359C88.6979 176.359 88.237 176.492 87.8516 176.758C87.4714 177.018 87.1797 177.359 86.9766 177.781C86.7734 178.203 86.6719 178.656 86.6719 179.141V179.906C86.6719 180.568 86.7865 181.128 87.0156 181.586C87.2448 182.044 87.5651 182.393 87.9766 182.633C88.388 182.867 88.8646 182.984 89.4062 182.984C89.7552 182.984 90.0729 182.935 90.3594 182.836C90.6458 182.732 90.8932 182.578 91.1016 182.375C91.3099 182.167 91.4688 181.911 91.5781 181.609L92.875 181.984C92.7396 182.422 92.5104 182.807 92.1875 183.141C91.8698 183.469 91.474 183.727 91 183.914C90.526 184.096 89.9948 184.188 89.4062 184.188ZM97.0625 184.188C96.3333 184.188 95.6901 184.003 95.1328 183.633C94.5755 183.263 94.1406 182.74 93.8281 182.062C93.5156 181.38 93.3594 180.578 93.3594 179.656C93.3594 178.74 93.5156 177.945 93.8281 177.273C94.1458 176.596 94.5833 176.076 95.1406 175.711C95.6979 175.341 96.3438 175.156 97.0781 175.156C97.651 175.156 98.1016 175.25 98.4297 175.438C98.763 175.625 99.0182 175.839 99.1953 176.078C99.3724 176.312 99.5104 176.505 99.6094 176.656H99.7188V172.359H101.047V184H99.7656V182.656H99.6094C99.5104 182.812 99.3698 183.013 99.1875 183.258C99.0052 183.497 98.7448 183.714 98.4062 183.906C98.0729 184.094 97.625 184.188 97.0625 184.188ZM97.2344 182.984C97.776 182.984 98.2318 182.844 98.6016 182.562C98.9714 182.276 99.2526 181.883 99.4453 181.383C99.638 180.878 99.7344 180.297 99.7344 179.641C99.7344 178.984 99.6406 178.411 99.4531 177.922C99.2656 177.427 98.9844 177.044 98.6094 176.773C98.2396 176.497 97.7812 176.359 97.2344 176.359C96.6719 176.359 96.2031 176.505 95.8281 176.797C95.4531 177.089 95.1719 177.482 94.9844 177.977C94.7969 178.471 94.7031 179.026 94.7031 179.641C94.7031 180.26 94.7969 180.823 94.9844 181.328C95.1771 181.833 95.4609 182.237 95.8359 182.539C96.2109 182.836 96.6771 182.984 97.2344 182.984ZM105.688 184V172.359H109.625C110.536 172.359 111.281 172.523 111.859 172.852C112.443 173.18 112.875 173.622 113.156 174.18C113.438 174.737 113.578 175.359 113.578 176.047C113.578 176.729 113.438 177.352 113.156 177.914C112.88 178.477 112.451 178.924 111.867 179.258C111.289 179.586 110.547 179.75 109.641 179.75H106.828V178.5H109.594C110.219 178.5 110.721 178.393 111.102 178.18C111.482 177.966 111.758 177.674 111.93 177.305C112.102 176.93 112.188 176.51 112.188 176.047C112.188 175.578 112.102 175.161 111.93 174.797C111.758 174.427 111.479 174.138 111.094 173.93C110.714 173.716 110.208 173.609 109.578 173.609H107.094V184H105.688ZM116.984 184.203C116.432 184.203 115.93 184.099 115.477 183.891C115.023 183.677 114.664 183.37 114.398 182.969C114.133 182.568 114 182.083 114 181.516C114 181.016 114.099 180.612 114.297 180.305C114.495 179.992 114.758 179.747 115.086 179.57C115.419 179.388 115.784 179.253 116.18 179.164C116.581 179.076 116.984 179.005 117.391 178.953C117.922 178.885 118.352 178.833 118.68 178.797C119.013 178.76 119.255 178.698 119.406 178.609C119.562 178.521 119.641 178.37 119.641 178.156V178.109C119.641 177.552 119.487 177.12 119.18 176.812C118.878 176.5 118.417 176.344 117.797 176.344C117.161 176.344 116.661 176.484 116.297 176.766C115.932 177.042 115.677 177.339 115.531 177.656L114.25 177.203C114.479 176.672 114.784 176.258 115.164 175.961C115.549 175.664 115.966 175.456 116.414 175.336C116.867 175.216 117.312 175.156 117.75 175.156C118.031 175.156 118.354 175.19 118.719 175.258C119.083 175.32 119.438 175.456 119.781 175.664C120.13 175.867 120.417 176.177 120.641 176.594C120.87 177.005 120.984 177.557 120.984 178.25V184H119.641V182.812H119.578C119.49 183 119.339 183.203 119.125 183.422C118.911 183.635 118.628 183.82 118.273 183.977C117.924 184.128 117.495 184.203 116.984 184.203ZM117.188 183C117.719 183 118.167 182.896 118.531 182.688C118.896 182.479 119.172 182.211 119.359 181.883C119.547 181.549 119.641 181.203 119.641 180.844V179.609C119.583 179.677 119.458 179.74 119.266 179.797C119.078 179.849 118.859 179.896 118.609 179.938C118.365 179.979 118.125 180.016 117.891 180.047C117.656 180.073 117.469 180.094 117.328 180.109C116.979 180.156 116.654 180.232 116.352 180.336C116.049 180.435 115.805 180.583 115.617 180.781C115.435 180.979 115.344 181.25 115.344 181.594C115.344 182.057 115.516 182.409 115.859 182.648C116.208 182.883 116.651 183 117.188 183ZM122.203 184V175.266H123.484V176.594H123.578C123.74 176.161 124.029 175.812 124.445 175.547C124.867 175.276 125.339 175.141 125.859 175.141C125.958 175.141 126.081 175.143 126.227 175.148C126.372 175.148 126.484 175.151 126.562 175.156V176.516C126.516 176.505 126.411 176.49 126.25 176.469C126.089 176.448 125.917 176.438 125.734 176.438C125.312 176.438 124.935 176.526 124.602 176.703C124.268 176.88 124.005 177.122 123.812 177.43C123.625 177.737 123.531 178.089 123.531 178.484V184H122.203ZM131.234 175.266V176.406H126.719V175.266H131.234ZM128.031 173.188H129.359V181.5C129.359 181.953 129.453 182.286 129.641 182.5C129.828 182.708 130.125 182.812 130.531 182.812C130.62 182.812 130.711 182.807 130.805 182.797C130.904 182.786 131.01 182.771 131.125 182.75L131.406 183.953C131.281 184 131.128 184.036 130.945 184.062C130.768 184.094 130.589 184.109 130.406 184.109C129.703 184.109 129.13 183.901 128.688 183.484C128.25 183.068 128.031 182.526 128.031 181.859V173.188ZM133.344 178.75V184H132.016V175.266H133.297V176.641H133.422C133.625 176.193 133.935 175.833 134.352 175.562C134.768 175.292 135.307 175.156 135.969 175.156C136.557 175.156 137.073 175.276 137.516 175.516C137.958 175.755 138.302 176.12 138.547 176.609C138.797 177.094 138.922 177.708 138.922 178.453V184H137.594V178.547C137.594 177.865 137.414 177.331 137.055 176.945C136.695 176.555 136.206 176.359 135.586 176.359C135.159 176.359 134.776 176.453 134.438 176.641C134.099 176.828 133.831 177.099 133.633 177.453C133.44 177.807 133.344 178.24 133.344 178.75ZM143.797 184.188C142.958 184.188 142.232 184 141.617 183.625C141.008 183.25 140.539 182.727 140.211 182.055C139.883 181.378 139.719 180.594 139.719 179.703C139.719 178.807 139.88 178.018 140.203 177.336C140.526 176.654 140.979 176.12 141.562 175.734C142.151 175.349 142.839 175.156 143.625 175.156C144.078 175.156 144.529 175.232 144.977 175.383C145.424 175.534 145.831 175.779 146.195 176.117C146.565 176.456 146.859 176.904 147.078 177.461C147.297 178.018 147.406 178.703 147.406 179.516V180.094H140.672V178.938H146.68L146.062 179.375C146.062 178.792 145.971 178.273 145.789 177.82C145.607 177.367 145.333 177.01 144.969 176.75C144.609 176.49 144.161 176.359 143.625 176.359C143.089 176.359 142.628 176.492 142.242 176.758C141.862 177.018 141.57 177.359 141.367 177.781C141.164 178.203 141.062 178.656 141.062 179.141V179.906C141.062 180.568 141.177 181.128 141.406 181.586C141.635 182.044 141.956 182.393 142.367 182.633C142.779 182.867 143.255 182.984 143.797 182.984C144.146 182.984 144.464 182.935 144.75 182.836C145.036 182.732 145.284 182.578 145.492 182.375C145.701 182.167 145.859 181.911 145.969 181.609L147.266 181.984C147.13 182.422 146.901 182.807 146.578 183.141C146.26 183.469 145.865 183.727 145.391 183.914C144.917 184.096 144.385 184.188 143.797 184.188ZM148.172 184V175.266H149.453V176.594H149.547C149.708 176.161 149.997 175.812 150.414 175.547C150.836 175.276 151.307 175.141 151.828 175.141C151.927 175.141 152.049 175.143 152.195 175.148C152.341 175.148 152.453 175.151 152.531 175.156V176.516C152.484 176.505 152.38 176.49 152.219 176.469C152.057 176.448 151.885 176.438 151.703 176.438C151.281 176.438 150.904 176.526 150.57 176.703C150.237 176.88 149.974 177.122 149.781 177.43C149.594 177.737 149.5 178.089 149.5 178.484V184H148.172ZM159.906 175.266V176.406H155.391V175.266H159.906ZM156.703 173.188H158.031V181.5C158.031 181.953 158.125 182.286 158.312 182.5C158.5 182.708 158.797 182.812 159.203 182.812C159.292 182.812 159.383 182.807 159.477 182.797C159.576 182.786 159.682 182.771 159.797 182.75L160.078 183.953C159.953 184 159.799 184.036 159.617 184.062C159.44 184.094 159.26 184.109 159.078 184.109C158.375 184.109 157.802 183.901 157.359 183.484C156.922 183.068 156.703 182.526 156.703 181.859V173.188ZM164.125 184.188C163.339 184.188 162.648 184 162.055 183.625C161.461 183.25 160.997 182.724 160.664 182.047C160.336 181.37 160.172 180.583 160.172 179.688C160.172 178.776 160.336 177.982 160.664 177.305C160.997 176.622 161.461 176.094 162.055 175.719C162.648 175.344 163.339 175.156 164.125 175.156C164.917 175.156 165.609 175.344 166.203 175.719C166.797 176.094 167.26 176.622 167.594 177.305C167.927 177.982 168.094 178.776 168.094 179.688C168.094 180.583 167.927 181.37 167.594 182.047C167.26 182.724 166.797 183.25 166.203 183.625C165.609 184 164.917 184.188 164.125 184.188ZM164.125 182.984C164.729 182.984 165.224 182.831 165.609 182.523C165.995 182.216 166.281 181.812 166.469 181.312C166.656 180.807 166.75 180.266 166.75 179.688C166.75 179.099 166.656 178.552 166.469 178.047C166.281 177.542 165.995 177.135 165.609 176.828C165.224 176.516 164.729 176.359 164.125 176.359C163.531 176.359 163.042 176.516 162.656 176.828C162.271 177.135 161.984 177.542 161.797 178.047C161.609 178.552 161.516 179.099 161.516 179.688C161.516 180.266 161.609 180.807 161.797 181.312C161.984 181.812 162.271 182.216 162.656 182.523C163.042 182.831 163.531 182.984 164.125 182.984ZM173.719 172.359V184H172.312V172.359H173.719ZM175.109 184V175.266H176.391V176.641H176.516C176.698 176.172 176.992 175.807 177.398 175.547C177.805 175.286 178.292 175.156 178.859 175.156C179.432 175.156 179.909 175.286 180.289 175.547C180.674 175.807 180.974 176.172 181.188 176.641H181.281C181.51 176.188 181.846 175.828 182.289 175.562C182.737 175.292 183.271 175.156 183.891 175.156C184.672 175.156 185.312 175.401 185.812 175.891C186.312 176.375 186.562 177.13 186.562 178.156V184H185.219V178.156C185.219 177.51 185.042 177.049 184.688 176.773C184.333 176.497 183.917 176.359 183.438 176.359C182.828 176.359 182.354 176.547 182.016 176.922C181.682 177.292 181.516 177.755 181.516 178.312V184H180.141V178.016C180.141 177.521 179.982 177.122 179.664 176.82C179.346 176.513 178.932 176.359 178.422 176.359C178.073 176.359 177.747 176.453 177.445 176.641C177.143 176.828 176.898 177.086 176.711 177.414C176.529 177.742 176.438 178.12 176.438 178.547V184H175.109ZM190.344 184.203C189.792 184.203 189.289 184.099 188.836 183.891C188.383 183.677 188.023 183.37 187.758 182.969C187.492 182.568 187.359 182.083 187.359 181.516C187.359 181.016 187.458 180.612 187.656 180.305C187.854 179.992 188.117 179.747 188.445 179.57C188.779 179.388 189.143 179.253 189.539 179.164C189.94 179.076 190.344 179.005 190.75 178.953C191.281 178.885 191.711 178.833 192.039 178.797C192.372 178.76 192.615 178.698 192.766 178.609C192.922 178.521 193 178.37 193 178.156V178.109C193 177.552 192.846 177.12 192.539 176.812C192.237 176.5 191.776 176.344 191.156 176.344C190.521 176.344 190.021 176.484 189.656 176.766C189.292 177.042 189.036 177.339 188.891 177.656L187.609 177.203C187.839 176.672 188.143 176.258 188.523 175.961C188.909 175.664 189.326 175.456 189.773 175.336C190.227 175.216 190.672 175.156 191.109 175.156C191.391 175.156 191.714 175.19 192.078 175.258C192.443 175.32 192.797 175.456 193.141 175.664C193.49 175.867 193.776 176.177 194 176.594C194.229 177.005 194.344 177.557 194.344 178.25V184H193V182.812H192.938C192.849 183 192.698 183.203 192.484 183.422C192.271 183.635 191.987 183.82 191.633 183.977C191.284 184.128 190.854 184.203 190.344 184.203ZM190.547 183C191.078 183 191.526 182.896 191.891 182.688C192.255 182.479 192.531 182.211 192.719 181.883C192.906 181.549 193 181.203 193 180.844V179.609C192.943 179.677 192.818 179.74 192.625 179.797C192.438 179.849 192.219 179.896 191.969 179.938C191.724 179.979 191.484 180.016 191.25 180.047C191.016 180.073 190.828 180.094 190.688 180.109C190.339 180.156 190.013 180.232 189.711 180.336C189.409 180.435 189.164 180.583 188.977 180.781C188.794 180.979 188.703 181.25 188.703 181.594C188.703 182.057 188.875 182.409 189.219 182.648C189.568 182.883 190.01 183 190.547 183ZM199.078 187.453C198.104 187.453 197.333 187.276 196.766 186.922C196.203 186.568 195.786 186.161 195.516 185.703L196.578 184.953C196.698 185.115 196.852 185.297 197.039 185.5C197.227 185.708 197.482 185.888 197.805 186.039C198.128 186.19 198.552 186.266 199.078 186.266C199.781 186.266 200.362 186.096 200.82 185.758C201.284 185.419 201.516 184.885 201.516 184.156V182.391H201.391C201.297 182.547 201.159 182.742 200.977 182.977C200.799 183.206 200.542 183.411 200.203 183.594C199.87 183.771 199.417 183.859 198.844 183.859C198.141 183.859 197.51 183.693 196.953 183.359C196.396 183.026 195.953 182.542 195.625 181.906C195.302 181.271 195.141 180.5 195.141 179.594C195.141 178.698 195.297 177.919 195.609 177.258C195.927 176.591 196.367 176.076 196.93 175.711C197.492 175.341 198.141 175.156 198.875 175.156C199.443 175.156 199.893 175.25 200.227 175.438C200.565 175.625 200.823 175.839 201 176.078C201.182 176.312 201.323 176.505 201.422 176.656H201.562V175.266H202.844V184.25C202.844 185 202.674 185.609 202.336 186.078C202.003 186.552 201.549 186.898 200.977 187.117C200.409 187.341 199.776 187.453 199.078 187.453ZM199.031 182.656C199.839 182.656 200.456 182.383 200.883 181.836C201.315 181.289 201.531 180.531 201.531 179.562C201.531 178.932 201.438 178.378 201.25 177.898C201.062 177.419 200.781 177.044 200.406 176.773C200.036 176.497 199.578 176.359 199.031 176.359C198.464 176.359 197.99 176.505 197.609 176.797C197.234 177.083 196.953 177.469 196.766 177.953C196.578 178.438 196.484 178.974 196.484 179.562C196.484 180.167 196.578 180.703 196.766 181.172C196.958 181.635 197.245 182 197.625 182.266C198.005 182.526 198.474 182.656 199.031 182.656ZM204.062 184V175.266H205.391V184H204.062ZM204.734 173.812C204.474 173.812 204.25 173.724 204.062 173.547C203.875 173.37 203.781 173.156 203.781 172.906C203.781 172.656 203.875 172.443 204.062 172.266C204.25 172.089 204.474 172 204.734 172C204.995 172 205.219 172.089 205.406 172.266C205.594 172.443 205.688 172.656 205.688 172.906C205.688 173.156 205.594 173.37 205.406 173.547C205.219 173.724 204.995 173.812 204.734 173.812ZM207.938 178.75V184H206.609V175.266H207.891V176.641H208.016C208.219 176.193 208.529 175.833 208.945 175.562C209.362 175.292 209.901 175.156 210.562 175.156C211.151 175.156 211.667 175.276 212.109 175.516C212.552 175.755 212.896 176.12 213.141 176.609C213.391 177.094 213.516 177.708 213.516 178.453V184H212.188V178.547C212.188 177.865 212.008 177.331 211.648 176.945C211.289 176.555 210.799 176.359 210.18 176.359C209.753 176.359 209.37 176.453 209.031 176.641C208.693 176.828 208.424 177.099 208.227 177.453C208.034 177.807 207.938 178.24 207.938 178.75ZM218.391 184.188C217.552 184.188 216.826 184 216.211 183.625C215.602 183.25 215.133 182.727 214.805 182.055C214.477 181.378 214.312 180.594 214.312 179.703C214.312 178.807 214.474 178.018 214.797 177.336C215.12 176.654 215.573 176.12 216.156 175.734C216.745 175.349 217.432 175.156 218.219 175.156C218.672 175.156 219.122 175.232 219.57 175.383C220.018 175.534 220.424 175.779 220.789 176.117C221.159 176.456 221.453 176.904 221.672 177.461C221.891 178.018 222 178.703 222 179.516V180.094H215.266V178.938H221.273L220.656 179.375C220.656 178.792 220.565 178.273 220.383 177.82C220.201 177.367 219.927 177.01 219.562 176.75C219.203 176.49 218.755 176.359 218.219 176.359C217.682 176.359 217.221 176.492 216.836 176.758C216.456 177.018 216.164 177.359 215.961 177.781C215.758 178.203 215.656 178.656 215.656 179.141V179.906C215.656 180.568 215.771 181.128 216 181.586C216.229 182.044 216.549 182.393 216.961 182.633C217.372 182.867 217.849 182.984 218.391 182.984C218.74 182.984 219.057 182.935 219.344 182.836C219.63 182.732 219.878 182.578 220.086 182.375C220.294 182.167 220.453 181.911 220.562 181.609L221.859 181.984C221.724 182.422 221.495 182.807 221.172 183.141C220.854 183.469 220.458 183.727 219.984 183.914C219.51 184.096 218.979 184.188 218.391 184.188ZM222.531 186.766L223.219 182.375H224.766L223.562 186.766H222.531ZM24.625 204H21.8281V202.75H24.5312C25.4948 202.75 26.2917 202.565 26.9219 202.195C27.5573 201.826 28.0312 201.297 28.3438 200.609C28.6562 199.922 28.8125 199.104 28.8125 198.156C28.8125 197.219 28.6589 196.411 28.3516 195.734C28.0443 195.052 27.5833 194.529 26.9688 194.164C26.3594 193.794 25.599 193.609 24.6875 193.609H21.7656V192.359H24.7812C25.9115 192.359 26.8776 192.591 27.6797 193.055C28.487 193.518 29.1042 194.185 29.5312 195.055C29.9583 195.919 30.1719 196.953 30.1719 198.156C30.1719 199.37 29.9557 200.414 29.5234 201.289C29.0911 202.159 28.4609 202.828 27.6328 203.297C26.8099 203.766 25.8073 204 24.625 204ZM22.4375 192.359V204H21.0312V192.359H22.4375ZM34.7656 204.188C33.9271 204.188 33.2005 204 32.5859 203.625C31.9766 203.25 31.5078 202.727 31.1797 202.055C30.8516 201.378 30.6875 200.594 30.6875 199.703C30.6875 198.807 30.849 198.018 31.1719 197.336C31.4948 196.654 31.9479 196.12 32.5312 195.734C33.1198 195.349 33.8073 195.156 34.5938 195.156C35.0469 195.156 35.4974 195.232 35.9453 195.383C36.3932 195.534 36.7995 195.779 37.1641 196.117C37.5339 196.456 37.8281 196.904 38.0469 197.461C38.2656 198.018 38.375 198.703 38.375 199.516V200.094H31.6406V198.938H37.6484L37.0312 199.375C37.0312 198.792 36.9401 198.273 36.7578 197.82C36.5755 197.367 36.3021 197.01 35.9375 196.75C35.5781 196.49 35.1302 196.359 34.5938 196.359C34.0573 196.359 33.5964 196.492 33.2109 196.758C32.8307 197.018 32.5391 197.359 32.3359 197.781C32.1328 198.203 32.0312 198.656 32.0312 199.141V199.906C32.0312 200.568 32.1458 201.128 32.375 201.586C32.6042 202.044 32.9245 202.393 33.3359 202.633C33.7474 202.867 34.224 202.984 34.7656 202.984C35.1146 202.984 35.4323 202.935 35.7188 202.836C36.0052 202.732 36.2526 202.578 36.4609 202.375C36.6693 202.167 36.8281 201.911 36.9375 201.609L38.2344 201.984C38.099 202.422 37.8698 202.807 37.5469 203.141C37.2292 203.469 36.8333 203.727 36.3594 203.914C35.8854 204.096 35.3542 204.188 34.7656 204.188ZM45.3125 197.234L44.1094 197.562C43.9948 197.266 43.7969 196.984 43.5156 196.719C43.2396 196.448 42.8073 196.312 42.2188 196.312C41.6875 196.312 41.2448 196.438 40.8906 196.688C40.5365 196.932 40.3594 197.24 40.3594 197.609C40.3594 197.943 40.4792 198.208 40.7188 198.406C40.9635 198.604 41.3438 198.766 41.8594 198.891L43.1562 199.203C43.9323 199.391 44.5104 199.68 44.8906 200.07C45.276 200.461 45.4688 200.958 45.4688 201.562C45.4688 202.062 45.3255 202.51 45.0391 202.906C44.7526 203.302 44.3542 203.615 43.8438 203.844C43.3333 204.073 42.7396 204.188 42.0625 204.188C41.1719 204.188 40.4349 203.992 39.8516 203.602C39.2734 203.211 38.9062 202.646 38.75 201.906L40.0156 201.594C40.1354 202.062 40.3646 202.414 40.7031 202.648C41.0469 202.883 41.4948 203 42.0469 203C42.6667 203 43.1615 202.867 43.5312 202.602C43.9062 202.331 44.0938 202.01 44.0938 201.641C44.0938 201.026 43.6615 200.615 42.7969 200.406L41.3438 200.062C40.5417 199.87 39.9531 199.576 39.5781 199.18C39.2031 198.784 39.0156 198.286 39.0156 197.688C39.0156 197.193 39.1536 196.755 39.4297 196.375C39.7109 195.995 40.0938 195.698 40.5781 195.484C41.0625 195.266 41.6094 195.156 42.2188 195.156C43.0885 195.156 43.7682 195.349 44.2578 195.734C44.7526 196.115 45.1042 196.615 45.3125 197.234ZM46.25 204V195.266H47.5781V204H46.25ZM46.9219 193.812C46.6615 193.812 46.4375 193.724 46.25 193.547C46.0625 193.37 45.9688 193.156 45.9688 192.906C45.9688 192.656 46.0625 192.443 46.25 192.266C46.4375 192.089 46.6615 192 46.9219 192C47.1823 192 47.4062 192.089 47.5938 192.266C47.7812 192.443 47.875 192.656 47.875 192.906C47.875 193.156 47.7812 193.37 47.5938 193.547C47.4062 193.724 47.1823 193.812 46.9219 193.812ZM52.3125 207.453C51.3385 207.453 50.5677 207.276 50 206.922C49.4375 206.568 49.0208 206.161 48.75 205.703L49.8125 204.953C49.9323 205.115 50.0859 205.297 50.2734 205.5C50.4609 205.708 50.7161 205.888 51.0391 206.039C51.362 206.19 51.7865 206.266 52.3125 206.266C53.0156 206.266 53.5964 206.096 54.0547 205.758C54.5182 205.419 54.75 204.885 54.75 204.156V202.391H54.625C54.5312 202.547 54.3932 202.742 54.2109 202.977C54.0339 203.206 53.776 203.411 53.4375 203.594C53.1042 203.771 52.651 203.859 52.0781 203.859C51.375 203.859 50.7448 203.693 50.1875 203.359C49.6302 203.026 49.1875 202.542 48.8594 201.906C48.5365 201.271 48.375 200.5 48.375 199.594C48.375 198.698 48.5312 197.919 48.8438 197.258C49.1615 196.591 49.6016 196.076 50.1641 195.711C50.7266 195.341 51.375 195.156 52.1094 195.156C52.6771 195.156 53.1276 195.25 53.4609 195.438C53.7995 195.625 54.0573 195.839 54.2344 196.078C54.4167 196.312 54.5573 196.505 54.6562 196.656H54.7969V195.266H56.0781V204.25C56.0781 205 55.9089 205.609 55.5703 206.078C55.237 206.552 54.7839 206.898 54.2109 207.117C53.6432 207.341 53.0104 207.453 52.3125 207.453ZM52.2656 202.656C53.0729 202.656 53.6901 202.383 54.1172 201.836C54.5495 201.289 54.7656 200.531 54.7656 199.562C54.7656 198.932 54.6719 198.378 54.4844 197.898C54.2969 197.419 54.0156 197.044 53.6406 196.773C53.2708 196.497 52.8125 196.359 52.2656 196.359C51.6979 196.359 51.224 196.505 50.8438 196.797C50.4688 197.083 50.1875 197.469 50 197.953C49.8125 198.438 49.7188 198.974 49.7188 199.562C49.7188 200.167 49.8125 200.703 50 201.172C50.1927 201.635 50.4792 202 50.8594 202.266C51.2396 202.526 51.7083 202.656 52.2656 202.656ZM58.625 198.75V204H57.2969V195.266H58.5781V196.641H58.7031C58.9062 196.193 59.2161 195.833 59.6328 195.562C60.0495 195.292 60.5885 195.156 61.25 195.156C61.8385 195.156 62.3542 195.276 62.7969 195.516C63.2396 195.755 63.5833 196.12 63.8281 196.609C64.0781 197.094 64.2031 197.708 64.2031 198.453V204H62.875V198.547C62.875 197.865 62.6953 197.331 62.3359 196.945C61.9766 196.555 61.487 196.359 60.8672 196.359C60.4401 196.359 60.0573 196.453 59.7188 196.641C59.3802 196.828 59.112 197.099 58.9141 197.453C58.7214 197.807 58.625 198.24 58.625 198.75ZM65.1875 206.766L65.875 202.375H67.4219L66.2188 206.766H65.1875ZM74.75 204.203C74.1979 204.203 73.6953 204.099 73.2422 203.891C72.7891 203.677 72.4297 203.37 72.1641 202.969C71.8984 202.568 71.7656 202.083 71.7656 201.516C71.7656 201.016 71.8646 200.612 72.0625 200.305C72.2604 199.992 72.5234 199.747 72.8516 199.57C73.1849 199.388 73.5495 199.253 73.9453 199.164C74.3464 199.076 74.75 199.005 75.1562 198.953C75.6875 198.885 76.1172 198.833 76.4453 198.797C76.7786 198.76 77.0208 198.698 77.1719 198.609C77.3281 198.521 77.4062 198.37 77.4062 198.156V198.109C77.4062 197.552 77.2526 197.12 76.9453 196.812C76.6432 196.5 76.1823 196.344 75.5625 196.344C74.9271 196.344 74.4271 196.484 74.0625 196.766C73.6979 197.042 73.4427 197.339 73.2969 197.656L72.0156 197.203C72.2448 196.672 72.5495 196.258 72.9297 195.961C73.3151 195.664 73.7318 195.456 74.1797 195.336C74.6328 195.216 75.0781 195.156 75.5156 195.156C75.7969 195.156 76.1198 195.19 76.4844 195.258C76.849 195.32 77.2031 195.456 77.5469 195.664C77.8958 195.867 78.1823 196.177 78.4062 196.594C78.6354 197.005 78.75 197.557 78.75 198.25V204H77.4062V202.812H77.3438C77.2552 203 77.1042 203.203 76.8906 203.422C76.6771 203.635 76.3932 203.82 76.0391 203.977C75.6901 204.128 75.2604 204.203 74.75 204.203ZM74.9531 203C75.4844 203 75.9323 202.896 76.2969 202.688C76.6615 202.479 76.9375 202.211 77.125 201.883C77.3125 201.549 77.4062 201.203 77.4062 200.844V199.609C77.349 199.677 77.224 199.74 77.0312 199.797C76.8438 199.849 76.625 199.896 76.375 199.938C76.1302 199.979 75.8906 200.016 75.6562 200.047C75.4219 200.073 75.2344 200.094 75.0938 200.109C74.7448 200.156 74.4193 200.232 74.1172 200.336C73.8151 200.435 73.5703 200.583 73.3828 200.781C73.2005 200.979 73.1094 201.25 73.1094 201.594C73.1094 202.057 73.2812 202.409 73.625 202.648C73.974 202.883 74.4167 203 74.9531 203ZM81.2969 198.75V204H79.9688V195.266H81.25V196.641H81.375C81.5781 196.193 81.888 195.833 82.3047 195.562C82.7214 195.292 83.2604 195.156 83.9219 195.156C84.5104 195.156 85.026 195.276 85.4688 195.516C85.9115 195.755 86.2552 196.12 86.5 196.609C86.75 197.094 86.875 197.708 86.875 198.453V204H85.5469V198.547C85.5469 197.865 85.3672 197.331 85.0078 196.945C84.6484 196.555 84.1589 196.359 83.5391 196.359C83.112 196.359 82.7292 196.453 82.3906 196.641C82.0521 196.828 81.7839 197.099 81.5859 197.453C81.3932 197.807 81.2969 198.24 81.2969 198.75ZM91.375 204.188C90.6458 204.188 90.0026 204.003 89.4453 203.633C88.888 203.263 88.4531 202.74 88.1406 202.062C87.8281 201.38 87.6719 200.578 87.6719 199.656C87.6719 198.74 87.8281 197.945 88.1406 197.273C88.4583 196.596 88.8958 196.076 89.4531 195.711C90.0104 195.341 90.6562 195.156 91.3906 195.156C91.9635 195.156 92.4141 195.25 92.7422 195.438C93.0755 195.625 93.3307 195.839 93.5078 196.078C93.6849 196.312 93.8229 196.505 93.9219 196.656H94.0312V192.359H95.3594V204H94.0781V202.656H93.9219C93.8229 202.812 93.6823 203.013 93.5 203.258C93.3177 203.497 93.0573 203.714 92.7188 203.906C92.3854 204.094 91.9375 204.188 91.375 204.188ZM91.5469 202.984C92.0885 202.984 92.5443 202.844 92.9141 202.562C93.2839 202.276 93.5651 201.883 93.7578 201.383C93.9505 200.878 94.0469 200.297 94.0469 199.641C94.0469 198.984 93.9531 198.411 93.7656 197.922C93.5781 197.427 93.2969 197.044 92.9219 196.773C92.5521 196.497 92.0938 196.359 91.5469 196.359C90.9844 196.359 90.5156 196.505 90.1406 196.797C89.7656 197.089 89.4844 197.482 89.2969 197.977C89.1094 198.471 89.0156 199.026 89.0156 199.641C89.0156 200.26 89.1094 200.823 89.2969 201.328C89.4896 201.833 89.7734 202.237 90.1484 202.539C90.5234 202.836 90.9896 202.984 91.5469 202.984ZM100 204V192.359H101.406V202.75H106.828V204H100ZM111.234 204.188C110.396 204.188 109.669 204 109.055 203.625C108.445 203.25 107.977 202.727 107.648 202.055C107.32 201.378 107.156 200.594 107.156 199.703C107.156 198.807 107.318 198.018 107.641 197.336C107.964 196.654 108.417 196.12 109 195.734C109.589 195.349 110.276 195.156 111.062 195.156C111.516 195.156 111.966 195.232 112.414 195.383C112.862 195.534 113.268 195.779 113.633 196.117C114.003 196.456 114.297 196.904 114.516 197.461C114.734 198.018 114.844 198.703 114.844 199.516V200.094H108.109V198.938H114.117L113.5 199.375C113.5 198.792 113.409 198.273 113.227 197.82C113.044 197.367 112.771 197.01 112.406 196.75C112.047 196.49 111.599 196.359 111.062 196.359C110.526 196.359 110.065 196.492 109.68 196.758C109.299 197.018 109.008 197.359 108.805 197.781C108.602 198.203 108.5 198.656 108.5 199.141V199.906C108.5 200.568 108.615 201.128 108.844 201.586C109.073 202.044 109.393 202.393 109.805 202.633C110.216 202.867 110.693 202.984 111.234 202.984C111.583 202.984 111.901 202.935 112.188 202.836C112.474 202.732 112.721 202.578 112.93 202.375C113.138 202.167 113.297 201.911 113.406 201.609L114.703 201.984C114.568 202.422 114.339 202.807 114.016 203.141C113.698 203.469 113.302 203.727 112.828 203.914C112.354 204.096 111.823 204.188 111.234 204.188ZM118.172 204.203C117.62 204.203 117.117 204.099 116.664 203.891C116.211 203.677 115.852 203.37 115.586 202.969C115.32 202.568 115.188 202.083 115.188 201.516C115.188 201.016 115.286 200.612 115.484 200.305C115.682 199.992 115.945 199.747 116.273 199.57C116.607 199.388 116.971 199.253 117.367 199.164C117.768 199.076 118.172 199.005 118.578 198.953C119.109 198.885 119.539 198.833 119.867 198.797C120.201 198.76 120.443 198.698 120.594 198.609C120.75 198.521 120.828 198.37 120.828 198.156V198.109C120.828 197.552 120.674 197.12 120.367 196.812C120.065 196.5 119.604 196.344 118.984 196.344C118.349 196.344 117.849 196.484 117.484 196.766C117.12 197.042 116.865 197.339 116.719 197.656L115.438 197.203C115.667 196.672 115.971 196.258 116.352 195.961C116.737 195.664 117.154 195.456 117.602 195.336C118.055 195.216 118.5 195.156 118.938 195.156C119.219 195.156 119.542 195.19 119.906 195.258C120.271 195.32 120.625 195.456 120.969 195.664C121.318 195.867 121.604 196.177 121.828 196.594C122.057 197.005 122.172 197.557 122.172 198.25V204H120.828V202.812H120.766C120.677 203 120.526 203.203 120.312 203.422C120.099 203.635 119.815 203.82 119.461 203.977C119.112 204.128 118.682 204.203 118.172 204.203ZM118.375 203C118.906 203 119.354 202.896 119.719 202.688C120.083 202.479 120.359 202.211 120.547 201.883C120.734 201.549 120.828 201.203 120.828 200.844V199.609C120.771 199.677 120.646 199.74 120.453 199.797C120.266 199.849 120.047 199.896 119.797 199.938C119.552 199.979 119.312 200.016 119.078 200.047C118.844 200.073 118.656 200.094 118.516 200.109C118.167 200.156 117.841 200.232 117.539 200.336C117.237 200.435 116.992 200.583 116.805 200.781C116.622 200.979 116.531 201.25 116.531 201.594C116.531 202.057 116.703 202.409 117.047 202.648C117.396 202.883 117.839 203 118.375 203ZM126.672 204.188C125.943 204.188 125.299 204.003 124.742 203.633C124.185 203.263 123.75 202.74 123.438 202.062C123.125 201.38 122.969 200.578 122.969 199.656C122.969 198.74 123.125 197.945 123.438 197.273C123.755 196.596 124.193 196.076 124.75 195.711C125.307 195.341 125.953 195.156 126.688 195.156C127.26 195.156 127.711 195.25 128.039 195.438C128.372 195.625 128.628 195.839 128.805 196.078C128.982 196.312 129.12 196.505 129.219 196.656H129.328V192.359H130.656V204H129.375V202.656H129.219C129.12 202.812 128.979 203.013 128.797 203.258C128.615 203.497 128.354 203.714 128.016 203.906C127.682 204.094 127.234 204.188 126.672 204.188ZM126.844 202.984C127.385 202.984 127.841 202.844 128.211 202.562C128.581 202.276 128.862 201.883 129.055 201.383C129.247 200.878 129.344 200.297 129.344 199.641C129.344 198.984 129.25 198.411 129.062 197.922C128.875 197.427 128.594 197.044 128.219 196.773C127.849 196.497 127.391 196.359 126.844 196.359C126.281 196.359 125.812 196.505 125.438 196.797C125.062 197.089 124.781 197.482 124.594 197.977C124.406 198.471 124.312 199.026 124.312 199.641C124.312 200.26 124.406 200.823 124.594 201.328C124.786 201.833 125.07 202.237 125.445 202.539C125.82 202.836 126.286 202.984 126.844 202.984ZM134.297 192.359H135.906L139.141 197.797H139.281L142.5 192.359H144.125L139.906 199.203V204H138.5V199.203L134.297 192.359ZM146.812 204.188C146.026 204.188 145.336 204 144.742 203.625C144.148 203.25 143.685 202.724 143.352 202.047C143.023 201.37 142.859 200.583 142.859 199.688C142.859 198.776 143.023 197.982 143.352 197.305C143.685 196.622 144.148 196.094 144.742 195.719C145.336 195.344 146.026 195.156 146.812 195.156C147.604 195.156 148.297 195.344 148.891 195.719C149.484 196.094 149.948 196.622 150.281 197.305C150.615 197.982 150.781 198.776 150.781 199.688C150.781 200.583 150.615 201.37 150.281 202.047C149.948 202.724 149.484 203.25 148.891 203.625C148.297 204 147.604 204.188 146.812 204.188ZM146.812 202.984C147.417 202.984 147.911 202.831 148.297 202.523C148.682 202.216 148.969 201.812 149.156 201.312C149.344 200.807 149.438 200.266 149.438 199.688C149.438 199.099 149.344 198.552 149.156 198.047C148.969 197.542 148.682 197.135 148.297 196.828C147.911 196.516 147.417 196.359 146.812 196.359C146.219 196.359 145.729 196.516 145.344 196.828C144.958 197.135 144.672 197.542 144.484 198.047C144.297 198.552 144.203 199.099 144.203 199.688C144.203 200.266 144.297 200.807 144.484 201.312C144.672 201.812 144.958 202.216 145.344 202.523C145.729 202.831 146.219 202.984 146.812 202.984ZM157.078 200.438V195.266H158.406V204H157.078V202.516H156.984C156.776 202.958 156.456 203.336 156.023 203.648C155.596 203.961 155.052 204.115 154.391 204.109C153.844 204.109 153.359 203.992 152.938 203.758C152.516 203.518 152.182 203.154 151.938 202.664C151.698 202.174 151.578 201.557 151.578 200.812V195.266H152.906V200.734C152.906 201.365 153.086 201.87 153.445 202.25C153.81 202.63 154.271 202.818 154.828 202.812C155.161 202.812 155.5 202.729 155.844 202.562C156.193 202.391 156.484 202.13 156.719 201.781C156.958 201.427 157.078 200.979 157.078 200.438ZM159.625 204V195.266H160.906V196.594H161C161.161 196.161 161.451 195.812 161.867 195.547C162.289 195.276 162.76 195.141 163.281 195.141C163.38 195.141 163.503 195.143 163.648 195.148C163.794 195.148 163.906 195.151 163.984 195.156V196.516C163.938 196.505 163.833 196.49 163.672 196.469C163.51 196.448 163.339 196.438 163.156 196.438C162.734 196.438 162.357 196.526 162.023 196.703C161.69 196.88 161.427 197.122 161.234 197.43C161.047 197.737 160.953 198.089 160.953 198.484V204H159.625ZM168.234 204H166.75L171.031 192.359H172.484L176.75 204H175.281L171.797 194.203H171.703L168.234 204ZM168.781 199.453H174.734V200.703H168.781V199.453ZM178.719 192.359V204H177.312V192.359H178.719ZM183.531 204V192.359H190.516V193.609H184.938V197.672H189.984V198.922H184.938V204H183.531ZM196.453 200.438V195.266H197.781V204H196.453V202.516H196.359C196.151 202.958 195.831 203.336 195.398 203.648C194.971 203.961 194.427 204.115 193.766 204.109C193.219 204.109 192.734 203.992 192.312 203.758C191.891 203.518 191.557 203.154 191.312 202.664C191.073 202.174 190.953 201.557 190.953 200.812V195.266H192.281V200.734C192.281 201.365 192.461 201.87 192.82 202.25C193.185 202.63 193.646 202.818 194.203 202.812C194.536 202.812 194.875 202.729 195.219 202.562C195.568 202.391 195.859 202.13 196.094 201.781C196.333 201.427 196.453 200.979 196.453 200.438ZM202.781 195.266V196.406H198.266V195.266H202.781ZM199.578 193.188H200.906V201.5C200.906 201.953 201 202.286 201.188 202.5C201.375 202.708 201.672 202.812 202.078 202.812C202.167 202.812 202.258 202.807 202.352 202.797C202.451 202.786 202.557 202.771 202.672 202.75L202.953 203.953C202.828 204 202.674 204.036 202.492 204.062C202.315 204.094 202.135 204.109 201.953 204.109C201.25 204.109 200.677 203.901 200.234 203.484C199.797 203.068 199.578 202.526 199.578 201.859V193.188ZM209.062 200.438V195.266H210.391V204H209.062V202.516H208.969C208.76 202.958 208.44 203.336 208.008 203.648C207.581 203.961 207.036 204.115 206.375 204.109C205.828 204.109 205.344 203.992 204.922 203.758C204.5 203.518 204.167 203.154 203.922 202.664C203.682 202.174 203.562 201.557 203.562 200.812V195.266H204.891V200.734C204.891 201.365 205.07 201.87 205.43 202.25C205.794 202.63 206.255 202.818 206.812 202.812C207.146 202.812 207.484 202.729 207.828 202.562C208.177 202.391 208.469 202.13 208.703 201.781C208.943 201.427 209.062 200.979 209.062 200.438ZM211.609 204V195.266H212.891V196.594H212.984C213.146 196.161 213.435 195.812 213.852 195.547C214.273 195.276 214.745 195.141 215.266 195.141C215.365 195.141 215.487 195.143 215.633 195.148C215.779 195.148 215.891 195.151 215.969 195.156V196.516C215.922 196.505 215.818 196.49 215.656 196.469C215.495 196.448 215.323 196.438 215.141 196.438C214.719 196.438 214.341 196.526 214.008 196.703C213.674 196.88 213.411 197.122 213.219 197.43C213.031 197.737 212.938 198.089 212.938 198.484V204H211.609ZM219.703 204.188C218.865 204.188 218.138 204 217.523 203.625C216.914 203.25 216.445 202.727 216.117 202.055C215.789 201.378 215.625 200.594 215.625 199.703C215.625 198.807 215.786 198.018 216.109 197.336C216.432 196.654 216.885 196.12 217.469 195.734C218.057 195.349 218.745 195.156 219.531 195.156C219.984 195.156 220.435 195.232 220.883 195.383C221.331 195.534 221.737 195.779 222.102 196.117C222.471 196.456 222.766 196.904 222.984 197.461C223.203 198.018 223.312 198.703 223.312 199.516V200.094H216.578V198.938H222.586L221.969 199.375C221.969 198.792 221.878 198.273 221.695 197.82C221.513 197.367 221.24 197.01 220.875 196.75C220.516 196.49 220.068 196.359 219.531 196.359C218.995 196.359 218.534 196.492 218.148 196.758C217.768 197.018 217.477 197.359 217.273 197.781C217.07 198.203 216.969 198.656 216.969 199.141V199.906C216.969 200.568 217.083 201.128 217.312 201.586C217.542 202.044 217.862 202.393 218.273 202.633C218.685 202.867 219.161 202.984 219.703 202.984C220.052 202.984 220.37 202.935 220.656 202.836C220.943 202.732 221.19 202.578 221.398 202.375C221.607 202.167 221.766 201.911 221.875 201.609L223.172 201.984C223.036 202.422 222.807 202.807 222.484 203.141C222.167 203.469 221.771 203.727 221.297 203.914C220.823 204.096 220.292 204.188 219.703 204.188Z" fill="#A9AAA9"/>
<path d="M326.604 299V349L283.302 374L240.001 349V299L283.302 274L326.604 299ZM241.001 299.577V348.422L283.302 372.845L325.604 348.422V299.577L283.302 275.154L241.001 299.577ZM315.777 305.25V342.75L283.302 361.5L250.826 342.75V305.25L283.302 286.5L315.777 305.25ZM251.826 305.827V342.172L283.302 360.345L314.777 342.172V305.827L283.302 287.654L251.826 305.827ZM304.952 311.5V336.5L283.302 349L261.651 336.5V311.5L283.302 299L304.952 311.5ZM262.651 312.077V335.922L283.302 347.845L303.952 335.922V312.077L283.302 300.154L262.651 312.077Z" fill="#BCEAA3"/>
</g>
<path d="M8 0V2H307V0V-2H8V0ZM315 8H313V352H315H317V8H315ZM307 360V358H8V360V362H307V360ZM0 352H2V8H0H-2V352H0ZM8 360V358C4.68629 358 2 355.314 2 352H0H-2C-2 357.523 2.47715 362 8 362V360ZM315 352H313C313 355.314 310.314 358 307 358V360V362C312.523 362 317 357.523 317 352H315ZM307 0V2C310.314 2 313 4.68629 313 8H315H317C317 2.47715 312.523 -2 307 -2V0ZM8 0V-2C2.47715 -2 -2 2.47715 -2 8H0H2C2 4.68629 4.68629 2 8 2V0Z" fill="url(#paint0_linear_434_33821)" mask="url(#path-1-inside-1_434_33821)"/>
<defs>
<filter id="filter0_f_434_33821" x="-125" y="-125" width="300" height="300" filterUnits="userSpaceOnUse" color-interpolation-filters="sRGB">
<feFlood flood-opacity="0" result="BackgroundImageFix"/>
<feBlend mode="normal" in="SourceGraphic" in2="BackgroundImageFix" result="shape"/>
<feGaussianBlur stdDeviation="50" result="effect1_foregroundBlur_434_33821"/>
</filter>
<filter id="filter1_f_434_33821" x="140" y="185" width="300" height="300" filterUnits="userSpaceOnUse" color-interpolation-filters="sRGB">
<feFlood flood-opacity="0" result="BackgroundImageFix"/>
<feBlend mode="normal" in="SourceGraphic" in2="BackgroundImageFix" result="shape"/>
<feGaussianBlur stdDeviation="50" result="effect1_foregroundBlur_434_33821"/>
</filter>
<linearGradient id="paint0_linear_434_33821" x1="157.5" y1="0" x2="157.5" y2="360" gradientUnits="userSpaceOnUse">
<stop stop-color="#08537B"/>
<stop offset="1" stop-color="#1D776C"/>
</linearGradient>
<clipPath id="clip0_434_33821">
<path d="M0 8C0 3.58172 3.58172 0 8 0H307C311.418 0 315 3.58172 315 8V352C315 356.418 311.418 360 307 360H8C3.58172 360 0 356.418 0 352V8Z" fill="white"/>
</clipPath>
</defs>
</svg>
