<svg width="315" height="360" viewBox="0 0 315 360" fill="none" xmlns="http://www.w3.org/2000/svg">
<g clip-path="url(#clip0_434_33866)">
<mask id="path-1-inside-1_434_33866" fill="white">
<path d="M0 8C0 3.58172 3.58172 0 8 0H307C311.418 0 315 3.58172 315 8V352C315 356.418 311.418 360 307 360H8C3.58172 360 0 356.418 0 352V8Z"/>
</mask>
<path d="M0 8C0 3.58172 3.58172 0 8 0H307C311.418 0 315 3.58172 315 8V352C315 356.418 311.418 360 307 360H8C3.58172 360 0 356.418 0 352V8Z" fill="white" fill-opacity="0.01"/>
<g filter="url(#filter0_f_434_33866)">
<circle cx="25" cy="25" r="50" fill="#0160B6"/>
</g>
<g filter="url(#filter1_f_434_33866)">
<circle cx="290" cy="335" r="50" fill="#1D776C"/>
</g>
<g opacity="0.8">
<path d="M39.3031 23.222C39.382 23.1766 39.4831 23.2037 39.5287 23.2826C40.3359 24.6807 40.7436 26.2003 40.7874 27.7083C42.1153 26.9923 43.6349 26.5853 45.2494 26.5853C45.3405 26.5853 45.4142 26.6593 45.4144 26.7503C45.4144 28.3646 45.0082 29.8844 44.2923 31.2122C45.8003 31.2561 47.319 31.6648 48.7171 32.472C48.7961 32.5176 48.8233 32.6186 48.7777 32.6976C47.9705 34.0955 46.8585 35.2084 45.5746 36.0003C46.8586 36.7923 47.9705 37.9049 48.7777 39.3031C48.8233 39.3821 48.7961 39.483 48.7171 39.5287C47.3191 40.3357 45.8002 40.7436 44.2923 40.7874C45.0083 42.1153 45.4144 43.6349 45.4144 45.2494C45.4144 45.3406 45.3406 45.4144 45.2494 45.4144C43.6349 45.4144 42.1153 45.0083 40.7874 44.2923C40.7436 45.8002 40.3357 47.3191 39.5287 48.7171C39.483 48.7961 39.3821 48.8233 39.3031 48.7777C37.9049 47.9704 36.7923 46.8586 36.0003 45.5745C35.2084 46.8585 34.0955 47.9705 32.6976 48.7777C32.6186 48.8233 32.5166 48.7961 32.471 48.7171C31.664 47.3192 31.2561 45.8001 31.2122 44.2923C29.8844 45.0082 28.3646 45.4144 26.7503 45.4144C26.6593 45.4142 26.5853 45.3404 26.5853 45.2494C26.5853 43.6349 26.9923 42.1153 27.7083 40.7874C26.2003 40.7436 24.6807 40.3359 23.2826 39.5287C23.2037 39.4831 23.1765 39.382 23.222 39.3031C24.0292 37.905 25.1411 36.7923 26.4251 36.0003C25.1411 35.2084 24.0292 34.0956 23.222 32.6976C23.1765 32.6187 23.2038 32.5177 23.2826 32.472C24.6807 31.6648 26.2003 31.2561 27.7083 31.2122C26.9923 29.8844 26.5853 28.3647 26.5853 26.7503C26.5855 26.6594 26.6594 26.5855 26.7503 26.5853C28.3647 26.5853 29.8844 26.9923 31.2122 27.7083C31.2561 26.2003 31.6648 24.6807 32.472 23.2826C32.5177 23.2038 32.6187 23.1765 32.6976 23.222C34.0956 24.0292 35.2084 25.1411 36.0003 26.4251C36.7923 25.1411 37.905 24.0292 39.3031 23.222ZM34.6117 41.1829C33.8239 42.3752 32.7718 43.3783 31.5394 44.1078C31.5537 45.568 31.9206 47.0445 32.6751 48.4076C34.0102 47.6044 35.0664 46.5088 35.8089 45.2513C35.1065 44.0034 34.6977 42.6092 34.6117 41.1829ZM37.389 41.1829C37.3029 42.6093 36.8932 44.0034 36.1908 45.2513C36.9333 46.5089 37.9894 47.6044 39.3246 48.4076C40.0791 47.0445 40.446 45.568 40.4603 44.1078C39.2279 43.3783 38.1767 42.3752 37.389 41.1829ZM32.2054 39.7943C30.9272 40.4328 29.5153 40.7758 28.0833 40.7913C27.3657 42.063 26.9454 43.5248 26.9173 45.0824C28.4752 45.0543 29.9375 44.6342 31.2093 43.9163C31.2249 42.4845 31.5669 41.0724 32.2054 39.7943ZM39.7943 39.7943C40.4329 41.0725 40.7757 42.4844 40.7913 43.9163C42.063 44.634 43.5247 45.0543 45.0824 45.0824C45.0543 43.5247 44.634 42.063 43.9163 40.7913C42.4844 40.7757 41.0725 40.4329 39.7943 39.7943ZM36.0003 37.765C35.803 38.8054 35.4345 39.7853 34.9251 40.6742C34.9346 42.1523 35.3049 43.6102 36.0003 44.9124C36.6958 43.6102 37.0661 42.1524 37.0755 40.6742C36.5661 39.7853 36.1977 38.8055 36.0003 37.765ZM35.1175 37.5287C34.4264 38.331 33.6172 38.995 32.7318 39.5101C32.0009 40.795 31.5931 42.2426 31.5443 43.7181C32.7976 42.938 33.8468 41.8606 34.5941 40.5853C34.5974 39.561 34.7682 38.5283 35.1175 37.5287ZM36.8822 37.5287C37.2315 38.5283 37.4023 39.5609 37.4056 40.5853C38.1529 41.8607 39.203 42.938 40.4564 43.7181C40.4075 42.2426 39.9998 40.795 39.2689 39.5101C38.3833 38.995 37.5733 38.3311 36.8822 37.5287ZM26.7484 36.1908C25.4909 36.9333 24.3963 37.9895 23.5931 39.3245C24.9562 40.0791 26.4326 40.446 27.8929 40.4603C28.6223 39.2281 29.6247 38.1766 30.8167 37.389C29.3905 37.3029 27.9963 36.8932 26.7484 36.1908ZM45.2513 36.1908C44.0034 36.8932 42.6092 37.3029 41.1829 37.389C42.3751 38.1767 43.3783 39.228 44.1078 40.4603C45.568 40.446 47.0445 40.0791 48.4076 39.3245C47.6044 37.9894 46.5089 36.9333 45.2513 36.1908ZM34.472 36.8822C33.4722 37.2315 32.4389 37.4023 31.4144 37.4056C30.139 38.1529 29.0616 39.203 28.2816 40.4564C29.757 40.4075 31.2048 39.9997 32.4896 39.2689C33.0047 38.3833 33.6696 37.5733 34.472 36.8822ZM37.5287 36.8822C38.3311 37.5733 38.995 38.3833 39.5101 39.2689C40.795 39.9998 42.2426 40.4075 43.7181 40.4564C42.9381 39.2031 41.8616 38.1529 40.5863 37.4056C39.5618 37.4023 38.5285 37.2315 37.5287 36.8822ZM35.807 36.722C35.3169 37.7492 35.0359 38.8297 34.9515 39.9115C35.4193 38.9324 35.7178 37.8566 35.807 36.722ZM36.1937 36.722C36.2829 37.8565 36.5804 38.9324 37.0482 39.9115C36.9638 38.8297 36.6837 37.7491 36.1937 36.722ZM35.472 36.5287C34.5341 37.1732 33.7511 37.969 33.1371 38.8636C34.0316 38.2496 34.8275 37.4665 35.472 36.5287ZM36.5287 36.5287C37.1732 37.4665 37.969 38.2496 38.8636 38.8636C38.2496 37.969 37.4665 37.1732 36.5287 36.5287ZM31.3255 34.9251C29.8475 34.9346 28.3904 35.305 27.0882 36.0003C28.3903 36.6956 29.8475 37.066 31.3255 37.0755C32.2143 36.5662 33.1943 36.1977 34.2347 36.0003C33.1943 35.803 32.2143 35.4345 31.3255 34.9251ZM40.6742 34.9251C39.7854 35.4344 38.8054 35.803 37.765 36.0003C38.8055 36.1977 39.7853 36.5661 40.6742 37.0755C42.1523 37.0661 43.6102 36.6958 44.9124 36.0003C43.6102 35.3049 42.1524 34.9346 40.6742 34.9251ZM35.2787 36.1937C34.144 36.2829 33.0674 36.5803 32.0882 37.0482C33.1701 36.9638 34.2514 36.6838 35.2787 36.1937ZM36.722 36.1937C37.7491 36.6837 38.8297 36.9638 39.9115 37.0482C38.9324 36.5804 37.8565 36.2829 36.722 36.1937ZM27.8929 31.5394C26.4327 31.5537 24.9562 31.9206 23.5931 32.6751C24.3962 34.0101 25.491 35.0664 26.7484 35.8089C27.9963 35.1064 29.3905 34.6978 30.8167 34.6117C29.6245 33.8239 28.6224 32.7718 27.8929 31.5394ZM44.1078 31.5394C43.3782 32.7718 42.3752 33.8239 41.1829 34.6117C42.6092 34.6977 44.0034 35.1065 45.2513 35.8089C46.5088 35.0664 47.6044 34.0102 48.4076 32.6751C47.0445 31.9205 45.568 31.5537 44.1078 31.5394ZM32.0882 34.9515C33.0672 35.4192 34.1433 35.7177 35.2777 35.807C34.2506 35.317 33.1699 35.0359 32.0882 34.9515ZM39.9115 34.9515C38.8297 35.0359 37.7491 35.317 36.722 35.807C37.8565 35.7178 38.9324 35.4193 39.9115 34.9515ZM33.1371 33.137C33.751 34.0315 34.5342 34.8276 35.472 35.472C34.8276 34.5342 34.0315 33.751 33.1371 33.137ZM38.8636 33.137C37.969 33.751 37.1732 34.5341 36.5287 35.472C37.4665 34.8275 38.2496 34.0316 38.8636 33.137ZM34.9515 32.0882C35.0359 33.1701 35.3169 34.2515 35.807 35.2787C35.7178 34.144 35.4193 33.0673 34.9515 32.0882ZM37.0482 32.0882C36.5804 33.0672 36.2829 34.1433 36.1937 35.2777C36.6836 34.2506 36.9638 33.1699 37.0482 32.0882ZM28.2816 31.5443C29.0616 32.7977 30.139 33.8468 31.4144 34.5941C32.4389 34.5974 33.4722 34.7682 34.472 35.1175C33.6696 34.4264 33.0047 33.6174 32.4896 32.7318C31.2047 32.0009 29.7571 31.5931 28.2816 31.5443ZM43.7181 31.5443C42.2426 31.5931 40.795 32.0009 39.5101 32.7318C38.995 33.6172 38.331 34.4264 37.5287 35.1175C38.5283 34.7682 39.561 34.5974 40.5853 34.5941C41.8607 33.8468 42.938 32.7976 43.7181 31.5443ZM31.5443 28.2816C31.5931 29.7571 32.0009 31.2047 32.7318 32.4896C33.6174 33.0047 34.4264 33.6696 35.1175 34.472C34.7682 33.4722 34.5974 32.4389 34.5941 31.4144C33.8468 30.139 32.7977 29.0616 31.5443 28.2816ZM40.4564 28.2816C39.203 29.0617 38.1529 30.139 37.4056 31.4144C37.4023 32.4389 37.2315 33.4722 36.8822 34.472C37.5733 33.6696 38.3833 33.0047 39.2689 32.4896C39.9997 31.2048 40.4075 29.757 40.4564 28.2816ZM36.0003 27.0882C35.305 28.3904 34.9346 29.8475 34.9251 31.3255C35.4345 32.2143 35.803 33.1943 36.0003 34.2347C36.1977 33.1943 36.5662 32.2143 37.0755 31.3255C37.066 29.8475 36.6956 28.3903 36.0003 27.0882ZM26.9173 26.9173C26.9454 28.4752 27.3655 29.9375 28.0833 31.2093C29.5152 31.2249 30.9272 31.5669 32.2054 32.2054C31.5669 30.9272 31.2249 29.5152 31.2093 28.0833C29.9375 27.3655 28.4752 26.9454 26.9173 26.9173ZM45.0824 26.9173C43.5248 26.9454 42.063 27.3657 40.7913 28.0833C40.7758 29.5153 40.4328 30.9272 39.7943 32.2054C41.0724 31.5669 42.4845 31.2249 43.9163 31.2093C44.6342 29.9375 45.0543 28.4752 45.0824 26.9173ZM32.6751 23.5931C31.9206 24.9562 31.5537 26.4327 31.5394 27.8929C32.7718 28.6224 33.824 29.6245 34.6117 30.8167C34.6978 29.3905 35.1064 27.9963 35.8089 26.7484C35.0664 25.491 34.0101 24.3962 32.6751 23.5931ZM39.3246 23.5931C37.9895 24.3963 36.9333 25.4909 36.1908 26.7484C36.8932 27.9963 37.3029 29.3905 37.389 30.8167C38.1766 29.6247 39.2281 28.6224 40.4603 27.8929C40.446 26.4326 40.0791 24.9562 39.3246 23.5931Z" fill="white"/>
</g>
<path d="M22.88 101H20.448L29.152 79.56H32.384L41.056 101H38.592L32 85L30.784 81.736H30.624L29.376 85L22.88 101ZM37.184 94.728H24.32V92.616H37.184V94.728ZM44.6325 101H42.3285V79.56H44.6325V101ZM61.6113 101.32C59.6486 101.32 58.0379 101.011 56.7793 100.392C55.5206 99.752 54.5819 98.92 53.9633 97.896C53.3659 96.8507 53.0673 95.72 53.0673 94.504V94.024H55.3393V94.344C55.3393 95.3467 55.5313 96.2107 55.9153 96.936C56.3206 97.64 56.9819 98.1947 57.8993 98.6C58.8166 98.984 60.0753 99.176 61.6753 99.176C63.4673 99.176 64.7793 98.8773 65.6113 98.28C66.4646 97.6827 66.8913 96.776 66.8913 95.56C66.8913 94.7493 66.7526 94.0987 66.4753 93.608C66.2193 93.096 65.7713 92.68 65.1313 92.36C64.5126 92.04 63.6593 91.7627 62.5713 91.528L58.8593 90.728C57.7286 90.4933 56.7366 90.152 55.8833 89.704C55.0513 89.2347 54.3899 88.6267 53.8993 87.88C53.4299 87.112 53.1953 86.1627 53.1953 85.032C53.1953 83.9867 53.4833 83.0267 54.0593 82.152C54.6353 81.256 55.4886 80.552 56.6193 80.04C57.7713 79.5067 59.1793 79.24 60.8433 79.24C62.6993 79.24 64.2139 79.5707 65.3873 80.232C66.5819 80.872 67.4566 81.7253 68.0113 82.792C68.5659 83.8373 68.8433 84.9467 68.8433 86.12V86.536H66.5713V86.184C66.5713 85.1813 66.3793 84.328 65.9953 83.624C65.6326 82.8987 65.0246 82.344 64.1713 81.96C63.3393 81.5547 62.2193 81.352 60.8113 81.352C59.0406 81.352 57.7179 81.6507 56.8433 82.248C55.9686 82.824 55.5312 83.6987 55.5312 84.872C55.5312 85.6827 55.6699 86.3333 55.9473 86.824C56.2246 87.2933 56.6833 87.6773 57.3233 87.976C57.9633 88.2533 58.7953 88.5093 59.8193 88.744L63.5313 89.608C64.7259 89.864 65.7393 90.2373 66.5713 90.728C67.4033 91.1973 68.0433 91.816 68.4913 92.584C68.9606 93.352 69.1953 94.3013 69.1953 95.432C69.1953 96.4987 68.9179 97.4907 68.3633 98.408C67.8086 99.304 66.9659 100.019 65.8353 100.552C64.7046 101.064 63.2966 101.32 61.6113 101.32ZM77.619 101.32C76.2537 101.32 75.123 101.032 74.227 100.456C73.331 99.8587 72.6697 99.0693 72.243 98.088C71.8163 97.0853 71.603 95.9547 71.603 94.696V85.192H73.875V94.376C73.875 96.0827 74.2377 97.3307 74.963 98.12C75.6883 98.9093 76.819 99.304 78.355 99.304C79.315 99.304 80.1683 99.1227 80.915 98.76C81.6617 98.3973 82.2377 97.832 82.643 97.064C83.0483 96.2747 83.251 95.272 83.251 94.056L83.955 94.024V97.512H83.347C83.1337 98.1093 82.7817 98.7067 82.291 99.304C81.8217 99.88 81.203 100.36 80.435 100.744C79.667 101.128 78.7283 101.32 77.619 101.32ZM85.523 101H83.475V95.944L83.251 95.784V85.192H85.523V101ZM96.6358 101.32C95.1211 101.32 93.8731 100.979 92.8918 100.296C91.9318 99.6133 91.2811 98.8453 90.9398 97.992H90.2358L90.3318 94.472H90.9398C90.9398 95.5387 91.1424 96.4347 91.5477 97.16C91.9531 97.8853 92.5291 98.4293 93.2758 98.792C94.0438 99.1547 94.9504 99.336 95.9958 99.336C96.7638 99.336 97.4571 99.24 98.0758 99.048C98.6944 98.8347 99.2171 98.504 99.6438 98.056C100.092 97.5867 100.433 96.9467 100.668 96.136C100.902 95.3253 101.02 94.312 101.02 93.096C101.02 91.88 100.902 90.8773 100.668 90.088C100.433 89.2987 100.102 88.6693 99.6758 88.2C99.2491 87.7093 98.7264 87.368 98.1078 87.176C97.4891 86.9627 96.7851 86.856 95.9958 86.856C94.9718 86.856 94.0758 87.0373 93.3078 87.4C92.5398 87.7627 91.9531 88.3067 91.5477 89.032C91.1424 89.736 90.9398 90.632 90.9398 91.72H90.3318L90.2358 88.232H90.8438C91.1851 87.2507 91.8144 86.4507 92.7318 85.832C93.6704 85.192 94.8864 84.872 96.3798 84.872C98.5984 84.872 100.305 85.6187 101.5 87.112C102.694 88.6053 103.292 90.6 103.292 93.096C103.292 95.592 102.716 97.5867 101.564 99.08C100.433 100.573 98.7904 101.32 96.6358 101.32ZM90.9398 106.568H88.6678V85.192H90.7158V89.288L90.9398 89.704V106.568ZM113.605 101.32C112.09 101.32 110.842 100.979 109.861 100.296C108.901 99.6133 108.25 98.8453 107.909 97.992H107.205L107.301 94.472H107.909C107.909 95.5387 108.111 96.4347 108.516 97.16C108.922 97.8853 109.498 98.4293 110.245 98.792C111.013 99.1547 111.919 99.336 112.965 99.336C113.733 99.336 114.426 99.24 115.045 99.048C115.663 98.8347 116.186 98.504 116.613 98.056C117.061 97.5867 117.402 96.9467 117.637 96.136C117.871 95.3253 117.989 94.312 117.989 93.096C117.989 91.88 117.871 90.8773 117.637 90.088C117.402 89.2987 117.071 88.6693 116.645 88.2C116.218 87.7093 115.695 87.368 115.077 87.176C114.458 86.9627 113.754 86.856 112.965 86.856C111.941 86.856 111.045 87.0373 110.277 87.4C109.509 87.7627 108.922 88.3067 108.516 89.032C108.111 89.736 107.909 90.632 107.909 91.72H107.301L107.205 88.232H107.812C108.154 87.2507 108.783 86.4507 109.701 85.832C110.639 85.192 111.855 84.872 113.349 84.872C115.567 84.872 117.274 85.6187 118.469 87.112C119.663 88.6053 120.26 90.6 120.26 93.096C120.26 95.592 119.685 97.5867 118.533 99.08C117.402 100.573 115.759 101.32 113.605 101.32ZM107.909 106.568H105.637V85.192H107.685V89.288L107.909 89.704V106.568ZM129.77 101.32C128.234 101.32 126.89 100.968 125.738 100.264C124.586 99.56 123.69 98.5893 123.049 97.352C122.41 96.0933 122.09 94.664 122.09 93.064C122.09 91.4853 122.41 90.088 123.049 88.872C123.69 87.6347 124.586 86.664 125.738 85.96C126.89 85.2347 128.234 84.872 129.77 84.872C131.306 84.872 132.639 85.2347 133.77 85.96C134.9 86.664 135.775 87.6347 136.394 88.872C137.012 90.088 137.322 91.4853 137.322 93.064C137.322 94.664 137.012 96.0933 136.394 97.352C135.775 98.5893 134.9 99.56 133.77 100.264C132.639 100.968 131.306 101.32 129.77 101.32ZM129.77 99.24C131.69 99.24 133.055 98.7067 133.866 97.64C134.698 96.5733 135.114 95.048 135.114 93.064C135.114 91.1013 134.698 89.5867 133.866 88.52C133.055 87.4533 131.69 86.92 129.77 86.92C127.85 86.92 126.474 87.4533 125.641 88.52C124.81 89.5867 124.394 91.1013 124.394 93.064C124.394 95.048 124.81 96.5733 125.641 97.64C126.474 98.7067 127.85 99.24 129.77 99.24ZM141.94 101H139.636V85H141.716V89.352L141.94 89.512V101ZM141.94 90.536H141.172V87.624H141.876C142.153 86.8987 142.654 86.2587 143.38 85.704C144.126 85.1493 145.086 84.872 146.26 84.872C147.348 84.872 148.222 85.1067 148.884 85.576C149.545 86.024 150.025 86.632 150.324 87.4C150.622 88.168 150.772 89.0107 150.772 89.928V90.792H148.468V90.28C148.468 89.0427 148.244 88.168 147.796 87.656C147.348 87.1227 146.558 86.856 145.428 86.856C144.212 86.856 143.326 87.144 142.772 87.72C142.217 88.296 141.94 89.2347 141.94 90.536ZM158.807 101.032C157.335 101.032 156.193 100.701 155.383 100.04C154.572 99.3573 154.167 98.184 154.167 96.52V85.448L154.775 81.16H156.471V96.648C156.471 97.5867 156.705 98.1947 157.175 98.472C157.644 98.7493 158.391 98.888 159.415 98.888H161.463V100.776C161.207 100.819 160.833 100.872 160.343 100.936C159.873 101 159.361 101.032 158.807 101.032ZM161.463 87.176H151.511V85.192H161.463V87.176ZM30.4 131.64H23.008V129.592H30.752C32.5013 129.592 33.792 129.208 34.624 128.44C35.456 127.651 35.872 126.371 35.872 124.6C35.872 122.851 35.456 121.592 34.624 120.824C33.792 120.035 32.5013 119.64 30.752 119.64H23.008V117.56H30.4C31.8933 117.56 33.2267 117.837 34.4 118.392C35.5733 118.947 36.4907 119.747 37.152 120.792C37.8347 121.837 38.176 123.107 38.176 124.6C38.176 126.093 37.8347 127.373 37.152 128.44C36.4907 129.485 35.5733 130.285 34.4 130.84C33.2267 131.373 31.8933 131.64 30.4 131.64ZM24.32 139H22.016V117.56H24.32V139ZM52.0228 139H49.9428V135.544L49.8468 134.776V128.824C49.8468 127.437 49.5268 126.445 48.8868 125.848C48.2681 125.229 47.2121 124.92 45.7188 124.92C44.2681 124.92 43.2014 125.208 42.5188 125.784C41.8361 126.36 41.4948 127.288 41.4948 128.568V129.048H39.2548V128.792C39.2548 127.683 39.5214 126.68 40.0548 125.784C40.5881 124.888 41.3454 124.184 42.3268 123.672C43.3294 123.139 44.5134 122.872 45.8788 122.872C47.2868 122.872 48.4388 123.149 49.3348 123.704C50.2521 124.259 50.9241 125.005 51.3508 125.944C51.7988 126.861 52.0228 127.917 52.0228 129.112V139ZM43.8308 139.32C42.4014 139.32 41.1961 138.968 40.2148 138.264C39.2548 137.539 38.7747 136.515 38.7747 135.192C38.7747 134.253 38.9881 133.496 39.4148 132.92C39.8628 132.323 40.5028 131.843 41.3348 131.48C42.1668 131.117 43.1481 130.872 44.2788 130.744L50.1668 129.944V131.672L44.4708 132.472C43.2121 132.621 42.3161 132.877 41.7828 133.24C41.2708 133.581 41.0148 134.179 41.0148 135.032C41.0148 135.843 41.2814 136.44 41.8148 136.824C42.3694 137.208 43.2548 137.4 44.4708 137.4C45.3881 137.4 46.2521 137.229 47.0628 136.888C47.8948 136.547 48.5668 136.003 49.0788 135.256C49.5908 134.509 49.8468 133.507 49.8468 132.248L50.2948 136.152L49.7828 136.056C49.4841 136.653 49.0574 137.197 48.5028 137.688C47.9481 138.179 47.2761 138.573 46.4868 138.872C45.7188 139.171 44.8334 139.32 43.8308 139.32ZM57.346 139H55.042V123H57.122V127.352L57.346 127.512V139ZM57.346 128.536H56.578V125.624H57.282C57.5593 124.899 58.0607 124.259 58.786 123.704C59.5327 123.149 60.4927 122.872 61.666 122.872C62.754 122.872 63.6287 123.107 64.29 123.576C64.9513 124.024 65.4313 124.632 65.73 125.4C66.0287 126.168 66.178 127.011 66.178 127.928V128.792H63.874V128.28C63.874 127.043 63.65 126.168 63.202 125.656C62.754 125.123 61.9647 124.856 60.834 124.856C59.618 124.856 58.7327 125.144 58.178 125.72C57.6233 126.296 57.346 127.235 57.346 128.536ZM74.2128 139.032C72.7408 139.032 71.5994 138.701 70.7888 138.04C69.9781 137.357 69.5728 136.184 69.5728 134.52V123.448L70.1808 119.16H71.8768V134.648C71.8768 135.587 72.1114 136.195 72.5808 136.472C73.0501 136.749 73.7968 136.888 74.8208 136.888H76.8688V138.776C76.6128 138.819 76.2394 138.872 75.7488 138.936C75.2794 139 74.7674 139.032 74.2128 139.032ZM76.8688 125.176H66.9168V123.192H76.8688V125.176ZM92.4903 139H90.1863V129.784C90.1863 128.099 89.8663 126.861 89.2263 126.072C88.5863 125.283 87.4556 124.888 85.8343 124.888C84.8103 124.888 83.9356 125.059 83.2103 125.4C82.4849 125.741 81.9303 126.275 81.5463 127C81.1836 127.725 81.0023 128.685 81.0023 129.88L80.3943 129.912L80.3303 126.456H80.9062C81.0983 125.901 81.4289 125.357 81.8983 124.824C82.3676 124.269 82.9863 123.811 83.7543 123.448C84.5223 123.064 85.4503 122.872 86.5383 122.872C87.9036 122.872 89.0129 123.139 89.8663 123.672C90.7409 124.205 91.3916 124.963 91.8183 125.944C92.2663 126.904 92.4903 128.024 92.4903 129.304V139ZM81.0023 139H78.6983V123.192H80.7783V128.216L81.0023 128.376V139ZM102.17 139.32C100.548 139.32 99.1831 138.968 98.0738 138.264C96.9858 137.539 96.1538 136.557 95.5778 135.32C95.0231 134.083 94.7458 132.675 94.7458 131.096C94.7458 129.496 95.0444 128.077 95.6418 126.84C96.2604 125.603 97.1138 124.632 98.2018 123.928C99.3111 123.224 100.612 122.872 102.106 122.872C103.386 122.872 104.548 123.128 105.594 123.64C106.66 124.152 107.503 124.92 108.122 125.944C108.74 126.968 109.05 128.259 109.05 129.816C109.05 130.2 109.028 130.563 108.986 130.904C108.964 131.245 108.932 131.523 108.89 131.736H95.9618V130.04H107.226L106.842 130.456C106.948 129.091 106.82 128.003 106.458 127.192C106.095 126.381 105.54 125.784 104.794 125.4C104.047 125.016 103.14 124.824 102.074 124.824C100.196 124.824 98.8631 125.357 98.0738 126.424C97.3058 127.469 96.9218 128.888 96.9218 130.68V131.288C96.9218 132.547 97.0818 133.624 97.4018 134.52C97.7431 135.395 98.2978 136.077 99.0658 136.568C99.8338 137.037 100.879 137.272 102.202 137.272C103.78 137.272 104.911 136.952 105.594 136.312C106.298 135.651 106.65 134.851 106.65 133.912V133.72H108.922V133.944C108.922 134.968 108.634 135.885 108.058 136.696C107.503 137.507 106.714 138.147 105.69 138.616C104.687 139.085 103.514 139.32 102.17 139.32ZM113.815 139H111.511V123H113.591V127.352L113.815 127.512V139ZM113.815 128.536H113.047V125.624H113.751C114.028 124.899 114.529 124.259 115.255 123.704C116.001 123.149 116.961 122.872 118.135 122.872C119.223 122.872 120.097 123.107 120.759 123.576C121.42 124.024 121.9 124.632 122.199 125.4C122.497 126.168 122.647 127.011 122.647 127.928V128.792H120.343V128.28C120.343 127.043 120.119 126.168 119.671 125.656C119.223 125.123 118.433 124.856 117.303 124.856C116.087 124.856 115.201 125.144 114.647 125.72C114.092 126.296 113.815 127.235 113.815 128.536Z" fill="white"/>
<path d="M235.988 325.656L293.604 372.973L305.648 353.912L265.419 320.874L265.9 320.114L306.129 353.152L318.173 334.092L272.148 296.294L272.629 295.534L318.654 333.331L330.699 314.271L296.265 285.992L296.745 285.232L331.179 313.51L343.464 294.07L344.144 294.628L285.693 387.126L285.014 386.568L293.123 373.734L235.507 326.418L235.988 325.656Z" fill="#BCEAA3"/>
<path d="M21.0312 184V172.359H24.9688C25.8802 172.359 26.625 172.516 27.2031 172.828C27.7865 173.135 28.2188 173.56 28.5 174.102C28.7812 174.638 28.9219 175.25 28.9219 175.938C28.9219 176.62 28.7812 177.227 28.5 177.758C28.224 178.289 27.7943 178.706 27.2109 179.008C26.6328 179.305 25.8906 179.453 24.9844 179.453H21.8125V178.188H24.9375C25.5625 178.188 26.0651 178.096 26.4453 177.914C26.8255 177.732 27.1016 177.474 27.2734 177.141C27.4453 176.802 27.5312 176.401 27.5312 175.938C27.5312 175.469 27.4427 175.06 27.2656 174.711C27.0938 174.362 26.8177 174.091 26.4375 173.898C26.0573 173.706 25.5521 173.609 24.9219 173.609H22.4375V184H21.0312ZM27.7344 184L24.9219 178.766H26.5156L29.375 184H27.7344ZM33.4062 184.188C32.5677 184.188 31.8411 184 31.2266 183.625C30.6172 183.25 30.1484 182.727 29.8203 182.055C29.4922 181.378 29.3281 180.594 29.3281 179.703C29.3281 178.807 29.4896 178.018 29.8125 177.336C30.1354 176.654 30.5885 176.12 31.1719 175.734C31.7604 175.349 32.4479 175.156 33.2344 175.156C33.6875 175.156 34.138 175.232 34.5859 175.383C35.0339 175.534 35.4401 175.779 35.8047 176.117C36.1745 176.456 36.4688 176.904 36.6875 177.461C36.9062 178.018 37.0156 178.703 37.0156 179.516V180.094H30.2812V178.938H36.2891L35.6719 179.375C35.6719 178.792 35.5807 178.273 35.3984 177.82C35.2161 177.367 34.9427 177.01 34.5781 176.75C34.2188 176.49 33.7708 176.359 33.2344 176.359C32.6979 176.359 32.237 176.492 31.8516 176.758C31.4714 177.018 31.1797 177.359 30.9766 177.781C30.7734 178.203 30.6719 178.656 30.6719 179.141V179.906C30.6719 180.568 30.7865 181.128 31.0156 181.586C31.2448 182.044 31.5651 182.393 31.9766 182.633C32.388 182.867 32.8646 182.984 33.4062 182.984C33.7552 182.984 34.0729 182.935 34.3594 182.836C34.6458 182.732 34.8932 182.578 35.1016 182.375C35.3099 182.167 35.4688 181.911 35.5781 181.609L36.875 181.984C36.7396 182.422 36.5104 182.807 36.1875 183.141C35.8698 183.469 35.474 183.727 35 183.914C34.526 184.096 33.9948 184.188 33.4062 184.188ZM39.1094 172.359V184H37.7812V172.359H39.1094ZM40.3281 184V175.266H41.6562V184H40.3281ZM41 173.812C40.7396 173.812 40.5156 173.724 40.3281 173.547C40.1406 173.37 40.0469 173.156 40.0469 172.906C40.0469 172.656 40.1406 172.443 40.3281 172.266C40.5156 172.089 40.7396 172 41 172C41.2604 172 41.4844 172.089 41.6719 172.266C41.8594 172.443 41.9531 172.656 41.9531 172.906C41.9531 173.156 41.8594 173.37 41.6719 173.547C41.4844 173.724 41.2604 173.812 41 173.812ZM45.4375 184.203C44.8854 184.203 44.3828 184.099 43.9297 183.891C43.4766 183.677 43.1172 183.37 42.8516 182.969C42.5859 182.568 42.4531 182.083 42.4531 181.516C42.4531 181.016 42.5521 180.612 42.75 180.305C42.9479 179.992 43.2109 179.747 43.5391 179.57C43.8724 179.388 44.237 179.253 44.6328 179.164C45.0339 179.076 45.4375 179.005 45.8438 178.953C46.375 178.885 46.8047 178.833 47.1328 178.797C47.4661 178.76 47.7083 178.698 47.8594 178.609C48.0156 178.521 48.0938 178.37 48.0938 178.156V178.109C48.0938 177.552 47.9401 177.12 47.6328 176.812C47.3307 176.5 46.8698 176.344 46.25 176.344C45.6146 176.344 45.1146 176.484 44.75 176.766C44.3854 177.042 44.1302 177.339 43.9844 177.656L42.7031 177.203C42.9323 176.672 43.237 176.258 43.6172 175.961C44.0026 175.664 44.4193 175.456 44.8672 175.336C45.3203 175.216 45.7656 175.156 46.2031 175.156C46.4844 175.156 46.8073 175.19 47.1719 175.258C47.5365 175.32 47.8906 175.456 48.2344 175.664C48.5833 175.867 48.8698 176.177 49.0938 176.594C49.3229 177.005 49.4375 177.557 49.4375 178.25V184H48.0938V182.812H48.0312C47.9427 183 47.7917 183.203 47.5781 183.422C47.3646 183.635 47.0807 183.82 46.7266 183.977C46.3776 184.128 45.9479 184.203 45.4375 184.203ZM45.6406 183C46.1719 183 46.6198 182.896 46.9844 182.688C47.349 182.479 47.625 182.211 47.8125 181.883C48 181.549 48.0938 181.203 48.0938 180.844V179.609C48.0365 179.677 47.9115 179.74 47.7188 179.797C47.5312 179.849 47.3125 179.896 47.0625 179.938C46.8177 179.979 46.5781 180.016 46.3438 180.047C46.1094 180.073 45.9219 180.094 45.7812 180.109C45.4323 180.156 45.1068 180.232 44.8047 180.336C44.5026 180.435 44.2578 180.583 44.0703 180.781C43.888 180.979 43.7969 181.25 43.7969 181.594C43.7969 182.057 43.9688 182.409 44.3125 182.648C44.6615 182.883 45.1042 183 45.6406 183ZM54.6406 184.188C54.0833 184.188 53.6354 184.094 53.2969 183.906C52.9583 183.714 52.6979 183.497 52.5156 183.258C52.3333 183.013 52.1927 182.812 52.0938 182.656H51.9375V184H50.6562V172.359H51.9844V176.656H52.0938C52.1927 176.505 52.3307 176.312 52.5078 176.078C52.6849 175.839 52.9401 175.625 53.2734 175.438C53.6068 175.25 54.0573 175.156 54.625 175.156C55.3594 175.156 56.0052 175.341 56.5625 175.711C57.1198 176.076 57.5547 176.596 57.8672 177.273C58.1849 177.945 58.3438 178.74 58.3438 179.656C58.3438 180.578 58.1875 181.38 57.875 182.062C57.5625 182.74 57.1276 183.263 56.5703 183.633C56.013 184.003 55.3698 184.188 54.6406 184.188ZM54.4688 182.984C55.026 182.984 55.4922 182.836 55.8672 182.539C56.2422 182.237 56.5234 181.833 56.7109 181.328C56.9036 180.823 57 180.26 57 179.641C57 179.026 56.9062 178.471 56.7188 177.977C56.5312 177.482 56.25 177.089 55.875 176.797C55.5052 176.505 55.0365 176.359 54.4688 176.359C53.9219 176.359 53.4635 176.497 53.0938 176.773C52.724 177.044 52.4427 177.427 52.25 177.922C52.0625 178.411 51.9688 178.984 51.9688 179.641C51.9688 180.297 52.0651 180.878 52.2578 181.383C52.4505 181.883 52.7318 182.276 53.1016 182.562C53.4766 182.844 53.9323 182.984 54.4688 182.984ZM60.4688 172.359V184H59.1406V172.359H60.4688ZM65.3438 184.188C64.5052 184.188 63.7786 184 63.1641 183.625C62.5547 183.25 62.0859 182.727 61.7578 182.055C61.4297 181.378 61.2656 180.594 61.2656 179.703C61.2656 178.807 61.4271 178.018 61.75 177.336C62.0729 176.654 62.526 176.12 63.1094 175.734C63.6979 175.349 64.3854 175.156 65.1719 175.156C65.625 175.156 66.0755 175.232 66.5234 175.383C66.9714 175.534 67.3776 175.779 67.7422 176.117C68.112 176.456 68.4062 176.904 68.625 177.461C68.8438 178.018 68.9531 178.703 68.9531 179.516V180.094H62.2188V178.938H68.2266L67.6094 179.375C67.6094 178.792 67.5182 178.273 67.3359 177.82C67.1536 177.367 66.8802 177.01 66.5156 176.75C66.1562 176.49 65.7083 176.359 65.1719 176.359C64.6354 176.359 64.1745 176.492 63.7891 176.758C63.4089 177.018 63.1172 177.359 62.9141 177.781C62.7109 178.203 62.6094 178.656 62.6094 179.141V179.906C62.6094 180.568 62.724 181.128 62.9531 181.586C63.1823 182.044 63.5026 182.393 63.9141 182.633C64.3255 182.867 64.8021 182.984 65.3438 182.984C65.6927 182.984 66.0104 182.935 66.2969 182.836C66.5833 182.732 66.8307 182.578 67.0391 182.375C67.2474 182.167 67.4062 181.911 67.5156 181.609L68.8125 181.984C68.6771 182.422 68.4479 182.807 68.125 183.141C67.8073 183.469 67.4115 183.727 66.9375 183.914C66.4635 184.096 65.9323 184.188 65.3438 184.188ZM69.4844 186.766L70.1719 182.375H71.7188L70.5156 186.766H69.4844ZM80.3438 184.203C79.5104 184.203 78.7891 184.07 78.1797 183.805C77.5703 183.534 77.0911 183.159 76.7422 182.68C76.3984 182.195 76.2031 181.635 76.1562 181H77.6094C77.651 181.438 77.7995 181.799 78.0547 182.086C78.3151 182.372 78.6458 182.586 79.0469 182.727C79.4479 182.867 79.8802 182.938 80.3438 182.938C80.8802 182.938 81.362 182.849 81.7891 182.672C82.2214 182.495 82.5625 182.247 82.8125 181.93C83.0625 181.612 83.1875 181.24 83.1875 180.812C83.1875 180.427 83.0781 180.115 82.8594 179.875C82.6406 179.635 82.3542 179.44 82 179.289C81.651 179.138 81.2708 179.005 80.8594 178.891L79.4375 178.484C78.526 178.224 77.8047 177.852 77.2734 177.367C76.7474 176.878 76.4844 176.24 76.4844 175.453C76.4844 174.802 76.6589 174.234 77.0078 173.75C77.362 173.26 77.8385 172.88 78.4375 172.609C79.0417 172.339 79.7135 172.203 80.4531 172.203C81.2031 172.203 81.8698 172.339 82.4531 172.609C83.0365 172.875 83.5 173.24 83.8438 173.703C84.1875 174.161 84.3698 174.682 84.3906 175.266H83.0156C82.9479 174.693 82.6719 174.247 82.1875 173.93C81.7083 173.612 81.1146 173.453 80.4062 173.453C79.8958 173.453 79.4479 173.536 79.0625 173.703C78.6771 173.87 78.3776 174.099 78.1641 174.391C77.9505 174.682 77.8438 175.016 77.8438 175.391C77.8438 175.802 77.9714 176.135 78.2266 176.391C78.4818 176.641 78.7839 176.836 79.1328 176.977C79.487 177.117 79.8073 177.229 80.0938 177.312L81.2656 177.641C81.5677 177.724 81.9036 177.836 82.2734 177.977C82.6484 178.117 83.0078 178.307 83.3516 178.547C83.7005 178.786 83.987 179.094 84.2109 179.469C84.4349 179.839 84.5469 180.297 84.5469 180.844C84.5469 181.469 84.3828 182.036 84.0547 182.547C83.7266 183.052 83.25 183.456 82.625 183.758C82 184.055 81.2396 184.203 80.3438 184.203ZM88.9688 184.188C88.1562 184.188 87.4531 183.995 86.8594 183.609C86.2708 183.219 85.8151 182.685 85.4922 182.008C85.1745 181.331 85.0156 180.557 85.0156 179.688C85.0156 178.797 85.1797 178.013 85.5078 177.336C85.8359 176.654 86.2943 176.12 86.8828 175.734C87.4766 175.349 88.1667 175.156 88.9531 175.156C89.5677 175.156 90.1198 175.271 90.6094 175.5C91.1042 175.724 91.5078 176.042 91.8203 176.453C92.138 176.865 92.3333 177.344 92.4062 177.891H91.0625C90.9948 177.625 90.8724 177.375 90.6953 177.141C90.5182 176.906 90.2839 176.719 89.9922 176.578C89.7057 176.432 89.3646 176.359 88.9688 176.359C88.4479 176.359 87.9922 176.495 87.6016 176.766C87.2109 177.036 86.9062 177.419 86.6875 177.914C86.4688 178.404 86.3594 178.979 86.3594 179.641C86.3594 180.312 86.4661 180.901 86.6797 181.406C86.8932 181.906 87.1953 182.294 87.5859 182.57C87.9818 182.846 88.4427 182.984 88.9688 182.984C89.4948 182.984 89.9453 182.849 90.3203 182.578C90.6953 182.302 90.9427 181.927 91.0625 181.453H92.4062C92.3333 181.969 92.1458 182.432 91.8438 182.844C91.5469 183.255 91.1536 183.583 90.6641 183.828C90.1797 184.068 89.6146 184.188 88.9688 184.188ZM95.7344 184.203C95.1823 184.203 94.6797 184.099 94.2266 183.891C93.7734 183.677 93.4141 183.37 93.1484 182.969C92.8828 182.568 92.75 182.083 92.75 181.516C92.75 181.016 92.849 180.612 93.0469 180.305C93.2448 179.992 93.5078 179.747 93.8359 179.57C94.1693 179.388 94.5339 179.253 94.9297 179.164C95.3307 179.076 95.7344 179.005 96.1406 178.953C96.6719 178.885 97.1016 178.833 97.4297 178.797C97.763 178.76 98.0052 178.698 98.1562 178.609C98.3125 178.521 98.3906 178.37 98.3906 178.156V178.109C98.3906 177.552 98.237 177.12 97.9297 176.812C97.6276 176.5 97.1667 176.344 96.5469 176.344C95.9115 176.344 95.4115 176.484 95.0469 176.766C94.6823 177.042 94.4271 177.339 94.2812 177.656L93 177.203C93.2292 176.672 93.5339 176.258 93.9141 175.961C94.2995 175.664 94.7161 175.456 95.1641 175.336C95.6172 175.216 96.0625 175.156 96.5 175.156C96.7812 175.156 97.1042 175.19 97.4688 175.258C97.8333 175.32 98.1875 175.456 98.5312 175.664C98.8802 175.867 99.1667 176.177 99.3906 176.594C99.6198 177.005 99.7344 177.557 99.7344 178.25V184H98.3906V182.812H98.3281C98.2396 183 98.0885 183.203 97.875 183.422C97.6615 183.635 97.3776 183.82 97.0234 183.977C96.6745 184.128 96.2448 184.203 95.7344 184.203ZM95.9375 183C96.4688 183 96.9167 182.896 97.2812 182.688C97.6458 182.479 97.9219 182.211 98.1094 181.883C98.2969 181.549 98.3906 181.203 98.3906 180.844V179.609C98.3333 179.677 98.2083 179.74 98.0156 179.797C97.8281 179.849 97.6094 179.896 97.3594 179.938C97.1146 179.979 96.875 180.016 96.6406 180.047C96.4062 180.073 96.2188 180.094 96.0781 180.109C95.7292 180.156 95.4036 180.232 95.1016 180.336C94.7995 180.435 94.5547 180.583 94.3672 180.781C94.1849 180.979 94.0938 181.25 94.0938 181.594C94.0938 182.057 94.2656 182.409 94.6094 182.648C94.9583 182.883 95.401 183 95.9375 183ZM102.281 172.359V184H100.953V172.359H102.281ZM106.062 184.203C105.51 184.203 105.008 184.099 104.555 183.891C104.102 183.677 103.742 183.37 103.477 182.969C103.211 182.568 103.078 182.083 103.078 181.516C103.078 181.016 103.177 180.612 103.375 180.305C103.573 179.992 103.836 179.747 104.164 179.57C104.497 179.388 104.862 179.253 105.258 179.164C105.659 179.076 106.062 179.005 106.469 178.953C107 178.885 107.43 178.833 107.758 178.797C108.091 178.76 108.333 178.698 108.484 178.609C108.641 178.521 108.719 178.37 108.719 178.156V178.109C108.719 177.552 108.565 177.12 108.258 176.812C107.956 176.5 107.495 176.344 106.875 176.344C106.24 176.344 105.74 176.484 105.375 176.766C105.01 177.042 104.755 177.339 104.609 177.656L103.328 177.203C103.557 176.672 103.862 176.258 104.242 175.961C104.628 175.664 105.044 175.456 105.492 175.336C105.945 175.216 106.391 175.156 106.828 175.156C107.109 175.156 107.432 175.19 107.797 175.258C108.161 175.32 108.516 175.456 108.859 175.664C109.208 175.867 109.495 176.177 109.719 176.594C109.948 177.005 110.062 177.557 110.062 178.25V184H108.719V182.812H108.656C108.568 183 108.417 183.203 108.203 183.422C107.99 183.635 107.706 183.82 107.352 183.977C107.003 184.128 106.573 184.203 106.062 184.203ZM106.266 183C106.797 183 107.245 182.896 107.609 182.688C107.974 182.479 108.25 182.211 108.438 181.883C108.625 181.549 108.719 181.203 108.719 180.844V179.609C108.661 179.677 108.536 179.74 108.344 179.797C108.156 179.849 107.938 179.896 107.688 179.938C107.443 179.979 107.203 180.016 106.969 180.047C106.734 180.073 106.547 180.094 106.406 180.109C106.057 180.156 105.732 180.232 105.43 180.336C105.128 180.435 104.883 180.583 104.695 180.781C104.513 180.979 104.422 181.25 104.422 181.594C104.422 182.057 104.594 182.409 104.938 182.648C105.286 182.883 105.729 183 106.266 183ZM115.266 184.188C114.708 184.188 114.26 184.094 113.922 183.906C113.583 183.714 113.323 183.497 113.141 183.258C112.958 183.013 112.818 182.812 112.719 182.656H112.562V184H111.281V172.359H112.609V176.656H112.719C112.818 176.505 112.956 176.312 113.133 176.078C113.31 175.839 113.565 175.625 113.898 175.438C114.232 175.25 114.682 175.156 115.25 175.156C115.984 175.156 116.63 175.341 117.188 175.711C117.745 176.076 118.18 176.596 118.492 177.273C118.81 177.945 118.969 178.74 118.969 179.656C118.969 180.578 118.812 181.38 118.5 182.062C118.188 182.74 117.753 183.263 117.195 183.633C116.638 184.003 115.995 184.188 115.266 184.188ZM115.094 182.984C115.651 182.984 116.117 182.836 116.492 182.539C116.867 182.237 117.148 181.833 117.336 181.328C117.529 180.823 117.625 180.26 117.625 179.641C117.625 179.026 117.531 178.471 117.344 177.977C117.156 177.482 116.875 177.089 116.5 176.797C116.13 176.505 115.661 176.359 115.094 176.359C114.547 176.359 114.089 176.497 113.719 176.773C113.349 177.044 113.068 177.427 112.875 177.922C112.688 178.411 112.594 178.984 112.594 179.641C112.594 180.297 112.69 180.878 112.883 181.383C113.076 181.883 113.357 182.276 113.727 182.562C114.102 182.844 114.557 182.984 115.094 182.984ZM121.094 172.359V184H119.766V172.359H121.094ZM125.969 184.188C125.13 184.188 124.404 184 123.789 183.625C123.18 183.25 122.711 182.727 122.383 182.055C122.055 181.378 121.891 180.594 121.891 179.703C121.891 178.807 122.052 178.018 122.375 177.336C122.698 176.654 123.151 176.12 123.734 175.734C124.323 175.349 125.01 175.156 125.797 175.156C126.25 175.156 126.701 175.232 127.148 175.383C127.596 175.534 128.003 175.779 128.367 176.117C128.737 176.456 129.031 176.904 129.25 177.461C129.469 178.018 129.578 178.703 129.578 179.516V180.094H122.844V178.938H128.852L128.234 179.375C128.234 178.792 128.143 178.273 127.961 177.82C127.779 177.367 127.505 177.01 127.141 176.75C126.781 176.49 126.333 176.359 125.797 176.359C125.26 176.359 124.799 176.492 124.414 176.758C124.034 177.018 123.742 177.359 123.539 177.781C123.336 178.203 123.234 178.656 123.234 179.141V179.906C123.234 180.568 123.349 181.128 123.578 181.586C123.807 182.044 124.128 182.393 124.539 182.633C124.951 182.867 125.427 182.984 125.969 182.984C126.318 182.984 126.635 182.935 126.922 182.836C127.208 182.732 127.456 182.578 127.664 182.375C127.872 182.167 128.031 181.911 128.141 181.609L129.438 181.984C129.302 182.422 129.073 182.807 128.75 183.141C128.432 183.469 128.036 183.727 127.562 183.914C127.089 184.096 126.557 184.188 125.969 184.188ZM130.109 186.766L130.797 182.375H132.344L131.141 186.766H130.109ZM139.672 184.203C139.12 184.203 138.617 184.099 138.164 183.891C137.711 183.677 137.352 183.37 137.086 182.969C136.82 182.568 136.688 182.083 136.688 181.516C136.688 181.016 136.786 180.612 136.984 180.305C137.182 179.992 137.445 179.747 137.773 179.57C138.107 179.388 138.471 179.253 138.867 179.164C139.268 179.076 139.672 179.005 140.078 178.953C140.609 178.885 141.039 178.833 141.367 178.797C141.701 178.76 141.943 178.698 142.094 178.609C142.25 178.521 142.328 178.37 142.328 178.156V178.109C142.328 177.552 142.174 177.12 141.867 176.812C141.565 176.5 141.104 176.344 140.484 176.344C139.849 176.344 139.349 176.484 138.984 176.766C138.62 177.042 138.365 177.339 138.219 177.656L136.938 177.203C137.167 176.672 137.471 176.258 137.852 175.961C138.237 175.664 138.654 175.456 139.102 175.336C139.555 175.216 140 175.156 140.438 175.156C140.719 175.156 141.042 175.19 141.406 175.258C141.771 175.32 142.125 175.456 142.469 175.664C142.818 175.867 143.104 176.177 143.328 176.594C143.557 177.005 143.672 177.557 143.672 178.25V184H142.328V182.812H142.266C142.177 183 142.026 183.203 141.812 183.422C141.599 183.635 141.315 183.82 140.961 183.977C140.612 184.128 140.182 184.203 139.672 184.203ZM139.875 183C140.406 183 140.854 182.896 141.219 182.688C141.583 182.479 141.859 182.211 142.047 181.883C142.234 181.549 142.328 181.203 142.328 180.844V179.609C142.271 179.677 142.146 179.74 141.953 179.797C141.766 179.849 141.547 179.896 141.297 179.938C141.052 179.979 140.812 180.016 140.578 180.047C140.344 180.073 140.156 180.094 140.016 180.109C139.667 180.156 139.341 180.232 139.039 180.336C138.737 180.435 138.492 180.583 138.305 180.781C138.122 180.979 138.031 181.25 138.031 181.594C138.031 182.057 138.203 182.409 138.547 182.648C138.896 182.883 139.339 183 139.875 183ZM146.219 178.75V184H144.891V175.266H146.172V176.641H146.297C146.5 176.193 146.81 175.833 147.227 175.562C147.643 175.292 148.182 175.156 148.844 175.156C149.432 175.156 149.948 175.276 150.391 175.516C150.833 175.755 151.177 176.12 151.422 176.609C151.672 177.094 151.797 177.708 151.797 178.453V184H150.469V178.547C150.469 177.865 150.289 177.331 149.93 176.945C149.57 176.555 149.081 176.359 148.461 176.359C148.034 176.359 147.651 176.453 147.312 176.641C146.974 176.828 146.706 177.099 146.508 177.453C146.315 177.807 146.219 178.24 146.219 178.75ZM156.297 184.188C155.568 184.188 154.924 184.003 154.367 183.633C153.81 183.263 153.375 182.74 153.062 182.062C152.75 181.38 152.594 180.578 152.594 179.656C152.594 178.74 152.75 177.945 153.062 177.273C153.38 176.596 153.818 176.076 154.375 175.711C154.932 175.341 155.578 175.156 156.312 175.156C156.885 175.156 157.336 175.25 157.664 175.438C157.997 175.625 158.253 175.839 158.43 176.078C158.607 176.312 158.745 176.505 158.844 176.656H158.953V172.359H160.281V184H159V182.656H158.844C158.745 182.812 158.604 183.013 158.422 183.258C158.24 183.497 157.979 183.714 157.641 183.906C157.307 184.094 156.859 184.188 156.297 184.188ZM156.469 182.984C157.01 182.984 157.466 182.844 157.836 182.562C158.206 182.276 158.487 181.883 158.68 181.383C158.872 180.878 158.969 180.297 158.969 179.641C158.969 178.984 158.875 178.411 158.688 177.922C158.5 177.427 158.219 177.044 157.844 176.773C157.474 176.497 157.016 176.359 156.469 176.359C155.906 176.359 155.438 176.505 155.062 176.797C154.688 177.089 154.406 177.482 154.219 177.977C154.031 178.471 153.938 179.026 153.938 179.641C153.938 180.26 154.031 180.823 154.219 181.328C154.411 181.833 154.695 182.237 155.07 182.539C155.445 182.836 155.911 182.984 156.469 182.984ZM164.922 184V172.359H168.859C169.771 172.359 170.516 172.516 171.094 172.828C171.677 173.135 172.109 173.56 172.391 174.102C172.672 174.638 172.812 175.25 172.812 175.938C172.812 176.62 172.672 177.227 172.391 177.758C172.115 178.289 171.685 178.706 171.102 179.008C170.523 179.305 169.781 179.453 168.875 179.453H165.703V178.188H168.828C169.453 178.188 169.956 178.096 170.336 177.914C170.716 177.732 170.992 177.474 171.164 177.141C171.336 176.802 171.422 176.401 171.422 175.938C171.422 175.469 171.333 175.06 171.156 174.711C170.984 174.362 170.708 174.091 170.328 173.898C169.948 173.706 169.443 173.609 168.812 173.609H166.328V184H164.922ZM171.625 184L168.812 178.766H170.406L173.266 184H171.625ZM177.297 184.188C176.458 184.188 175.732 184 175.117 183.625C174.508 183.25 174.039 182.727 173.711 182.055C173.383 181.378 173.219 180.594 173.219 179.703C173.219 178.807 173.38 178.018 173.703 177.336C174.026 176.654 174.479 176.12 175.062 175.734C175.651 175.349 176.339 175.156 177.125 175.156C177.578 175.156 178.029 175.232 178.477 175.383C178.924 175.534 179.331 175.779 179.695 176.117C180.065 176.456 180.359 176.904 180.578 177.461C180.797 178.018 180.906 178.703 180.906 179.516V180.094H174.172V178.938H180.18L179.562 179.375C179.562 178.792 179.471 178.273 179.289 177.82C179.107 177.367 178.833 177.01 178.469 176.75C178.109 176.49 177.661 176.359 177.125 176.359C176.589 176.359 176.128 176.492 175.742 176.758C175.362 177.018 175.07 177.359 174.867 177.781C174.664 178.203 174.562 178.656 174.562 179.141V179.906C174.562 180.568 174.677 181.128 174.906 181.586C175.135 182.044 175.456 182.393 175.867 182.633C176.279 182.867 176.755 182.984 177.297 182.984C177.646 182.984 177.964 182.935 178.25 182.836C178.536 182.732 178.784 182.578 178.992 182.375C179.201 182.167 179.359 181.911 179.469 181.609L180.766 181.984C180.63 182.422 180.401 182.807 180.078 183.141C179.76 183.469 179.365 183.727 178.891 183.914C178.417 184.096 177.885 184.188 177.297 184.188ZM187.844 177.234L186.641 177.562C186.526 177.266 186.328 176.984 186.047 176.719C185.771 176.448 185.339 176.312 184.75 176.312C184.219 176.312 183.776 176.438 183.422 176.688C183.068 176.932 182.891 177.24 182.891 177.609C182.891 177.943 183.01 178.208 183.25 178.406C183.495 178.604 183.875 178.766 184.391 178.891L185.688 179.203C186.464 179.391 187.042 179.68 187.422 180.07C187.807 180.461 188 180.958 188 181.562C188 182.062 187.857 182.51 187.57 182.906C187.284 183.302 186.885 183.615 186.375 183.844C185.865 184.073 185.271 184.188 184.594 184.188C183.703 184.188 182.966 183.992 182.383 183.602C181.805 183.211 181.438 182.646 181.281 181.906L182.547 181.594C182.667 182.062 182.896 182.414 183.234 182.648C183.578 182.883 184.026 183 184.578 183C185.198 183 185.693 182.867 186.062 182.602C186.438 182.331 186.625 182.01 186.625 181.641C186.625 181.026 186.193 180.615 185.328 180.406L183.875 180.062C183.073 179.87 182.484 179.576 182.109 179.18C181.734 178.784 181.547 178.286 181.547 177.688C181.547 177.193 181.685 176.755 181.961 176.375C182.242 175.995 182.625 175.698 183.109 175.484C183.594 175.266 184.141 175.156 184.75 175.156C185.62 175.156 186.299 175.349 186.789 175.734C187.284 176.115 187.635 176.615 187.844 177.234ZM188.781 187.266V175.266H190.062V176.656H190.219C190.318 176.505 190.456 176.312 190.633 176.078C190.81 175.839 191.065 175.625 191.398 175.438C191.732 175.25 192.182 175.156 192.75 175.156C193.484 175.156 194.13 175.341 194.688 175.711C195.245 176.076 195.68 176.596 195.992 177.273C196.31 177.945 196.469 178.74 196.469 179.656C196.469 180.578 196.312 181.38 196 182.062C195.688 182.74 195.253 183.263 194.695 183.633C194.138 184.003 193.495 184.188 192.766 184.188C192.208 184.188 191.76 184.094 191.422 183.906C191.083 183.714 190.823 183.497 190.641 183.258C190.458 183.013 190.318 182.812 190.219 182.656H190.109V187.266H188.781ZM192.594 182.984C193.151 182.984 193.617 182.836 193.992 182.539C194.367 182.237 194.648 181.833 194.836 181.328C195.029 180.823 195.125 180.26 195.125 179.641C195.125 179.026 195.031 178.471 194.844 177.977C194.656 177.482 194.375 177.089 194 176.797C193.63 176.505 193.161 176.359 192.594 176.359C192.047 176.359 191.589 176.497 191.219 176.773C190.849 177.044 190.568 177.427 190.375 177.922C190.188 178.411 190.094 178.984 190.094 179.641C190.094 180.297 190.19 180.878 190.383 181.383C190.576 181.883 190.857 182.276 191.227 182.562C191.602 182.844 192.057 182.984 192.594 182.984ZM200.797 184.188C200.01 184.188 199.32 184 198.727 183.625C198.133 183.25 197.669 182.724 197.336 182.047C197.008 181.37 196.844 180.583 196.844 179.688C196.844 178.776 197.008 177.982 197.336 177.305C197.669 176.622 198.133 176.094 198.727 175.719C199.32 175.344 200.01 175.156 200.797 175.156C201.589 175.156 202.281 175.344 202.875 175.719C203.469 176.094 203.932 176.622 204.266 177.305C204.599 177.982 204.766 178.776 204.766 179.688C204.766 180.583 204.599 181.37 204.266 182.047C203.932 182.724 203.469 183.25 202.875 183.625C202.281 184 201.589 184.188 200.797 184.188ZM200.797 182.984C201.401 182.984 201.896 182.831 202.281 182.523C202.667 182.216 202.953 181.812 203.141 181.312C203.328 180.807 203.422 180.266 203.422 179.688C203.422 179.099 203.328 178.552 203.141 178.047C202.953 177.542 202.667 177.135 202.281 176.828C201.896 176.516 201.401 176.359 200.797 176.359C200.203 176.359 199.714 176.516 199.328 176.828C198.943 177.135 198.656 177.542 198.469 178.047C198.281 178.552 198.188 179.099 198.188 179.688C198.188 180.266 198.281 180.807 198.469 181.312C198.656 181.812 198.943 182.216 199.328 182.523C199.714 182.831 200.203 182.984 200.797 182.984ZM206.891 178.75V184H205.562V175.266H206.844V176.641H206.969C207.172 176.193 207.482 175.833 207.898 175.562C208.315 175.292 208.854 175.156 209.516 175.156C210.104 175.156 210.62 175.276 211.062 175.516C211.505 175.755 211.849 176.12 212.094 176.609C212.344 177.094 212.469 177.708 212.469 178.453V184H211.141V178.547C211.141 177.865 210.961 177.331 210.602 176.945C210.242 176.555 209.753 176.359 209.133 176.359C208.706 176.359 208.323 176.453 207.984 176.641C207.646 176.828 207.378 177.099 207.18 177.453C206.987 177.807 206.891 178.24 206.891 178.75ZM219.859 177.234L218.656 177.562C218.542 177.266 218.344 176.984 218.062 176.719C217.786 176.448 217.354 176.312 216.766 176.312C216.234 176.312 215.792 176.438 215.438 176.688C215.083 176.932 214.906 177.24 214.906 177.609C214.906 177.943 215.026 178.208 215.266 178.406C215.51 178.604 215.891 178.766 216.406 178.891L217.703 179.203C218.479 179.391 219.057 179.68 219.438 180.07C219.823 180.461 220.016 180.958 220.016 181.562C220.016 182.062 219.872 182.51 219.586 182.906C219.299 183.302 218.901 183.615 218.391 183.844C217.88 184.073 217.286 184.188 216.609 184.188C215.719 184.188 214.982 183.992 214.398 183.602C213.82 183.211 213.453 182.646 213.297 181.906L214.562 181.594C214.682 182.062 214.911 182.414 215.25 182.648C215.594 182.883 216.042 183 216.594 183C217.214 183 217.708 182.867 218.078 182.602C218.453 182.331 218.641 182.01 218.641 181.641C218.641 181.026 218.208 180.615 217.344 180.406L215.891 180.062C215.089 179.87 214.5 179.576 214.125 179.18C213.75 178.784 213.562 178.286 213.562 177.688C213.562 177.193 213.701 176.755 213.977 176.375C214.258 175.995 214.641 175.698 215.125 175.484C215.609 175.266 216.156 175.156 216.766 175.156C217.635 175.156 218.315 175.349 218.805 175.734C219.299 176.115 219.651 176.615 219.859 177.234ZM220.797 184V175.266H222.125V184H220.797ZM221.469 173.812C221.208 173.812 220.984 173.724 220.797 173.547C220.609 173.37 220.516 173.156 220.516 172.906C220.516 172.656 220.609 172.443 220.797 172.266C220.984 172.089 221.208 172 221.469 172C221.729 172 221.953 172.089 222.141 172.266C222.328 172.443 222.422 172.656 222.422 172.906C222.422 173.156 222.328 173.37 222.141 173.547C221.953 173.724 221.729 173.812 221.469 173.812ZM227.328 184.188C226.771 184.188 226.323 184.094 225.984 183.906C225.646 183.714 225.385 183.497 225.203 183.258C225.021 183.013 224.88 182.812 224.781 182.656H224.625V184H223.344V172.359H224.672V176.656H224.781C224.88 176.505 225.018 176.312 225.195 176.078C225.372 175.839 225.628 175.625 225.961 175.438C226.294 175.25 226.745 175.156 227.312 175.156C228.047 175.156 228.693 175.341 229.25 175.711C229.807 176.076 230.242 176.596 230.555 177.273C230.872 177.945 231.031 178.74 231.031 179.656C231.031 180.578 230.875 181.38 230.562 182.062C230.25 182.74 229.815 183.263 229.258 183.633C228.701 184.003 228.057 184.188 227.328 184.188ZM227.156 182.984C227.714 182.984 228.18 182.836 228.555 182.539C228.93 182.237 229.211 181.833 229.398 181.328C229.591 180.823 229.688 180.26 229.688 179.641C229.688 179.026 229.594 178.471 229.406 177.977C229.219 177.482 228.938 177.089 228.562 176.797C228.193 176.505 227.724 176.359 227.156 176.359C226.609 176.359 226.151 176.497 225.781 176.773C225.411 177.044 225.13 177.427 224.938 177.922C224.75 178.411 224.656 178.984 224.656 179.641C224.656 180.297 224.753 180.878 224.945 181.383C225.138 181.883 225.419 182.276 225.789 182.562C226.164 182.844 226.62 182.984 227.156 182.984ZM233.156 172.359V184H231.828V172.359H233.156ZM238.031 184.188C237.193 184.188 236.466 184 235.852 183.625C235.242 183.25 234.773 182.727 234.445 182.055C234.117 181.378 233.953 180.594 233.953 179.703C233.953 178.807 234.115 178.018 234.438 177.336C234.76 176.654 235.214 176.12 235.797 175.734C236.385 175.349 237.073 175.156 237.859 175.156C238.312 175.156 238.763 175.232 239.211 175.383C239.659 175.534 240.065 175.779 240.43 176.117C240.799 176.456 241.094 176.904 241.312 177.461C241.531 178.018 241.641 178.703 241.641 179.516V180.094H234.906V178.938H240.914L240.297 179.375C240.297 178.792 240.206 178.273 240.023 177.82C239.841 177.367 239.568 177.01 239.203 176.75C238.844 176.49 238.396 176.359 237.859 176.359C237.323 176.359 236.862 176.492 236.477 176.758C236.096 177.018 235.805 177.359 235.602 177.781C235.398 178.203 235.297 178.656 235.297 179.141V179.906C235.297 180.568 235.411 181.128 235.641 181.586C235.87 182.044 236.19 182.393 236.602 182.633C237.013 182.867 237.49 182.984 238.031 182.984C238.38 182.984 238.698 182.935 238.984 182.836C239.271 182.732 239.518 182.578 239.727 182.375C239.935 182.167 240.094 181.911 240.203 181.609L241.5 181.984C241.365 182.422 241.135 182.807 240.812 183.141C240.495 183.469 240.099 183.727 239.625 183.914C239.151 184.096 238.62 184.188 238.031 184.188ZM21.5156 204H20.0312L24.3125 192.359H25.7656L30.0312 204H28.5625L25.0781 194.203H24.9844L21.5156 204ZM22.0625 199.453H28.0156V200.703H22.0625V199.453ZM32 192.359V204H30.5938V192.359H32ZM36.8125 204V192.359H38.2188V202.75H43.6406V204H36.8125ZM44.3906 204V195.266H45.7188V204H44.3906ZM45.0625 193.812C44.8021 193.812 44.5781 193.724 44.3906 193.547C44.2031 193.37 44.1094 193.156 44.1094 192.906C44.1094 192.656 44.2031 192.443 44.3906 192.266C44.5781 192.089 44.8021 192 45.0625 192C45.3229 192 45.5469 192.089 45.7344 192.266C45.9219 192.443 46.0156 192.656 46.0156 192.906C46.0156 193.156 45.9219 193.37 45.7344 193.547C45.5469 193.724 45.3229 193.812 45.0625 193.812ZM50.8125 195.266V196.406H46.1094V195.266H50.8125ZM47.5156 204V194.062C47.5156 193.562 47.6328 193.146 47.8672 192.812C48.1068 192.479 48.4141 192.229 48.7891 192.062C49.1641 191.896 49.5573 191.812 49.9688 191.812C50.3021 191.812 50.5729 191.841 50.7812 191.898C50.9948 191.951 51.151 192 51.25 192.047L50.8594 193.203C50.7917 193.177 50.6979 193.148 50.5781 193.117C50.4635 193.081 50.3073 193.062 50.1094 193.062C49.6667 193.062 49.3438 193.177 49.1406 193.406C48.9427 193.63 48.8438 193.958 48.8438 194.391V204H47.5156ZM54.75 204.188C53.9115 204.188 53.1849 204 52.5703 203.625C51.9609 203.25 51.4922 202.727 51.1641 202.055C50.8359 201.378 50.6719 200.594 50.6719 199.703C50.6719 198.807 50.8333 198.018 51.1562 197.336C51.4792 196.654 51.9323 196.12 52.5156 195.734C53.1042 195.349 53.7917 195.156 54.5781 195.156C55.0312 195.156 55.4818 195.232 55.9297 195.383C56.3776 195.534 56.7839 195.779 57.1484 196.117C57.5182 196.456 57.8125 196.904 58.0312 197.461C58.25 198.018 58.3594 198.703 58.3594 199.516V200.094H51.625V198.938H57.6328L57.0156 199.375C57.0156 198.792 56.9245 198.273 56.7422 197.82C56.5599 197.367 56.2865 197.01 55.9219 196.75C55.5625 196.49 55.1146 196.359 54.5781 196.359C54.0417 196.359 53.5807 196.492 53.1953 196.758C52.8151 197.018 52.5234 197.359 52.3203 197.781C52.1172 198.203 52.0156 198.656 52.0156 199.141V199.906C52.0156 200.568 52.1302 201.128 52.3594 201.586C52.5885 202.044 52.9089 202.393 53.3203 202.633C53.7318 202.867 54.2083 202.984 54.75 202.984C55.099 202.984 55.4167 202.935 55.7031 202.836C55.9896 202.732 56.237 202.578 56.4453 202.375C56.6536 202.167 56.8125 201.911 56.9219 201.609L58.2188 201.984C58.0833 202.422 57.8542 202.807 57.5312 203.141C57.2135 203.469 56.8177 203.727 56.3438 203.914C55.8698 204.096 55.3385 204.188 54.75 204.188ZM62.6562 204.188C61.8438 204.188 61.1406 203.995 60.5469 203.609C59.9583 203.219 59.5026 202.685 59.1797 202.008C58.862 201.331 58.7031 200.557 58.7031 199.688C58.7031 198.797 58.8672 198.013 59.1953 197.336C59.5234 196.654 59.9818 196.12 60.5703 195.734C61.1641 195.349 61.8542 195.156 62.6406 195.156C63.2552 195.156 63.8073 195.271 64.2969 195.5C64.7917 195.724 65.1953 196.042 65.5078 196.453C65.8255 196.865 66.0208 197.344 66.0938 197.891H64.75C64.6823 197.625 64.5599 197.375 64.3828 197.141C64.2057 196.906 63.9714 196.719 63.6797 196.578C63.3932 196.432 63.0521 196.359 62.6562 196.359C62.1354 196.359 61.6797 196.495 61.2891 196.766C60.8984 197.036 60.5938 197.419 60.375 197.914C60.1562 198.404 60.0469 198.979 60.0469 199.641C60.0469 200.312 60.1536 200.901 60.3672 201.406C60.5807 201.906 60.8828 202.294 61.2734 202.57C61.6693 202.846 62.1302 202.984 62.6562 202.984C63.1823 202.984 63.6328 202.849 64.0078 202.578C64.3828 202.302 64.6302 201.927 64.75 201.453H66.0938C66.0208 201.969 65.8333 202.432 65.5312 202.844C65.2344 203.255 64.8411 203.583 64.3516 203.828C63.8672 204.068 63.3021 204.188 62.6562 204.188ZM67.4062 207.266C67.1771 207.271 66.974 207.255 66.7969 207.219C66.6198 207.182 66.4948 207.146 66.4219 207.109L66.7656 205.938L66.8984 205.969C67.3464 206.073 67.7214 206.049 68.0234 205.898C68.3307 205.753 68.599 205.365 68.8281 204.734L69.0781 204.047L65.8594 195.266H67.3125L69.7188 202.234H69.8125L72.2188 195.266H73.6719L69.9688 205.266C69.8021 205.719 69.5964 206.094 69.3516 206.391C69.1068 206.688 68.8229 206.906 68.5 207.047C68.1771 207.193 67.8125 207.266 67.4062 207.266ZM77.4219 204.188C76.6094 204.188 75.9062 203.995 75.3125 203.609C74.724 203.219 74.2682 202.685 73.9453 202.008C73.6276 201.331 73.4688 200.557 73.4688 199.688C73.4688 198.797 73.6328 198.013 73.9609 197.336C74.2891 196.654 74.7474 196.12 75.3359 195.734C75.9297 195.349 76.6198 195.156 77.4062 195.156C78.0208 195.156 78.5729 195.271 79.0625 195.5C79.5573 195.724 79.9609 196.042 80.2734 196.453C80.5911 196.865 80.7865 197.344 80.8594 197.891H79.5156C79.4479 197.625 79.3255 197.375 79.1484 197.141C78.9714 196.906 78.737 196.719 78.4453 196.578C78.1589 196.432 77.8177 196.359 77.4219 196.359C76.901 196.359 76.4453 196.495 76.0547 196.766C75.6641 197.036 75.3594 197.419 75.1406 197.914C74.9219 198.404 74.8125 198.979 74.8125 199.641C74.8125 200.312 74.9193 200.901 75.1328 201.406C75.3464 201.906 75.6484 202.294 76.0391 202.57C76.4349 202.846 76.8958 202.984 77.4219 202.984C77.9479 202.984 78.3984 202.849 78.7734 202.578C79.1484 202.302 79.3958 201.927 79.5156 201.453H80.8594C80.7865 201.969 80.599 202.432 80.2969 202.844C80 203.255 79.6068 203.583 79.1172 203.828C78.6328 204.068 78.0677 204.188 77.4219 204.188ZM82.9531 192.359V204H81.625V192.359H82.9531ZM87.8281 204.188C86.9896 204.188 86.263 204 85.6484 203.625C85.0391 203.25 84.5703 202.727 84.2422 202.055C83.9141 201.378 83.75 200.594 83.75 199.703C83.75 198.807 83.9115 198.018 84.2344 197.336C84.5573 196.654 85.0104 196.12 85.5938 195.734C86.1823 195.349 86.8698 195.156 87.6562 195.156C88.1094 195.156 88.5599 195.232 89.0078 195.383C89.4557 195.534 89.862 195.779 90.2266 196.117C90.5964 196.456 90.8906 196.904 91.1094 197.461C91.3281 198.018 91.4375 198.703 91.4375 199.516V200.094H84.7031V198.938H90.7109L90.0938 199.375C90.0938 198.792 90.0026 198.273 89.8203 197.82C89.638 197.367 89.3646 197.01 89 196.75C88.6406 196.49 88.1927 196.359 87.6562 196.359C87.1198 196.359 86.6589 196.492 86.2734 196.758C85.8932 197.018 85.6016 197.359 85.3984 197.781C85.1953 198.203 85.0938 198.656 85.0938 199.141V199.906C85.0938 200.568 85.2083 201.128 85.4375 201.586C85.6667 202.044 85.987 202.393 86.3984 202.633C86.8099 202.867 87.2865 202.984 87.8281 202.984C88.1771 202.984 88.4948 202.935 88.7812 202.836C89.0677 202.732 89.3151 202.578 89.5234 202.375C89.7318 202.167 89.8906 201.911 90 201.609L91.2969 201.984C91.1615 202.422 90.9323 202.807 90.6094 203.141C90.2917 203.469 89.8958 203.727 89.4219 203.914C88.9479 204.096 88.4167 204.188 87.8281 204.188ZM99.3125 204.203C98.4792 204.203 97.7578 204.07 97.1484 203.805C96.5391 203.534 96.0599 203.159 95.7109 202.68C95.3672 202.195 95.1719 201.635 95.125 201H96.5781C96.6198 201.438 96.7682 201.799 97.0234 202.086C97.2839 202.372 97.6146 202.586 98.0156 202.727C98.4167 202.867 98.849 202.938 99.3125 202.938C99.849 202.938 100.331 202.849 100.758 202.672C101.19 202.495 101.531 202.247 101.781 201.93C102.031 201.612 102.156 201.24 102.156 200.812C102.156 200.427 102.047 200.115 101.828 199.875C101.609 199.635 101.323 199.44 100.969 199.289C100.62 199.138 100.24 199.005 99.8281 198.891L98.4062 198.484C97.4948 198.224 96.7734 197.852 96.2422 197.367C95.7161 196.878 95.4531 196.24 95.4531 195.453C95.4531 194.802 95.6276 194.234 95.9766 193.75C96.3307 193.26 96.8073 192.88 97.4062 192.609C98.0104 192.339 98.6823 192.203 99.4219 192.203C100.172 192.203 100.839 192.339 101.422 192.609C102.005 192.875 102.469 193.24 102.812 193.703C103.156 194.161 103.339 194.682 103.359 195.266H101.984C101.917 194.693 101.641 194.247 101.156 193.93C100.677 193.612 100.083 193.453 99.375 193.453C98.8646 193.453 98.4167 193.536 98.0312 193.703C97.6458 193.87 97.3464 194.099 97.1328 194.391C96.9193 194.682 96.8125 195.016 96.8125 195.391C96.8125 195.802 96.9401 196.135 97.1953 196.391C97.4505 196.641 97.7526 196.836 98.1016 196.977C98.4557 197.117 98.776 197.229 99.0625 197.312L100.234 197.641C100.536 197.724 100.872 197.836 101.242 197.977C101.617 198.117 101.977 198.307 102.32 198.547C102.669 198.786 102.956 199.094 103.18 199.469C103.404 199.839 103.516 200.297 103.516 200.844C103.516 201.469 103.352 202.036 103.023 202.547C102.695 203.052 102.219 203.456 101.594 203.758C100.969 204.055 100.208 204.203 99.3125 204.203ZM109.906 200.438V195.266H111.234V204H109.906V202.516H109.812C109.604 202.958 109.284 203.336 108.852 203.648C108.424 203.961 107.88 204.115 107.219 204.109C106.672 204.109 106.188 203.992 105.766 203.758C105.344 203.518 105.01 203.154 104.766 202.664C104.526 202.174 104.406 201.557 104.406 200.812V195.266H105.734V200.734C105.734 201.365 105.914 201.87 106.273 202.25C106.638 202.63 107.099 202.818 107.656 202.812C107.99 202.812 108.328 202.729 108.672 202.562C109.021 202.391 109.312 202.13 109.547 201.781C109.786 201.427 109.906 200.979 109.906 200.438ZM112.453 207.266V195.266H113.734V196.656H113.891C113.99 196.505 114.128 196.312 114.305 196.078C114.482 195.839 114.737 195.625 115.07 195.438C115.404 195.25 115.854 195.156 116.422 195.156C117.156 195.156 117.802 195.341 118.359 195.711C118.917 196.076 119.352 196.596 119.664 197.273C119.982 197.945 120.141 198.74 120.141 199.656C120.141 200.578 119.984 201.38 119.672 202.062C119.359 202.74 118.924 203.263 118.367 203.633C117.81 204.003 117.167 204.188 116.438 204.188C115.88 204.188 115.432 204.094 115.094 203.906C114.755 203.714 114.495 203.497 114.312 203.258C114.13 203.013 113.99 202.812 113.891 202.656H113.781V207.266H112.453ZM116.266 202.984C116.823 202.984 117.289 202.836 117.664 202.539C118.039 202.237 118.32 201.833 118.508 201.328C118.701 200.823 118.797 200.26 118.797 199.641C118.797 199.026 118.703 198.471 118.516 197.977C118.328 197.482 118.047 197.089 117.672 196.797C117.302 196.505 116.833 196.359 116.266 196.359C115.719 196.359 115.26 196.497 114.891 196.773C114.521 197.044 114.24 197.427 114.047 197.922C113.859 198.411 113.766 198.984 113.766 199.641C113.766 200.297 113.862 200.878 114.055 201.383C114.247 201.883 114.529 202.276 114.898 202.562C115.273 202.844 115.729 202.984 116.266 202.984ZM120.938 207.266V195.266H122.219V196.656H122.375C122.474 196.505 122.612 196.312 122.789 196.078C122.966 195.839 123.221 195.625 123.555 195.438C123.888 195.25 124.339 195.156 124.906 195.156C125.641 195.156 126.286 195.341 126.844 195.711C127.401 196.076 127.836 196.596 128.148 197.273C128.466 197.945 128.625 198.74 128.625 199.656C128.625 200.578 128.469 201.38 128.156 202.062C127.844 202.74 127.409 203.263 126.852 203.633C126.294 204.003 125.651 204.188 124.922 204.188C124.365 204.188 123.917 204.094 123.578 203.906C123.24 203.714 122.979 203.497 122.797 203.258C122.615 203.013 122.474 202.812 122.375 202.656H122.266V207.266H120.938ZM124.75 202.984C125.307 202.984 125.773 202.836 126.148 202.539C126.523 202.237 126.805 201.833 126.992 201.328C127.185 200.823 127.281 200.26 127.281 199.641C127.281 199.026 127.188 198.471 127 197.977C126.812 197.482 126.531 197.089 126.156 196.797C125.786 196.505 125.318 196.359 124.75 196.359C124.203 196.359 123.745 196.497 123.375 196.773C123.005 197.044 122.724 197.427 122.531 197.922C122.344 198.411 122.25 198.984 122.25 199.641C122.25 200.297 122.346 200.878 122.539 201.383C122.732 201.883 123.013 202.276 123.383 202.562C123.758 202.844 124.214 202.984 124.75 202.984ZM132.953 204.188C132.167 204.188 131.477 204 130.883 203.625C130.289 203.25 129.826 202.724 129.492 202.047C129.164 201.37 129 200.583 129 199.688C129 198.776 129.164 197.982 129.492 197.305C129.826 196.622 130.289 196.094 130.883 195.719C131.477 195.344 132.167 195.156 132.953 195.156C133.745 195.156 134.438 195.344 135.031 195.719C135.625 196.094 136.089 196.622 136.422 197.305C136.755 197.982 136.922 198.776 136.922 199.688C136.922 200.583 136.755 201.37 136.422 202.047C136.089 202.724 135.625 203.25 135.031 203.625C134.438 204 133.745 204.188 132.953 204.188ZM132.953 202.984C133.557 202.984 134.052 202.831 134.438 202.523C134.823 202.216 135.109 201.812 135.297 201.312C135.484 200.807 135.578 200.266 135.578 199.688C135.578 199.099 135.484 198.552 135.297 198.047C135.109 197.542 134.823 197.135 134.438 196.828C134.052 196.516 133.557 196.359 132.953 196.359C132.359 196.359 131.87 196.516 131.484 196.828C131.099 197.135 130.812 197.542 130.625 198.047C130.438 198.552 130.344 199.099 130.344 199.688C130.344 200.266 130.438 200.807 130.625 201.312C130.812 201.812 131.099 202.216 131.484 202.523C131.87 202.831 132.359 202.984 132.953 202.984ZM137.719 204V195.266H139V196.594H139.094C139.255 196.161 139.544 195.812 139.961 195.547C140.383 195.276 140.854 195.141 141.375 195.141C141.474 195.141 141.596 195.143 141.742 195.148C141.888 195.148 142 195.151 142.078 195.156V196.516C142.031 196.505 141.927 196.49 141.766 196.469C141.604 196.448 141.432 196.438 141.25 196.438C140.828 196.438 140.451 196.526 140.117 196.703C139.784 196.88 139.521 197.122 139.328 197.43C139.141 197.737 139.047 198.089 139.047 198.484V204H137.719ZM146.75 195.266V196.406H142.234V195.266H146.75ZM143.547 193.188H144.875V201.5C144.875 201.953 144.969 202.286 145.156 202.5C145.344 202.708 145.641 202.812 146.047 202.812C146.135 202.812 146.227 202.807 146.32 202.797C146.419 202.786 146.526 202.771 146.641 202.75L146.922 203.953C146.797 204 146.643 204.036 146.461 204.062C146.284 204.094 146.104 204.109 145.922 204.109C145.219 204.109 144.646 203.901 144.203 203.484C143.766 203.068 143.547 202.526 143.547 201.859V193.188Z" fill="#A9AAA9"/>
</g>
<path d="M8 0V2H307V0V-2H8V0ZM315 8H313V352H315H317V8H315ZM307 360V358H8V360V362H307V360ZM0 352H2V8H0H-2V352H0ZM8 360V358C4.68629 358 2 355.314 2 352H0H-2C-2 357.523 2.47715 362 8 362V360ZM315 352H313C313 355.314 310.314 358 307 358V360V362C312.523 362 317 357.523 317 352H315ZM307 0V2C310.314 2 313 4.68629 313 8H315H317C317 2.47715 312.523 -2 307 -2V0ZM8 0V-2C2.47715 -2 -2 2.47715 -2 8H0H2C2 4.68629 4.68629 2 8 2V0Z" fill="url(#paint0_linear_434_33866)" mask="url(#path-1-inside-1_434_33866)"/>
<defs>
<filter id="filter0_f_434_33866" x="-125" y="-125" width="300" height="300" filterUnits="userSpaceOnUse" color-interpolation-filters="sRGB">
<feFlood flood-opacity="0" result="BackgroundImageFix"/>
<feBlend mode="normal" in="SourceGraphic" in2="BackgroundImageFix" result="shape"/>
<feGaussianBlur stdDeviation="50" result="effect1_foregroundBlur_434_33866"/>
</filter>
<filter id="filter1_f_434_33866" x="140" y="185" width="300" height="300" filterUnits="userSpaceOnUse" color-interpolation-filters="sRGB">
<feFlood flood-opacity="0" result="BackgroundImageFix"/>
<feBlend mode="normal" in="SourceGraphic" in2="BackgroundImageFix" result="shape"/>
<feGaussianBlur stdDeviation="50" result="effect1_foregroundBlur_434_33866"/>
</filter>
<linearGradient id="paint0_linear_434_33866" x1="157.5" y1="0" x2="157.5" y2="360" gradientUnits="userSpaceOnUse">
<stop stop-color="#08537B"/>
<stop offset="1" stop-color="#1D776C"/>
</linearGradient>
<clipPath id="clip0_434_33866">
<path d="M0 8C0 3.58172 3.58172 0 8 0H307C311.418 0 315 3.58172 315 8V352C315 356.418 311.418 360 307 360H8C3.58172 360 0 356.418 0 352V8Z" fill="white"/>
</clipPath>
</defs>
</svg>
