<svg width="315" height="360" viewBox="0 0 315 360" fill="none" xmlns="http://www.w3.org/2000/svg">
<g clip-path="url(#clip0_434_33857)">
<mask id="path-1-inside-1_434_33857" fill="white">
<path d="M0 8C0 3.58172 3.58172 0 8 0H307C311.418 0 315 3.58172 315 8V352C315 356.418 311.418 360 307 360H8C3.58172 360 0 356.418 0 352V8Z"/>
</mask>
<path d="M0 8C0 3.58172 3.58172 0 8 0H307C311.418 0 315 3.58172 315 8V352C315 356.418 311.418 360 307 360H8C3.58172 360 0 356.418 0 352V8Z" fill="white" fill-opacity="0.01"/>
<g filter="url(#filter0_f_434_33857)">
<circle cx="25" cy="25" r="50" fill="#0160B6"/>
</g>
<g filter="url(#filter1_f_434_33857)">
<circle cx="290" cy="335" r="50" fill="#1D776C"/>
</g>
<g opacity="0.8">
<path d="M39.303 23.222C39.382 23.1766 39.483 23.2037 39.5286 23.2826C40.3358 24.6807 40.7435 26.2003 40.7874 27.7083C42.1153 26.9923 43.6348 26.5853 45.2493 26.5853C45.3404 26.5853 45.4141 26.6593 45.4143 26.7503C45.4143 28.3646 45.0082 29.8844 44.2923 31.2122C45.8002 31.2561 47.319 31.6648 48.7171 32.472C48.7961 32.5176 48.8232 32.6186 48.7776 32.6976C47.9704 34.0955 46.8584 35.2084 45.5745 36.0003C46.8586 36.7923 47.9704 37.9049 48.7776 39.3031C48.8232 39.3821 48.7961 39.483 48.7171 39.5287C47.3191 40.3357 45.8001 40.7436 44.2923 40.7874C45.0083 42.1153 45.4143 43.6349 45.4143 45.2494C45.4143 45.3406 45.3405 45.4144 45.2493 45.4144C43.6349 45.4144 42.1153 45.0083 40.7874 44.2923C40.7435 45.8002 40.3357 47.3191 39.5286 48.7171C39.483 48.7961 39.382 48.8233 39.303 48.7777C37.9049 47.9704 36.7923 46.8586 36.0003 45.5745C35.2084 46.8585 34.0955 47.9705 32.6975 48.7777C32.6185 48.8233 32.5166 48.7961 32.471 48.7171C31.664 47.3192 31.2561 45.8001 31.2122 44.2923C29.8844 45.0082 28.3646 45.4144 26.7503 45.4144C26.6592 45.4142 26.5852 45.3404 26.5852 45.2494C26.5852 43.6349 26.9922 42.1153 27.7083 40.7874C26.2003 40.7436 24.6806 40.3359 23.2825 39.5287C23.2036 39.4831 23.1765 39.382 23.222 39.3031C24.0291 37.905 25.1411 36.7923 26.4251 36.0003C25.1411 35.2084 24.0292 34.0956 23.222 32.6976C23.1764 32.6187 23.2037 32.5177 23.2825 32.472C24.6807 31.6648 26.2002 31.2561 27.7083 31.2122C26.9923 29.8844 26.5852 28.3647 26.5852 26.7503C26.5854 26.6594 26.6594 26.5855 26.7503 26.5853C28.3647 26.5853 29.8843 26.9923 31.2122 27.7083C31.256 26.2003 31.6647 24.6807 32.472 23.2826C32.5176 23.2038 32.6186 23.1765 32.6975 23.222C34.0956 24.0292 35.2083 25.1411 36.0003 26.4251C36.7922 25.1411 37.9049 24.0292 39.303 23.222ZM34.6116 41.1829C33.8239 42.3752 32.7717 43.3783 31.5393 44.1078C31.5537 45.568 31.9205 47.0445 32.6751 48.4076C34.0102 47.6044 35.0663 46.5088 35.8089 45.2513C35.1065 44.0034 34.6977 42.6092 34.6116 41.1829ZM37.3889 41.1829C37.3029 42.6093 36.8932 44.0034 36.1907 45.2513C36.9332 46.5089 37.9894 47.6044 39.3245 48.4076C40.0791 47.0445 40.4459 45.568 40.4602 44.1078C39.2279 43.3783 38.1766 42.3752 37.3889 41.1829ZM32.2053 39.7943C30.9271 40.4328 29.5152 40.7758 28.0833 40.7913C27.3657 42.063 26.9453 43.5248 26.9173 45.0824C28.4751 45.0543 29.9374 44.6342 31.2093 43.9163C31.2249 42.4845 31.5668 41.0724 32.2053 39.7943ZM39.7942 39.7943C40.4328 41.0725 40.7757 42.4844 40.7913 43.9163C42.063 44.634 43.5247 45.0543 45.0823 45.0824C45.0542 43.5247 44.634 42.063 43.9163 40.7913C42.4844 40.7757 41.0724 40.4329 39.7942 39.7943ZM36.0003 37.765C35.8029 38.8054 35.4344 39.7853 34.9251 40.6742C34.9345 42.1523 35.3048 43.6102 36.0003 44.9124C36.6957 43.6102 37.066 42.1524 37.0755 40.6742C36.5661 39.7853 36.1976 38.8055 36.0003 37.765ZM35.1175 37.5287C34.4264 38.331 33.6172 38.995 32.7317 39.5101C32.0008 40.795 31.5931 42.2426 31.5442 43.7181C32.7975 42.938 33.8468 41.8606 34.594 40.5853C34.5974 39.561 34.7682 38.5283 35.1175 37.5287ZM36.8821 37.5287C37.2314 38.5283 37.4022 39.5609 37.4055 40.5853C38.1528 41.8607 39.2029 42.938 40.4563 43.7181C40.4075 42.2426 39.9997 40.795 39.2688 39.5101C38.3832 38.995 37.5733 38.3311 36.8821 37.5287ZM26.7483 36.1908C25.4909 36.9333 24.3962 37.9895 23.593 39.3245C24.9562 40.0791 26.4326 40.446 27.8928 40.4603C28.6223 39.2281 29.6247 38.1766 30.8167 37.389C29.3904 37.3029 27.9962 36.8932 26.7483 36.1908ZM45.2512 36.1908C44.0033 36.8932 42.6092 37.3029 41.1829 37.389C42.3751 38.1767 43.3782 39.228 44.1077 40.4603C45.5679 40.446 47.0445 40.0791 48.4075 39.3245C47.6043 37.9894 46.5088 36.9333 45.2512 36.1908ZM34.472 36.8822C33.4722 37.2315 32.4388 37.4023 31.4143 37.4056C30.1389 38.1529 29.0616 39.203 28.2815 40.4564C29.7569 40.4075 31.2047 39.9997 32.4895 39.2689C33.0046 38.3833 33.6695 37.5733 34.472 36.8822ZM37.5286 36.8822C38.331 37.5733 38.9949 38.3833 39.51 39.2689C40.7949 39.9998 42.2425 40.4075 43.718 40.4564C42.938 39.2031 41.8615 38.1529 40.5862 37.4056C39.5617 37.4023 38.5284 37.2315 37.5286 36.8822ZM35.8069 36.722C35.3169 37.7492 35.0359 38.8297 34.9514 39.9115C35.4193 38.9324 35.7177 37.8566 35.8069 36.722ZM36.1936 36.722C36.2828 37.8565 36.5803 38.9324 37.0481 39.9115C36.9637 38.8297 36.6836 37.7491 36.1936 36.722ZM35.472 36.5287C34.534 37.1732 33.751 37.969 33.137 38.8636C34.0316 38.2496 34.8275 37.4665 35.472 36.5287ZM36.5286 36.5287C37.1731 37.4665 37.9689 38.2496 38.8636 38.8636C38.2496 37.969 37.4665 37.1732 36.5286 36.5287ZM31.3255 34.9251C29.8474 34.9346 28.3903 35.305 27.0882 36.0003C28.3903 36.6956 29.8475 37.066 31.3255 37.0755C32.2142 36.5662 33.1943 36.1977 34.2346 36.0003C33.1943 35.803 32.2142 35.4345 31.3255 34.9251ZM40.6741 34.9251C39.7853 35.4344 38.8053 35.803 37.7649 36.0003C38.8054 36.1977 39.7852 36.5661 40.6741 37.0755C42.1523 37.0661 43.6101 36.6958 44.9124 36.0003C43.6101 35.3049 42.1523 34.9346 40.6741 34.9251ZM35.2786 36.1937C34.144 36.2829 33.0673 36.5803 32.0882 37.0482C33.17 36.9638 34.2514 36.6838 35.2786 36.1937ZM36.722 36.1937C37.749 36.6837 38.8297 36.9638 39.9114 37.0482C38.9324 36.5804 37.8565 36.2829 36.722 36.1937ZM27.8928 31.5394C26.4326 31.5537 24.9561 31.9206 23.593 32.6751C24.3962 34.0101 25.4909 35.0664 26.7483 35.8089C27.9962 35.1064 29.3904 34.6978 30.8167 34.6117C29.6245 33.8239 28.6224 32.7718 27.8928 31.5394ZM44.1077 31.5394C43.3782 32.7718 42.3751 33.8239 41.1829 34.6117C42.6091 34.6977 44.0034 35.1065 45.2512 35.8089C46.5088 35.0664 47.6043 34.0102 48.4075 32.6751C47.0445 31.9205 45.5679 31.5537 44.1077 31.5394ZM32.0882 34.9515C33.0671 35.4192 34.1432 35.7177 35.2776 35.807C34.2505 35.317 33.1699 35.0359 32.0882 34.9515ZM39.9114 34.9515C38.8296 35.0359 37.7491 35.317 36.722 35.807C37.8565 35.7178 38.9323 35.4193 39.9114 34.9515ZM33.137 33.137C33.7509 34.0315 34.5342 34.8276 35.472 35.472C34.8275 34.5342 34.0315 33.751 33.137 33.137ZM38.8636 33.137C37.9689 33.751 37.1731 34.5341 36.5286 35.472C37.4665 34.8275 38.2496 34.0316 38.8636 33.137ZM34.9514 32.0882C35.0358 33.1701 35.3169 34.2515 35.8069 35.2787C35.7177 34.144 35.4193 33.0673 34.9514 32.0882ZM37.0481 32.0882C36.5804 33.0672 36.2829 34.1433 36.1936 35.2777C36.6835 34.2506 36.9637 33.1699 37.0481 32.0882ZM28.2815 31.5443C29.0616 32.7977 30.1389 33.8468 31.4143 34.5941C32.4388 34.5974 33.4722 34.7682 34.472 35.1175C33.6695 34.4264 33.0046 33.6174 32.4895 32.7318C31.2047 32.0009 29.757 31.5931 28.2815 31.5443ZM43.718 31.5443C42.2425 31.5931 40.7949 32.0009 39.51 32.7318C38.995 33.6172 38.3309 34.4264 37.5286 35.1175C38.5282 34.7682 39.5609 34.5974 40.5852 34.5941C41.8606 33.8468 42.938 32.7976 43.718 31.5443ZM31.5442 28.2816C31.5931 29.7571 32.0008 31.2047 32.7317 32.4896C33.6173 33.0047 34.4263 33.6696 35.1175 34.472C34.7681 33.4722 34.5973 32.4389 34.594 31.4144C33.8467 30.139 32.7976 29.0616 31.5442 28.2816ZM40.4563 28.2816C39.2029 29.0617 38.1528 30.139 37.4055 31.4144C37.4023 32.4389 37.2315 33.4722 36.8821 34.472C37.5733 33.6696 38.3832 33.0047 39.2688 32.4896C39.9996 31.2048 40.4075 29.757 40.4563 28.2816ZM36.0003 27.0882C35.3049 28.3904 34.9346 29.8475 34.9251 31.3255C35.4344 32.2143 35.8029 33.1943 36.0003 34.2347C36.1976 33.1943 36.5661 32.2143 37.0755 31.3255C37.066 29.8475 36.6956 28.3903 36.0003 27.0882ZM26.9173 26.9173C26.9453 28.4752 27.3655 29.9375 28.0833 31.2093C29.5151 31.2249 30.9272 31.5669 32.2053 32.2054C31.5668 30.9272 31.2248 29.5152 31.2093 28.0833C29.9374 27.3655 28.4751 26.9454 26.9173 26.9173ZM45.0823 26.9173C43.5247 26.9454 42.0629 27.3657 40.7913 28.0833C40.7757 29.5153 40.4328 30.9272 39.7942 32.2054C41.0724 31.5669 42.4844 31.2249 43.9163 31.2093C44.6341 29.9375 45.0543 28.4752 45.0823 26.9173ZM32.6751 23.5931C31.9205 24.9562 31.5536 26.4327 31.5393 27.8929C32.7717 28.6224 33.8239 29.6245 34.6116 30.8167C34.6977 29.3905 35.1064 27.9963 35.8089 26.7484C35.0663 25.491 34.0101 24.3962 32.6751 23.5931ZM39.3245 23.5931C37.9895 24.3963 36.9332 25.4909 36.1907 26.7484C36.8932 27.9963 37.3028 29.3905 37.3889 30.8167C38.1766 29.6247 39.2281 28.6224 40.4602 27.8929C40.446 26.4326 40.0791 24.9562 39.3245 23.5931Z" fill="white"/>
</g>
<path d="M22.88 101H20.448L29.152 79.56H32.384L41.056 101H38.592L32 85L30.784 81.736H30.624L29.376 85L22.88 101ZM37.184 94.728H24.32V92.616H37.184V94.728ZM44.6325 101H42.3285V79.56H44.6325V101ZM55.8513 101H53.5473V79.56H55.8513V101ZM73.0215 101H70.7175V91.784C70.7175 90.0987 70.3975 88.8613 69.7575 88.072C69.1175 87.2827 67.9868 86.888 66.3655 86.888C65.3415 86.888 64.4668 87.0587 63.7415 87.4C63.0162 87.7413 62.4615 88.2747 62.0775 89C61.7148 89.7253 61.5335 90.6853 61.5335 91.88L60.9255 91.912L60.8615 88.456H61.4375C61.6295 87.9013 61.9602 87.3573 62.4295 86.824C62.8988 86.2693 63.5175 85.8107 64.2855 85.448C65.0535 85.064 65.9815 84.872 67.0695 84.872C68.4348 84.872 69.5442 85.1387 70.3975 85.672C71.2722 86.2053 71.9228 86.9627 72.3495 87.944C72.7975 88.904 73.0215 90.024 73.0215 91.304V101ZM61.5335 101H59.2295V85.192H61.3095V90.216L61.5335 90.376V101ZM81.6815 101.032C80.2095 101.032 79.0682 100.701 78.2575 100.04C77.4468 99.3573 77.0415 98.184 77.0415 96.52V85.448L77.6495 81.16H79.3455V96.648C79.3455 97.5867 79.5802 98.1947 80.0495 98.472C80.5188 98.7493 81.2655 98.888 82.2895 98.888H84.3375V100.776C84.0815 100.819 83.7082 100.872 83.2175 100.936C82.7482 101 82.2362 101.032 81.6815 101.032ZM84.3375 87.176H74.3855V85.192H84.3375V87.176ZM92.2323 101.32C90.6109 101.32 89.2456 100.968 88.1363 100.264C87.0483 99.5387 86.2163 98.5573 85.6403 97.32C85.0856 96.0827 84.8083 94.6747 84.8083 93.096C84.8083 91.496 85.1069 90.0773 85.7043 88.84C86.3229 87.6027 87.1763 86.632 88.2643 85.928C89.3736 85.224 90.6749 84.872 92.1683 84.872C93.4483 84.872 94.6109 85.128 95.6563 85.64C96.7229 86.152 97.5656 86.92 98.1843 87.944C98.8029 88.968 99.1123 90.2587 99.1123 91.816C99.1123 92.2 99.0909 92.5627 99.0483 92.904C99.0269 93.2453 98.9949 93.5227 98.9523 93.736H86.0243V92.04H97.2883L96.9043 92.456C97.0109 91.0907 96.8829 90.0027 96.5203 89.192C96.1576 88.3813 95.6029 87.784 94.8563 87.4C94.1096 87.016 93.2029 86.824 92.1363 86.824C90.2589 86.824 88.9256 87.3573 88.1363 88.424C87.3683 89.4693 86.9843 90.888 86.9843 92.68V93.288C86.9843 94.5467 87.1443 95.624 87.4643 96.52C87.8056 97.3947 88.3603 98.0773 89.1283 98.568C89.8963 99.0373 90.9416 99.272 92.2643 99.272C93.8429 99.272 94.9736 98.952 95.6563 98.312C96.3603 97.6507 96.7123 96.8507 96.7123 95.912V95.72H98.9843V95.944C98.9843 96.968 98.6963 97.8853 98.1203 98.696C97.5656 99.5067 96.7763 100.147 95.7523 100.616C94.7496 101.085 93.5763 101.32 92.2323 101.32ZM108.834 106.76C107.49 106.76 106.295 106.525 105.25 106.056C104.226 105.608 103.415 104.957 102.818 104.104C102.242 103.251 101.954 102.205 101.954 100.968H104.258C104.258 101.843 104.407 102.557 104.706 103.112C105.004 103.667 105.495 104.072 106.178 104.328C106.86 104.584 107.756 104.712 108.866 104.712C110.018 104.712 110.924 104.563 111.586 104.264C112.247 103.965 112.716 103.496 112.994 102.856C113.292 102.216 113.442 101.373 113.442 100.328V89.704L113.698 89.288V85.192H115.746V100.328C115.746 101.757 115.458 102.941 114.882 103.88C114.306 104.84 113.495 105.555 112.45 106.024C111.426 106.515 110.22 106.76 108.834 106.76ZM107.938 99.592C105.762 99.592 104.076 98.9307 102.882 97.608C101.687 96.264 101.09 94.472 101.09 92.232C101.09 89.992 101.687 88.2107 102.882 86.888C104.076 85.544 105.772 84.872 107.97 84.872C109.356 84.872 110.551 85.192 111.554 85.832C112.556 86.4507 113.228 87.2613 113.57 88.264H114.178L114.05 91.72H113.442C113.442 90.6533 113.218 89.7573 112.77 89.032C112.343 88.3067 111.746 87.7627 110.978 87.4C110.21 87.0373 109.335 86.856 108.354 86.856C107.351 86.856 106.476 87.016 105.73 87.336C105.004 87.6347 104.428 88.1787 104.002 88.968C103.596 89.7573 103.394 90.8453 103.394 92.232C103.394 93.2773 103.511 94.152 103.746 94.856C104.002 95.5387 104.354 96.0827 104.802 96.488C105.25 96.872 105.783 97.16 106.402 97.352C107.042 97.5227 107.735 97.608 108.482 97.608C109.42 97.608 110.263 97.4267 111.01 97.064C111.778 96.7013 112.375 96.1573 112.802 95.432C113.228 94.7067 113.442 93.8 113.442 92.712H114.114V96.296H113.41C113.047 97.2133 112.386 97.992 111.426 98.632C110.487 99.272 109.324 99.592 107.938 99.592ZM121.159 101H118.855V85H120.935V89.352L121.159 89.512V101ZM121.159 90.536H120.391V87.624H121.095C121.372 86.8987 121.873 86.2587 122.599 85.704C123.345 85.1493 124.305 84.872 125.479 84.872C126.567 84.872 127.441 85.1067 128.103 85.576C128.764 86.024 129.244 86.632 129.543 87.4C129.841 88.168 129.991 89.0107 129.991 89.928V90.792H127.687V90.28C127.687 89.0427 127.463 88.168 127.015 87.656C126.567 87.1227 125.777 86.856 124.647 86.856C123.431 86.856 122.545 87.144 121.991 87.72C121.436 88.296 121.159 89.2347 121.159 90.536ZM143.96 101H141.88V97.544L141.784 96.776V90.824C141.784 89.4373 141.464 88.4453 140.824 87.848C140.206 87.2293 139.15 86.92 137.656 86.92C136.206 86.92 135.139 87.208 134.456 87.784C133.774 88.36 133.432 89.288 133.432 90.568V91.048H131.192V90.792C131.192 89.6827 131.459 88.68 131.992 87.784C132.526 86.888 133.283 86.184 134.264 85.672C135.267 85.1387 136.451 84.872 137.816 84.872C139.224 84.872 140.376 85.1493 141.272 85.704C142.19 86.2587 142.862 87.0053 143.288 87.944C143.736 88.8613 143.96 89.9173 143.96 91.112V101ZM135.768 101.32C134.339 101.32 133.134 100.968 132.152 100.264C131.192 99.5387 130.712 98.5147 130.712 97.192C130.712 96.2533 130.926 95.496 131.352 94.92C131.8 94.3227 132.44 93.8427 133.272 93.48C134.104 93.1173 135.086 92.872 136.216 92.744L142.104 91.944V93.672L136.408 94.472C135.15 94.6213 134.254 94.8773 133.72 95.24C133.208 95.5813 132.952 96.1787 132.952 97.032C132.952 97.8427 133.219 98.44 133.752 98.824C134.307 99.208 135.192 99.4 136.408 99.4C137.326 99.4 138.19 99.2293 139 98.888C139.832 98.5467 140.504 98.0027 141.016 97.256C141.528 96.5093 141.784 95.5067 141.784 94.248L142.232 98.152L141.72 98.056C141.422 98.6533 140.995 99.1973 140.44 99.688C139.886 100.179 139.214 100.573 138.424 100.872C137.656 101.171 136.771 101.32 135.768 101.32ZM152.682 101.032C151.21 101.032 150.068 100.701 149.258 100.04C148.447 99.3573 148.042 98.184 148.042 96.52V85.448L148.65 81.16H150.346V96.648C150.346 97.5867 150.58 98.1947 151.05 98.472C151.519 98.7493 152.266 98.888 153.29 98.888H155.338V100.776C155.082 100.819 154.708 100.872 154.218 100.936C153.748 101 153.236 101.032 152.682 101.032ZM155.338 87.176H145.386V85.192H155.338V87.176ZM159.219 83.08H156.915V79.56H159.219V83.08ZM159.219 101H156.915V85H159.219V101ZM169.051 101.32C167.515 101.32 166.171 100.968 165.019 100.264C163.867 99.56 162.971 98.5893 162.331 97.352C161.691 96.0933 161.371 94.664 161.371 93.064C161.371 91.4853 161.691 90.088 162.331 88.872C162.971 87.6347 163.867 86.664 165.019 85.96C166.171 85.2347 167.515 84.872 169.051 84.872C170.587 84.872 171.92 85.2347 173.051 85.96C174.181 86.664 175.056 87.6347 175.675 88.872C176.293 90.088 176.603 91.4853 176.603 93.064C176.603 94.664 176.293 96.0933 175.675 97.352C175.056 98.5893 174.181 99.56 173.051 100.264C171.92 100.968 170.587 101.32 169.051 101.32ZM169.051 99.24C170.971 99.24 172.336 98.7067 173.147 97.64C173.979 96.5733 174.395 95.048 174.395 93.064C174.395 91.1013 173.979 89.5867 173.147 88.52C172.336 87.4533 170.971 86.92 169.051 86.92C167.131 86.92 165.755 87.4533 164.923 88.52C164.091 89.5867 163.675 91.1013 163.675 93.064C163.675 95.048 164.091 96.5733 164.923 97.64C165.755 98.7067 167.131 99.24 169.051 99.24ZM192.709 101H190.405V91.784C190.405 90.0987 190.085 88.8613 189.445 88.072C188.805 87.2827 187.674 86.888 186.053 86.888C185.029 86.888 184.154 87.0587 183.429 87.4C182.704 87.7413 182.149 88.2747 181.765 89C181.402 89.7253 181.221 90.6853 181.221 91.88L180.613 91.912L180.549 88.456H181.125C181.317 87.9013 181.648 87.3573 182.117 86.824C182.586 86.2693 183.205 85.8107 183.973 85.448C184.741 85.064 185.669 84.872 186.757 84.872C188.122 84.872 189.232 85.1387 190.085 85.672C190.96 86.2053 191.61 86.9627 192.037 87.944C192.485 88.904 192.709 90.024 192.709 91.304V101ZM181.221 101H178.917V85.192H180.997V90.216L181.221 90.376V101ZM30.4 131.64H23.008V129.592H30.752C32.5013 129.592 33.792 129.208 34.624 128.44C35.456 127.651 35.872 126.371 35.872 124.6C35.872 122.851 35.456 121.592 34.624 120.824C33.792 120.035 32.5013 119.64 30.752 119.64H23.008V117.56H30.4C31.8933 117.56 33.2267 117.837 34.4 118.392C35.5733 118.947 36.4907 119.747 37.152 120.792C37.8347 121.837 38.176 123.107 38.176 124.6C38.176 126.093 37.8347 127.373 37.152 128.44C36.4907 129.485 35.5733 130.285 34.4 130.84C33.2267 131.373 31.8933 131.64 30.4 131.64ZM24.32 139H22.016V117.56H24.32V139ZM52.0228 139H49.9428V135.544L49.8468 134.776V128.824C49.8468 127.437 49.5268 126.445 48.8868 125.848C48.2681 125.229 47.2121 124.92 45.7188 124.92C44.2681 124.92 43.2014 125.208 42.5188 125.784C41.8361 126.36 41.4948 127.288 41.4948 128.568V129.048H39.2548V128.792C39.2548 127.683 39.5214 126.68 40.0548 125.784C40.5881 124.888 41.3454 124.184 42.3268 123.672C43.3294 123.139 44.5134 122.872 45.8788 122.872C47.2868 122.872 48.4388 123.149 49.3348 123.704C50.2521 124.259 50.9241 125.005 51.3508 125.944C51.7988 126.861 52.0228 127.917 52.0228 129.112V139ZM43.8308 139.32C42.4014 139.32 41.1961 138.968 40.2148 138.264C39.2548 137.539 38.7747 136.515 38.7747 135.192C38.7747 134.253 38.9881 133.496 39.4148 132.92C39.8628 132.323 40.5028 131.843 41.3348 131.48C42.1668 131.117 43.1481 130.872 44.2788 130.744L50.1668 129.944V131.672L44.4708 132.472C43.2121 132.621 42.3161 132.877 41.7828 133.24C41.2708 133.581 41.0148 134.179 41.0148 135.032C41.0148 135.843 41.2814 136.44 41.8148 136.824C42.3694 137.208 43.2548 137.4 44.4708 137.4C45.3881 137.4 46.2521 137.229 47.0628 136.888C47.8948 136.547 48.5668 136.003 49.0788 135.256C49.5908 134.509 49.8468 133.507 49.8468 132.248L50.2948 136.152L49.7828 136.056C49.4841 136.653 49.0574 137.197 48.5028 137.688C47.9481 138.179 47.2761 138.573 46.4868 138.872C45.7188 139.171 44.8334 139.32 43.8308 139.32ZM57.346 139H55.042V123H57.122V127.352L57.346 127.512V139ZM57.346 128.536H56.578V125.624H57.282C57.5593 124.899 58.0607 124.259 58.786 123.704C59.5327 123.149 60.4927 122.872 61.666 122.872C62.754 122.872 63.6287 123.107 64.29 123.576C64.9513 124.024 65.4313 124.632 65.73 125.4C66.0287 126.168 66.178 127.011 66.178 127.928V128.792H63.874V128.28C63.874 127.043 63.65 126.168 63.202 125.656C62.754 125.123 61.9647 124.856 60.834 124.856C59.618 124.856 58.7327 125.144 58.178 125.72C57.6233 126.296 57.346 127.235 57.346 128.536ZM74.2128 139.032C72.7408 139.032 71.5994 138.701 70.7888 138.04C69.9781 137.357 69.5728 136.184 69.5728 134.52V123.448L70.1808 119.16H71.8768V134.648C71.8768 135.587 72.1114 136.195 72.5808 136.472C73.0501 136.749 73.7968 136.888 74.8208 136.888H76.8688V138.776C76.6128 138.819 76.2394 138.872 75.7488 138.936C75.2794 139 74.7674 139.032 74.2128 139.032ZM76.8688 125.176H66.9168V123.192H76.8688V125.176ZM92.4903 139H90.1863V129.784C90.1863 128.099 89.8663 126.861 89.2263 126.072C88.5863 125.283 87.4556 124.888 85.8343 124.888C84.8103 124.888 83.9356 125.059 83.2103 125.4C82.4849 125.741 81.9303 126.275 81.5463 127C81.1836 127.725 81.0023 128.685 81.0023 129.88L80.3943 129.912L80.3303 126.456H80.9062C81.0983 125.901 81.4289 125.357 81.8983 124.824C82.3676 124.269 82.9863 123.811 83.7543 123.448C84.5223 123.064 85.4503 122.872 86.5383 122.872C87.9036 122.872 89.0129 123.139 89.8663 123.672C90.7409 124.205 91.3916 124.963 91.8183 125.944C92.2663 126.904 92.4903 128.024 92.4903 129.304V139ZM81.0023 139H78.6983V123.192H80.7783V128.216L81.0023 128.376V139ZM102.17 139.32C100.548 139.32 99.1831 138.968 98.0738 138.264C96.9858 137.539 96.1538 136.557 95.5778 135.32C95.0231 134.083 94.7458 132.675 94.7458 131.096C94.7458 129.496 95.0444 128.077 95.6418 126.84C96.2604 125.603 97.1138 124.632 98.2018 123.928C99.3111 123.224 100.612 122.872 102.106 122.872C103.386 122.872 104.548 123.128 105.594 123.64C106.66 124.152 107.503 124.92 108.122 125.944C108.74 126.968 109.05 128.259 109.05 129.816C109.05 130.2 109.028 130.563 108.986 130.904C108.964 131.245 108.932 131.523 108.89 131.736H95.9618V130.04H107.226L106.842 130.456C106.948 129.091 106.82 128.003 106.458 127.192C106.095 126.381 105.54 125.784 104.794 125.4C104.047 125.016 103.14 124.824 102.074 124.824C100.196 124.824 98.8631 125.357 98.0738 126.424C97.3058 127.469 96.9218 128.888 96.9218 130.68V131.288C96.9218 132.547 97.0818 133.624 97.4018 134.52C97.7431 135.395 98.2978 136.077 99.0658 136.568C99.8338 137.037 100.879 137.272 102.202 137.272C103.78 137.272 104.911 136.952 105.594 136.312C106.298 135.651 106.65 134.851 106.65 133.912V133.72H108.922V133.944C108.922 134.968 108.634 135.885 108.058 136.696C107.503 137.507 106.714 138.147 105.69 138.616C104.687 139.085 103.514 139.32 102.17 139.32ZM113.815 139H111.511V123H113.591V127.352L113.815 127.512V139ZM113.815 128.536H113.047V125.624H113.751C114.028 124.899 114.529 124.259 115.255 123.704C116.001 123.149 116.961 122.872 118.135 122.872C119.223 122.872 120.097 123.107 120.759 123.576C121.42 124.024 121.9 124.632 122.199 125.4C122.497 126.168 122.647 127.011 122.647 127.928V128.792H120.343V128.28C120.343 127.043 120.119 126.168 119.671 125.656C119.223 125.123 118.433 124.856 117.303 124.856C116.087 124.856 115.201 125.144 114.647 125.72C114.092 126.296 113.815 127.235 113.815 128.536Z" fill="white"/>
<path d="M286 268.871C299.48 268.871 311.035 277.964 316.279 291.001C327.749 296.998 335.681 310.192 335.681 325.436C335.681 346.291 320.837 363.313 302.394 363.313C296.424 363.313 290.834 361.528 286 358.409C281.166 361.528 275.575 363.313 269.606 363.313C251.163 363.313 236.319 346.291 236.319 325.436C236.319 310.193 244.25 296.998 255.72 291.001C260.964 277.964 272.52 268.871 286 268.871ZM255.171 292.447C244.605 298.491 237.319 310.963 237.319 325.436C237.319 345.866 251.835 362.313 269.606 362.313C275.208 362.313 280.485 360.677 285.087 357.8C279.429 353.873 274.888 348.08 272.113 341.182C260.644 335.185 252.713 321.991 252.713 306.748C252.713 301.693 253.587 296.864 255.171 292.447ZM316.828 292.447C318.412 296.864 319.287 301.693 319.287 306.748C319.287 321.991 311.356 335.184 299.887 341.181C297.112 348.079 292.572 353.872 286.913 357.8C291.515 360.677 296.792 362.313 302.394 362.313C320.165 362.313 334.681 345.866 334.681 325.436C334.681 310.963 327.395 298.491 316.828 292.447ZM298.525 341.851C294.662 343.637 290.436 344.625 286 344.625C281.564 344.625 277.338 343.637 273.475 341.851C276.266 348.254 280.638 353.589 286 357.206C291.362 353.589 295.734 348.254 298.525 341.851ZM285.999 293.666C276.502 300.072 270.106 311.876 270.106 325.436C270.106 330.791 271.105 335.873 272.896 340.456C276.905 342.492 281.34 343.625 286 343.625C290.659 343.625 295.094 342.492 299.103 340.456C300.895 335.872 301.894 330.792 301.894 325.436C301.894 311.875 295.497 300.072 285.999 293.666ZM269.606 288.559C264.947 288.559 260.512 289.69 256.504 291.726C254.712 296.31 253.713 301.392 253.713 306.748C253.713 321.22 260.998 333.692 271.564 339.736C269.981 335.32 269.106 330.491 269.106 325.436C269.106 311.76 275.49 299.731 285.086 293.071C280.484 290.194 275.207 288.559 269.606 288.559ZM302.394 288.559C296.792 288.559 291.515 290.194 286.913 293.071C296.51 299.731 302.894 311.759 302.894 325.436C302.894 330.491 302.019 335.319 300.435 339.736C311.001 333.692 318.287 321.221 318.287 306.748C318.287 301.392 317.287 296.31 315.495 291.726C311.487 289.69 307.052 288.559 302.394 288.559ZM286 269.871C273.365 269.871 262.379 278.184 257.082 290.331C260.945 288.545 265.171 287.559 269.606 287.559C275.575 287.559 281.166 289.344 286 292.463C290.834 289.344 296.425 287.559 302.394 287.559C306.829 287.559 311.055 288.545 314.918 290.331C309.621 278.184 298.635 269.871 286 269.871Z" fill="#BCEAA3"/>
<path d="M24.7188 184.203C23.8854 184.203 23.1641 184.07 22.5547 183.805C21.9453 183.534 21.4661 183.159 21.1172 182.68C20.7734 182.195 20.5781 181.635 20.5312 181H21.9844C22.026 181.438 22.1745 181.799 22.4297 182.086C22.6901 182.372 23.0208 182.586 23.4219 182.727C23.8229 182.867 24.2552 182.938 24.7188 182.938C25.2552 182.938 25.737 182.849 26.1641 182.672C26.5964 182.495 26.9375 182.247 27.1875 181.93C27.4375 181.612 27.5625 181.24 27.5625 180.812C27.5625 180.427 27.4531 180.115 27.2344 179.875C27.0156 179.635 26.7292 179.44 26.375 179.289C26.026 179.138 25.6458 179.005 25.2344 178.891L23.8125 178.484C22.901 178.224 22.1797 177.852 21.6484 177.367C21.1224 176.878 20.8594 176.24 20.8594 175.453C20.8594 174.802 21.0339 174.234 21.3828 173.75C21.737 173.26 22.2135 172.88 22.8125 172.609C23.4167 172.339 24.0885 172.203 24.8281 172.203C25.5781 172.203 26.2448 172.339 26.8281 172.609C27.4115 172.875 27.875 173.24 28.2188 173.703C28.5625 174.161 28.7448 174.682 28.7656 175.266H27.3906C27.3229 174.693 27.0469 174.247 26.5625 173.93C26.0833 173.612 25.4896 173.453 24.7812 173.453C24.2708 173.453 23.8229 173.536 23.4375 173.703C23.0521 173.87 22.7526 174.099 22.5391 174.391C22.3255 174.682 22.2188 175.016 22.2188 175.391C22.2188 175.802 22.3464 176.135 22.6016 176.391C22.8568 176.641 23.1589 176.836 23.5078 176.977C23.862 177.117 24.1823 177.229 24.4688 177.312L25.6406 177.641C25.9427 177.724 26.2786 177.836 26.6484 177.977C27.0234 178.117 27.3828 178.307 27.7266 178.547C28.0755 178.786 28.362 179.094 28.5859 179.469C28.8099 179.839 28.9219 180.297 28.9219 180.844C28.9219 181.469 28.7578 182.036 28.4297 182.547C28.1016 183.052 27.625 183.456 27 183.758C26.375 184.055 25.6146 184.203 24.7188 184.203ZM33.4688 184.188C32.6302 184.188 31.9036 184 31.2891 183.625C30.6797 183.25 30.2109 182.727 29.8828 182.055C29.5547 181.378 29.3906 180.594 29.3906 179.703C29.3906 178.807 29.5521 178.018 29.875 177.336C30.1979 176.654 30.651 176.12 31.2344 175.734C31.8229 175.349 32.5104 175.156 33.2969 175.156C33.75 175.156 34.2005 175.232 34.6484 175.383C35.0964 175.534 35.5026 175.779 35.8672 176.117C36.237 176.456 36.5312 176.904 36.75 177.461C36.9688 178.018 37.0781 178.703 37.0781 179.516V180.094H30.3438V178.938H36.3516L35.7344 179.375C35.7344 178.792 35.6432 178.273 35.4609 177.82C35.2786 177.367 35.0052 177.01 34.6406 176.75C34.2812 176.49 33.8333 176.359 33.2969 176.359C32.7604 176.359 32.2995 176.492 31.9141 176.758C31.5339 177.018 31.2422 177.359 31.0391 177.781C30.8359 178.203 30.7344 178.656 30.7344 179.141V179.906C30.7344 180.568 30.849 181.128 31.0781 181.586C31.3073 182.044 31.6276 182.393 32.0391 182.633C32.4505 182.867 32.9271 182.984 33.4688 182.984C33.8177 182.984 34.1354 182.935 34.4219 182.836C34.7083 182.732 34.9557 182.578 35.1641 182.375C35.3724 182.167 35.5312 181.911 35.6406 181.609L36.9375 181.984C36.8021 182.422 36.5729 182.807 36.25 183.141C35.9323 183.469 35.5365 183.727 35.0625 183.914C34.5885 184.096 34.0573 184.188 33.4688 184.188ZM40.4062 184.203C39.8542 184.203 39.3516 184.099 38.8984 183.891C38.4453 183.677 38.0859 183.37 37.8203 182.969C37.5547 182.568 37.4219 182.083 37.4219 181.516C37.4219 181.016 37.5208 180.612 37.7188 180.305C37.9167 179.992 38.1797 179.747 38.5078 179.57C38.8411 179.388 39.2057 179.253 39.6016 179.164C40.0026 179.076 40.4062 179.005 40.8125 178.953C41.3438 178.885 41.7734 178.833 42.1016 178.797C42.4349 178.76 42.6771 178.698 42.8281 178.609C42.9844 178.521 43.0625 178.37 43.0625 178.156V178.109C43.0625 177.552 42.9089 177.12 42.6016 176.812C42.2995 176.5 41.8385 176.344 41.2188 176.344C40.5833 176.344 40.0833 176.484 39.7188 176.766C39.3542 177.042 39.099 177.339 38.9531 177.656L37.6719 177.203C37.901 176.672 38.2057 176.258 38.5859 175.961C38.9714 175.664 39.388 175.456 39.8359 175.336C40.2891 175.216 40.7344 175.156 41.1719 175.156C41.4531 175.156 41.776 175.19 42.1406 175.258C42.5052 175.32 42.8594 175.456 43.2031 175.664C43.5521 175.867 43.8385 176.177 44.0625 176.594C44.2917 177.005 44.4062 177.557 44.4062 178.25V184H43.0625V182.812H43C42.9115 183 42.7604 183.203 42.5469 183.422C42.3333 183.635 42.0495 183.82 41.6953 183.977C41.3464 184.128 40.9167 184.203 40.4062 184.203ZM40.6094 183C41.1406 183 41.5885 182.896 41.9531 182.688C42.3177 182.479 42.5938 182.211 42.7812 181.883C42.9688 181.549 43.0625 181.203 43.0625 180.844V179.609C43.0052 179.677 42.8802 179.74 42.6875 179.797C42.5 179.849 42.2812 179.896 42.0312 179.938C41.7865 179.979 41.5469 180.016 41.3125 180.047C41.0781 180.073 40.8906 180.094 40.75 180.109C40.401 180.156 40.0755 180.232 39.7734 180.336C39.4714 180.435 39.2266 180.583 39.0391 180.781C38.8568 180.979 38.7656 181.25 38.7656 181.594C38.7656 182.057 38.9375 182.409 39.2812 182.648C39.6302 182.883 40.0729 183 40.6094 183ZM45.625 184V175.266H46.9062V176.641H47.0312C47.2135 176.172 47.5078 175.807 47.9141 175.547C48.3203 175.286 48.8073 175.156 49.375 175.156C49.9479 175.156 50.4245 175.286 50.8047 175.547C51.1901 175.807 51.4896 176.172 51.7031 176.641H51.7969C52.026 176.188 52.362 175.828 52.8047 175.562C53.2526 175.292 53.7865 175.156 54.4062 175.156C55.1875 175.156 55.8281 175.401 56.3281 175.891C56.8281 176.375 57.0781 177.13 57.0781 178.156V184H55.7344V178.156C55.7344 177.51 55.5573 177.049 55.2031 176.773C54.849 176.497 54.4323 176.359 53.9531 176.359C53.3438 176.359 52.8698 176.547 52.5312 176.922C52.1979 177.292 52.0312 177.755 52.0312 178.312V184H50.6562V178.016C50.6562 177.521 50.4974 177.122 50.1797 176.82C49.862 176.513 49.4479 176.359 48.9375 176.359C48.5885 176.359 48.263 176.453 47.9609 176.641C47.6589 176.828 47.4141 177.086 47.2266 177.414C47.0443 177.742 46.9531 178.12 46.9531 178.547V184H45.625ZM59.625 172.359V184H58.2969V172.359H59.625ZM64.5 184.188C63.6615 184.188 62.9349 184 62.3203 183.625C61.7109 183.25 61.2422 182.727 60.9141 182.055C60.5859 181.378 60.4219 180.594 60.4219 179.703C60.4219 178.807 60.5833 178.018 60.9062 177.336C61.2292 176.654 61.6823 176.12 62.2656 175.734C62.8542 175.349 63.5417 175.156 64.3281 175.156C64.7812 175.156 65.2318 175.232 65.6797 175.383C66.1276 175.534 66.5339 175.779 66.8984 176.117C67.2682 176.456 67.5625 176.904 67.7812 177.461C68 178.018 68.1094 178.703 68.1094 179.516V180.094H61.375V178.938H67.3828L66.7656 179.375C66.7656 178.792 66.6745 178.273 66.4922 177.82C66.3099 177.367 66.0365 177.01 65.6719 176.75C65.3125 176.49 64.8646 176.359 64.3281 176.359C63.7917 176.359 63.3307 176.492 62.9453 176.758C62.5651 177.018 62.2734 177.359 62.0703 177.781C61.8672 178.203 61.7656 178.656 61.7656 179.141V179.906C61.7656 180.568 61.8802 181.128 62.1094 181.586C62.3385 182.044 62.6589 182.393 63.0703 182.633C63.4818 182.867 63.9583 182.984 64.5 182.984C64.849 182.984 65.1667 182.935 65.4531 182.836C65.7396 182.732 65.987 182.578 66.1953 182.375C66.4036 182.167 66.5625 181.911 66.6719 181.609L67.9688 181.984C67.8333 182.422 67.6042 182.807 67.2812 183.141C66.9635 183.469 66.5677 183.727 66.0938 183.914C65.6198 184.096 65.0885 184.188 64.5 184.188ZM75.0469 177.234L73.8438 177.562C73.7292 177.266 73.5312 176.984 73.25 176.719C72.974 176.448 72.5417 176.312 71.9531 176.312C71.4219 176.312 70.9792 176.438 70.625 176.688C70.2708 176.932 70.0938 177.24 70.0938 177.609C70.0938 177.943 70.2135 178.208 70.4531 178.406C70.6979 178.604 71.0781 178.766 71.5938 178.891L72.8906 179.203C73.6667 179.391 74.2448 179.68 74.625 180.07C75.0104 180.461 75.2031 180.958 75.2031 181.562C75.2031 182.062 75.0599 182.51 74.7734 182.906C74.487 183.302 74.0885 183.615 73.5781 183.844C73.0677 184.073 72.474 184.188 71.7969 184.188C70.9062 184.188 70.1693 183.992 69.5859 183.602C69.0078 183.211 68.6406 182.646 68.4844 181.906L69.75 181.594C69.8698 182.062 70.099 182.414 70.4375 182.648C70.7812 182.883 71.2292 183 71.7812 183C72.401 183 72.8958 182.867 73.2656 182.602C73.6406 182.331 73.8281 182.01 73.8281 181.641C73.8281 181.026 73.3958 180.615 72.5312 180.406L71.0781 180.062C70.276 179.87 69.6875 179.576 69.3125 179.18C68.9375 178.784 68.75 178.286 68.75 177.688C68.75 177.193 68.888 176.755 69.1641 176.375C69.4453 175.995 69.8281 175.698 70.3125 175.484C70.7969 175.266 71.3438 175.156 71.9531 175.156C72.8229 175.156 73.5026 175.349 73.9922 175.734C74.487 176.115 74.8385 176.615 75.0469 177.234ZM82.1562 177.234L80.9531 177.562C80.8385 177.266 80.6406 176.984 80.3594 176.719C80.0833 176.448 79.651 176.312 79.0625 176.312C78.5312 176.312 78.0885 176.438 77.7344 176.688C77.3802 176.932 77.2031 177.24 77.2031 177.609C77.2031 177.943 77.3229 178.208 77.5625 178.406C77.8073 178.604 78.1875 178.766 78.7031 178.891L80 179.203C80.776 179.391 81.3542 179.68 81.7344 180.07C82.1198 180.461 82.3125 180.958 82.3125 181.562C82.3125 182.062 82.1693 182.51 81.8828 182.906C81.5964 183.302 81.1979 183.615 80.6875 183.844C80.1771 184.073 79.5833 184.188 78.9062 184.188C78.0156 184.188 77.2786 183.992 76.6953 183.602C76.1172 183.211 75.75 182.646 75.5938 181.906L76.8594 181.594C76.9792 182.062 77.2083 182.414 77.5469 182.648C77.8906 182.883 78.3385 183 78.8906 183C79.5104 183 80.0052 182.867 80.375 182.602C80.75 182.331 80.9375 182.01 80.9375 181.641C80.9375 181.026 80.5052 180.615 79.6406 180.406L78.1875 180.062C77.3854 179.87 76.7969 179.576 76.4219 179.18C76.0469 178.784 75.8594 178.286 75.8594 177.688C75.8594 177.193 75.9974 176.755 76.2734 176.375C76.5547 175.995 76.9375 175.698 77.4219 175.484C77.9062 175.266 78.4531 175.156 79.0625 175.156C79.9323 175.156 80.612 175.349 81.1016 175.734C81.5964 176.115 81.9479 176.615 82.1562 177.234ZM87 184H85.5156L89.7969 172.359H91.25L95.5156 184H94.0469L90.5625 174.203H90.4688L87 184ZM87.5469 179.453H93.5V180.703H87.5469V179.453ZM97.4844 172.359V184H96.0781V172.359H97.4844ZM102.297 184V172.359H109.281V173.609H103.703V177.672H108.75V178.922H103.703V184H102.297ZM115.219 180.438V175.266H116.547V184H115.219V182.516H115.125C114.917 182.958 114.596 183.336 114.164 183.648C113.737 183.961 113.193 184.115 112.531 184.109C111.984 184.109 111.5 183.992 111.078 183.758C110.656 183.518 110.323 183.154 110.078 182.664C109.839 182.174 109.719 181.557 109.719 180.812V175.266H111.047V180.734C111.047 181.365 111.227 181.87 111.586 182.25C111.951 182.63 112.411 182.818 112.969 182.812C113.302 182.812 113.641 182.729 113.984 182.562C114.333 182.391 114.625 182.13 114.859 181.781C115.099 181.427 115.219 180.979 115.219 180.438ZM123.938 177.234L122.734 177.562C122.62 177.266 122.422 176.984 122.141 176.719C121.865 176.448 121.432 176.312 120.844 176.312C120.312 176.312 119.87 176.438 119.516 176.688C119.161 176.932 118.984 177.24 118.984 177.609C118.984 177.943 119.104 178.208 119.344 178.406C119.589 178.604 119.969 178.766 120.484 178.891L121.781 179.203C122.557 179.391 123.135 179.68 123.516 180.07C123.901 180.461 124.094 180.958 124.094 181.562C124.094 182.062 123.951 182.51 123.664 182.906C123.378 183.302 122.979 183.615 122.469 183.844C121.958 184.073 121.365 184.188 120.688 184.188C119.797 184.188 119.06 183.992 118.477 183.602C117.898 183.211 117.531 182.646 117.375 181.906L118.641 181.594C118.76 182.062 118.99 182.414 119.328 182.648C119.672 182.883 120.12 183 120.672 183C121.292 183 121.786 182.867 122.156 182.602C122.531 182.331 122.719 182.01 122.719 181.641C122.719 181.026 122.286 180.615 121.422 180.406L119.969 180.062C119.167 179.87 118.578 179.576 118.203 179.18C117.828 178.784 117.641 178.286 117.641 177.688C117.641 177.193 117.779 176.755 118.055 176.375C118.336 175.995 118.719 175.698 119.203 175.484C119.688 175.266 120.234 175.156 120.844 175.156C121.714 175.156 122.393 175.349 122.883 175.734C123.378 176.115 123.729 176.615 123.938 177.234ZM124.875 184V175.266H126.203V184H124.875ZM125.547 173.812C125.286 173.812 125.062 173.724 124.875 173.547C124.688 173.37 124.594 173.156 124.594 172.906C124.594 172.656 124.688 172.443 124.875 172.266C125.062 172.089 125.286 172 125.547 172C125.807 172 126.031 172.089 126.219 172.266C126.406 172.443 126.5 172.656 126.5 172.906C126.5 173.156 126.406 173.37 126.219 173.547C126.031 173.724 125.807 173.812 125.547 173.812ZM130.953 184.188C130.167 184.188 129.477 184 128.883 183.625C128.289 183.25 127.826 182.724 127.492 182.047C127.164 181.37 127 180.583 127 179.688C127 178.776 127.164 177.982 127.492 177.305C127.826 176.622 128.289 176.094 128.883 175.719C129.477 175.344 130.167 175.156 130.953 175.156C131.745 175.156 132.438 175.344 133.031 175.719C133.625 176.094 134.089 176.622 134.422 177.305C134.755 177.982 134.922 178.776 134.922 179.688C134.922 180.583 134.755 181.37 134.422 182.047C134.089 182.724 133.625 183.25 133.031 183.625C132.438 184 131.745 184.188 130.953 184.188ZM130.953 182.984C131.557 182.984 132.052 182.831 132.438 182.523C132.823 182.216 133.109 181.812 133.297 181.312C133.484 180.807 133.578 180.266 133.578 179.688C133.578 179.099 133.484 178.552 133.297 178.047C133.109 177.542 132.823 177.135 132.438 176.828C132.052 176.516 131.557 176.359 130.953 176.359C130.359 176.359 129.87 176.516 129.484 176.828C129.099 177.135 128.812 177.542 128.625 178.047C128.438 178.552 128.344 179.099 128.344 179.688C128.344 180.266 128.438 180.807 128.625 181.312C128.812 181.812 129.099 182.216 129.484 182.523C129.87 182.831 130.359 182.984 130.953 182.984ZM137.047 178.75V184H135.719V175.266H137V176.641H137.125C137.328 176.193 137.638 175.833 138.055 175.562C138.471 175.292 139.01 175.156 139.672 175.156C140.26 175.156 140.776 175.276 141.219 175.516C141.661 175.755 142.005 176.12 142.25 176.609C142.5 177.094 142.625 177.708 142.625 178.453V184H141.297V178.547C141.297 177.865 141.117 177.331 140.758 176.945C140.398 176.555 139.909 176.359 139.289 176.359C138.862 176.359 138.479 176.453 138.141 176.641C137.802 176.828 137.534 177.099 137.336 177.453C137.143 177.807 137.047 178.24 137.047 178.75ZM147.75 184H146.266L150.547 172.359H152L156.266 184H154.797L151.312 174.203H151.219L147.75 184ZM148.297 179.453H154.25V180.703H148.297V179.453ZM160.188 184.188C159.375 184.188 158.672 183.995 158.078 183.609C157.49 183.219 157.034 182.685 156.711 182.008C156.393 181.331 156.234 180.557 156.234 179.688C156.234 178.797 156.398 178.013 156.727 177.336C157.055 176.654 157.513 176.12 158.102 175.734C158.695 175.349 159.385 175.156 160.172 175.156C160.786 175.156 161.339 175.271 161.828 175.5C162.323 175.724 162.727 176.042 163.039 176.453C163.357 176.865 163.552 177.344 163.625 177.891H162.281C162.214 177.625 162.091 177.375 161.914 177.141C161.737 176.906 161.503 176.719 161.211 176.578C160.924 176.432 160.583 176.359 160.188 176.359C159.667 176.359 159.211 176.495 158.82 176.766C158.43 177.036 158.125 177.419 157.906 177.914C157.688 178.404 157.578 178.979 157.578 179.641C157.578 180.312 157.685 180.901 157.898 181.406C158.112 181.906 158.414 182.294 158.805 182.57C159.201 182.846 159.661 182.984 160.188 182.984C160.714 182.984 161.164 182.849 161.539 182.578C161.914 182.302 162.161 181.927 162.281 181.453H163.625C163.552 181.969 163.365 182.432 163.062 182.844C162.766 183.255 162.372 183.583 161.883 183.828C161.398 184.068 160.833 184.188 160.188 184.188ZM164.391 184V175.266H165.672V176.594H165.766C165.927 176.161 166.216 175.812 166.633 175.547C167.055 175.276 167.526 175.141 168.047 175.141C168.146 175.141 168.268 175.143 168.414 175.148C168.56 175.148 168.672 175.151 168.75 175.156V176.516C168.703 176.505 168.599 176.49 168.438 176.469C168.276 176.448 168.104 176.438 167.922 176.438C167.5 176.438 167.122 176.526 166.789 176.703C166.456 176.88 166.193 177.122 166 177.43C165.812 177.737 165.719 178.089 165.719 178.484V184H164.391ZM172.359 184.188C171.573 184.188 170.883 184 170.289 183.625C169.695 183.25 169.232 182.724 168.898 182.047C168.57 181.37 168.406 180.583 168.406 179.688C168.406 178.776 168.57 177.982 168.898 177.305C169.232 176.622 169.695 176.094 170.289 175.719C170.883 175.344 171.573 175.156 172.359 175.156C173.151 175.156 173.844 175.344 174.438 175.719C175.031 176.094 175.495 176.622 175.828 177.305C176.161 177.982 176.328 178.776 176.328 179.688C176.328 180.583 176.161 181.37 175.828 182.047C175.495 182.724 175.031 183.25 174.438 183.625C173.844 184 173.151 184.188 172.359 184.188ZM172.359 182.984C172.964 182.984 173.458 182.831 173.844 182.523C174.229 182.216 174.516 181.812 174.703 181.312C174.891 180.807 174.984 180.266 174.984 179.688C174.984 179.099 174.891 178.552 174.703 178.047C174.516 177.542 174.229 177.135 173.844 176.828C173.458 176.516 172.964 176.359 172.359 176.359C171.766 176.359 171.276 176.516 170.891 176.828C170.505 177.135 170.219 177.542 170.031 178.047C169.844 178.552 169.75 179.099 169.75 179.688C169.75 180.266 169.844 180.807 170.031 181.312C170.219 181.812 170.505 182.216 170.891 182.523C171.276 182.831 171.766 182.984 172.359 182.984ZM183.297 177.234L182.094 177.562C181.979 177.266 181.781 176.984 181.5 176.719C181.224 176.448 180.792 176.312 180.203 176.312C179.672 176.312 179.229 176.438 178.875 176.688C178.521 176.932 178.344 177.24 178.344 177.609C178.344 177.943 178.464 178.208 178.703 178.406C178.948 178.604 179.328 178.766 179.844 178.891L181.141 179.203C181.917 179.391 182.495 179.68 182.875 180.07C183.26 180.461 183.453 180.958 183.453 181.562C183.453 182.062 183.31 182.51 183.023 182.906C182.737 183.302 182.339 183.615 181.828 183.844C181.318 184.073 180.724 184.188 180.047 184.188C179.156 184.188 178.419 183.992 177.836 183.602C177.258 183.211 176.891 182.646 176.734 181.906L178 181.594C178.12 182.062 178.349 182.414 178.688 182.648C179.031 182.883 179.479 183 180.031 183C180.651 183 181.146 182.867 181.516 182.602C181.891 182.331 182.078 182.01 182.078 181.641C182.078 181.026 181.646 180.615 180.781 180.406L179.328 180.062C178.526 179.87 177.938 179.576 177.562 179.18C177.188 178.784 177 178.286 177 177.688C177 177.193 177.138 176.755 177.414 176.375C177.695 175.995 178.078 175.698 178.562 175.484C179.047 175.266 179.594 175.156 180.203 175.156C181.073 175.156 181.753 175.349 182.242 175.734C182.737 176.115 183.089 176.615 183.297 177.234ZM190.406 177.234L189.203 177.562C189.089 177.266 188.891 176.984 188.609 176.719C188.333 176.448 187.901 176.312 187.312 176.312C186.781 176.312 186.339 176.438 185.984 176.688C185.63 176.932 185.453 177.24 185.453 177.609C185.453 177.943 185.573 178.208 185.812 178.406C186.057 178.604 186.438 178.766 186.953 178.891L188.25 179.203C189.026 179.391 189.604 179.68 189.984 180.07C190.37 180.461 190.562 180.958 190.562 181.562C190.562 182.062 190.419 182.51 190.133 182.906C189.846 183.302 189.448 183.615 188.938 183.844C188.427 184.073 187.833 184.188 187.156 184.188C186.266 184.188 185.529 183.992 184.945 183.602C184.367 183.211 184 182.646 183.844 181.906L185.109 181.594C185.229 182.062 185.458 182.414 185.797 182.648C186.141 182.883 186.589 183 187.141 183C187.76 183 188.255 182.867 188.625 182.602C189 182.331 189.188 182.01 189.188 181.641C189.188 181.026 188.755 180.615 187.891 180.406L186.438 180.062C185.635 179.87 185.047 179.576 184.672 179.18C184.297 178.784 184.109 178.286 184.109 177.688C184.109 177.193 184.247 176.755 184.523 176.375C184.805 175.995 185.188 175.698 185.672 175.484C186.156 175.266 186.703 175.156 187.312 175.156C188.182 175.156 188.862 175.349 189.352 175.734C189.846 176.115 190.198 176.615 190.406 177.234ZM193.766 172.359H195.375L198.609 177.797H198.75L201.969 172.359H203.594L199.375 179.203V184H197.969V179.203L193.766 172.359ZM206.281 184.188C205.495 184.188 204.805 184 204.211 183.625C203.617 183.25 203.154 182.724 202.82 182.047C202.492 181.37 202.328 180.583 202.328 179.688C202.328 178.776 202.492 177.982 202.82 177.305C203.154 176.622 203.617 176.094 204.211 175.719C204.805 175.344 205.495 175.156 206.281 175.156C207.073 175.156 207.766 175.344 208.359 175.719C208.953 176.094 209.417 176.622 209.75 177.305C210.083 177.982 210.25 178.776 210.25 179.688C210.25 180.583 210.083 181.37 209.75 182.047C209.417 182.724 208.953 183.25 208.359 183.625C207.766 184 207.073 184.188 206.281 184.188ZM206.281 182.984C206.885 182.984 207.38 182.831 207.766 182.523C208.151 182.216 208.438 181.812 208.625 181.312C208.812 180.807 208.906 180.266 208.906 179.688C208.906 179.099 208.812 178.552 208.625 178.047C208.438 177.542 208.151 177.135 207.766 176.828C207.38 176.516 206.885 176.359 206.281 176.359C205.688 176.359 205.198 176.516 204.812 176.828C204.427 177.135 204.141 177.542 203.953 178.047C203.766 178.552 203.672 179.099 203.672 179.688C203.672 180.266 203.766 180.807 203.953 181.312C204.141 181.812 204.427 182.216 204.812 182.523C205.198 182.831 205.688 182.984 206.281 182.984ZM216.547 180.438V175.266H217.875V184H216.547V182.516H216.453C216.245 182.958 215.924 183.336 215.492 183.648C215.065 183.961 214.521 184.115 213.859 184.109C213.312 184.109 212.828 183.992 212.406 183.758C211.984 183.518 211.651 183.154 211.406 182.664C211.167 182.174 211.047 181.557 211.047 180.812V175.266H212.375V180.734C212.375 181.365 212.555 181.87 212.914 182.25C213.279 182.63 213.74 182.818 214.297 182.812C214.63 182.812 214.969 182.729 215.312 182.562C215.661 182.391 215.953 182.13 216.188 181.781C216.427 181.427 216.547 180.979 216.547 180.438ZM219.094 184V175.266H220.375V176.594H220.469C220.63 176.161 220.919 175.812 221.336 175.547C221.758 175.276 222.229 175.141 222.75 175.141C222.849 175.141 222.971 175.143 223.117 175.148C223.263 175.148 223.375 175.151 223.453 175.156V176.516C223.406 176.505 223.302 176.49 223.141 176.469C222.979 176.448 222.807 176.438 222.625 176.438C222.203 176.438 221.826 176.526 221.492 176.703C221.159 176.88 220.896 177.122 220.703 177.43C220.516 177.737 220.422 178.089 220.422 178.484V184H219.094ZM24.625 204H21.8281V202.75H24.5312C25.4948 202.75 26.2917 202.565 26.9219 202.195C27.5573 201.826 28.0312 201.297 28.3438 200.609C28.6562 199.922 28.8125 199.104 28.8125 198.156C28.8125 197.219 28.6589 196.411 28.3516 195.734C28.0443 195.052 27.5833 194.529 26.9688 194.164C26.3594 193.794 25.599 193.609 24.6875 193.609H21.7656V192.359H24.7812C25.9115 192.359 26.8776 192.591 27.6797 193.055C28.487 193.518 29.1042 194.185 29.5312 195.055C29.9583 195.919 30.1719 196.953 30.1719 198.156C30.1719 199.37 29.9557 200.414 29.5234 201.289C29.0911 202.159 28.4609 202.828 27.6328 203.297C26.8099 203.766 25.8073 204 24.625 204ZM22.4375 192.359V204H21.0312V192.359H22.4375ZM31.1094 204V195.266H32.4375V204H31.1094ZM31.7812 193.812C31.5208 193.812 31.2969 193.724 31.1094 193.547C30.9219 193.37 30.8281 193.156 30.8281 192.906C30.8281 192.656 30.9219 192.443 31.1094 192.266C31.2969 192.089 31.5208 192 31.7812 192C32.0417 192 32.2656 192.089 32.4531 192.266C32.6406 192.443 32.7344 192.656 32.7344 192.906C32.7344 193.156 32.6406 193.37 32.4531 193.547C32.2656 193.724 32.0417 193.812 31.7812 193.812ZM37.1719 207.453C36.1979 207.453 35.4271 207.276 34.8594 206.922C34.2969 206.568 33.8802 206.161 33.6094 205.703L34.6719 204.953C34.7917 205.115 34.9453 205.297 35.1328 205.5C35.3203 205.708 35.5755 205.888 35.8984 206.039C36.2214 206.19 36.6458 206.266 37.1719 206.266C37.875 206.266 38.4557 206.096 38.9141 205.758C39.3776 205.419 39.6094 204.885 39.6094 204.156V202.391H39.4844C39.3906 202.547 39.2526 202.742 39.0703 202.977C38.8932 203.206 38.6354 203.411 38.2969 203.594C37.9635 203.771 37.5104 203.859 36.9375 203.859C36.2344 203.859 35.6042 203.693 35.0469 203.359C34.4896 203.026 34.0469 202.542 33.7188 201.906C33.3958 201.271 33.2344 200.5 33.2344 199.594C33.2344 198.698 33.3906 197.919 33.7031 197.258C34.0208 196.591 34.4609 196.076 35.0234 195.711C35.5859 195.341 36.2344 195.156 36.9688 195.156C37.5365 195.156 37.987 195.25 38.3203 195.438C38.6589 195.625 38.9167 195.839 39.0938 196.078C39.276 196.312 39.4167 196.505 39.5156 196.656H39.6562V195.266H40.9375V204.25C40.9375 205 40.7682 205.609 40.4297 206.078C40.0964 206.552 39.6432 206.898 39.0703 207.117C38.5026 207.341 37.8698 207.453 37.1719 207.453ZM37.125 202.656C37.9323 202.656 38.5495 202.383 38.9766 201.836C39.4089 201.289 39.625 200.531 39.625 199.562C39.625 198.932 39.5312 198.378 39.3438 197.898C39.1562 197.419 38.875 197.044 38.5 196.773C38.1302 196.497 37.6719 196.359 37.125 196.359C36.5573 196.359 36.0833 196.505 35.7031 196.797C35.3281 197.083 35.0469 197.469 34.8594 197.953C34.6719 198.438 34.5781 198.974 34.5781 199.562C34.5781 200.167 34.6719 200.703 34.8594 201.172C35.0521 201.635 35.3385 202 35.7188 202.266C36.099 202.526 36.5677 202.656 37.125 202.656ZM42.1562 204V195.266H43.4844V204H42.1562ZM42.8281 193.812C42.5677 193.812 42.3438 193.724 42.1562 193.547C41.9688 193.37 41.875 193.156 41.875 192.906C41.875 192.656 41.9688 192.443 42.1562 192.266C42.3438 192.089 42.5677 192 42.8281 192C43.0885 192 43.3125 192.089 43.5 192.266C43.6875 192.443 43.7812 192.656 43.7812 192.906C43.7812 193.156 43.6875 193.37 43.5 193.547C43.3125 193.724 43.0885 193.812 42.8281 193.812ZM48.4844 195.266V196.406H43.9688V195.266H48.4844ZM45.2812 193.188H46.6094V201.5C46.6094 201.953 46.7031 202.286 46.8906 202.5C47.0781 202.708 47.375 202.812 47.7812 202.812C47.8698 202.812 47.9609 202.807 48.0547 202.797C48.1536 202.786 48.2604 202.771 48.375 202.75L48.6562 203.953C48.5312 204 48.3776 204.036 48.1953 204.062C48.0182 204.094 47.8385 204.109 47.6562 204.109C46.9531 204.109 46.3802 203.901 45.9375 203.484C45.5 203.068 45.2812 202.526 45.2812 201.859V193.188ZM51.8281 204.203C51.276 204.203 50.7734 204.099 50.3203 203.891C49.8672 203.677 49.5078 203.37 49.2422 202.969C48.9766 202.568 48.8438 202.083 48.8438 201.516C48.8438 201.016 48.9427 200.612 49.1406 200.305C49.3385 199.992 49.6016 199.747 49.9297 199.57C50.263 199.388 50.6276 199.253 51.0234 199.164C51.4245 199.076 51.8281 199.005 52.2344 198.953C52.7656 198.885 53.1953 198.833 53.5234 198.797C53.8568 198.76 54.099 198.698 54.25 198.609C54.4062 198.521 54.4844 198.37 54.4844 198.156V198.109C54.4844 197.552 54.3307 197.12 54.0234 196.812C53.7214 196.5 53.2604 196.344 52.6406 196.344C52.0052 196.344 51.5052 196.484 51.1406 196.766C50.776 197.042 50.5208 197.339 50.375 197.656L49.0938 197.203C49.3229 196.672 49.6276 196.258 50.0078 195.961C50.3932 195.664 50.8099 195.456 51.2578 195.336C51.7109 195.216 52.1562 195.156 52.5938 195.156C52.875 195.156 53.1979 195.19 53.5625 195.258C53.9271 195.32 54.2812 195.456 54.625 195.664C54.974 195.867 55.2604 196.177 55.4844 196.594C55.7135 197.005 55.8281 197.557 55.8281 198.25V204H54.4844V202.812H54.4219C54.3333 203 54.1823 203.203 53.9688 203.422C53.7552 203.635 53.4714 203.82 53.1172 203.977C52.7682 204.128 52.3385 204.203 51.8281 204.203ZM52.0312 203C52.5625 203 53.0104 202.896 53.375 202.688C53.7396 202.479 54.0156 202.211 54.2031 201.883C54.3906 201.549 54.4844 201.203 54.4844 200.844V199.609C54.4271 199.677 54.3021 199.74 54.1094 199.797C53.9219 199.849 53.7031 199.896 53.4531 199.938C53.2083 199.979 52.9688 200.016 52.7344 200.047C52.5 200.073 52.3125 200.094 52.1719 200.109C51.8229 200.156 51.4974 200.232 51.1953 200.336C50.8932 200.435 50.6484 200.583 50.4609 200.781C50.2786 200.979 50.1875 201.25 50.1875 201.594C50.1875 202.057 50.3594 202.409 50.7031 202.648C51.0521 202.883 51.4948 203 52.0312 203ZM58.375 192.359V204H57.0469V192.359H58.375ZM63.0156 204V192.359H70.0469V193.609H64.4219V197.5H69.6719V198.75H64.4219V202.75H70.125V204H63.0156ZM74.6875 204.188C73.875 204.188 73.1719 203.995 72.5781 203.609C71.9896 203.219 71.5339 202.685 71.2109 202.008C70.8932 201.331 70.7344 200.557 70.7344 199.688C70.7344 198.797 70.8984 198.013 71.2266 197.336C71.5547 196.654 72.013 196.12 72.6016 195.734C73.1953 195.349 73.8854 195.156 74.6719 195.156C75.2865 195.156 75.8385 195.271 76.3281 195.5C76.8229 195.724 77.2266 196.042 77.5391 196.453C77.8568 196.865 78.0521 197.344 78.125 197.891H76.7812C76.7135 197.625 76.5911 197.375 76.4141 197.141C76.237 196.906 76.0026 196.719 75.7109 196.578C75.4245 196.432 75.0833 196.359 74.6875 196.359C74.1667 196.359 73.7109 196.495 73.3203 196.766C72.9297 197.036 72.625 197.419 72.4062 197.914C72.1875 198.404 72.0781 198.979 72.0781 199.641C72.0781 200.312 72.1849 200.901 72.3984 201.406C72.612 201.906 72.9141 202.294 73.3047 202.57C73.7005 202.846 74.1615 202.984 74.6875 202.984C75.2135 202.984 75.6641 202.849 76.0391 202.578C76.4141 202.302 76.6615 201.927 76.7812 201.453H78.125C78.0521 201.969 77.8646 202.432 77.5625 202.844C77.2656 203.255 76.8724 203.583 76.3828 203.828C75.8984 204.068 75.3333 204.188 74.6875 204.188ZM82.4219 204.188C81.6354 204.188 80.9453 204 80.3516 203.625C79.7578 203.25 79.2943 202.724 78.9609 202.047C78.6328 201.37 78.4688 200.583 78.4688 199.688C78.4688 198.776 78.6328 197.982 78.9609 197.305C79.2943 196.622 79.7578 196.094 80.3516 195.719C80.9453 195.344 81.6354 195.156 82.4219 195.156C83.2135 195.156 83.9062 195.344 84.5 195.719C85.0938 196.094 85.5573 196.622 85.8906 197.305C86.224 197.982 86.3906 198.776 86.3906 199.688C86.3906 200.583 86.224 201.37 85.8906 202.047C85.5573 202.724 85.0938 203.25 84.5 203.625C83.9062 204 83.2135 204.188 82.4219 204.188ZM82.4219 202.984C83.026 202.984 83.5208 202.831 83.9062 202.523C84.2917 202.216 84.5781 201.812 84.7656 201.312C84.9531 200.807 85.0469 200.266 85.0469 199.688C85.0469 199.099 84.9531 198.552 84.7656 198.047C84.5781 197.542 84.2917 197.135 83.9062 196.828C83.5208 196.516 83.026 196.359 82.4219 196.359C81.8281 196.359 81.3385 196.516 80.9531 196.828C80.5677 197.135 80.2812 197.542 80.0938 198.047C79.9062 198.552 79.8125 199.099 79.8125 199.688C79.8125 200.266 79.9062 200.807 80.0938 201.312C80.2812 201.812 80.5677 202.216 80.9531 202.523C81.3385 202.831 81.8281 202.984 82.4219 202.984ZM93.3594 197.234L92.1562 197.562C92.0417 197.266 91.8438 196.984 91.5625 196.719C91.2865 196.448 90.8542 196.312 90.2656 196.312C89.7344 196.312 89.2917 196.438 88.9375 196.688C88.5833 196.932 88.4062 197.24 88.4062 197.609C88.4062 197.943 88.526 198.208 88.7656 198.406C89.0104 198.604 89.3906 198.766 89.9062 198.891L91.2031 199.203C91.9792 199.391 92.5573 199.68 92.9375 200.07C93.3229 200.461 93.5156 200.958 93.5156 201.562C93.5156 202.062 93.3724 202.51 93.0859 202.906C92.7995 203.302 92.401 203.615 91.8906 203.844C91.3802 204.073 90.7865 204.188 90.1094 204.188C89.2188 204.188 88.4818 203.992 87.8984 203.602C87.3203 203.211 86.9531 202.646 86.7969 201.906L88.0625 201.594C88.1823 202.062 88.4115 202.414 88.75 202.648C89.0938 202.883 89.5417 203 90.0938 203C90.7135 203 91.2083 202.867 91.5781 202.602C91.9531 202.331 92.1406 202.01 92.1406 201.641C92.1406 201.026 91.7083 200.615 90.8438 200.406L89.3906 200.062C88.5885 199.87 88 199.576 87.625 199.18C87.25 198.784 87.0625 198.286 87.0625 197.688C87.0625 197.193 87.2005 196.755 87.4766 196.375C87.7578 195.995 88.1406 195.698 88.625 195.484C89.1094 195.266 89.6562 195.156 90.2656 195.156C91.1354 195.156 91.8151 195.349 92.3047 195.734C92.7995 196.115 93.151 196.615 93.3594 197.234ZM95.1562 207.266C94.9271 207.271 94.724 207.255 94.5469 207.219C94.3698 207.182 94.2448 207.146 94.1719 207.109L94.5156 205.938L94.6484 205.969C95.0964 206.073 95.4714 206.049 95.7734 205.898C96.0807 205.753 96.349 205.365 96.5781 204.734L96.8281 204.047L93.6094 195.266H95.0625L97.4688 202.234H97.5625L99.9688 195.266H101.422L97.7188 205.266C97.5521 205.719 97.3464 206.094 97.1016 206.391C96.8568 206.688 96.5729 206.906 96.25 207.047C95.9271 207.193 95.5625 207.266 95.1562 207.266ZM108.125 197.234L106.922 197.562C106.807 197.266 106.609 196.984 106.328 196.719C106.052 196.448 105.62 196.312 105.031 196.312C104.5 196.312 104.057 196.438 103.703 196.688C103.349 196.932 103.172 197.24 103.172 197.609C103.172 197.943 103.292 198.208 103.531 198.406C103.776 198.604 104.156 198.766 104.672 198.891L105.969 199.203C106.745 199.391 107.323 199.68 107.703 200.07C108.089 200.461 108.281 200.958 108.281 201.562C108.281 202.062 108.138 202.51 107.852 202.906C107.565 203.302 107.167 203.615 106.656 203.844C106.146 204.073 105.552 204.188 104.875 204.188C103.984 204.188 103.247 203.992 102.664 203.602C102.086 203.211 101.719 202.646 101.562 201.906L102.828 201.594C102.948 202.062 103.177 202.414 103.516 202.648C103.859 202.883 104.307 203 104.859 203C105.479 203 105.974 202.867 106.344 202.602C106.719 202.331 106.906 202.01 106.906 201.641C106.906 201.026 106.474 200.615 105.609 200.406L104.156 200.062C103.354 199.87 102.766 199.576 102.391 199.18C102.016 198.784 101.828 198.286 101.828 197.688C101.828 197.193 101.966 196.755 102.242 196.375C102.523 195.995 102.906 195.698 103.391 195.484C103.875 195.266 104.422 195.156 105.031 195.156C105.901 195.156 106.581 195.349 107.07 195.734C107.565 196.115 107.917 196.615 108.125 197.234ZM112.844 195.266V196.406H108.328V195.266H112.844ZM109.641 193.188H110.969V201.5C110.969 201.953 111.062 202.286 111.25 202.5C111.438 202.708 111.734 202.812 112.141 202.812C112.229 202.812 112.32 202.807 112.414 202.797C112.513 202.786 112.62 202.771 112.734 202.75L113.016 203.953C112.891 204 112.737 204.036 112.555 204.062C112.378 204.094 112.198 204.109 112.016 204.109C111.312 204.109 110.74 203.901 110.297 203.484C109.859 203.068 109.641 202.526 109.641 201.859V193.188ZM117.188 204.188C116.349 204.188 115.622 204 115.008 203.625C114.398 203.25 113.93 202.727 113.602 202.055C113.273 201.378 113.109 200.594 113.109 199.703C113.109 198.807 113.271 198.018 113.594 197.336C113.917 196.654 114.37 196.12 114.953 195.734C115.542 195.349 116.229 195.156 117.016 195.156C117.469 195.156 117.919 195.232 118.367 195.383C118.815 195.534 119.221 195.779 119.586 196.117C119.956 196.456 120.25 196.904 120.469 197.461C120.688 198.018 120.797 198.703 120.797 199.516V200.094H114.062V198.938H120.07L119.453 199.375C119.453 198.792 119.362 198.273 119.18 197.82C118.997 197.367 118.724 197.01 118.359 196.75C118 196.49 117.552 196.359 117.016 196.359C116.479 196.359 116.018 196.492 115.633 196.758C115.253 197.018 114.961 197.359 114.758 197.781C114.555 198.203 114.453 198.656 114.453 199.141V199.906C114.453 200.568 114.568 201.128 114.797 201.586C115.026 202.044 115.346 202.393 115.758 202.633C116.169 202.867 116.646 202.984 117.188 202.984C117.536 202.984 117.854 202.935 118.141 202.836C118.427 202.732 118.674 202.578 118.883 202.375C119.091 202.167 119.25 201.911 119.359 201.609L120.656 201.984C120.521 202.422 120.292 202.807 119.969 203.141C119.651 203.469 119.255 203.727 118.781 203.914C118.307 204.096 117.776 204.188 117.188 204.188ZM121.562 204V195.266H122.844V196.641H122.969C123.151 196.172 123.445 195.807 123.852 195.547C124.258 195.286 124.745 195.156 125.312 195.156C125.885 195.156 126.362 195.286 126.742 195.547C127.128 195.807 127.427 196.172 127.641 196.641H127.734C127.964 196.188 128.299 195.828 128.742 195.562C129.19 195.292 129.724 195.156 130.344 195.156C131.125 195.156 131.766 195.401 132.266 195.891C132.766 196.375 133.016 197.13 133.016 198.156V204H131.672V198.156C131.672 197.51 131.495 197.049 131.141 196.773C130.786 196.497 130.37 196.359 129.891 196.359C129.281 196.359 128.807 196.547 128.469 196.922C128.135 197.292 127.969 197.755 127.969 198.312V204H126.594V198.016C126.594 197.521 126.435 197.122 126.117 196.82C125.799 196.513 125.385 196.359 124.875 196.359C124.526 196.359 124.201 196.453 123.898 196.641C123.596 196.828 123.352 197.086 123.164 197.414C122.982 197.742 122.891 198.12 122.891 198.547V204H121.562Z" fill="#A9AAA9"/>
</g>
<path d="M8 0V2H307V0V-2H8V0ZM315 8H313V352H315H317V8H315ZM307 360V358H8V360V362H307V360ZM0 352H2V8H0H-2V352H0ZM8 360V358C4.68629 358 2 355.314 2 352H0H-2C-2 357.523 2.47715 362 8 362V360ZM315 352H313C313 355.314 310.314 358 307 358V360V362C312.523 362 317 357.523 317 352H315ZM307 0V2C310.314 2 313 4.68629 313 8H315H317C317 2.47715 312.523 -2 307 -2V0ZM8 0V-2C2.47715 -2 -2 2.47715 -2 8H0H2C2 4.68629 4.68629 2 8 2V0Z" fill="url(#paint0_linear_434_33857)" mask="url(#path-1-inside-1_434_33857)"/>
<defs>
<filter id="filter0_f_434_33857" x="-125" y="-125" width="300" height="300" filterUnits="userSpaceOnUse" color-interpolation-filters="sRGB">
<feFlood flood-opacity="0" result="BackgroundImageFix"/>
<feBlend mode="normal" in="SourceGraphic" in2="BackgroundImageFix" result="shape"/>
<feGaussianBlur stdDeviation="50" result="effect1_foregroundBlur_434_33857"/>
</filter>
<filter id="filter1_f_434_33857" x="140" y="185" width="300" height="300" filterUnits="userSpaceOnUse" color-interpolation-filters="sRGB">
<feFlood flood-opacity="0" result="BackgroundImageFix"/>
<feBlend mode="normal" in="SourceGraphic" in2="BackgroundImageFix" result="shape"/>
<feGaussianBlur stdDeviation="50" result="effect1_foregroundBlur_434_33857"/>
</filter>
<linearGradient id="paint0_linear_434_33857" x1="157.5" y1="0" x2="157.5" y2="360" gradientUnits="userSpaceOnUse">
<stop stop-color="#08537B"/>
<stop offset="1" stop-color="#1D776C"/>
</linearGradient>
<clipPath id="clip0_434_33857">
<path d="M0 8C0 3.58172 3.58172 0 8 0H307C311.418 0 315 3.58172 315 8V352C315 356.418 311.418 360 307 360H8C3.58172 360 0 356.418 0 352V8Z" fill="white"/>
</clipPath>
</defs>
</svg>
