<svg width="32" height="32" viewBox="0 0 32 32" fill="none" xmlns="http://www.w3.org/2000/svg">
<g id="Social Media  Icons">
<path id="Union" d="M20.5756 3.52016C22.8624 3.91506 25.0497 4.60482 27.0893 5.54066C27.1069 5.54828 27.1224 5.561 27.1313 5.57875C30.7449 10.894 32.5289 16.8901 31.8617 23.7926C31.8592 23.8217 31.8445 23.8481 31.8207 23.8659C29.0838 25.8758 26.4323 27.0961 23.8178 27.9049C23.7761 27.9176 23.7307 27.9024 23.7055 27.8668C23.1013 27.0263 22.5522 26.1403 22.0717 25.2096C22.0439 25.155 22.0696 25.0886 22.1264 25.067C22.9977 24.7382 23.8264 24.3444 24.6234 23.8786C24.6863 23.8416 24.6902 23.7518 24.6322 23.7086C24.4632 23.5829 24.2954 23.451 24.1352 23.319C24.105 23.2949 24.0647 23.2899 24.0307 23.3063C18.8555 25.6973 13.1856 25.6973 7.94864 23.3063C7.9146 23.2911 7.8741 23.2959 7.84512 23.32C7.68494 23.452 7.51678 23.5829 7.34903 23.7086C7.29124 23.7519 7.29679 23.8418 7.35977 23.8786C8.15693 24.3357 8.98556 24.7388 9.85586 25.069C9.9124 25.0906 9.93912 25.1551 9.91153 25.2096C9.44108 26.1417 8.89229 27.0282 8.27676 27.8688C8.25027 27.9031 8.20608 27.9176 8.16446 27.9049C5.5624 27.0961 2.91126 25.8759 0.174224 23.8659C0.151603 23.8482 0.134846 23.8207 0.132232 23.7916C-0.425272 17.8212 0.7113 11.7756 4.85977 5.57777C4.86982 5.56128 4.88507 5.54828 4.90274 5.54066C6.94351 4.60361 9.13098 3.91378 11.4164 3.52016C11.4579 3.51403 11.4995 3.53328 11.5209 3.56996C11.8034 4.07023 12.1259 4.71162 12.3441 5.23598C14.7532 4.86777 17.2001 4.86782 19.6596 5.23598C19.8778 4.72299 20.1898 4.07025 20.4711 3.56996C20.4925 3.53195 20.534 3.51264 20.5756 3.52016ZM10.6928 13.7057C9.09121 13.706 7.81794 15.1529 7.81778 16.9303C7.81778 18.7078 9.11629 20.1556 10.6928 20.1559C12.2946 20.1559 13.5688 18.708 13.5688 16.9303C13.5938 15.1655 12.3071 13.7057 10.6928 13.7057ZM21.3266 13.7057C19.7248 13.7057 18.4508 15.1528 18.4506 16.9303C18.4506 18.708 19.7499 20.1559 21.3266 20.1559C22.9409 20.1557 24.2025 18.7079 24.2025 16.9303C24.2276 15.1656 22.9408 13.7059 21.3266 13.7057Z" fill="white"/>
</g>
</svg>
