<svg width="32" height="32" viewBox="0 0 32 32" fill="none" xmlns="http://www.w3.org/2000/svg">
<g id="Social Media  Icons" clip-path="url(#clip0_379_993)">
<path id="Union" d="M16 0C24.8365 0 32.0003 7.16352 32.001 16C32.001 24.1804 25.8619 30.9259 17.9395 31.8828V20.8896H22.2676L23.165 16H17.9395V14.2705C17.9395 11.687 18.953 10.6934 21.5762 10.6934C22.3909 10.6934 23.0472 10.7133 23.4248 10.7529V6.32031C22.7093 6.12192 20.9601 5.92286 19.9463 5.92285C14.5997 5.92285 12.1348 8.44779 12.1348 13.8936V16H8.83594V20.8896H12.1348V31.5293C5.1659 29.8 0 23.5033 0 16C4.10749e-07 7.16352 7.16352 4.10722e-07 16 0Z" fill="white"/>
</g>
<defs>
<clipPath id="clip0_379_993">
<rect width="32" height="32" fill="white"/>
</clipPath>
</defs>
</svg>
