<svg width="32" height="32" viewBox="0 0 32 32" fill="none" xmlns="http://www.w3.org/2000/svg">
<g id="Social Media  Icons" clip-path="url(#clip0_379_999)">
<path id="Union" d="M16 0C20.3434 0 20.8874 0.0183758 22.5996 0.0996094C24.2996 0.174609 25.4627 0.45 26.4814 0.84375C27.5314 1.24999 28.425 1.80005 29.3125 2.6875C30.2062 3.57498 30.7498 4.46878 31.1436 5.53125C31.5373 6.54367 31.8127 7.71232 31.8877 9.41211C31.9627 11.1183 31.9814 11.6625 31.9814 16.0059C31.9814 20.3493 31.9627 20.8937 31.8877 22.5996C31.8127 24.2996 31.5373 25.4627 31.1436 26.4814C30.7373 27.5313 30.1872 28.4251 29.2998 29.3125C28.4123 30.1999 27.5187 30.75 26.4688 31.1562C25.4563 31.55 24.2877 31.8254 22.5879 31.9004C20.8817 31.9754 20.3375 31.9941 15.9941 31.9941C11.6507 31.9941 11.1063 31.9754 9.40039 31.9004C7.70039 31.8254 6.5373 31.55 5.51855 31.1562C4.46863 30.75 3.57495 30.2 2.6875 29.3125C1.79375 28.425 1.25039 27.5309 0.837891 26.4746C0.444184 25.4622 0.168745 24.2936 0.09375 22.5938C0.01875 20.8875 0 20.3438 0 16C1.37214e-09 11.6566 0.0187642 11.1126 0.09375 9.40039C0.16875 7.70039 0.444141 6.5373 0.837891 5.51855C1.25038 4.46869 1.79384 3.57491 2.6875 2.6875C3.575 1.79375 4.46914 1.25039 5.52539 0.837891C6.53784 0.444184 7.70637 0.168745 9.40625 0.09375C11.1125 0.01875 11.6563 5.0314e-09 16 0ZM16 2.88086C11.725 2.88086 11.2184 2.89961 9.53711 2.97461C7.9811 3.04338 7.13081 3.30666 6.56836 3.52539C5.8249 3.81284 5.29379 4.15643 4.73145 4.71875C4.1752 5.275 3.82461 5.81289 3.53711 6.55664C3.3184 7.11914 3.05604 7.96333 2.9873 9.52539C2.91232 11.2063 2.89356 11.7128 2.89355 15.9873C2.89355 20.2561 2.9123 20.7627 2.9873 22.4502C3.05607 24.0063 3.31837 24.8565 3.53711 25.4189C3.82459 26.1626 4.16901 26.6934 4.73145 27.2559C5.28763 27.812 5.82475 28.1627 6.56836 28.4502C7.13081 28.6689 7.97486 28.9312 9.53711 29C11.2184 29.075 11.725 29.0938 16 29.0938C20.2688 29.0938 20.7754 29.075 22.4629 29C24.0189 28.9312 24.8692 28.6689 25.4316 28.4502C26.1752 28.1627 26.7061 27.8183 27.2686 27.2559C27.8247 26.6997 28.1754 26.1626 28.4629 25.4189C28.6816 24.8565 28.9439 24.0126 29.0127 22.4502C29.0877 20.7689 29.1064 20.2623 29.1064 15.9873C29.1064 11.7191 29.0877 11.2125 29.0127 9.52539C28.944 7.96957 28.6816 7.11914 28.4629 6.55664C28.1754 5.81289 27.8311 5.28125 27.2686 4.71875C26.7125 4.16267 26.1751 3.81284 25.4316 3.52539C24.8692 3.30666 24.0252 3.04338 22.4629 2.97461C20.7816 2.89961 20.275 2.88086 16 2.88086ZM16 7.78125C20.5375 7.78125 24.2188 11.4625 24.2188 16C24.2188 20.5375 20.5375 24.2188 16 24.2188C11.4625 24.2188 7.78125 20.5375 7.78125 16C7.78125 11.4625 11.4625 7.78125 16 7.78125ZM16 10.6689C13.0563 10.6689 10.6689 13.0563 10.6689 16C10.6689 18.9438 13.0563 21.3311 16 21.3311C18.9438 21.3311 21.3311 18.9438 21.3311 16C21.3311 13.0563 18.9438 10.6689 16 10.6689ZM24.5439 5.53711C25.6001 5.53722 26.4628 6.39993 26.4629 7.45605C26.4629 8.51849 25.6001 9.3749 24.5439 9.375C23.4814 9.375 22.625 8.51231 22.625 7.45605C22.6251 6.39361 23.4877 5.53711 24.5439 5.53711Z" fill="white"/>
</g>
<defs>
<clipPath id="clip0_379_999">
<rect width="32" height="32" fill="white"/>
</clipPath>
</defs>
</svg>
