<svg width="32" height="32" viewBox="0 0 32 32" fill="none" xmlns="http://www.w3.org/2000/svg">
<g id="Social Media  Icons" clip-path="url(#clip0_379_1004)">
<path id="Union" d="M29.6309 0C30.9371 0 32 1.03164 32 2.30664V29.6934C32 30.9621 30.9371 32 29.6309 32H2.3623C1.05614 31.9999 0 30.9624 0 29.6875V2.30664C0 1.0317 1.05614 0.00010276 2.3623 0H29.6309ZM4.74414 11.9941V27.2686H9.49414V11.9941H4.74414ZM21.5752 11.6123C19.2691 11.6123 17.7192 12.8811 17.0879 14.0811H17.0254V11.9941H12.4746V27.2686H17.2129V19.7188C17.2129 17.725 17.5879 15.7939 20.0566 15.7939C22.4938 15.7942 22.5254 18.0751 22.5254 19.8438V27.2686H27.2686V18.8877C27.2686 14.7752 26.3813 11.6124 21.5752 11.6123ZM7.11914 4.41211C5.59427 4.41211 4.36252 5.64354 4.3623 7.16211C4.3623 8.68086 5.59414 9.91211 7.11914 9.91211C8.63771 9.9119 9.86914 8.67448 9.86914 7.16211C9.86893 5.64367 8.63758 4.41232 7.11914 4.41211Z" fill="white"/>
</g>
<defs>
<clipPath id="clip0_379_1004">
<rect width="32" height="32" fill="white"/>
</clipPath>
</defs>
</svg>
