<svg width="32" height="32" viewBox="0 0 32 32" fill="none" xmlns="http://www.w3.org/2000/svg">
<g id="Social Media  Icons">
<path id="Union" d="M15.9902 0C20.2315 0.00133332 24.2134 1.65312 27.208 4.65039C30.2013 7.64768 31.8489 11.6319 31.8477 15.8691C31.8437 24.6118 24.7302 31.7256 15.9902 31.7256C13.337 31.7242 10.7221 31.0589 8.40625 29.7949L0 32L2.24902 23.7822C0.8612 21.377 0.132456 18.6503 0.133789 15.8545C0.137884 7.11337 7.25049 0.000215452 15.9902 0ZM15.9961 2.67773C8.72678 2.67773 2.81321 8.58978 2.81055 15.8564C2.8093 18.8229 3.67875 21.0443 5.13867 23.3682L3.80664 28.2324L8.7959 26.9238C11.0306 28.2505 13.164 29.0455 15.9854 29.0469C23.2493 29.0468 29.1669 23.1342 29.1709 15.8662C29.1733 8.5838 23.2839 2.68047 15.9961 2.67773ZM11.1357 8.54688C11.3784 8.55888 11.7057 8.45456 12.0283 9.22656C12.3576 10.0197 13.1487 11.9699 13.249 12.168C13.349 12.3666 13.4141 12.5984 13.2822 12.8623C13.1489 13.1276 13.084 13.2932 12.8828 13.5225C12.6841 13.7545 12.4668 14.0404 12.2881 14.2178C12.0908 14.415 11.8838 14.6296 12.1143 15.0254C12.3449 15.4227 13.1412 16.7199 14.3184 17.7705C15.8313 19.1208 17.1085 19.5386 17.5049 19.7373C17.9009 19.936 18.1336 19.9027 18.3643 19.6387C18.5951 19.3745 19.3542 18.4809 19.6182 18.085C19.8835 17.6877 20.1481 17.7547 20.5107 17.8867C20.8751 18.0189 22.8228 18.9771 23.2188 19.1758C23.616 19.3744 23.8798 19.4734 23.9785 19.6387C24.0785 19.804 24.0787 20.5977 23.748 21.5244C23.4171 22.4496 21.8345 23.2949 21.0732 23.4082C20.3906 23.5095 19.5264 23.5523 18.5771 23.251C18.0025 23.0683 17.2637 22.824 16.3184 22.416C12.345 20.7005 9.75078 16.6997 9.55078 16.4336C9.35346 16.1696 7.93374 14.2855 7.93359 12.335C7.93359 10.3843 8.95765 9.42663 9.32031 9.0293C9.68294 8.63212 10.112 8.5332 10.376 8.5332L11.1357 8.54688Z" fill="white"/>
</g>
</svg>
